<?xml version="1.0" encoding="UTF-8" standalone="no"?><!DOCTYPE svg PUBLIC "-//W3C//DTD SVG 1.1//EN" "http://www.w3.org/Graphics/SVG/1.1/DTD/svg11.dtd"><svg width="100%" height="100%" viewBox="0 0 344 426" version="1.1" xmlns="http://www.w3.org/2000/svg" xmlns:xlink="http://www.w3.org/1999/xlink" xml:space="preserve" style="fill-rule:evenodd;clip-rule:evenodd;stroke-linecap:round;stroke-miterlimit:10;"><g id="Others"><g><clipPath id="_clip1"><rect x="-11.845" y="-25.775" width="374.444" height="381.297"/></clipPath><g clip-path="url(#_clip1)"><path d="M83.144,276.187l0,-5.373c1.134,-1.621 2.128,-3.345 2.966,-5.157l0,8.191c-1.154,0.557 -2.167,1.355 -2.966,2.339m-58.033,-2.339l0,-8.188c0.81,1.753 1.765,3.423 2.853,4.998l0,5.395c-0.78,-0.923 -1.753,-1.674 -2.853,-2.205m79.399,-182.565c-0.066,-2.21 -0.254,-4.387 -0.572,-6.519c0.958,-2.932 1.482,-6.061 1.482,-9.314l0,-16.358c0,-16.557 -13.422,-29.981 -29.98,-29.981l-40.461,0c-16.559,0 -29.981,13.424 -29.981,29.981l0,16.358c0,3.79 0.71,7.412 1.994,10.751c-0.205,1.67 -0.335,3.364 -0.387,5.081c-3.876,1.604 -6.605,5.421 -6.605,9.875c0,5.632 4.358,10.237 9.883,10.65c6.153,16.829 20.297,29.41 37.488,32.484l0,4.69c-10.085,1.767 -18.417,6.005 -24.848,12.68c-10.766,11.169 -12.565,25.753 -12.838,31.504l-0.154,3.239l3.203,0l0,82.254c0,0.464 0.056,0.914 0.152,1.348c-0.099,0.524 -0.156,1.063 -0.156,1.615c0,4.771 3.865,8.639 8.637,8.639c2.646,0 5.012,-1.194 6.597,-3.069l0,109.303l1.24,0l0,1.597c-8.012,0 -14.803,3.769 -17.2,8.992c-0.012,0.026 -0.025,0.052 -0.037,0.079c-0.135,0.299 -0.255,0.603 -0.36,0.912c-0.013,0.038 -0.025,0.077 -0.037,0.116c-0.093,0.284 -0.174,0.571 -0.24,0.861c-0.008,0.035 -0.019,0.071 -0.027,0.106c-0.066,0.302 -0.115,0.609 -0.152,0.919c-0.009,0.067 -0.015,0.134 -0.022,0.202c-0.031,0.314 -0.052,0.632 -0.052,0.952l36.256,0c0,-0.253 -0.012,-0.504 -0.032,-0.753l0,-13.983l1.617,0l0,-111.991c1.15,0.233 2.322,0.403 3.51,0.515c0.068,0.006 0.135,0.009 0.201,0.015c0.45,0.04 0.9,0.076 1.354,0.097c0.539,0.028 1.08,0.041 1.626,0.041c2.253,0 4.453,-0.225 6.582,-0.648l0,111.971l1.727,0l0,13.984c-0.019,0.249 -0.031,0.499 -0.031,0.752l36.257,0c0,-0.32 -0.021,-0.638 -0.053,-0.952c-0.007,-0.068 -0.012,-0.135 -0.021,-0.202c-0.037,-0.31 -0.086,-0.616 -0.153,-0.918c-0.007,-0.036 -0.018,-0.073 -0.026,-0.108c-0.067,-0.29 -0.147,-0.575 -0.24,-0.858c-0.013,-0.04 -0.025,-0.08 -0.038,-0.119c-0.105,-0.308 -0.225,-0.611 -0.359,-0.909c-0.012,-0.029 -0.026,-0.056 -0.039,-0.084c-2.398,-5.222 -9.19,-8.989 -17.199,-8.989l0,-1.597l1.128,0l0,-109.437c1.584,1.953 3.999,3.203 6.71,3.203c4.77,0 8.636,-3.868 8.636,-8.639c0,-0.552 -0.057,-1.091 -0.157,-1.615c0.098,-0.434 0.153,-0.884 0.153,-1.348l0,-82.254l3.204,0l-0.155,-3.239c-0.274,-5.751 -2.073,-20.335 -12.837,-31.504c-6.454,-6.699 -14.822,-10.945 -24.953,-12.7l0,-4.67c17.191,-3.075 31.335,-15.656 37.486,-32.484c5.523,-0.414 9.882,-5.018 9.882,-10.65c0,-4.453 -2.729,-8.269 -6.603,-9.874" style="fill:#0f0e1e;fill-rule:nonzero;"/><path d="M199.428,276.187l0,-5.374c1.134,-1.619 2.127,-3.343 2.965,-5.153l0,8.188c-1.153,0.557 -2.166,1.355 -2.965,2.339m-58.034,-2.339l0,-8.188c0.81,1.753 1.765,3.423 2.853,4.998l0,5.396c-0.78,-0.924 -1.753,-1.675 -2.853,-2.206m79.399,-182.566c-0.401,-13.276 -5.475,-25.288 -13.539,-34.251c-3.888,-17.465 -19.465,-30.526 -38.1,-30.526c-21.564,0 -39.043,17.481 -39.043,39.043c0,0.051 0.004,0.1 0.004,0.15c-4.344,7.482 -6.945,16.22 -7.227,25.584c-3.876,1.604 -6.605,5.421 -6.605,9.875c0,5.632 4.359,10.236 9.883,10.65c6.152,16.829 20.296,29.409 37.488,32.484l0,4.691c-10.084,1.767 -18.416,6.005 -24.848,12.679c-10.764,11.169 -12.563,25.753 -12.837,31.504l-0.155,3.239l3.205,0l0,82.254c0,0.463 0.055,0.913 0.151,1.346c-0.099,0.525 -0.157,1.064 -0.157,1.617c0,4.771 3.866,8.639 8.638,8.639c2.646,0 5.012,-1.194 6.596,-3.069l0,109.303l1.24,0l0,1.597c-8.011,0 -14.803,3.769 -17.2,8.992c-0.012,0.026 -0.025,0.052 -0.037,0.079c-0.135,0.299 -0.256,0.603 -0.36,0.912c-0.014,0.038 -0.025,0.077 -0.037,0.115c-0.093,0.284 -0.174,0.571 -0.24,0.862c-0.009,0.035 -0.019,0.071 -0.027,0.106c-0.066,0.302 -0.116,0.61 -0.153,0.919c-0.008,0.067 -0.015,0.134 -0.021,0.202c-0.031,0.314 -0.052,0.632 -0.052,0.952l36.255,0c0,-0.25 -0.011,-0.498 -0.03,-0.744l0,-13.992l1.616,0l0,-111.991c1.15,0.233 2.322,0.403 3.511,0.515c0.065,0.006 0.129,0.009 0.193,0.015c0.452,0.039 0.904,0.076 1.361,0.097c0.539,0.028 1.08,0.041 1.626,0.041c2.253,0 4.453,-0.225 6.583,-0.648l0,111.971l1.726,0l0,13.992c-0.019,0.247 -0.031,0.494 -0.031,0.744l36.257,0c0,-0.32 -0.021,-0.638 -0.053,-0.952c-0.007,-0.068 -0.013,-0.135 -0.021,-0.202c-0.037,-0.31 -0.087,-0.616 -0.153,-0.918c-0.007,-0.036 -0.018,-0.073 -0.027,-0.108c-0.066,-0.29 -0.146,-0.575 -0.239,-0.858c-0.013,-0.04 -0.025,-0.08 -0.038,-0.119c-0.105,-0.308 -0.225,-0.611 -0.359,-0.909c-0.012,-0.029 -0.027,-0.057 -0.04,-0.085c-2.398,-5.221 -9.19,-8.988 -17.199,-8.988l0,-1.597l1.13,0l0,-109.436c1.584,1.952 4,3.202 6.709,3.202c4.77,0 8.638,-3.868 8.638,-8.639c0,-0.553 -0.058,-1.092 -0.158,-1.617c0.097,-0.434 0.153,-0.883 0.153,-1.346l0,-82.254l3.203,0l-0.153,-3.239c-0.276,-5.751 -2.075,-20.335 -12.838,-31.504c-6.454,-6.699 -14.822,-10.945 -24.955,-12.7l0,-4.67c17.191,-3.075 31.336,-15.655 37.487,-32.484c5.524,-0.414 9.881,-5.018 9.881,-10.65c0,-4.454 -2.728,-8.27 -6.602,-9.875" style="fill:#0f0e1e;fill-rule:nonzero;"/><path d="M315.818,276.187l0,-5.374c1.134,-1.619 2.127,-3.343 2.965,-5.153l0,8.188c-1.153,0.557 -2.166,1.355 -2.965,2.339m-58.033,-2.339l0,-8.188c0.81,1.753 1.764,3.423 2.852,4.998l0,5.396c-0.78,-0.924 -1.752,-1.675 -2.852,-2.206m76.119,-162.041c5.524,-0.414 9.882,-5.018 9.882,-10.65c0,-4.454 -2.729,-8.27 -6.603,-9.875c-0.844,-27.961 -22.43,-50.356 -48.953,-50.356c-0.303,0 -0.601,0.019 -0.903,0.025c-4.342,-6.326 -11.623,-10.478 -19.875,-10.478c-13.305,0 -24.09,10.785 -24.09,24.091c0,4.168 1.06,8.089 2.922,11.508c-4.213,7.398 -6.729,16.003 -7.007,25.21c-3.875,1.604 -6.604,5.421 -6.604,9.875c0,5.632 4.359,10.236 9.883,10.65c6.153,16.829 20.296,29.409 37.488,32.484l0,4.691c-10.084,1.767 -18.416,6.004 -24.848,12.679c-10.764,11.169 -12.563,25.753 -12.837,31.504l-0.155,3.239l3.205,0l0,82.254c0,0.463 0.055,0.912 0.151,1.346c-0.099,0.525 -0.157,1.064 -0.157,1.617c0,4.771 3.866,8.639 8.636,8.639c2.648,0 5.014,-1.194 6.598,-3.069l0,109.303l1.24,0l0,1.597c-8.012,0 -14.804,3.769 -17.201,8.992c-0.011,0.026 -0.024,0.052 -0.036,0.079c-0.135,0.299 -0.255,0.603 -0.36,0.912c-0.013,0.038 -0.025,0.077 -0.037,0.115c-0.093,0.284 -0.174,0.571 -0.24,0.862c-0.009,0.035 -0.019,0.071 -0.027,0.106c-0.066,0.302 -0.116,0.61 -0.153,0.919c-0.008,0.067 -0.014,0.134 -0.021,0.202c-0.031,0.314 -0.052,0.632 -0.052,0.952l36.255,0c0,-0.25 -0.011,-0.498 -0.03,-0.744l0,-13.992l1.616,0l0,-111.991c1.151,0.233 2.324,0.403 3.513,0.515c0.06,0.006 0.12,0.008 0.18,0.014c0.456,0.04 0.912,0.077 1.372,0.098c0.539,0.028 1.081,0.041 1.626,0.041c2.253,0 4.453,-0.225 6.583,-0.648l0,111.971l1.726,0l0,13.992c-0.019,0.246 -0.031,0.494 -0.031,0.744l36.257,0c0,-0.32 -0.021,-0.638 -0.053,-0.952c-0.007,-0.068 -0.013,-0.135 -0.021,-0.202c-0.037,-0.309 -0.086,-0.616 -0.153,-0.918c-0.007,-0.036 -0.018,-0.073 -0.027,-0.108c-0.066,-0.29 -0.146,-0.575 -0.239,-0.858c-0.013,-0.04 -0.025,-0.08 -0.038,-0.119c-0.105,-0.308 -0.225,-0.611 -0.359,-0.909c-0.012,-0.029 -0.027,-0.057 -0.04,-0.085c-2.398,-5.221 -9.189,-8.988 -17.199,-8.988l0,-1.597l1.13,0l0,-109.436c1.584,1.952 4,3.202 6.709,3.202c4.771,0 8.636,-3.868 8.636,-8.639c0,-0.552 -0.057,-1.089 -0.156,-1.613c0.097,-0.435 0.153,-0.886 0.153,-1.35l0,-82.254l3.203,0l-0.153,-3.239c-0.276,-5.751 -2.074,-20.335 -12.838,-31.504c-6.454,-6.699 -14.822,-10.945 -24.955,-12.7l0,-4.67c17.191,-3.075 31.336,-15.655 37.487,-32.484" style="fill:#0f0e1e;fill-rule:nonzero;"/><path d="M54.507,355.856l-30.697,0l0,-4.088c0,-6.516 5.282,-11.797 11.798,-11.797l7.102,0c6.516,0 11.797,5.281 11.797,11.797l0,4.088Z" style="fill:#0f0e1e;fill-rule:nonzero;"/><path d="M88.717,355.856l-30.696,0l0,-4.088c0,-6.516 5.281,-11.797 11.797,-11.797l7.102,0c6.516,0 11.797,5.281 11.797,11.797l0,4.088Z" style="fill:#0f0e1e;fill-rule:nonzero;"/><path d="M169.578,355.856l-30.697,0l0,-4.088c0,-6.516 5.282,-11.797 11.797,-11.797l7.103,0c6.515,0 11.797,5.281 11.797,11.797l0,4.088Z" style="fill:#0f0e1e;fill-rule:nonzero;"/><path d="M203.788,355.856l-30.697,0l0,-4.088c0,-6.516 5.282,-11.797 11.797,-11.797l7.103,0c6.515,0 11.797,5.281 11.797,11.797l0,4.088Z" style="fill:#0f0e1e;fill-rule:nonzero;"/><path d="M287.757,355.856l-30.696,0l0,-4.088c0,-6.516 5.281,-11.797 11.797,-11.797l7.102,0c6.516,0 11.797,5.281 11.797,11.797l0,4.088Z" style="fill:#0f0e1e;fill-rule:nonzero;"/><path d="M321.967,355.856l-30.696,0l0,-4.088c0,-6.516 5.281,-11.797 11.797,-11.797l7.102,0c6.516,0 11.797,5.281 11.797,11.797l0,4.088Z" style="fill:#0f0e1e;fill-rule:nonzero;"/></g></g></g><g id="Boy"><path d="M156.126,307.727l-0.133,40.354l-15.346,-0.05l0.133,-40.354l15.346,0.05Z" style="fill:#c19472;"/><path d="M194.557,347.643l-15.346,0.025l-0.065,-39.954l15.346,-0.025l0.065,39.954Z" style="fill:#c19472;"/><path d="M125.317,263.174c-0.738,2.789 -1.049,5.72 -0.913,8.626c0.049,1.046 0.345,2.338 1.258,2.537c1.009,0.222 1.713,-1.1 1.97,-2.222c0.066,1.912 0.551,3.802 1.4,5.458c0.534,1.043 1.286,2.05 2.322,2.346c1.035,0.296 2.335,-0.461 2.372,-1.664c0.418,0.898 1.051,1.935 1.945,1.825c0.998,-0.121 1.364,-1.518 1.494,-2.638c0.581,-5.021 1.163,-10.09 0.756,-15.131c-0.031,-0.389 -0.079,-0.806 -0.312,-1.095c-0.305,-0.378 -0.813,-0.411 -1.267,-0.417c-1.85,-0.023 -3.702,-0.047 -5.552,-0.071c-1.566,-0.02 -3.333,0.053 -4.388,1.356" style="fill:#c19472;fill-rule:nonzero;"/><path d="M212.375,263.174c0.738,2.789 1.049,5.72 0.912,8.626c-0.049,1.046 -0.345,2.338 -1.257,2.537c-1.009,0.222 -1.713,-1.1 -1.97,-2.222c-0.066,1.912 -0.551,3.802 -1.4,5.458c-0.534,1.043 -1.287,2.05 -2.322,2.346c-1.036,0.296 -2.336,-0.461 -2.373,-1.664c-0.417,0.898 -1.05,1.935 -1.944,1.825c-0.999,-0.121 -1.364,-1.518 -1.494,-2.638c-0.581,-5.021 -1.164,-10.09 -0.756,-15.131c0.031,-0.389 0.079,-0.806 0.312,-1.095c0.304,-0.378 0.813,-0.411 1.266,-0.417c1.851,-0.023 3.703,-0.047 5.553,-0.071c1.566,-0.02 3.332,0.053 4.388,1.356" style="fill:#c19472;fill-rule:nonzero;"/><path d="M189.382,262.551c-0.738,2.789 -1.048,5.72 -0.912,8.626c0.049,1.046 0.345,2.338 1.258,2.538c1.008,0.221 1.712,-1.101 1.97,-2.223c0.066,1.912 0.55,3.803 1.4,5.458c0.534,1.043 1.286,2.05 2.321,2.346c1.036,0.296 2.336,-0.461 2.373,-1.664c0.418,0.898 1.051,1.935 1.945,1.825c0.998,-0.121 1.363,-1.518 1.493,-2.638c0.582,-5.021 1.164,-10.09 0.756,-15.131c-0.031,-0.389 -0.079,-0.806 -0.311,-1.095c-0.305,-0.378 -0.814,-0.411 -1.267,-0.417c-1.851,-0.023 -3.702,-0.047 -5.553,-0.071c-1.566,-0.02 -3.332,0.053 -4.387,1.356" style="fill:#c19472;fill-rule:nonzero;"/><path d="M208.859,201.301l0.062,0.323l0.095,0.506l0.06,0.326l0.068,0.367l0.074,0.411l0.08,0.453l0.087,0.494l0.093,0.535l0.098,0.575l0.103,0.614l0.108,0.652l0.112,0.688l0.116,0.725l0.119,0.759l0.122,0.793l0.126,0.828l0.127,0.859l0.13,0.891l0.131,0.919l0.066,0.475l0.067,0.479l0.066,0.486l0.067,0.494l0.066,0.501l0.067,0.506l0.067,0.515l0.067,0.521l0.066,0.526l0.067,0.534l0.066,0.541l0.066,0.545l0.066,0.552l0.066,0.558l0.065,0.564l0.065,0.569l0.064,0.575l0.064,0.581l0.063,0.586l0.062,0.591l0.062,0.596l0.061,0.602l0.061,0.608l0.059,0.61l0.058,0.615l0.058,0.621l0.057,0.625l0.056,0.63l0.054,0.634l0.054,0.636l0.052,0.642l0.052,0.648l0.049,0.648l0.049,0.653l0.047,0.658l0.046,0.66l0.044,0.663l0.043,0.667l0.041,0.671l0.04,0.673l0.038,0.676l0.036,0.678l0.035,0.682l0.033,0.684l0.031,0.687l0.029,0.69l0.026,0.691l0.026,0.693l0.022,0.696l0.021,0.697l0.019,0.7l0.016,0.701l0.015,0.703l0.011,0.704l0.01,0.706l0.007,0.707l0.004,0.708l0.003,0.71l-0.001,0.711l-0.003,0.711l-0.006,0.711l-0.009,0.713l-0.011,0.714l-0.015,0.713l-0.017,0.714l-0.02,0.714l-0.023,0.715l-0.026,0.712l-0.014,0.36l-0.015,0.356l-0.016,0.358l-0.017,0.357l-0.017,0.36l-0.019,0.355l-0.019,0.355l-0.02,0.359l-0.02,0.358l-0.022,0.357l-0.023,0.354l-0.023,0.356l-0.024,0.357l-0.025,0.357l-0.026,0.355l-0.027,0.355l-0.028,0.356l-0.028,0.356l-0.03,0.354l-0.03,0.355l-0.032,0.355l-0.032,0.354l-0.033,0.354l-0.035,0.354l-0.035,0.353l-0.036,0.353l-0.037,0.352l-0.037,0.341l-13.605,-1.469l0.035,-0.324l0.033,-0.314l0.032,-0.315l0.032,-0.316l0.03,-0.316l0.03,-0.316l0.029,-0.318l0.028,-0.317l0.028,-0.319l0.026,-0.32l0.026,-0.319l0.025,-0.32l0.024,-0.322l0.024,-0.322l0.023,-0.321l0.021,-0.321l0.021,-0.324l0.021,-0.326l0.02,-0.324l0.019,-0.323l0.018,-0.322l0.017,-0.328l0.017,-0.327l0.016,-0.324l0.015,-0.326l0.014,-0.326l0.014,-0.328l0.013,-0.324l0.024,-0.659l0.021,-0.656l0.019,-0.657l0.016,-0.659l0.013,-0.659l0.01,-0.659l0.008,-0.66l0.006,-0.66l0.003,-0.661l0,-0.659l-0.001,-0.659l-0.005,-0.661l-0.006,-0.659l-0.009,-0.659l-0.011,-0.658l-0.013,-0.658l-0.016,-0.657l-0.017,-0.655l-0.02,-0.655l-0.021,-0.653l-0.024,-0.652l-0.025,-0.651l-0.027,-0.648l-0.03,-0.647l-0.03,-0.645l-0.033,-0.644l-0.034,-0.641l-0.036,-0.639l-0.038,-0.637l-0.039,-0.633l-0.04,-0.631l-0.043,-0.63l-0.043,-0.626l-0.045,-0.622l-0.046,-0.62l-0.047,-0.618l-0.049,-0.611l-0.05,-0.61l-0.051,-0.608l-0.051,-0.602l-0.053,-0.599l-0.054,-0.594l-0.055,-0.591l-0.056,-0.587l-0.057,-0.583l-0.057,-0.577l-0.058,-0.573l-0.059,-0.569l-0.06,-0.564l-0.06,-0.559l-0.061,-0.554l-0.061,-0.549l-0.062,-0.544l-0.062,-0.539l-0.063,-0.532l-0.063,-0.527l-0.063,-0.523l-0.063,-0.514l-0.064,-0.509l-0.064,-0.505l-0.063,-0.497l-0.064,-0.49l-0.064,-0.486l-0.064,-0.478l-0.063,-0.471l-0.064,-0.465l-0.063,-0.457l-0.063,-0.448l-0.125,-0.883l-0.124,-0.85l-0.122,-0.82l-0.119,-0.787l-0.117,-0.756l-0.114,-0.723l-0.11,-0.688l-0.106,-0.653l-0.102,-0.617l-0.097,-0.579l-0.093,-0.542l-0.087,-0.503l-0.081,-0.464l-0.075,-0.422l-0.069,-0.379l-0.061,-0.338l-0.054,-0.291l-0.086,-0.456l-0.051,-0.266l-0.017,-0.084l13.427,-2.645l0.022,0.115Z" style="fill:#c19472;"/><rect x="147.174" y="194.736" width="30.977" height="23.588" style="fill:#c89c76;fill-rule:nonzero;"/><rect x="160.232" y="152.962" width="16.343" height="26.295" style="fill:#c89c76;fill-rule:nonzero;"/><path d="M167.737,30.09c-32.483,0 -58.815,28.969 -58.815,64.704c0,35.736 26.332,64.705 58.815,64.705c32.482,0 58.814,-28.969 58.814,-64.705c0,-35.735 -26.332,-64.704 -58.814,-64.704" style="fill:#c89c76;fill-rule:nonzero;"/><g><g opacity="0.5"><clipPath id="_clip2"><rect x="164.459" y="93.748" width="6.55" height="21.495"/></clipPath><g clip-path="url(#_clip2)"><path d="M167.876,93.75l0.138,0.009l0.139,0.015l0.137,0.02l0.137,0.027l0.135,0.032l0.134,0.038l0.132,0.043l0.13,0.049l0.127,0.055l0.126,0.06l0.123,0.065l0.119,0.07l0.117,0.076l0.114,0.08l0.11,0.085l0.106,0.09l0.102,0.094l0.099,0.098l0.094,0.102l0.089,0.107l0.085,0.109l0.08,0.114l0.076,0.117l0.07,0.12l0.065,0.122l0.06,0.126l0.055,0.128l0.049,0.13l0.043,0.132l0.038,0.133l0.032,0.136l0.027,0.136l0.02,0.137l0.015,0.139l0.009,0.138l0.003,0.139l0,14.947l-0.003,0.139l-0.009,0.139l-0.015,0.138l-0.02,0.138l-0.027,0.136l-0.032,0.135l-0.038,0.134l-0.043,0.132l-0.049,0.13l-0.055,0.128l-0.06,0.125l-0.065,0.123l-0.07,0.12l-0.076,0.117l-0.08,0.113l-0.085,0.11l-0.089,0.106l-0.094,0.103l-0.099,0.098l-0.102,0.094l-0.106,0.09l-0.11,0.085l-0.114,0.08l-0.117,0.075l-0.119,0.071l-0.123,0.065l-0.126,0.06l-0.127,0.054l-0.13,0.049l-0.132,0.044l-0.134,0.038l-0.135,0.032l-0.137,0.026l-0.137,0.021l-0.139,0.015l-0.138,0.008l-0.139,0.003l-0.139,-0.003l-0.139,-0.008l-0.138,-0.015l-0.137,-0.021l-0.137,-0.026l-0.135,-0.032l-0.134,-0.038l-0.132,-0.044l-0.13,-0.049l-0.128,-0.054l-0.125,-0.06l-0.123,-0.065l-0.12,-0.071l-0.117,-0.075l-0.113,-0.08l-0.11,-0.085l-0.106,-0.09l-0.103,-0.094l-0.098,-0.098l-0.094,-0.103l-0.089,-0.106l-0.085,-0.11l-0.081,-0.113l-0.075,-0.117l-0.07,-0.12l-0.066,-0.123l-0.06,-0.125l-0.054,-0.128l-0.049,-0.13l-0.044,-0.132l-0.038,-0.134l-0.032,-0.135l-0.026,-0.136l-0.021,-0.138l-0.014,-0.138l-0.009,-0.139l-0.003,-0.139l0,-14.947l0.003,-0.139l0.009,-0.138l0.014,-0.139l0.021,-0.137l0.026,-0.136l0.032,-0.136l0.038,-0.133l0.044,-0.132l0.049,-0.13l0.054,-0.128l0.06,-0.126l0.066,-0.122l0.07,-0.12l0.075,-0.117l0.081,-0.114l0.085,-0.109l0.089,-0.107l0.094,-0.102l0.098,-0.098l0.103,-0.094l0.106,-0.09l0.11,-0.085l0.113,-0.08l0.117,-0.076l0.12,-0.07l0.123,-0.065l0.125,-0.06l0.128,-0.055l0.13,-0.049l0.132,-0.043l0.134,-0.038l0.135,-0.032l0.137,-0.027l0.137,-0.02l0.138,-0.015l0.139,-0.009l0.139,-0.003l0.139,0.003Z" style="fill:#aa3424;"/></g></g></g><path d="M236.343,105.095c1.232,-7.416 -3.109,-14.315 -9.696,-15.409c-6.587,-1.095 -12.926,4.03 -14.158,11.446c-1.232,7.416 3.109,14.316 9.696,15.409c6.588,1.095 12.927,-4.03 14.158,-11.446" style="fill:#c89c76;fill-rule:nonzero;"/><path d="M123.036,101.838c-0.97,-7.8 -7.373,-13.424 -14.301,-12.562c-6.928,0.863 -11.758,7.884 -10.787,15.683c0.971,7.8 7.374,13.424 14.302,12.562c6.928,-0.862 11.757,-7.884 10.786,-15.683" style="fill:#c89c76;fill-rule:nonzero;"/><path d="M222.783,107.689c0,0 -0.534,-10.322 7.386,-9.698" style="fill:none;stroke:#bb8b63;stroke-width:2.4px;"/><path d="M229.796,102.221c0,0 -4.729,-1.648 -6.762,1.804" style="fill:none;stroke:#bb8b63;stroke-width:2.4px;"/><path d="M112.596,108.181c0,0 0.558,-10.792 -7.723,-10.139" style="fill:none;stroke:#bb8b63;stroke-width:2.4px;"/><path d="M105.262,102.466c0,0 4.945,-1.724 7.069,1.886" style="fill:none;stroke:#bb8b63;stroke-width:2.4px;"/><path d="M144.992,86.6l0.065,0.004l0.065,0.008l0.065,0.01l0.064,0.014l0.064,0.016l0.063,0.019l0.062,0.022l0.06,0.025l0.06,0.028l0.058,0.03l0.057,0.034l0.055,0.035l0.053,0.038l0.052,0.041l0.049,0.043l0.048,0.045l0.045,0.047l0.044,0.05l0.041,0.051l0.038,0.053l0.036,0.055l0.033,0.057l0.031,0.058l0.028,0.059l0.026,0.061l0.022,0.061l0.02,0.063l0.016,0.064l0.014,0.064l0.011,0.064l0.008,0.066l0.004,0.065l0.002,0.066l-0.001,0.065l-0.005,0.066l-0.007,0.065l-0.01,0.065l-0.014,0.064l-0.016,0.064l-0.038,0.136l-0.044,0.145l-0.045,0.143l-0.048,0.141l-0.049,0.14l-0.052,0.138l-0.053,0.137l-0.055,0.133l-0.057,0.132l-0.059,0.131l-0.06,0.129l-0.063,0.127l-0.063,0.124l-0.066,0.124l-0.067,0.121l-0.068,0.119l-0.071,0.118l-0.072,0.116l-0.072,0.113l-0.075,0.112l-0.076,0.111l-0.076,0.108l-0.078,0.106l-0.079,0.104l-0.081,0.103l-0.082,0.102l-0.082,0.098l-0.083,0.097l-0.085,0.096l-0.085,0.094l-0.087,0.092l-0.086,0.09l-0.088,0.089l-0.089,0.086l-0.089,0.085l-0.089,0.083l-0.09,0.082l-0.092,0.081l-0.092,0.078l-0.091,0.076l-0.093,0.075l-0.092,0.074l-0.094,0.072l-0.093,0.07l-0.093,0.069l-0.094,0.067l-0.095,0.066l-0.094,0.064l-0.094,0.063l-0.095,0.061l-0.094,0.06l-0.095,0.059l-0.095,0.057l-0.093,0.055l-0.096,0.055l-0.094,0.053l-0.093,0.051l-0.094,0.051l-0.095,0.049l-0.094,0.048l-0.093,0.047l-0.092,0.045l-0.092,0.044l-0.093,0.044l-0.092,0.042l-0.094,0.042l-0.178,0.076l-0.179,0.074l-0.177,0.07l-0.174,0.065l-0.171,0.062l-0.168,0.058l-0.165,0.054l-0.162,0.05l-0.157,0.047l-0.153,0.044l-0.15,0.04l-0.144,0.038l-0.14,0.034l-0.135,0.032l-0.13,0.029l-0.124,0.027l-0.118,0.024l-0.113,0.021l-0.107,0.02l-0.1,0.017l-0.096,0.016l-0.163,0.024l-0.136,0.019l-0.107,0.012l-0.082,0.009l-0.065,0.005l-0.066,0.002l-0.065,-0.001l-0.066,-0.004l-0.065,-0.007l-0.065,-0.01l-0.064,-0.013l-0.064,-0.016l-0.063,-0.019l-0.062,-0.022l-0.061,-0.025l-0.059,-0.027l-0.059,-0.03l-0.056,-0.033l-0.056,-0.036l-0.053,-0.037l-0.052,-0.041l-0.05,-0.043l-0.048,-0.044l-0.046,-0.048l-0.043,-0.049l-0.041,-0.051l-0.039,-0.053l-0.036,-0.055l-0.034,-0.056l-0.031,-0.058l-0.028,-0.059l-0.026,-0.06l-0.023,-0.062l-0.02,-0.063l-0.017,-0.063l-0.014,-0.064l-0.011,-0.065l-0.008,-0.065l-0.005,-0.065l-0.002,-0.066l0.001,-0.066l0.004,-0.065l0.007,-0.065l0.01,-0.065l0.013,-0.065l0.016,-0.063l0.019,-0.063l0.022,-0.062l0.025,-0.061l0.027,-0.059l0.03,-0.059l0.033,-0.057l0.035,-0.055l0.038,-0.054l0.041,-0.051l0.042,-0.05l0.045,-0.048l0.047,-0.046l0.05,-0.043l0.051,-0.041l0.053,-0.039l0.054,-0.036l0.057,-0.034l0.058,-0.031l0.059,-0.029l0.06,-0.025l0.062,-0.023l0.062,-0.02l0.064,-0.017l0.064,-0.014l0.064,-0.011l0.066,-0.008l0.057,-0.006l0.06,-0.007l0.092,-0.012l0.122,-0.019l0.065,-0.01l0.075,-0.013l0.08,-0.015l0.086,-0.016l0.091,-0.019l0.095,-0.02l0.101,-0.023l0.104,-0.024l0.109,-0.027l0.113,-0.029l0.116,-0.032l0.12,-0.034l0.123,-0.037l0.125,-0.039l0.128,-0.042l0.13,-0.045l0.132,-0.047l0.135,-0.051l0.135,-0.053l0.136,-0.056l0.142,-0.061l0.066,-0.03l0.069,-0.031l0.07,-0.033l0.069,-0.033l0.07,-0.034l0.07,-0.035l0.07,-0.036l0.069,-0.036l0.069,-0.037l0.07,-0.039l0.07,-0.039l0.068,-0.04l0.07,-0.041l0.069,-0.041l0.068,-0.043l0.069,-0.043l0.068,-0.044l0.068,-0.045l0.067,-0.046l0.067,-0.047l0.067,-0.048l0.067,-0.049l0.065,-0.05l0.065,-0.05l0.066,-0.051l0.064,-0.053l0.064,-0.053l0.064,-0.055l0.062,-0.054l0.062,-0.057l0.062,-0.057l0.061,-0.058l0.061,-0.059l0.059,-0.06l0.059,-0.062l0.059,-0.062l0.057,-0.063l0.056,-0.064l0.056,-0.065l0.056,-0.067l0.054,-0.067l0.053,-0.068l0.053,-0.07l0.053,-0.071l0.051,-0.072l0.05,-0.073l0.049,-0.074l0.049,-0.077l0.047,-0.076l0.046,-0.077l0.047,-0.081l0.044,-0.08l0.043,-0.082l0.044,-0.084l0.041,-0.084l0.04,-0.086l0.04,-0.087l0.038,-0.09l0.038,-0.091l0.036,-0.092l0.035,-0.093l0.033,-0.095l0.033,-0.098l0.031,-0.099l0.03,-0.1l0.032,-0.113l0.019,-0.063l0.022,-0.062l0.025,-0.06l0.028,-0.06l0.031,-0.058l0.033,-0.057l0.035,-0.055l0.039,-0.053l0.04,-0.052l0.043,-0.05l0.045,-0.047l0.048,-0.046l0.049,-0.043l0.051,-0.041l0.054,-0.038l0.054,-0.036l0.057,-0.034l0.058,-0.03l0.059,-0.028l0.061,-0.026l0.062,-0.022l0.062,-0.02l0.064,-0.017l0.064,-0.013l0.065,-0.011l0.065,-0.008l0.065,-0.005l0.066,-0.001l0.066,0.001Z" style="fill:#272935;"/><path d="M191.097,86.601l0.065,0.004l0.065,0.008l0.065,0.011l0.064,0.013l0.064,0.017l0.063,0.02l0.061,0.022l0.061,0.026l0.059,0.028l0.058,0.03l0.057,0.034l0.055,0.036l0.053,0.038l0.051,0.041l0.049,0.043l0.048,0.046l0.045,0.048l0.043,0.049l0.041,0.052l0.038,0.053l0.035,0.055l0.033,0.057l0.031,0.058l0.028,0.06l0.025,0.06l0.022,0.062l0.019,0.063l0.032,0.113l0.03,0.101l0.031,0.099l0.032,0.096l0.034,0.095l0.036,0.095l0.036,0.092l0.036,0.089l0.039,0.09l0.04,0.088l0.04,0.086l0.042,0.085l0.042,0.083l0.044,0.082l0.045,0.081l0.045,0.079l0.046,0.077l0.048,0.078l0.049,0.076l0.048,0.073l0.051,0.074l0.052,0.073l0.051,0.07l0.053,0.069l0.054,0.069l0.054,0.067l0.056,0.067l0.055,0.065l0.057,0.064l0.058,0.064l0.058,0.061l0.059,0.061l0.059,0.061l0.061,0.059l0.061,0.059l0.062,0.057l0.061,0.055l0.063,0.055l0.064,0.055l0.064,0.053l0.064,0.053l0.065,0.051l0.066,0.051l0.065,0.049l0.067,0.049l0.066,0.048l0.067,0.046l0.068,0.047l0.068,0.045l0.068,0.044l0.069,0.044l0.069,0.042l0.068,0.041l0.068,0.041l0.07,0.04l0.069,0.039l0.07,0.039l0.07,0.037l0.069,0.036l0.07,0.036l0.07,0.035l0.07,0.034l0.069,0.033l0.069,0.033l0.07,0.031l0.066,0.03l0.141,0.061l0.136,0.056l0.136,0.053l0.134,0.051l0.132,0.047l0.13,0.045l0.129,0.042l0.125,0.039l0.122,0.037l0.12,0.034l0.116,0.032l0.113,0.029l0.109,0.027l0.104,0.024l0.101,0.023l0.095,0.02l0.091,0.019l0.086,0.016l0.08,0.015l0.075,0.013l0.065,0.01l0.122,0.019l0.092,0.012l0.06,0.007l0.057,0.006l0.066,0.008l0.064,0.011l0.064,0.014l0.064,0.017l0.062,0.02l0.062,0.023l0.06,0.025l0.06,0.029l0.057,0.031l0.057,0.034l0.054,0.036l0.053,0.039l0.051,0.041l0.05,0.043l0.047,0.046l0.045,0.048l0.042,0.05l0.041,0.051l0.038,0.054l0.035,0.055l0.033,0.057l0.03,0.059l0.027,0.059l0.025,0.061l0.022,0.062l0.019,0.063l0.016,0.063l0.013,0.065l0.01,0.065l0.007,0.065l0.004,0.065l0.001,0.066l-0.002,0.066l-0.005,0.065l-0.008,0.065l-0.011,0.065l-0.014,0.064l-0.017,0.063l-0.02,0.063l-0.023,0.062l-0.026,0.06l-0.028,0.059l-0.031,0.058l-0.034,0.056l-0.036,0.055l-0.039,0.053l-0.041,0.051l-0.043,0.049l-0.046,0.048l-0.048,0.044l-0.05,0.043l-0.052,0.041l-0.053,0.037l-0.056,0.036l-0.056,0.033l-0.059,0.03l-0.059,0.027l-0.061,0.025l-0.062,0.022l-0.063,0.019l-0.064,0.016l-0.064,0.013l-0.065,0.01l-0.065,0.007l-0.066,0.004l-0.065,0.001l-0.066,-0.002l-0.065,-0.005l-0.082,-0.009l-0.107,-0.012l-0.137,-0.019l-0.162,-0.024l-0.097,-0.016l-0.1,-0.017l-0.106,-0.02l-0.112,-0.021l-0.119,-0.024l-0.124,-0.027l-0.13,-0.029l-0.135,-0.032l-0.139,-0.034l-0.145,-0.038l-0.149,-0.04l-0.154,-0.044l-0.157,-0.047l-0.162,-0.05l-0.164,-0.054l-0.168,-0.058l-0.172,-0.062l-0.174,-0.065l-0.176,-0.07l-0.18,-0.074l-0.178,-0.077l-0.094,-0.041l-0.092,-0.042l-0.092,-0.043l-0.093,-0.045l-0.093,-0.045l-0.092,-0.047l-0.094,-0.048l-0.094,-0.049l-0.094,-0.051l-0.094,-0.051l-0.094,-0.053l-0.094,-0.054l-0.095,-0.056l-0.095,-0.058l-0.095,-0.058l-0.094,-0.06l-0.094,-0.061l-0.094,-0.063l-0.094,-0.064l-0.095,-0.066l-0.094,-0.067l-0.093,-0.069l-0.094,-0.071l-0.093,-0.071l-0.093,-0.074l-0.092,-0.075l-0.092,-0.077l-0.091,-0.077l-0.091,-0.08l-0.091,-0.083l-0.09,-0.083l-0.089,-0.085l-0.088,-0.086l-0.088,-0.089l-0.087,-0.09l-0.086,-0.092l-0.085,-0.094l-0.085,-0.096l-0.083,-0.097l-0.083,-0.099l-0.081,-0.101l-0.081,-0.102l-0.079,-0.105l-0.079,-0.107l-0.076,-0.108l-0.075,-0.109l-0.075,-0.113l-0.073,-0.114l-0.071,-0.114l-0.07,-0.118l-0.069,-0.12l-0.067,-0.121l-0.066,-0.124l-0.064,-0.125l-0.062,-0.126l-0.06,-0.129l-0.059,-0.13l-0.057,-0.132l-0.056,-0.136l-0.053,-0.136l-0.051,-0.136l-0.049,-0.14l-0.048,-0.143l-0.045,-0.143l-0.044,-0.144l-0.038,-0.136l-0.016,-0.064l-0.014,-0.064l-0.01,-0.065l-0.007,-0.065l-0.005,-0.066l-0.001,-0.065l0.002,-0.066l0.004,-0.065l0.008,-0.066l0.011,-0.064l0.014,-0.065l0.016,-0.063l0.02,-0.063l0.023,-0.061l0.025,-0.061l0.028,-0.059l0.031,-0.058l0.033,-0.057l0.036,-0.055l0.039,-0.053l0.04,-0.051l0.044,-0.05l0.045,-0.047l0.048,-0.045l0.049,-0.043l0.052,-0.041l0.053,-0.038l0.056,-0.036l0.056,-0.033l0.058,-0.03l0.06,-0.028l0.061,-0.025l0.061,-0.022l0.063,-0.019l0.064,-0.016l0.064,-0.014l0.065,-0.01l0.065,-0.008l0.066,-0.004l0.065,-0.001l0.066,0.002Z" style="fill:#272935;"/><path d="M147.051,97.197c0,-3.409 -2.188,-6.172 -4.888,-6.172c-2.699,0 -4.887,2.763 -4.887,6.172c0,3.408 2.188,6.172 4.887,6.172c2.7,0 4.888,-2.764 4.888,-6.172" style="fill:#272935;fill-rule:nonzero;"/><path d="M198.251,97.197c0,-3.409 -2.188,-6.172 -4.887,-6.172c-2.699,0 -4.887,2.763 -4.887,6.172c0,3.408 2.188,6.172 4.887,6.172c2.699,0 4.887,-2.764 4.887,-6.172" style="fill:#272935;fill-rule:nonzero;"/><g><g opacity="0.600006"><g><clipPath id="_clip3"><path d="M160.24,159.771c0,0 9.157,1.254 16.319,-0.229l0,4.655c0,0 -9.311,2.711 -16.319,0.102l0,-4.528Z"/></clipPath><g clip-path="url(#_clip3)"><path d="M160.012,166.669l0.253,-7.666l16.448,0.544l-0.254,7.665l-16.447,-0.543Z" style="fill:url(#_Linear4);fill-rule:nonzero;"/></g></g></g></g><path d="M112.706,46.39l0.067,0.005l0.067,0.009l0.066,0.012l0.065,0.015l0.064,0.019l0.063,0.022l0.062,0.025l0.061,0.029l0.059,0.031l0.057,0.035l0.055,0.038l0.054,0.04l0.051,0.044l0.049,0.045l0.046,0.049l0.044,0.05l0.041,0.053l0.038,0.055l0.035,0.057l0.032,0.059l0.029,0.06l0.026,0.062l0.023,0.063l0.019,0.064l0.016,0.065l0.012,0.066l0.009,0.066l0.006,0.067l0.002,0.067l-0.001,0.067l-0.005,0.067l-0.009,0.066l-0.012,0.066l-0.015,0.065l-0.019,0.065l-0.022,0.063l-0.025,0.062l-0.049,0.109l-0.061,0.136l-0.082,0.178l-0.104,0.219l-0.123,0.255l-0.071,0.144l-0.075,0.15l-0.08,0.156l-0.085,0.165l-0.09,0.172l-0.094,0.178l-0.099,0.184l-0.104,0.189l-0.109,0.195l-0.113,0.199l-0.117,0.204l-0.122,0.208l-0.127,0.211l-0.131,0.214l-0.135,0.218l-0.139,0.219l-0.144,0.221l-0.148,0.222l-0.151,0.222l-0.078,0.114l-0.079,0.112l-0.079,0.112l-0.081,0.113l-0.082,0.112l-0.082,0.111l-0.084,0.112l-0.084,0.112l-0.087,0.112l-0.086,0.111l-0.088,0.111l-0.089,0.11l-0.09,0.11l-0.09,0.109l-0.092,0.109l-0.093,0.108l-0.094,0.108l-0.095,0.107l-0.096,0.106l-0.097,0.105l-0.098,0.104l-0.099,0.104l-0.101,0.103l-0.101,0.101l-0.101,0.1l-0.104,0.1l-0.105,0.098l-0.105,0.097l-0.107,0.095l-0.108,0.094l-0.11,0.093l-0.109,0.091l-0.112,0.09l-0.112,0.088l-0.114,0.087l-0.115,0.084l-0.117,0.083l-0.117,0.081l-0.119,0.079l-0.12,0.077l-0.122,0.076l-0.123,0.073l-0.124,0.07l-0.125,0.068l-0.127,0.066l-0.129,0.064l-0.13,0.06l-0.131,0.058l-0.133,0.056l-0.134,0.052l-0.135,0.049l-0.138,0.046l-0.138,0.043l-0.14,0.039l-0.142,0.036l-0.138,0.032l-0.076,0.015l-0.072,0.014l-0.072,0.013l-0.073,0.012l-0.073,0.011l-0.074,0.01l-0.073,0.009l-0.074,0.007l-0.074,0.007l-0.075,0.006l-0.074,0.004l-0.075,0.004l-0.075,0.002l-0.075,0.002l-0.076,0l-0.076,-0.001l-0.075,-0.002l-0.077,-0.003l-0.075,-0.005l-0.066,-0.005l-0.067,-0.006l-0.066,-0.01l-0.066,-0.014l-0.065,-0.017l-0.063,-0.02l-0.063,-0.024l-0.061,-0.027l-0.06,-0.03l-0.058,-0.033l-0.057,-0.036l-0.054,-0.039l-0.052,-0.042l-0.05,-0.045l-0.048,-0.047l-0.045,-0.049l-0.043,-0.052l-0.039,-0.054l-0.037,-0.056l-0.034,-0.058l-0.03,-0.059l-0.028,-0.061l-0.024,-0.063l-0.021,-0.063l-0.018,-0.065l-0.014,-0.065l-0.011,-0.066l-0.008,-0.067l-0.003,-0.067l-0.001,-0.067l0.003,-0.067l0.007,-0.066l0.01,-0.067l0.014,-0.065l0.017,-0.065l0.02,-0.064l0.024,-0.062l0.027,-0.062l0.03,-0.059l0.033,-0.059l0.036,-0.056l0.039,-0.054l0.042,-0.053l0.044,-0.05l0.048,-0.047l0.049,-0.045l0.052,-0.043l0.054,-0.039l0.056,-0.037l0.058,-0.034l0.059,-0.031l0.061,-0.027l0.062,-0.025l0.064,-0.021l0.065,-0.017l0.065,-0.015l0.066,-0.01l0.067,-0.008l0.067,-0.004l0.066,0l0.067,0.003l0.048,0.004l0.037,0.002l0.037,0.001l0.037,0.001l0.037,0.001l0.037,0l0.037,-0.001l0.037,-0.001l0.037,-0.002l0.038,-0.002l0.037,-0.003l0.037,-0.003l0.037,-0.004l0.038,-0.005l0.038,-0.005l0.037,-0.005l0.037,-0.007l0.038,-0.006l0.038,-0.008l0.035,-0.007l0.08,-0.018l0.077,-0.019l0.077,-0.022l0.079,-0.024l0.078,-0.027l0.079,-0.029l0.08,-0.031l0.08,-0.033l0.08,-0.035l0.082,-0.038l0.081,-0.041l0.082,-0.042l0.082,-0.045l0.083,-0.047l0.083,-0.049l0.083,-0.051l0.083,-0.054l0.084,-0.055l0.084,-0.058l0.084,-0.06l0.084,-0.062l0.083,-0.064l0.084,-0.065l0.084,-0.068l0.085,-0.07l0.083,-0.071l0.084,-0.073l0.083,-0.074l0.084,-0.077l0.083,-0.078l0.082,-0.079l0.083,-0.082l0.083,-0.082l0.081,-0.083l0.082,-0.086l0.081,-0.086l0.081,-0.088l0.08,-0.089l0.08,-0.09l0.08,-0.091l0.079,-0.092l0.078,-0.093l0.078,-0.093l0.077,-0.095l0.077,-0.096l0.076,-0.095l0.076,-0.097l0.074,-0.097l0.074,-0.098l0.074,-0.099l0.073,-0.099l0.073,-0.099l0.071,-0.099l0.071,-0.1l0.07,-0.1l0.068,-0.099l0.137,-0.201l0.133,-0.2l0.13,-0.201l0.126,-0.198l0.123,-0.197l0.119,-0.195l0.115,-0.193l0.112,-0.19l0.107,-0.186l0.104,-0.184l0.1,-0.178l0.095,-0.175l0.092,-0.168l0.086,-0.164l0.083,-0.158l0.078,-0.151l0.073,-0.145l0.069,-0.137l0.063,-0.127l0.114,-0.236l0.094,-0.198l0.073,-0.158l0.051,-0.114l0.043,-0.097l0.029,-0.061l0.032,-0.059l0.034,-0.057l0.038,-0.056l0.041,-0.053l0.043,-0.051l0.046,-0.049l0.048,-0.046l0.051,-0.044l0.053,-0.041l0.055,-0.038l0.057,-0.035l0.058,-0.032l0.061,-0.029l0.062,-0.026l0.063,-0.023l0.064,-0.019l0.065,-0.016l0.066,-0.013l0.066,-0.009l0.067,-0.005l0.067,-0.002l0.066,0.001Z" style="fill:#16102a;"/><path d="M142.282,203.831l-0.017,0.084l-0.051,0.266l-0.086,0.456l-0.053,0.291l-0.062,0.338l-0.069,0.381l-0.075,0.422l-0.081,0.461l-0.087,0.503l-0.092,0.543l-0.098,0.579l-0.102,0.617l-0.106,0.653l-0.11,0.688l-0.114,0.723l-0.117,0.756l-0.119,0.787l-0.122,0.82l-0.123,0.85l-0.126,0.883l-0.063,0.448l-0.063,0.457l-0.063,0.465l-0.064,0.471l-0.064,0.478l-0.064,0.486l-0.063,0.49l-0.064,0.497l-0.064,0.505l-0.064,0.509l-0.063,0.514l-0.063,0.523l-0.063,0.527l-0.062,0.534l-0.063,0.538l-0.061,0.542l-0.061,0.549l-0.061,0.555l-0.061,0.559l-0.059,0.564l-0.059,0.569l-0.058,0.573l-0.058,0.578l-0.057,0.582l-0.055,0.586l-0.055,0.592l-0.054,0.594l-0.053,0.6l-0.052,0.602l-0.051,0.606l-0.05,0.61l-0.049,0.613l-0.047,0.617l-0.046,0.619l-0.045,0.623l-0.043,0.626l-0.042,0.63l-0.041,0.631l-0.039,0.633l-0.037,0.637l-0.036,0.639l-0.035,0.641l-0.032,0.644l-0.031,0.645l-0.029,0.647l-0.027,0.649l-0.026,0.65l-0.023,0.651l-0.022,0.654l-0.019,0.655l-0.018,0.655l-0.015,0.657l-0.014,0.658l-0.011,0.658l-0.008,0.659l-0.007,0.659l-0.004,0.661l-0.002,0.659l0,0.659l0.003,0.662l0.006,0.659l0.008,0.659l0.01,0.661l0.013,0.659l0.016,0.657l0.019,0.657l0.021,0.657l0.024,0.661l0.013,0.322l0.014,0.326l0.014,0.328l0.016,0.326l0.016,0.326l0.016,0.325l0.018,0.326l0.018,0.324l0.019,0.325l0.019,0.322l0.021,0.324l0.021,0.326l0.022,0.321l0.022,0.321l0.024,0.322l0.024,0.322l0.025,0.32l0.026,0.319l0.027,0.32l0.027,0.319l0.028,0.317l0.029,0.318l0.03,0.316l0.03,0.316l0.032,0.316l0.032,0.315l0.033,0.314l0.035,0.324l-13.605,1.469l-0.036,-0.341l-0.038,-0.352l-0.036,-0.353l-0.035,-0.353l-0.034,-0.354l-0.034,-0.354l-0.032,-0.354l-0.031,-0.355l-0.031,-0.355l-0.029,-0.354l-0.029,-0.356l-0.028,-0.356l-0.027,-0.355l-0.025,-0.355l-0.026,-0.357l-0.024,-0.357l-0.023,-0.354l-0.023,-0.356l-0.021,-0.359l-0.021,-0.356l-0.02,-0.357l-0.019,-0.357l-0.018,-0.357l-0.018,-0.358l-0.017,-0.357l-0.015,-0.356l-0.015,-0.358l-0.015,-0.362l-0.026,-0.71l-0.023,-0.714l-0.02,-0.714l-0.017,-0.716l-0.014,-0.713l-0.012,-0.712l-0.009,-0.714l-0.005,-0.712l-0.004,-0.71l0,-0.711l0.002,-0.71l0.005,-0.708l0.006,-0.707l0.01,-0.706l0.012,-0.704l0.014,-0.703l0.016,-0.701l0.019,-0.7l0.021,-0.697l0.023,-0.695l0.025,-0.694l0.027,-0.692l0.029,-0.689l0.031,-0.687l0.032,-0.684l0.035,-0.682l0.036,-0.678l0.038,-0.676l0.04,-0.673l0.041,-0.671l0.043,-0.667l0.044,-0.663l0.046,-0.66l0.047,-0.657l0.049,-0.654l0.05,-0.65l0.051,-0.645l0.052,-0.642l0.054,-0.638l0.055,-0.634l0.055,-0.629l0.057,-0.625l0.058,-0.62l0.058,-0.616l0.06,-0.611l0.06,-0.607l0.061,-0.602l0.062,-0.596l0.063,-0.591l0.063,-0.586l0.063,-0.58l0.064,-0.575l0.065,-0.571l0.066,-0.564l0.065,-0.557l0.066,-0.552l0.066,-0.545l0.066,-0.541l0.067,-0.534l0.066,-0.526l0.067,-0.521l0.067,-0.515l0.067,-0.506l0.067,-0.501l0.066,-0.494l0.067,-0.486l0.066,-0.479l0.067,-0.475l0.13,-0.919l0.13,-0.891l0.127,-0.859l0.126,-0.828l0.122,-0.793l0.12,-0.759l0.116,-0.725l0.112,-0.688l0.108,-0.652l0.103,-0.614l0.098,-0.574l0.092,-0.535l0.087,-0.496l0.081,-0.453l0.074,-0.41l0.067,-0.367l0.06,-0.326l0.095,-0.506l0.062,-0.323l0.023,-0.115l13.426,2.645Z" style="fill:#c19472;"/><path d="M134.812,262.244l2.633,25.593l1.93,0.597c0.4,0.123 0.812,0.254 1.129,0.527c0.477,0.409 0.655,1.059 0.808,1.67c0.325,1.285 0.705,2.654 1.712,3.518c1.078,0.925 2.795,1.194 2.853,3.016c0.017,0.49 -0.106,0.975 -0.316,1.419c-0.788,1.66 -2.064,3.081 -3.624,4.05c-0.972,0.603 -2.087,1.064 -2.762,1.993c0,0 -0.001,0.005 -0.002,0.008l0.698,6.77l17.933,0c0,0 0.634,-19.821 3.216,-29.548c0.695,-2.617 3.053,-4.446 5.761,-4.446c2.673,0 5.018,1.778 5.734,4.354c1.414,5.083 3.607,14.742 5.062,29.64l17.933,0l5.519,-52.299l-66.217,3.138Z" style="fill:#39373a;fill-rule:nonzero;"/><path d="M134.588,286.953c0.033,0.01 0.066,0.021 0.1,0.03c-0.112,-0.171 -0.23,-0.34 -0.365,-0.5l0.265,0.47Z" style="fill:#2f2e30;fill-rule:nonzero;"/><path d="M141.937,302.634c1.363,-0.847 2.51,-2.039 3.303,-3.434c0.524,-0.922 0.889,-2.086 0.39,-3.022c-0.524,-0.982 -1.761,-1.304 -2.606,-2.028c-1.007,-0.865 -1.387,-2.234 -1.712,-3.519c-0.153,-0.61 -0.331,-1.261 -0.808,-1.67c-0.317,-0.272 -0.729,-0.403 -1.129,-0.526l-1.93,-0.598l1.728,16.798c0.012,-0.017 0.021,-0.033 0.033,-0.049c0.677,-0.901 1.774,-1.357 2.731,-1.952" style="fill:#2f2e30;fill-rule:nonzero;"/><path d="M167.727,198.908c-0.143,0.189 -0.354,0.317 -0.57,0.415c-0.911,0.409 -2.156,0.244 -2.666,-0.613c-0.511,-0.858 0.288,-2.238 1.252,-1.975l1.203,-0.136c0.639,0.622 1.318,1.595 0.781,2.309m-10.163,16.542c-0.482,0.645 -1.318,1.166 -2.066,0.87c-0.738,-0.291 -1.054,-1.239 -1.796,-1.516c-0.507,-0.19 -1.068,-0.013 -1.606,0.044c-0.539,0.059 -1.203,-0.092 -1.369,-0.608c-0.069,-0.217 -0.031,-0.452 0.007,-0.678c0.176,-1.019 0.351,-2.04 0.527,-3.059l0.555,-1.525c2.565,-1.141 6.057,0.532 6.511,3.302c0.18,1.102 -0.095,2.275 -0.763,3.17m42.277,15.927c-0.176,1.177 -0.375,2.351 -0.608,3.519c-0.194,0.963 -0.428,1.967 -1.078,2.703c-0.767,0.868 -2.034,1.206 -3.167,0.973c-1.134,-0.232 -2.121,-0.985 -2.777,-1.939c-1.012,-1.476 -1.247,-3.454 -0.608,-5.126c0.89,-2.33 3.343,-4.134 3.22,-6.626c-0.045,-0.911 -0.448,-1.765 -0.608,-2.663c-0.477,-2.692 1.239,-5.232 2.866,-7.427l0.171,-0.355c0.254,-0.529 0.906,-0.757 1.417,-0.469l0.01,0.005l-2.126,-31.818c0,0 -17.454,-13.195 -18.23,-12.56c0,0 -1.259,0.498 -2.917,1.101l-0.239,0.596l-0.568,0l-1.137,1.705l-0.647,-1.456c-3.064,0.783 -6.286,0.734 -9.33,-0.14l-0.822,1.028l0,-1.286c-0.062,-0.02 -0.124,-0.039 -0.186,-0.06c-2.16,-0.763 -3.996,-1.488 -3.996,-1.488c-0.776,-0.635 -18.23,12.56 -18.23,12.56l-5.44,81.434l67.183,0l-2.153,-32.211Z" style="fill:#72655c;fill-rule:nonzero;"/><path d="M197.082,214.791c-1.628,2.195 -3.344,4.735 -2.866,7.427c0.16,0.898 0.562,1.752 0.607,2.663c0.123,2.492 -2.33,4.296 -3.22,6.626c-0.638,1.672 -0.404,3.65 0.609,5.126c0.655,0.954 1.642,1.707 2.776,1.939c1.133,0.234 2.401,-0.105 3.167,-0.972c0.651,-0.737 0.885,-1.741 1.078,-2.704c0.234,-1.168 0.433,-2.341 0.609,-3.519l-1.162,-17.404l-0.01,-0.006c-0.512,-0.287 -1.163,-0.06 -1.417,0.47l-0.171,0.354Z" style="fill:#65564f;fill-rule:nonzero;"/><path d="M126.566,205.891c-0.37,1.977 4.629,2.855 9.038,3.247l1.197,-2.608l0,1.989c2.869,0.207 5.219,0.932 5.219,0.932c0,0 3.299,-18.921 16.38,-39.866c0,0 -26.576,8.172 -31.834,36.306" style="fill:#72655c;fill-rule:nonzero;"/><path d="M214.179,205.037c-16.413,-30.924 -35.73,-35.417 -35.73,-35.417c13.081,20.945 16.922,39.865 16.922,39.865c0,0 4.606,-0.295 9.271,-0.939c0.081,-0.635 0.236,-1.412 0.236,-1.412l0.853,0.568l0.852,-2.558l0.853,0.853l0.568,0l0.853,0.852c0,0 0.498,0.499 0.752,0.835c3.018,-0.672 5.154,-1.547 4.57,-2.647" style="fill:#72655c;fill-rule:nonzero;"/><path d="M167.78,128.441l0.134,0.002l0.133,0.004l0.131,0.006l0.13,0.007l0.127,0.008l0.126,0.01l0.124,0.012l0.122,0.012l0.119,0.014l0.118,0.014l0.115,0.016l0.113,0.016l0.11,0.017l0.107,0.018l0.106,0.018l0.103,0.019l0.1,0.019l0.099,0.02l0.184,0.039l0.173,0.04l0.162,0.039l0.148,0.039l0.134,0.036l0.12,0.035l0.105,0.031l0.091,0.029l0.124,0.041l0.046,0.016l0.051,0.019l0.049,0.02l0.048,0.023l0.048,0.025l0.046,0.027l0.045,0.029l0.044,0.03l0.043,0.033l0.041,0.034l0.04,0.036l0.038,0.037l0.037,0.039l0.035,0.041l0.033,0.042l0.032,0.043l0.029,0.045l0.028,0.046l0.026,0.047l0.023,0.048l0.022,0.049l0.02,0.05l0.017,0.05l0.016,0.051l0.013,0.052l0.011,0.053l0.009,0.053l0.007,0.053l0.004,0.053l0.002,0.054l0,0.053l-0.002,0.054l-0.004,0.053l-0.007,0.053l-0.009,0.053l-0.011,0.053l-0.014,0.051l-0.015,0.052l-0.018,0.05l-0.02,0.05l-0.022,0.049l-0.023,0.048l-0.026,0.047l-0.028,0.046l-0.03,0.044l-0.031,0.044l-0.034,0.041l-0.035,0.041l-0.036,0.039l-0.039,0.037l-0.039,0.036l-0.042,0.034l-0.042,0.033l-0.044,0.03l-0.046,0.029l-0.046,0.027l-0.048,0.024l-0.048,0.023l-0.05,0.021l-0.05,0.019l-0.051,0.016l-0.051,0.014l-0.052,0.013l-0.053,0.01l-0.053,0.007l-0.053,0.006l-0.054,0.003l-0.053,0.001l-0.054,-0.001l-0.053,-0.003l-0.054,-0.006l-0.053,-0.008l-0.052,-0.01l-0.052,-0.012l-0.052,-0.015l-0.051,-0.016l-0.025,-0.009l-0.084,-0.028l-0.059,-0.018l-0.077,-0.023l-0.089,-0.026l-0.102,-0.028l-0.115,-0.03l-0.125,-0.03l-0.137,-0.031l-0.148,-0.032l-0.074,-0.015l-0.079,-0.015l-0.08,-0.015l-0.083,-0.014l-0.084,-0.014l-0.087,-0.013l-0.087,-0.013l-0.09,-0.012l-0.091,-0.011l-0.092,-0.011l-0.094,-0.009l-0.095,-0.009l-0.095,-0.007l-0.098,-0.007l-0.097,-0.005l-0.099,-0.005l-0.099,-0.002l-0.1,-0.002l-0.1,0l-0.101,0.001l-0.101,0.003l-0.101,0.004l-0.101,0.006l-0.102,0.007l-0.101,0.009l-0.101,0.011l-0.101,0.013l-0.1,0.014l-0.1,0.016l-0.1,0.019l-0.098,0.02l-0.098,0.022l-0.098,0.024l-0.096,0.026l-0.096,0.028l-0.098,0.031l-0.043,0.015l-0.047,0.016l-0.047,0.017l-0.046,0.018l-0.046,0.018l-0.045,0.018l-0.045,0.019l-0.052,0.023l-0.05,0.02l-0.05,0.019l-0.051,0.016l-0.052,0.014l-0.052,0.012l-0.053,0.01l-0.053,0.007l-0.053,0.006l-0.054,0.003l-0.053,0l-0.054,-0.001l-0.053,-0.004l-0.054,-0.006l-0.052,-0.008l-0.053,-0.01l-0.052,-0.013l-0.052,-0.015l-0.05,-0.016l-0.051,-0.019l-0.049,-0.021l-0.048,-0.024l-0.047,-0.025l-0.047,-0.027l-0.045,-0.029l-0.044,-0.031l-0.042,-0.032l-0.041,-0.035l-0.04,-0.036l-0.038,-0.037l-0.036,-0.04l-0.035,-0.041l-0.033,-0.042l-0.031,-0.043l-0.029,-0.045l-0.028,-0.046l-0.025,-0.047l-0.024,-0.048l-0.021,-0.049l-0.02,-0.05l-0.017,-0.051l-0.015,-0.051l-0.013,-0.052l-0.011,-0.053l-0.009,-0.053l-0.006,-0.053l-0.004,-0.053l-0.002,-0.054l0,-0.053l0.003,-0.054l0.005,-0.053l0.007,-0.053l0.009,-0.053l0.011,-0.052l0.014,-0.052l0.016,-0.051l0.018,-0.051l0.02,-0.05l0.022,-0.048l0.024,-0.048l0.026,-0.047l0.028,-0.046l0.03,-0.044l0.032,-0.043l0.033,-0.042l0.036,-0.04l0.036,-0.039l0.039,-0.037l0.04,-0.036l0.041,-0.034l0.043,-0.032l0.045,-0.03l0.045,-0.029l0.046,-0.026l0.048,-0.025l0.049,-0.022l0.067,-0.03l0.076,-0.032l0.075,-0.031l0.076,-0.029l0.075,-0.029l0.076,-0.027l0.075,-0.027l0.078,-0.026l0.148,-0.047l0.151,-0.045l0.151,-0.04l0.15,-0.037l0.15,-0.034l0.149,-0.03l0.149,-0.027l0.147,-0.024l0.147,-0.022l0.146,-0.018l0.146,-0.016l0.144,-0.013l0.142,-0.01l0.142,-0.008l0.141,-0.006l0.139,-0.004l0.137,-0.001l0.137,0Z" style="fill:#fff;"/><path d="M228.092,65.715l0.07,0.005l0.07,0.01l0.069,0.013l0.068,0.017l0.068,0.02l0.066,0.025l0.065,0.028l0.063,0.031l0.061,0.035l0.059,0.039l0.057,0.041l0.055,0.045l0.052,0.047l0.049,0.051l0.046,0.053l0.044,0.055l0.04,0.058l0.038,0.06l0.033,0.061l0.031,0.064l0.027,0.065l0.023,0.067l0.019,0.068l0.016,0.068l0.012,0.07l0.008,0.07l0.004,0.07l0.001,0.033l0.004,0.098l0.009,0.164l0.006,0.101l0.008,0.116l0.01,0.131l0.012,0.144l0.015,0.154l0.017,0.167l0.019,0.177l0.023,0.187l0.025,0.195l0.029,0.204l0.032,0.212l0.036,0.219l0.019,0.11l0.021,0.114l0.021,0.112l0.022,0.116l0.023,0.116l0.025,0.118l0.025,0.119l0.026,0.118l0.028,0.12l0.028,0.12l0.03,0.121l0.031,0.122l0.032,0.121l0.033,0.122l0.034,0.123l0.035,0.121l0.037,0.122l0.038,0.123l0.04,0.122l0.04,0.12l0.041,0.12l0.044,0.121l0.044,0.12l0.045,0.118l0.047,0.119l0.048,0.117l0.049,0.116l0.051,0.115l0.052,0.112l0.053,0.114l0.054,0.11l0.056,0.11l0.057,0.107l0.058,0.106l0.06,0.105l0.061,0.102l0.062,0.1l0.063,0.099l0.064,0.095l0.065,0.095l0.067,0.092l0.068,0.089l0.07,0.088l0.033,0.041l0.037,0.044l0.034,0.04l0.035,0.04l0.037,0.041l0.036,0.04l0.036,0.038l0.036,0.037l0.038,0.038l0.038,0.038l0.037,0.035l0.037,0.035l0.038,0.036l0.038,0.034l0.039,0.033l0.039,0.033l0.039,0.032l0.039,0.031l0.04,0.032l0.04,0.029l0.039,0.029l0.041,0.029l0.042,0.029l0.039,0.027l0.041,0.026l0.042,0.026l0.042,0.025l0.043,0.026l0.043,0.024l0.042,0.023l0.043,0.022l0.043,0.022l0.045,0.022l0.044,0.02l0.044,0.02l0.046,0.019l0.046,0.019l0.046,0.018l0.047,0.017l0.046,0.017l0.048,0.016l0.048,0.015l0.048,0.014l0.05,0.014l0.049,0.013l0.05,0.013l0.052,0.012l0.051,0.01l0.053,0.011l0.053,0.009l0.053,0.009l0.054,0.008l0.055,0.007l0.056,0.006l0.057,0.006l0.057,0.004l0.058,0.004l0.059,0.003l0.06,0.002l0.061,0.001l0.061,0.001l0.063,-0.001l0.063,-0.002l0.065,-0.002l0.065,-0.004l0.066,-0.005l0.067,-0.005l0.068,-0.007l0.069,-0.008l0.07,-0.009l0.071,-0.01l0.071,-0.011l0.073,-0.012l0.074,-0.014l0.075,-0.014l0.076,-0.016l0.077,-0.017l0.078,-0.019l0.079,-0.019l0.08,-0.021l0.081,-0.022l0.083,-0.024l0.083,-0.025l0.084,-0.026l0.085,-0.028l0.086,-0.029l0.088,-0.031l0.088,-0.032l0.089,-0.033l0.091,-0.035l0.092,-0.037l0.093,-0.038l0.093,-0.039l0.095,-0.041l0.095,-0.043l0.097,-0.044l0.098,-0.046l0.104,-0.049l0.065,-0.029l0.066,-0.025l0.067,-0.022l0.068,-0.017l0.069,-0.014l0.07,-0.01l0.07,-0.007l0.07,-0.002l0.071,0.002l0.07,0.005l0.07,0.009l0.069,0.013l0.069,0.017l0.067,0.021l0.066,0.024l0.065,0.028l0.063,0.032l0.061,0.034l0.06,0.039l0.057,0.041l0.054,0.045l0.052,0.047l0.05,0.05l0.046,0.053l0.044,0.055l0.041,0.058l0.037,0.06l0.034,0.062l0.03,0.063l0.027,0.065l0.023,0.067l0.02,0.068l0.016,0.068l0.012,0.07l0.008,0.07l0.004,0.07l0.001,0.071l-0.004,0.07l-0.007,0.07l-0.011,0.07l-0.015,0.069l-0.019,0.068l-0.023,0.066l-0.026,0.066l-0.03,0.064l-0.033,0.062l-0.036,0.06l-0.04,0.058l-0.043,0.056l-0.046,0.054l-0.049,0.05l-0.051,0.049l-0.055,0.045l-0.056,0.042l-0.059,0.039l-0.061,0.035l-0.062,0.032l-0.116,0.056l-0.119,0.055l-0.119,0.055l-0.118,0.052l-0.117,0.051l-0.118,0.05l-0.117,0.047l-0.115,0.047l-0.115,0.044l-0.115,0.043l-0.115,0.041l-0.113,0.04l-0.114,0.038l-0.112,0.037l-0.112,0.035l-0.112,0.033l-0.111,0.032l-0.11,0.031l-0.11,0.028l-0.11,0.028l-0.109,0.025l-0.109,0.024l-0.107,0.023l-0.108,0.021l-0.107,0.02l-0.106,0.017l-0.106,0.017l-0.106,0.015l-0.105,0.013l-0.104,0.012l-0.104,0.01l-0.104,0.009l-0.102,0.007l-0.103,0.006l-0.102,0.004l-0.101,0.002l-0.101,0.002l-0.1,-0.001l-0.1,-0.002l-0.099,-0.003l-0.098,-0.005l-0.098,-0.007l-0.097,-0.007l-0.097,-0.01l-0.096,-0.011l-0.096,-0.012l-0.095,-0.014l-0.094,-0.015l-0.093,-0.017l-0.094,-0.018l-0.092,-0.02l-0.09,-0.02l-0.092,-0.023l-0.09,-0.024l-0.089,-0.025l-0.089,-0.026l-0.087,-0.028l-0.087,-0.029l-0.086,-0.03l-0.085,-0.032l-0.085,-0.033l-0.083,-0.034l-0.083,-0.035l-0.083,-0.037l-0.081,-0.038l-0.08,-0.038l-0.079,-0.041l-0.079,-0.041l-0.078,-0.042l-0.077,-0.044l-0.075,-0.043l-0.075,-0.046l-0.074,-0.046l-0.073,-0.048l-0.074,-0.049l-0.07,-0.048l-0.07,-0.05l-0.07,-0.051l-0.069,-0.053l-0.067,-0.052l-0.067,-0.053l-0.067,-0.055l-0.064,-0.054l-0.065,-0.056l-0.063,-0.057l-0.062,-0.057l-0.062,-0.058l-0.061,-0.059l-0.06,-0.059l-0.058,-0.059l-0.059,-0.061l-0.058,-0.062l-0.056,-0.061l-0.055,-0.061l-0.056,-0.064l-0.055,-0.064l-0.051,-0.062l-0.055,-0.066l-0.102,-0.129l-0.099,-0.131l-0.097,-0.133l-0.094,-0.135l-0.091,-0.137l-0.088,-0.137l-0.086,-0.139l-0.083,-0.14l-0.08,-0.14l-0.079,-0.143l-0.075,-0.142l-0.073,-0.144l-0.071,-0.144l-0.068,-0.144l-0.067,-0.146l-0.064,-0.146l-0.062,-0.146l-0.06,-0.147l-0.058,-0.145l-0.057,-0.147l-0.054,-0.147l-0.052,-0.146l-0.051,-0.147l-0.049,-0.147l-0.046,-0.146l-0.045,-0.144l-0.044,-0.146l-0.042,-0.145l-0.041,-0.143l-0.039,-0.143l-0.037,-0.143l-0.036,-0.141l-0.035,-0.141l-0.033,-0.139l-0.031,-0.138l-0.031,-0.139l-0.029,-0.135l-0.028,-0.134l-0.026,-0.133l-0.026,-0.132l-0.024,-0.131l-0.023,-0.128l-0.022,-0.128l-0.04,-0.246l-0.037,-0.239l-0.032,-0.231l-0.029,-0.221l-0.026,-0.212l-0.022,-0.2l-0.019,-0.189l-0.017,-0.176l-0.014,-0.164l-0.011,-0.15l-0.01,-0.137l-0.007,-0.123l-0.01,-0.191l-0.005,-0.124l-0.002,-0.043l0,-0.071l0.004,-0.07l0.007,-0.07l0.011,-0.07l0.016,-0.069l0.018,-0.067l0.023,-0.067l0.026,-0.066l0.03,-0.064l0.033,-0.062l0.037,-0.06l0.04,-0.058l0.043,-0.056l0.046,-0.053l0.049,-0.051l0.052,-0.048l0.054,-0.045l0.056,-0.042l0.059,-0.039l0.061,-0.035l0.063,-0.032l0.064,-0.029l0.066,-0.025l0.067,-0.021l0.069,-0.018l0.069,-0.014l0.069,-0.01l0.071,-0.006l0.07,-0.002l0.071,0.002Z" style="fill:#16102a;"/><g><g opacity="0.0500031"><clipPath id="_clip5"><rect x="121.859" y="118.106" width="18.16" height="19.767"/></clipPath><g clip-path="url(#_clip5)"><path d="M139.445,131.267c-0.724,-1.275 -1.447,-2.552 -2.171,-3.827c-0.813,-1.435 -1.51,-2.986 -2.994,-3.86c-0.524,-0.308 -1.057,-0.501 -1.588,-0.593c0.192,-1.697 -0.484,-3.48 -2.094,-4.329c-2.029,-1.073 -4.885,-0.6 -6.026,1.58c-1.653,3.157 -3.976,8.419 -1.881,11.856c1.653,2.716 4.775,3.15 7.498,1.817c0.175,-0.085 0.344,-0.179 0.512,-0.274c0.376,0.698 0.75,1.396 1.137,2.076c1.172,2.069 3.993,2.771 6.026,1.581c2.081,-1.217 2.759,-3.95 1.581,-6.027" style="fill:#3d3631;fill-rule:nonzero;"/></g></g></g><path d="M108.951,89.159c0,0 9.094,-0.284 8.81,10.231l0.852,-27.282l-9.662,4.547l0,12.504Z" style="fill:#494f5e;fill-rule:nonzero;"/><path d="M226.606,89.727c0,0 -9.095,-0.284 -8.811,10.231l-0.852,-27.282l9.663,4.547l0,12.504Z" style="fill:#494f5e;fill-rule:nonzero;"/><path d="M107.246,88.022c0,0 18.191,-13.707 34.777,-16.124c0,0 -3.509,-11.289 4.027,-16.371c0,0 -1.283,15.406 5.533,19.924c0,0 31.549,-10.856 74.474,9.301l1.519,0.913c0,0 13.407,-37.033 -26.598,-64.91c-2.29,-1.596 -4.957,-2.596 -7.741,-2.735c-2.394,-0.12 -5.179,0.346 -7.621,2.329c0,0 -48.294,-20.869 -75.325,29.091c0,0 -4.963,16.083 -3.045,38.582" style="fill:#16102a;fill-rule:nonzero;"/><path d="M189.567,11.576l0.067,0.004l0.067,0.008l0.066,0.011l0.065,0.015l0.064,0.018l0.064,0.021l0.062,0.025l0.061,0.028l0.059,0.031l0.058,0.034l0.056,0.037l0.053,0.04l0.052,0.043l0.049,0.046l0.047,0.047l0.044,0.051l0.042,0.052l0.038,0.055l0.036,0.056l0.033,0.059l0.03,0.06l0.026,0.061l0.023,0.063l0.02,0.064l0.017,0.065l0.013,0.066l0.01,0.066l0.006,0.067l0.003,0.066l-0.001,0.067l-0.004,0.067l-0.008,0.067l-0.012,0.066l-0.014,0.065l-0.018,0.065l-0.022,0.063l-0.024,0.062l-0.028,0.061l-0.032,0.059l-0.034,0.058l-0.037,0.056l-0.04,0.053l-0.043,0.052l-0.045,0.049l-0.048,0.047l-0.05,0.044l-0.053,0.042l-0.054,0.038l-0.057,0.036l-0.058,0.033l-0.06,0.03l-0.062,0.026l-0.176,0.071l-0.165,0.068l-0.159,0.069l-0.155,0.069l-0.15,0.07l-0.145,0.07l-0.141,0.07l-0.136,0.071l-0.132,0.071l-0.128,0.071l-0.123,0.071l-0.119,0.072l-0.115,0.072l-0.111,0.072l-0.106,0.071l-0.103,0.072l-0.098,0.072l-0.095,0.072l-0.091,0.071l-0.087,0.071l-0.084,0.071l-0.08,0.071l-0.077,0.071l-0.073,0.07l-0.07,0.07l-0.067,0.071l-0.063,0.069l-0.061,0.069l-0.058,0.069l-0.054,0.067l-0.053,0.069l-0.049,0.067l-0.046,0.067l-0.044,0.067l-0.042,0.067l-0.039,0.065l-0.037,0.066l-0.036,0.066l-0.032,0.064l-0.03,0.064l-0.029,0.065l-0.028,0.065l-0.024,0.063l-0.024,0.064l-0.021,0.064l-0.02,0.063l-0.018,0.064l-0.017,0.061l-0.015,0.063l-0.014,0.065l-0.012,0.062l-0.01,0.062l-0.01,0.063l-0.007,0.063l-0.007,0.064l-0.005,0.061l-0.004,0.063l-0.003,0.063l-0.002,0.062l0,0.063l0.001,0.063l0.002,0.063l0.003,0.062l0.005,0.064l0.005,0.062l0.007,0.062l0.007,0.062l0.009,0.062l0.009,0.062l0.011,0.062l0.011,0.06l0.013,0.063l0.013,0.062l0.014,0.059l0.015,0.059l0.016,0.062l0.017,0.059l0.017,0.058l0.018,0.06l0.019,0.059l0.019,0.057l0.019,0.056l0.021,0.057l0.021,0.056l0.02,0.054l0.021,0.051l0.046,0.111l0.045,0.103l0.046,0.1l0.047,0.095l0.047,0.092l0.046,0.088l0.046,0.084l0.045,0.078l0.043,0.073l0.041,0.068l0.04,0.063l0.037,0.058l0.034,0.05l0.03,0.045l0.025,0.035l0.043,0.06l0.023,0.031l0.007,0.008l0.04,0.054l0.037,0.056l0.034,0.058l0.03,0.059l0.028,0.061l0.024,0.062l0.022,0.064l0.017,0.065l0.015,0.065l0.011,0.066l0.007,0.067l0.004,0.066l0.001,0.067l-0.003,0.067l-0.007,0.067l-0.01,0.066l-0.013,0.066l-0.017,0.064l-0.021,0.064l-0.023,0.063l-0.027,0.061l-0.03,0.06l-0.033,0.058l-0.036,0.057l-0.039,0.054l-0.042,0.053l-0.044,0.05l-0.047,0.047l-0.05,0.046l-0.051,0.042l-0.054,0.04l-0.056,0.037l-0.058,0.034l-0.059,0.03l-0.061,0.028l-0.063,0.024l-0.063,0.022l-0.065,0.017l-0.065,0.015l-0.066,0.011l-0.067,0.007l-0.067,0.004l-0.067,0.001l-0.067,-0.003l-0.066,-0.007l-0.066,-0.01l-0.066,-0.013l-0.065,-0.017l-0.064,-0.021l-0.062,-0.023l-0.062,-0.027l-0.06,-0.03l-0.058,-0.033l-0.056,-0.036l-0.055,-0.039l-0.052,-0.042l-0.05,-0.044l-0.048,-0.047l-0.045,-0.05l-0.042,-0.051l-0.019,-0.025l-0.05,-0.066l-0.07,-0.097l-0.046,-0.065l-0.047,-0.069l-0.051,-0.078l-0.055,-0.084l-0.057,-0.09l-0.06,-0.099l-0.062,-0.106l-0.064,-0.111l-0.065,-0.119l-0.067,-0.125l-0.066,-0.131l-0.068,-0.138l-0.066,-0.144l-0.066,-0.15l-0.063,-0.151l-0.033,-0.083l-0.032,-0.083l-0.031,-0.082l-0.03,-0.084l-0.03,-0.087l-0.029,-0.087l-0.028,-0.087l-0.027,-0.089l-0.027,-0.092l-0.025,-0.093l-0.025,-0.092l-0.023,-0.095l-0.023,-0.098l-0.021,-0.097l-0.02,-0.097l-0.019,-0.101l-0.017,-0.101l-0.016,-0.102l-0.015,-0.104l-0.012,-0.104l-0.011,-0.107l-0.01,-0.107l-0.007,-0.107l-0.006,-0.109l-0.003,-0.109l-0.002,-0.111l0.001,-0.112l0.002,-0.113l0.005,-0.114l0.007,-0.113l0.01,-0.117l0.012,-0.115l0.015,-0.117l0.017,-0.116l0.02,-0.118l0.023,-0.12l0.026,-0.116l0.028,-0.118l0.032,-0.122l0.034,-0.119l0.038,-0.119l0.04,-0.12l0.044,-0.12l0.047,-0.12l0.05,-0.119l0.053,-0.118l0.057,-0.121l0.06,-0.119l0.063,-0.117l0.066,-0.118l0.071,-0.118l0.073,-0.117l0.076,-0.115l0.081,-0.116l0.084,-0.115l0.086,-0.113l0.091,-0.113l0.094,-0.113l0.097,-0.11l0.102,-0.111l0.104,-0.109l0.108,-0.108l0.112,-0.108l0.115,-0.105l0.118,-0.105l0.122,-0.104l0.126,-0.103l0.129,-0.102l0.133,-0.1l0.137,-0.099l0.14,-0.099l0.144,-0.096l0.147,-0.096l0.152,-0.095l0.155,-0.093l0.159,-0.092l0.163,-0.091l0.166,-0.09l0.171,-0.089l0.175,-0.087l0.178,-0.086l0.183,-0.085l0.187,-0.083l0.192,-0.083l0.195,-0.081l0.191,-0.077l0.063,-0.023l0.064,-0.02l0.065,-0.016l0.066,-0.013l0.066,-0.01l0.066,-0.006l0.067,-0.003l0.067,0.001Z" style="fill:#16102a;"/><path d="M160.449,356.217l-24.88,0l0,-3.313c0,-5.281 4.281,-9.561 9.562,-9.561l5.756,0c5.282,0 9.562,4.28 9.562,9.561l0,3.313Z" style="fill:#c89c76;fill-rule:nonzero;"/><path d="M159.672,347.785c-0.138,-1.154 -0.539,-2.284 -1.287,-3.228c-0.601,-0.757 -1.328,-1.319 -2.177,-1.674c-1.682,-0.703 -3.278,-0.347 -3.711,-0.226c-0.671,0.103 -3.067,0.781 -4.326,5.206c-1.258,-4.424 -3.653,-5.103 -4.325,-5.206c-0.433,-0.12 -2.03,-0.477 -3.711,0.226c-1.451,0.608 -2.7,1.544 -3.266,3.578c-0.035,0.129 -0.66,3.146 -0.66,3.146c-0.101,0.458 0.227,0.903 0.732,0.993c0.061,0.012 0.124,0.017 0.184,0.017c0.436,0 0.824,-0.277 0.913,-0.679l0.622,-2.813c0.016,-0.068 0.018,-0.134 0.015,-0.2c1.497,-3.521 4.323,-2.749 4.638,-2.65c0,0 4.043,0.755 3.762,11.386c-0.005,0.213 0.244,0.411 0.524,0.564c0.498,0.275 1.166,0.206 1.528,-0.212c0.087,-0.101 0.144,-0.211 0.141,-0.327c-0.286,-10.654 3.647,-11.373 3.647,-11.373c0,0 1.298,-0.405 2.509,0.102c0.986,0.413 1.759,1.297 2.298,2.626c0.036,0.092 0.092,0.171 0.155,0.242l0.187,3.096c0.027,0.466 0.467,0.823 0.981,0.798c0.515,-0.026 0.909,-0.424 0.882,-0.889c0,0 -0.12,-1.374 -0.255,-2.503" style="fill:#d3d3d3;fill-rule:nonzero;"/><path d="M140.877,344.402c0,0 -4.176,1.986 -5.053,6.05l0.989,0.619l2.488,-1.148l1.576,-5.521Z" style="fill:#c89c76;fill-rule:nonzero;"/><path d="M155.107,344.402c0,0 4.098,1.502 5.053,6.05l-0.955,1.193l-2.522,-1.722l-1.576,-5.521Z" style="fill:#c89c76;fill-rule:nonzero;"/><path d="M199.635,356.217l-24.88,0l0,-3.313c0,-5.281 4.28,-9.561 9.562,-9.561l5.756,0c5.281,0 9.562,4.28 9.562,9.561l0,3.313Z" style="fill:#c89c76;fill-rule:nonzero;"/><path d="M198.858,347.785c-0.137,-1.154 -0.539,-2.284 -1.286,-3.228c-0.601,-0.757 -1.328,-1.319 -2.178,-1.674c-1.681,-0.703 -3.278,-0.347 -3.711,-0.226c-0.671,0.103 -3.067,0.781 -4.325,5.206c-1.258,-4.424 -3.654,-5.103 -4.325,-5.206c-0.434,-0.12 -2.031,-0.477 -3.711,0.226c-1.452,0.608 -2.701,1.544 -3.266,3.578c-0.036,0.129 -0.661,3.146 -0.661,3.146c-0.101,0.458 0.227,0.903 0.733,0.993c0.061,0.012 0.123,0.017 0.183,0.017c0.436,0 0.825,-0.277 0.914,-0.679l0.622,-2.813c0.015,-0.068 0.018,-0.134 0.015,-0.2c1.497,-3.521 4.323,-2.749 4.638,-2.65c0,0 4.043,0.755 3.762,11.386c-0.006,0.213 0.244,0.411 0.523,0.564c0.498,0.275 1.167,0.206 1.529,-0.212c0.087,-0.101 0.144,-0.211 0.141,-0.327c-0.287,-10.654 3.646,-11.373 3.646,-11.373c0,0 1.298,-0.405 2.51,0.102c0.985,0.413 1.758,1.297 2.297,2.626c0.037,0.092 0.092,0.171 0.156,0.242l0.186,3.096c0.028,0.466 0.467,0.823 0.982,0.798c0.515,-0.026 0.908,-0.424 0.881,-0.889c0,0 -0.12,-1.374 -0.255,-2.503" style="fill:#d3d3d3;fill-rule:nonzero;"/><path d="M180.063,344.402c0,0 -4.175,1.986 -5.053,6.05l0.99,0.619l2.487,-1.148l1.576,-5.521Z" style="fill:#c89c76;fill-rule:nonzero;"/><path d="M194.292,344.402c0,0 4.099,1.502 5.053,6.05l-0.954,1.193l-2.523,-1.722l-1.576,-5.521Z" style="fill:#c89c76;fill-rule:nonzero;"/><path d="M159.291,357.387l-22.563,0c-0.984,0 -1.781,-0.798 -1.781,-1.78l0,-1.33l26.124,0l0,1.33c0,0.982 -0.797,1.78 -1.78,1.78" style="fill:#2f2e30;fill-rule:nonzero;"/><path d="M198.477,357.387l-22.563,0c-0.984,0 -1.781,-0.798 -1.781,-1.78l0,-1.33l26.124,0l0,1.33c0,0.982 -0.797,1.78 -1.78,1.78" style="fill:#2f2e30;fill-rule:nonzero;"/></g><defs><linearGradient id="_Linear4" x1="0" y1="0" x2="1" y2="0" gradientUnits="userSpaceOnUse" gradientTransform="matrix(0.711222,-21.5239,21.5239,0.711222,168.32,164.388)"><stop offset="0" style="stop-color:#c79b74;stop-opacity:1"/><stop offset="1" style="stop-color:#231f20;stop-opacity:1"/></linearGradient></defs></svg>