<?xml version="1.0" encoding="UTF-8" standalone="no"?><!DOCTYPE svg PUBLIC "-//W3C//DTD SVG 1.1//EN" "http://www.w3.org/Graphics/SVG/1.1/DTD/svg11.dtd"><svg width="100%" height="100%" viewBox="0 0 1617 3857" version="1.1" xmlns="http://www.w3.org/2000/svg" xmlns:xlink="http://www.w3.org/1999/xlink" xml:space="preserve" style="fill-rule:evenodd;clip-rule:evenodd;stroke-linejoin:round;stroke-miterlimit:1.41421;"><path d="M1284,3667.59c-0.868,-2.529 -1.889,-4.664 -2.905,-6.422c2.343,0.114 4.719,0.252 7.123,0.41c-1.409,1.978 -2.816,3.978 -4.218,6.012m-419.747,15.245c-0.488,-0.354 -0.973,-0.708 -1.467,-1.065c0.816,-0.065 1.63,-0.128 2.45,-0.199c-0.328,0.423 -0.656,0.846 -0.983,1.264m752.01,-3682.84l-1610.68,0l0,3597.53l1.837,0c-3.399,14.754 -6.259,31.164 -7.419,47.787c0,0 86.402,-6.277 206.021,54.932c0,0 7.377,-24.191 14.148,-48.069l80.601,-6.877c0,0 20.754,-11.932 21.694,-43.02c0.004,-0.156 0.001,-0.303 0.005,-0.458c15.819,5.894 32.582,12.992 50.122,21.546c4.782,4.674 8.953,6.157 8.953,6.157c0.999,-0.022 2.485,-0.134 4.364,-0.323c2.352,-0.049 6.984,-0.554 12.943,-1.338c0.731,0.752 1.147,1.167 1.147,1.167c1.157,-0.59 2.302,-1.19 3.445,-1.791c2.06,-0.286 4.227,-0.595 6.474,-0.923c16.261,-2.198 38.919,-5.495 56.006,-8.905c1.182,-0.198 2.26,-0.379 3.217,-0.539c0.482,2.164 0.993,4.328 1.55,6.484c0,0 18.049,-7.523 50.824,-11.957c6.281,8.417 30.678,39.522 71.694,72.97c-2.82,5.443 -5.572,11.014 -8.228,16.731c0,0 41.025,38.231 90.313,60.463c0,0 2.091,-7.226 7.564,-19.737c2.066,1.001 4.144,1.995 6.248,2.972c0,0 18.624,-19.998 37.434,-48.829c15.157,5.512 35.219,12.563 50.952,17.223c4.909,1.623 7.94,2.614 7.97,2.624c0.513,0.172 0.994,0.333 1.451,0.486c-38.175,58.657 -74.123,83.257 -74.123,83.257c31.324,34.148 73.454,57.276 73.454,57.276c29.444,-27.624 51.302,-57.308 67.028,-83.282c17.604,12.815 31.333,20.357 31.333,20.357c43.238,-40.568 70.119,-85.574 85.234,-116.746c2.032,0.735 4.182,1.503 6.417,2.293c2.642,0.966 5.459,1.989 8.408,3.049c11.204,58.032 31.492,95.859 31.492,95.859c1.943,0.028 5.281,-0.265 9.524,-0.777c9.741,24.201 23.411,42.057 23.411,42.057l46.791,-53.6c0.704,-0.129 1.09,-0.2 1.09,-0.2c-0.093,-0.247 -0.18,-0.49 -0.273,-0.736l22.77,-26.081c-21.822,-15.854 -31.207,-31.698 -33.809,-45.985c8.91,2.486 17.404,5.823 24.646,9.093c24.081,40.144 30.71,67.556 30.71,67.556c29.458,-11.741 55.883,-30.039 69.634,-40.425l37.863,5.263c8.593,7.677 45.347,39.315 88.414,58.74c0,0 19.902,-68.796 97.837,-149.67c7.927,7.075 14.858,12.991 17.923,14.92c0,0 2.473,-1.361 6.806,-4.101c1.173,2.978 2.646,6.055 4.506,9.214c15.777,26.805 36.234,24.937 36.234,24.937c0.899,-0.437 2.202,-1.162 3.83,-2.119c0.741,-0.36 1.72,-0.893 2.89,-1.566l0.002,-0.001c4.03,-2.316 10.393,-6.336 17.71,-11.091c0.027,-0.016 0.054,-0.034 0.08,-0.051c8.923,3.978 14.607,6.067 14.607,6.067c2.973,-3.779 5.836,-7.57 8.591,-11.363l26.141,-0.479c0,0 21.505,-10.521 24.519,-41.476c1.268,-13.038 -1.128,-22.438 -4.326,-28.965l21.991,0l0,-3597.53Z" style="fill:#527a38;fill-rule:nonzero;"/></svg>