<?xml version="1.0" encoding="UTF-8" standalone="no"?><!DOCTYPE svg PUBLIC "-//W3C//DTD SVG 1.1//EN" "http://www.w3.org/Graphics/SVG/1.1/DTD/svg11.dtd"><svg width="100%" height="100%" viewBox="0 0 1366 768" version="1.1" xmlns="http://www.w3.org/2000/svg" xmlns:xlink="http://www.w3.org/1999/xlink" xml:space="preserve" style="fill-rule:evenodd;clip-rule:evenodd;stroke-linecap:round;stroke-linejoin:round;stroke-miterlimit:10;"><g id="Background"><rect x="0" y="0" width="1366" height="768" style="fill:#161333;fill-rule:nonzero;"/></g><g id="Layer-9"><path d="M1014.8,78.355l0.499,0.096l0.488,0.143l0.472,0.189l0.452,0.233l0.427,0.275l0.4,0.314l0.368,0.351l0.333,0.384l0.295,0.414l0.254,0.44l0.211,0.463l0.166,0.48l0.12,0.494l0.072,0.503l0.025,0.508l0,126.423l-0.025,0.508l-0.072,0.503l-0.12,0.494l-0.166,0.48l-0.211,0.463l-0.254,0.44l-0.295,0.414l-0.333,0.384l-0.368,0.351l-0.4,0.314l-0.427,0.275l-0.452,0.233l-0.472,0.189l-0.488,0.143l-0.499,0.096l-0.506,0.048l-0.508,0l-0.506,-0.048l-0.499,-0.096l-0.488,-0.143l-0.472,-0.189l-0.452,-0.233l-0.427,-0.275l-0.4,-0.314l-0.368,-0.351l-0.333,-0.384l-0.294,-0.414l-0.255,-0.44l-0.211,-0.463l-0.166,-0.48l-0.12,-0.494l-0.072,-0.503l-0.024,-0.508l0,-126.423l0.024,-0.508l0.072,-0.503l0.12,-0.494l0.166,-0.48l0.211,-0.463l0.255,-0.44l0.294,-0.414l0.333,-0.384l0.368,-0.351l0.4,-0.314l0.427,-0.275l0.452,-0.233l0.472,-0.189l0.488,-0.143l0.499,-0.096l0.506,-0.049l0.508,0l0.506,0.049Z" style="fill:#76cb4b;"/><path d="M1004.66,229.104c0,0 -20.509,104.033 -130.226,56l-47.273,141.121c0,0 104.796,13.019 151.948,-41.809c29.316,-34.086 35.894,-123.182 25.551,-155.312" style="fill:#76cb4b;fill-rule:nonzero;"/><path d="M877.579,294.432c0,0 77.866,38.468 126.798,-38.34c0,0 -0.707,92.071 -12.581,107.44c-11.874,15.369 -44.024,61.533 -155.648,54.577c0,0 36.269,-113.023 41.431,-123.677" style="fill:#71b748;fill-rule:nonzero;"/><path d="M1006.85,268.751c0,-0.001 -36.18,53.127 -104.323,40.778c0,0 -4.272,19.909 -25.846,15.439l-22.247,66.411c0,0 23.409,-4.772 21.841,18.07c0,0 89.603,1.402 120.191,-61.571l10.384,-79.128Z" style="fill:#76cb4b;fill-rule:nonzero;"/><path d="M944.501,107.519c0,0 -26.646,114.122 -48.716,144.323c0,0 131.728,68.329 77.624,138.787c0,0 50.436,-40.449 65.778,-179.613c0,0 -2.869,-75.309 -94.686,-103.497" style="fill:#76cb4b;fill-rule:nonzero;"/><path d="M949.724,116.6c0,0 -17.732,100.46 -39.802,130.662c0,0 116.851,66.517 76.155,130.671c0,0 40.062,-42.207 52.201,-159.134c0,0 3.262,-74.011 -88.554,-102.199" style="fill:#71b748;fill-rule:nonzero;"/><path d="M991.996,369.969c0,0 38.756,-48.014 -48.427,-115.357c0,0 12.444,-21.239 -11.631,-32.562c0,0 20.568,-45.037 25.077,-75.188c0,0 13.435,11.791 24.017,-7.867c0,0 55.638,26.57 56.453,85.988c0,0 -7.93,92.335 -45.489,144.986" style="fill:#76cb4b;fill-rule:nonzero;"/><path d="M1035.76,239.521c0,0 -11.353,1.722 -18.87,25.136c-7.518,23.414 -11.275,66.007 -9.85,79.884c0,0 21.462,-41.589 28.72,-105.02" style="fill:#629b3d;fill-rule:nonzero;"/><path d="M843.194,312.522l0.438,0.055l0.432,0.091l0.423,0.126l0.412,0.16l0.396,0.194l0.379,0.226l0.36,0.256l0.337,0.286l0.312,0.312l0.285,0.337l0.257,0.359l0.226,0.379l0.194,0.397l0.16,0.411l0.126,0.423l0.091,0.432l0.054,0.439l0.018,0.441l0,94.963l-0.018,0.441l-0.054,0.438l-0.091,0.432l-0.126,0.423l-0.16,0.411l-0.194,0.397l-0.226,0.379l-0.257,0.359l-0.285,0.337l-0.312,0.312l-0.337,0.286l-0.36,0.256l-0.379,0.226l-0.396,0.194l-0.412,0.161l-0.423,0.126l-0.432,0.09l-0.438,0.055l-0.441,0.018l-0.441,-0.018l-0.438,-0.055l-0.432,-0.09l-0.423,-0.126l-0.412,-0.161l-0.396,-0.194l-0.38,-0.226l-0.359,-0.256l-0.337,-0.286l-0.312,-0.312l-0.285,-0.337l-0.257,-0.359l-0.226,-0.379l-0.194,-0.397l-0.16,-0.411l-0.126,-0.423l-0.091,-0.432l-0.054,-0.438l-0.019,-0.441l0,-94.963l0.019,-0.441l0.054,-0.439l0.091,-0.432l0.126,-0.423l0.16,-0.411l0.194,-0.397l0.226,-0.379l0.257,-0.359l0.285,-0.337l0.312,-0.312l0.337,-0.286l0.359,-0.256l0.38,-0.226l0.396,-0.194l0.412,-0.16l0.423,-0.126l0.432,-0.091l0.438,-0.055l0.441,-0.018l0.441,0.018Z" style="fill:#71b748;"/><path d="M967.855,95.795l0.283,0.03l0.28,0.045l0.278,0.06l0.275,0.075l0.27,0.09l0.265,0.103l0.259,0.118l0.252,0.131l0.245,0.144l0.237,0.157l0.228,0.17l0.219,0.181l0.209,0.193l0.199,0.204l0.187,0.214l0.175,0.224l0.164,0.233l0.151,0.241l0.138,0.248l0.124,0.256l0.11,0.262l0.097,0.268l0.082,0.272l0.068,0.276l0.052,0.28l0.038,0.282l0.023,0.283l0.007,0.284l0,39.034l-0.007,0.285l-0.023,0.283l-0.038,0.282l-0.052,0.279l-0.068,0.277l-0.082,0.272l-0.097,0.267l-0.11,0.262l-0.124,0.256l-0.138,0.249l-0.151,0.241l-0.164,0.233l-0.175,0.223l-0.187,0.215l-0.199,0.203l-0.209,0.193l-0.219,0.182l-0.228,0.169l-0.237,0.157l-0.245,0.145l-0.252,0.131l-0.259,0.117l-0.265,0.104l-0.27,0.089l-0.275,0.075l-0.278,0.06l-0.28,0.046l-0.283,0.03l-0.284,0.015l-0.284,0l-0.284,-0.015l-0.283,-0.03l-0.281,-0.046l-0.278,-0.06l-0.274,-0.075l-0.27,-0.089l-0.265,-0.104l-0.259,-0.117l-0.253,-0.131l-0.245,-0.145l-0.237,-0.157l-0.228,-0.169l-0.219,-0.182l-0.209,-0.193l-0.198,-0.203l-0.187,-0.215l-0.176,-0.223l-0.163,-0.233l-0.151,-0.241l-0.138,-0.249l-0.124,-0.256l-0.111,-0.262l-0.096,-0.267l-0.083,-0.272l-0.067,-0.277l-0.053,-0.279l-0.038,-0.282l-0.022,-0.283l-0.008,-0.285l0,-39.034l0.008,-0.284l0.022,-0.283l0.038,-0.282l0.053,-0.28l0.067,-0.276l0.083,-0.272l0.096,-0.268l0.111,-0.262l0.124,-0.256l0.138,-0.248l0.151,-0.241l0.163,-0.233l0.176,-0.224l0.187,-0.214l0.198,-0.204l0.209,-0.193l0.219,-0.181l0.228,-0.17l0.237,-0.157l0.245,-0.144l0.253,-0.131l0.259,-0.118l0.265,-0.103l0.27,-0.09l0.274,-0.075l0.278,-0.06l0.281,-0.045l0.283,-0.03l0.284,-0.015l0.284,0l0.284,0.015Z" style="fill:#71b748;"/><path d="M1003.88,129.591l0.326,0.041l0.324,0.06l0.319,0.081l0.313,0.099l0.307,0.119l0.299,0.138l0.29,0.155l0.279,0.174l0.269,0.19l0.256,0.206l0.243,0.221l0.229,0.237l0.214,0.249l0.199,0.263l0.181,0.274l0.165,0.285l0.146,0.295l0.129,0.303l0.109,0.31l0.09,0.316l0.07,0.322l0.051,0.325l0.03,0.327l0.01,0.329l0,51.268l-0.01,0.329l-0.03,0.328l-0.051,0.325l-0.07,0.321l-0.09,0.316l-0.109,0.311l-0.129,0.303l-0.146,0.294l-0.165,0.285l-0.181,0.274l-0.199,0.263l-0.214,0.25l-0.229,0.236l-0.243,0.222l-0.256,0.206l-0.269,0.19l-0.279,0.173l-0.29,0.156l-0.299,0.137l-0.307,0.119l-0.313,0.1l-0.319,0.08l-0.324,0.06l-0.326,0.041l-0.329,0.02l-0.329,0l-0.328,-0.02l-0.327,-0.041l-0.323,-0.06l-0.319,-0.08l-0.313,-0.1l-0.307,-0.119l-0.299,-0.137l-0.29,-0.156l-0.28,-0.173l-0.268,-0.19l-0.256,-0.206l-0.244,-0.222l-0.229,-0.236l-0.214,-0.25l-0.198,-0.263l-0.182,-0.274l-0.164,-0.285l-0.147,-0.294l-0.128,-0.303l-0.109,-0.311l-0.09,-0.316l-0.071,-0.321l-0.05,-0.325l-0.031,-0.328l-0.01,-0.329l0,-51.268l0.01,-0.329l0.031,-0.327l0.05,-0.325l0.071,-0.322l0.09,-0.316l0.109,-0.31l0.128,-0.303l0.147,-0.295l0.164,-0.285l0.182,-0.274l0.198,-0.263l0.214,-0.249l0.229,-0.237l0.244,-0.221l0.256,-0.206l0.268,-0.19l0.28,-0.174l0.29,-0.155l0.299,-0.138l0.307,-0.119l0.313,-0.099l0.319,-0.081l0.323,-0.06l0.327,-0.041l0.328,-0.02l0.329,0l0.329,0.02Z" style="fill:#11132d;"/></g><g id="Layer-5"><path d="M774.714,521.203c0,0 -77.516,97.148 -94.331,111.319c0,0 -147.55,-56.255 -264.427,-200.125c0,0 46.515,-72.037 111.269,-123.445c0,0 66.831,114.374 247.489,212.251" style="fill:#76cb4b;fill-rule:nonzero;"/><path d="M761.493,522.227c0,0 -67.16,89.812 -82.99,103.151c0,0 -144.824,-59.828 -254.852,-195.268c0,0 41.429,-62.493 102.389,-110.889c0,0 65.38,110.865 235.453,203.007" style="fill:#71b748;fill-rule:nonzero;"/><path d="M650.798,600.668c0,0 16.997,-21.988 41.598,-6.074l40.487,-55.947c0,0 -17.523,-8.026 -8.894,-27.227c0,0 -112.058,-71.463 -186.709,-162.968c0,0 -14.326,10.618 -28.087,-5.646c0,0 -50.608,46.899 -65.421,70.683c0,0 20.783,11.914 8.032,35.024c0,0 75.221,87.668 198.994,152.155" style="fill:#76cb4b;fill-rule:nonzero;"/><path d="M612.365,460.124c-14.886,-20.085 -43.235,-24.299 -63.319,-9.413c-20.085,14.886 -24.299,43.235 -9.413,63.319c14.886,20.085 43.235,24.299 63.319,9.413c20.085,-14.885 24.299,-43.235 9.413,-63.319" style="fill:#629b3d;fill-rule:nonzero;"/><path d="M738.449,415.869l0.472,0.085l0.462,0.128l0.449,0.168l0.432,0.208l0.411,0.246l0.388,0.282l0.361,0.315l0.331,0.346l0.299,0.375l0.264,0.4l0.227,0.422l0.188,0.441l0.148,0.456l0.107,0.467l0.064,0.475l0.022,0.479l0,110.726l-0.022,0.479l-0.064,0.474l-0.107,0.468l-0.148,0.456l-0.188,0.44l-0.227,0.422l-0.264,0.4l-0.299,0.375l-0.331,0.347l-0.361,0.315l-0.388,0.282l-0.411,0.245l-0.432,0.208l-0.449,0.169l-0.462,0.127l-0.472,0.086l-0.477,0.043l-0.479,0l-0.478,-0.043l-0.471,-0.086l-0.462,-0.127l-0.449,-0.169l-0.432,-0.208l-0.411,-0.245l-0.388,-0.282l-0.361,-0.315l-0.331,-0.347l-0.299,-0.375l-0.264,-0.4l-0.227,-0.422l-0.189,-0.44l-0.148,-0.456l-0.106,-0.468l-0.065,-0.474l-0.021,-0.479l0,-110.726l0.021,-0.479l0.065,-0.475l0.106,-0.467l0.148,-0.456l0.189,-0.441l0.227,-0.422l0.264,-0.4l0.299,-0.375l0.331,-0.346l0.361,-0.315l0.388,-0.282l0.411,-0.246l0.432,-0.208l0.449,-0.168l0.462,-0.128l0.471,-0.085l0.478,-0.043l0.479,0l0.477,0.043Z" style="fill:#71b748;"/><path d="M716.172,466.522l0.314,0.038l0.312,0.056l0.307,0.074l0.303,0.093l0.297,0.11l0.29,0.128l0.281,0.144l0.273,0.161l0.262,0.177l0.252,0.192l0.24,0.207l0.227,0.22l0.214,0.234l0.199,0.246l0.185,0.257l0.169,0.267l0.152,0.278l0.137,0.286l0.119,0.293l0.101,0.3l0.083,0.305l0.066,0.31l0.046,0.313l0.028,0.315l0.01,0.317l0,48.477l-0.01,0.316l-0.028,0.316l-0.046,0.313l-0.066,0.309l-0.083,0.306l-0.101,0.3l-0.119,0.293l-0.137,0.286l-0.152,0.277l-0.169,0.268l-0.185,0.257l-0.199,0.246l-0.214,0.233l-0.227,0.221l-0.24,0.207l-0.252,0.192l-0.262,0.177l-0.273,0.161l-0.281,0.144l-0.29,0.128l-0.297,0.11l-0.303,0.092l-0.307,0.075l-0.312,0.056l-0.314,0.037l-0.316,0.019l-0.317,0l-0.316,-0.019l-0.314,-0.037l-0.312,-0.056l-0.308,-0.075l-0.302,-0.092l-0.297,-0.11l-0.29,-0.128l-0.282,-0.144l-0.272,-0.161l-0.263,-0.177l-0.251,-0.192l-0.24,-0.207l-0.227,-0.221l-0.214,-0.233l-0.199,-0.246l-0.185,-0.257l-0.169,-0.268l-0.153,-0.277l-0.136,-0.286l-0.119,-0.293l-0.101,-0.3l-0.084,-0.306l-0.065,-0.309l-0.047,-0.313l-0.028,-0.316l-0.009,-0.316l0,-48.477l0.009,-0.317l0.028,-0.315l0.047,-0.313l0.065,-0.31l0.084,-0.305l0.101,-0.3l0.119,-0.293l0.136,-0.286l0.153,-0.278l0.169,-0.267l0.185,-0.257l0.199,-0.246l0.214,-0.234l0.227,-0.22l0.24,-0.207l0.251,-0.192l0.263,-0.177l0.272,-0.161l0.282,-0.144l0.29,-0.128l0.297,-0.11l0.302,-0.093l0.308,-0.074l0.312,-0.056l0.314,-0.038l0.316,-0.018l0.317,0l0.316,0.018Z" style="fill:#11132d;"/></g><g id="Layer-8"><path d="M531.749,195.708c-27.488,-13.054 -39.259,-46.115 -26.205,-73.604c13.054,-27.488 46.115,-39.259 73.603,-26.205c27.488,13.054 39.259,46.115 26.206,73.603c-13.055,27.489 -46.116,39.26 -73.604,26.206" style="fill:#dbab56;fill-rule:nonzero;"/><path d="M579.069,96.063c25.845,12.273 36.846,43.173 24.573,69.018c-12.273,25.844 -43.174,36.846 -69.018,24.573c-25.845,-12.273 -36.847,-43.174 -24.573,-69.018c12.273,-25.845 43.174,-36.846 69.018,-24.573" style="fill:#efb30c;fill-rule:nonzero;"/><path d="M512.973,128.841c12.277,-25.852 43.166,-36.85 69.018,-24.573c11.453,5.439 20.146,14.58 24.9,25.26c-3.768,-14.022 -13.423,-26.627 -27.821,-33.465c-25.852,-12.277 -56.742,-1.279 -69.018,24.573c-6.838,14.398 -6.517,30.191 -0.413,43.517c-2.902,-11.203 -2.105,-23.859 3.334,-35.312" style="fill:#e5a300;fill-rule:nonzero;"/><path d="M605.594,125.502c9.623,27.028 -4.441,56.644 -31.391,66.103c-27.028,9.623 -56.48,-4.363 -66.103,-31.392" style="fill:#e5a300;fill-rule:nonzero;"/><g><g opacity="0.720001"><clipPath id="_clip1"><rect x="537.693" y="120.884" width="39.009" height="46.959"/></clipPath><g clip-path="url(#_clip1)"><path d="M541.697,158.064l9.299,4.417c6.003,3.171 10.015,0.117 12.034,-2.294c1.325,-1.582 2.203,-3.561 2.017,-5.644c-0.512,-5.747 -6.873,-8.737 -6.873,-8.737c9.251,3.152 13.117,-2.269 13.117,-2.269c0.077,-0.127 0.151,-0.254 0.223,-0.379c2.827,-4.941 0.396,-11.405 -5.183,-14.054l-8.879,-4.217l-15.755,33.177Z" style="fill:none;stroke:#f9e310;stroke-width:8.01px;"/></g></g></g><g><g opacity="0.720001"><g><path d="M568.395,127.861l1.428,-3.008c0.712,-1.499 0.198,-3.233 -1.149,-3.872c-1.346,-0.64 -3.014,0.057 -3.726,1.557l-1.428,3.008l4.875,2.315Z" style="fill:#f9e310;fill-rule:nonzero;"/><path d="M545.99,162.46l-1.558,3.281c-0.639,1.346 -0.067,2.955 1.28,3.594c1.346,0.64 2.956,0.067 3.595,-1.279l1.558,-3.281l-4.875,-2.315Z" style="fill:#f9e310;fill-rule:nonzero;"/></g></g></g><path d="M577.515,99.335c-24.052,-11.422 -53.011,-1.112 -64.433,22.94c-11.422,24.053 -1.111,53.011 22.941,64.433c24.052,11.422 53.011,1.112 64.432,-22.94c11.5,-24.216 1.112,-53.011 -22.94,-64.433m-44.367,93.427c-27.488,-13.053 -39.259,-46.115 -26.206,-73.603c13.054,-27.489 46.115,-39.259 73.604,-26.205c27.488,13.053 39.259,46.114 26.205,73.603c-13.054,27.488 -46.115,39.259 -73.603,26.205" style="fill:#f7d27f;fill-rule:nonzero;"/><path d="M578.62,97.855c-0.078,0.164 -0.319,0.25 -0.483,0.172c-0.163,-0.078 -0.249,-0.319 -0.171,-0.483l1.553,-3.272c0.078,-0.164 0.32,-0.25 0.483,-0.172c0.164,0.078 0.25,0.319 0.172,0.483l-1.554,3.272Z" style="fill:#ffe0a1;fill-rule:nonzero;"/><path d="M534.097,191.609c-0.078,0.164 -0.319,0.25 -0.483,0.172c-0.163,-0.078 -0.249,-0.319 -0.172,-0.483l1.554,-3.272c0.078,-0.164 0.32,-0.25 0.483,-0.172c0.164,0.078 0.25,0.319 0.172,0.483l-1.554,3.272Z" style="fill:#ffe0a1;fill-rule:nonzero;"/><path d="M604.154,126.423c-0.242,0.086 -0.569,-0.07 -0.491,-0.233c-0.086,-0.242 -0.008,-0.405 0.233,-0.491l3.379,-1.203c0.241,-0.086 0.568,0.07 0.49,0.233c0.086,0.241 -0.069,0.569 -0.233,0.491l-3.378,1.203Z" style="fill:#ffe0a1;fill-rule:nonzero;"/><path d="M506.418,161.22c-0.241,0.086 -0.568,-0.069 -0.491,-0.233c-0.086,-0.241 0.07,-0.568 0.233,-0.491l3.379,-1.203c0.241,-0.086 0.568,0.07 0.491,0.234c0.086,0.241 -0.07,0.568 -0.234,0.49l-3.378,1.203Z" style="fill:#ffe0a1;fill-rule:nonzero;"/><path d="M601.936,164.873c-0.164,-0.078 -0.25,-0.319 -0.172,-0.483c0.078,-0.163 0.319,-0.249 0.483,-0.171l3.272,1.553c0.164,0.078 0.25,0.32 0.172,0.483c-0.078,0.164 -0.319,0.25 -0.483,0.172l-3.272,-1.554Z" style="fill:#ffe0a1;fill-rule:nonzero;"/><path d="M508.182,120.35c-0.164,-0.078 -0.25,-0.319 -0.172,-0.483c0.078,-0.163 0.319,-0.249 0.483,-0.172l3.272,1.554c0.164,0.078 0.25,0.319 0.172,0.483c-0.078,0.164 -0.319,0.25 -0.483,0.172l-3.272,-1.554Z" style="fill:#ffe0a1;fill-rule:nonzero;"/><path d="M573.204,190.329c-0.086,-0.241 -0.008,-0.405 0.233,-0.491c0.242,-0.086 0.405,-0.008 0.491,0.234l1.203,3.378c0.086,0.241 -0.07,0.568 -0.233,0.491c-0.241,0.086 -0.569,-0.07 -0.491,-0.233l-1.203,-3.379Z" style="fill:#ffe0a1;fill-rule:nonzero;"/><path d="M538.485,92.43c-0.086,-0.241 -0.008,-0.405 0.233,-0.491c0.241,-0.086 0.568,0.07 0.491,0.233l1.203,3.379c0.086,0.241 -0.07,0.568 -0.234,0.491c-0.241,0.086 -0.568,-0.07 -0.49,-0.234l-1.203,-3.378Z" style="fill:#ffe0a1;fill-rule:nonzero;"/><path d="M553.32,92.858c0.086,0.241 -0.233,0.491 -0.396,0.413c-0.242,0.086 -0.492,-0.233 -0.414,-0.396l-0.315,-3.559c-0.086,-0.242 0.233,-0.491 0.396,-0.414c0.242,-0.086 0.492,0.234 0.414,0.397l0.315,3.559Z" style="fill:#ffe0a1;fill-rule:nonzero;"/><path d="M561.498,196.4c0.086,0.241 -0.233,0.491 -0.396,0.413c-0.242,0.086 -0.491,-0.233 -0.414,-0.396l-0.315,-3.559c-0.086,-0.241 0.233,-0.491 0.397,-0.413c0.241,-0.086 0.491,0.233 0.413,0.396l0.315,3.559Z" style="fill:#ffe0a1;fill-rule:nonzero;"/><path d="M589.623,105.085c-0.078,0.164 -0.482,0.172 -0.646,0.094c-0.164,-0.077 -0.172,-0.482 -0.094,-0.646l2.294,-2.72c0.078,-0.164 0.483,-0.172 0.647,-0.094c0.163,0.077 0.172,0.482 0.093,0.646l-2.294,2.72Z" style="fill:#ffe0a1;fill-rule:nonzero;"/><path d="M522.438,184.067c-0.077,0.164 -0.482,0.172 -0.645,0.094c-0.164,-0.077 -0.173,-0.482 -0.095,-0.646l2.294,-2.72c0.078,-0.164 0.484,-0.172 0.647,-0.094c0.163,0.077 0.171,0.482 0.093,0.646l-2.293,2.72Z" style="fill:#ffe0a1;fill-rule:nonzero;"/><path d="M606.847,139.332c-0.241,0.086 -0.491,-0.233 -0.413,-0.397c-0.086,-0.241 0.233,-0.491 0.396,-0.413l3.559,-0.315c0.242,-0.086 0.491,0.233 0.414,0.396c0.086,0.242 -0.234,0.491 -0.397,0.414l-3.559,0.315Z" style="fill:#ffe0a1;fill-rule:nonzero;"/><path d="M503.391,147.751c-0.241,0.086 -0.491,-0.233 -0.413,-0.396c-0.086,-0.242 0.233,-0.491 0.396,-0.414l3.559,-0.315c0.241,-0.086 0.491,0.233 0.413,0.397c0.086,0.241 -0.233,0.491 -0.396,0.413l-3.559,0.315Z" style="fill:#ffe0a1;fill-rule:nonzero;"/><path d="M594.784,175.712c-0.164,-0.078 -0.172,-0.482 -0.094,-0.646c0.077,-0.164 0.482,-0.172 0.646,-0.094l2.72,2.294c0.164,0.078 0.172,0.483 0.094,0.647c-0.077,0.163 -0.482,0.171 -0.646,0.093l-2.72,-2.294Z" style="fill:#ffe0a1;fill-rule:nonzero;"/><path d="M515.638,108.45c-0.164,-0.078 -0.172,-0.483 -0.094,-0.646c0.077,-0.164 0.482,-0.172 0.646,-0.095l2.72,2.295c0.164,0.078 0.172,0.483 0.094,0.646c-0.077,0.164 -0.482,0.172 -0.646,0.094l-2.72,-2.294Z" style="fill:#ffe0a1;fill-rule:nonzero;"/><path d="M528.783,101.459c0.086,0.241 0.172,0.482 -0.069,0.568c-0.242,0.086 -0.483,0.172 -0.569,-0.069l-2.005,-2.957c-0.086,-0.241 -0.171,-0.483 0.07,-0.569c0.241,-0.086 0.483,-0.171 0.569,0.07l2.004,2.957Z" style="fill:#ffe0a1;fill-rule:nonzero;"/><path d="M587.716,186.794c0.086,0.241 0.172,0.482 -0.069,0.568c-0.242,0.086 -0.483,0.172 -0.569,-0.069l-2.005,-2.957c-0.086,-0.241 -0.171,-0.483 0.07,-0.568c0.241,-0.086 0.483,-0.172 0.569,0.069l2.004,2.957Z" style="fill:#ffe0a1;fill-rule:nonzero;"/><path d="M566.381,93.647c-0.078,0.164 -0.233,0.491 -0.56,0.335c-0.164,-0.077 -0.491,-0.232 -0.336,-0.56l0.659,-3.497c0.077,-0.164 0.233,-0.491 0.56,-0.336c0.163,0.078 0.49,0.234 0.335,0.561l-0.658,3.497Z" style="fill:#ffe0a1;fill-rule:nonzero;"/><path d="M547.55,195.793c-0.078,0.163 -0.233,0.491 -0.561,0.335c-0.163,-0.078 -0.49,-0.233 -0.335,-0.56l0.658,-3.498c0.078,-0.163 0.234,-0.49 0.561,-0.335c0.163,0.078 0.49,0.233 0.335,0.56l-0.658,3.498Z" style="fill:#ffe0a1;fill-rule:nonzero;"/><path d="M598.247,114.795c-0.241,0.086 -0.482,0.172 -0.568,-0.07c-0.086,-0.241 -0.172,-0.482 0.069,-0.568l2.957,-2.005c0.241,-0.086 0.483,-0.171 0.569,0.07c0.086,0.241 0.171,0.483 -0.07,0.568l-2.957,2.005Z" style="fill:#ffe0a1;fill-rule:nonzero;"/><path d="M512.911,173.728c-0.241,0.086 -0.483,0.172 -0.568,-0.069c-0.086,-0.242 -0.172,-0.483 0.069,-0.569l2.957,-2.005c0.241,-0.086 0.483,-0.171 0.568,0.07c0.086,0.241 0.172,0.483 -0.069,0.569l-2.957,2.004Z" style="fill:#ffe0a1;fill-rule:nonzero;"/><path d="M606.059,152.393c-0.164,-0.078 -0.491,-0.233 -0.335,-0.561c0.077,-0.163 0.232,-0.49 0.56,-0.335l3.497,0.658c0.164,0.078 0.491,0.234 0.336,0.561c-0.078,0.163 -0.234,0.49 -0.561,0.335l-3.497,-0.658Z" style="fill:#ffe0a1;fill-rule:nonzero;"/><path d="M503.913,133.562c-0.164,-0.078 -0.491,-0.233 -0.335,-0.56c0.077,-0.164 0.233,-0.491 0.56,-0.336l3.497,0.659c0.164,0.077 0.491,0.233 0.336,0.56c-0.078,0.164 -0.233,0.491 -0.56,0.335l-3.498,-0.658Z" style="fill:#ffe0a1;fill-rule:nonzero;"/><path d="M560.044,31.384l0.313,0.03l0.31,0.052l0.307,0.071l0.301,0.091l0.294,0.111l0.287,0.13l0.277,0.148l0.267,0.166l0.256,0.184l0.243,0.199l0.23,0.215l0.215,0.23l0.199,0.243l0.183,0.256l0.166,0.267l0.149,0.277l0.13,0.287l0.11,0.294l0.092,0.301l0.071,0.307l0.051,0.31l0.031,0.313l0.011,0.314l0,53.475l-0.011,0.315l-0.031,0.313l-0.051,0.31l-0.071,0.306l-0.092,0.301l-0.11,0.295l-0.13,0.286l-0.149,0.278l-0.166,0.267l-0.183,0.256l-0.199,0.243l-0.215,0.229l-0.23,0.215l-0.243,0.2l-0.256,0.183l-0.267,0.166l-0.277,0.149l-0.287,0.129l-0.294,0.111l-0.301,0.092l-0.307,0.071l-0.31,0.051l-0.313,0.031l-0.314,0.01l-0.315,-0.01l-0.313,-0.031l-0.31,-0.051l-0.307,-0.071l-0.301,-0.092l-0.294,-0.111l-0.287,-0.129l-0.277,-0.149l-0.267,-0.166l-0.256,-0.183l-0.243,-0.2l-0.23,-0.215l-0.215,-0.229l-0.199,-0.243l-0.183,-0.256l-0.166,-0.267l-0.149,-0.278l-0.13,-0.286l-0.11,-0.295l-0.092,-0.301l-0.071,-0.306l-0.051,-0.31l-0.031,-0.313l-0.01,-0.315l0,-53.475l0.01,-0.314l0.031,-0.313l0.051,-0.31l0.071,-0.307l0.092,-0.301l0.11,-0.294l0.13,-0.287l0.149,-0.277l0.166,-0.267l0.183,-0.256l0.199,-0.243l0.215,-0.23l0.23,-0.215l0.243,-0.199l0.256,-0.184l0.267,-0.166l0.277,-0.148l0.287,-0.13l0.294,-0.111l0.301,-0.091l0.307,-0.071l0.31,-0.052l0.313,-0.03l0.315,-0.011l0.314,0.011Z" style="fill:#f7d27f;"/><path d="M525.314,63.264l0.246,0.026l0.245,0.038l0.242,0.05l0.239,0.063l0.236,0.076l0.232,0.087l0.227,0.099l0.221,0.111l0.216,0.122l0.208,0.133l0.202,0.143l0.194,0.154l0.186,0.163l0.177,0.173l0.169,0.182l0.158,0.19l0.149,0.198l0.138,0.205l0.127,0.212l0.117,0.219l0.105,0.224l0.093,0.229l0.081,0.234l0.069,0.238l0.057,0.241l0.045,0.243l0.031,0.246l0.02,0.246l0.006,0.248l0,32.467l-0.006,0.247l-0.02,0.247l-0.031,0.246l-0.045,0.243l-0.057,0.241l-0.069,0.238l-0.081,0.234l-0.093,0.229l-0.105,0.224l-0.117,0.219l-0.127,0.212l-0.138,0.205l-0.149,0.198l-0.158,0.19l-0.169,0.182l-0.177,0.173l-0.186,0.163l-0.194,0.154l-0.202,0.143l-0.208,0.133l-0.216,0.122l-0.221,0.111l-0.227,0.099l-0.232,0.087l-0.236,0.075l-0.239,0.063l-0.242,0.051l-0.245,0.038l-0.246,0.026l-0.247,0.012l-0.248,0l-0.247,-0.012l-0.246,-0.026l-0.245,-0.038l-0.242,-0.051l-0.24,-0.063l-0.235,-0.075l-0.232,-0.087l-0.227,-0.099l-0.221,-0.111l-0.216,-0.122l-0.209,-0.133l-0.201,-0.143l-0.194,-0.154l-0.186,-0.163l-0.178,-0.173l-0.168,-0.182l-0.158,-0.19l-0.149,-0.198l-0.138,-0.205l-0.128,-0.212l-0.116,-0.219l-0.105,-0.224l-0.093,-0.229l-0.081,-0.234l-0.07,-0.238l-0.056,-0.241l-0.045,-0.243l-0.032,-0.246l-0.019,-0.247l-0.006,-0.247l0,-32.467l0.006,-0.248l0.019,-0.246l0.032,-0.246l0.045,-0.243l0.056,-0.241l0.07,-0.238l0.081,-0.234l0.093,-0.229l0.105,-0.224l0.116,-0.219l0.128,-0.212l0.138,-0.205l0.149,-0.198l0.158,-0.19l0.168,-0.182l0.178,-0.173l0.186,-0.163l0.194,-0.154l0.201,-0.143l0.209,-0.133l0.216,-0.122l0.221,-0.111l0.227,-0.099l0.232,-0.087l0.235,-0.076l0.24,-0.063l0.242,-0.05l0.245,-0.038l0.246,-0.026l0.247,-0.013l0.248,0l0.247,0.013Z" style="fill:#f7d27f;"/><path d="M593.361,77.214l0.209,0.014l0.209,0.023l0.207,0.032l0.206,0.041l0.204,0.049l0.201,0.059l0.198,0.068l0.196,0.076l0.192,0.084l0.188,0.093l0.184,0.101l0.179,0.108l0.175,0.117l0.169,0.124l0.163,0.131l0.158,0.139l0.151,0.145l0.145,0.151l0.139,0.158l0.131,0.163l0.124,0.169l0.117,0.175l0.108,0.179l0.101,0.184l0.093,0.188l0.084,0.192l0.077,0.196l0.067,0.198l0.059,0.201l0.049,0.204l0.041,0.206l0.032,0.207l0.023,0.209l0.014,0.209l0.004,0.21l0,22.917l-0.004,0.209l-0.014,0.21l-0.023,0.208l-0.032,0.207l-0.041,0.206l-0.049,0.204l-0.059,0.201l-0.067,0.199l-0.077,0.195l-0.084,0.192l-0.093,0.188l-0.101,0.184l-0.108,0.179l-0.117,0.175l-0.124,0.169l-0.131,0.163l-0.139,0.158l-0.145,0.152l-0.151,0.145l-0.158,0.138l-0.163,0.131l-0.169,0.124l-0.175,0.117l-0.179,0.109l-0.184,0.1l-0.188,0.093l-0.192,0.085l-0.196,0.076l-0.198,0.067l-0.201,0.059l-0.204,0.05l-0.206,0.041l-0.207,0.031l-0.209,0.023l-0.209,0.014l-0.21,0.005l-0.209,-0.005l-0.21,-0.014l-0.208,-0.023l-0.207,-0.031l-0.206,-0.041l-0.204,-0.05l-0.201,-0.059l-0.199,-0.067l-0.195,-0.076l-0.192,-0.085l-0.188,-0.093l-0.184,-0.1l-0.179,-0.109l-0.175,-0.117l-0.169,-0.124l-0.163,-0.131l-0.158,-0.138l-0.152,-0.145l-0.145,-0.152l-0.138,-0.158l-0.131,-0.163l-0.124,-0.169l-0.117,-0.175l-0.109,-0.179l-0.1,-0.184l-0.093,-0.188l-0.085,-0.192l-0.076,-0.195l-0.067,-0.199l-0.059,-0.201l-0.05,-0.204l-0.041,-0.206l-0.031,-0.207l-0.023,-0.208l-0.014,-0.21l-0.005,-0.209l0,-22.917l0.005,-0.21l0.014,-0.209l0.023,-0.209l0.031,-0.207l0.041,-0.206l0.05,-0.204l0.059,-0.201l0.067,-0.198l0.076,-0.196l0.085,-0.192l0.093,-0.188l0.1,-0.184l0.109,-0.179l0.117,-0.175l0.124,-0.169l0.131,-0.163l0.138,-0.158l0.145,-0.151l0.152,-0.145l0.158,-0.139l0.163,-0.131l0.169,-0.124l0.175,-0.117l0.179,-0.108l0.184,-0.101l0.188,-0.093l0.192,-0.084l0.195,-0.076l0.199,-0.068l0.201,-0.059l0.204,-0.049l0.206,-0.041l0.207,-0.032l0.208,-0.023l0.21,-0.014l0.209,-0.004l0.21,0.004Z" style="fill:#f7d27f;"/><path d="M550.357,77.214l0.222,0.016l0.22,0.025l0.22,0.036l0.217,0.046l0.215,0.056l0.212,0.065l0.209,0.076l0.205,0.085l0.201,0.094l0.196,0.104l0.192,0.112l0.186,0.121l0.18,0.13l0.174,0.138l0.168,0.146l0.16,0.153l0.154,0.161l0.145,0.167l0.138,0.174l0.13,0.18l0.121,0.187l0.113,0.191l0.103,0.196l0.095,0.201l0.085,0.206l0.075,0.208l0.066,0.213l0.056,0.215l0.045,0.217l0.036,0.219l0.026,0.221l0.015,0.221l0.005,0.222l0,25.782l-0.005,0.222l-0.015,0.222l-0.026,0.22l-0.036,0.219l-0.045,0.218l-0.056,0.215l-0.066,0.212l-0.075,0.209l-0.085,0.205l-0.095,0.201l-0.103,0.196l-0.113,0.192l-0.121,0.186l-0.13,0.18l-0.138,0.174l-0.145,0.168l-0.154,0.16l-0.16,0.154l-0.168,0.145l-0.174,0.138l-0.18,0.13l-0.186,0.121l-0.192,0.113l-0.196,0.103l-0.201,0.095l-0.205,0.084l-0.209,0.076l-0.212,0.066l-0.215,0.055l-0.217,0.046l-0.22,0.036l-0.22,0.026l-0.222,0.015l-0.222,0.005l-0.222,-0.005l-0.221,-0.015l-0.221,-0.026l-0.219,-0.036l-0.217,-0.046l-0.215,-0.055l-0.212,-0.066l-0.209,-0.076l-0.205,-0.084l-0.201,-0.095l-0.197,-0.103l-0.191,-0.113l-0.186,-0.121l-0.181,-0.13l-0.174,-0.138l-0.167,-0.145l-0.161,-0.154l-0.153,-0.16l-0.146,-0.168l-0.138,-0.174l-0.129,-0.18l-0.122,-0.186l-0.112,-0.192l-0.104,-0.196l-0.094,-0.201l-0.085,-0.205l-0.075,-0.209l-0.066,-0.212l-0.056,-0.215l-0.046,-0.218l-0.036,-0.219l-0.025,-0.22l-0.016,-0.222l-0.005,-0.222l0,-25.782l0.005,-0.222l0.016,-0.221l0.025,-0.221l0.036,-0.219l0.046,-0.217l0.056,-0.215l0.066,-0.213l0.075,-0.208l0.085,-0.206l0.094,-0.201l0.104,-0.196l0.112,-0.191l0.122,-0.187l0.129,-0.18l0.138,-0.174l0.146,-0.167l0.153,-0.161l0.161,-0.153l0.167,-0.146l0.174,-0.138l0.181,-0.13l0.186,-0.121l0.191,-0.112l0.197,-0.104l0.201,-0.094l0.205,-0.085l0.209,-0.076l0.212,-0.065l0.215,-0.056l0.217,-0.046l0.219,-0.036l0.221,-0.025l0.221,-0.016l0.222,-0.005l0.222,0.005Z" style="fill:#11132d;"/><path d="M583.827,83.901l0.268,0.022l0.267,0.038l0.265,0.053l0.261,0.067l0.257,0.082l0.252,0.096l0.246,0.11l0.239,0.124l0.233,0.137l0.224,0.15l0.215,0.162l0.206,0.174l0.196,0.185l0.185,0.196l0.174,0.206l0.162,0.216l0.15,0.224l0.137,0.232l0.124,0.24l0.11,0.246l0.096,0.252l0.082,0.256l0.068,0.262l0.052,0.264l0.038,0.267l0.023,0.269l0.007,0.269l0,39.151l-0.007,0.27l-0.023,0.268l-0.038,0.267l-0.052,0.265l-0.068,0.261l-0.082,0.257l-0.096,0.252l-0.11,0.246l-0.124,0.239l-0.137,0.233l-0.15,0.224l-0.162,0.215l-0.174,0.206l-0.185,0.196l-0.196,0.186l-0.206,0.173l-0.215,0.163l-0.224,0.149l-0.233,0.137l-0.239,0.124l-0.246,0.11l-0.252,0.096l-0.257,0.082l-0.261,0.068l-0.265,0.052l-0.267,0.038l-0.268,0.023l-0.27,0.007l-0.269,-0.007l-0.269,-0.023l-0.267,-0.038l-0.265,-0.052l-0.261,-0.068l-0.257,-0.082l-0.251,-0.096l-0.247,-0.11l-0.239,-0.124l-0.232,-0.137l-0.225,-0.149l-0.215,-0.163l-0.206,-0.173l-0.196,-0.186l-0.185,-0.196l-0.174,-0.206l-0.162,-0.215l-0.15,-0.224l-0.137,-0.233l-0.124,-0.239l-0.11,-0.246l-0.096,-0.252l-0.082,-0.257l-0.067,-0.261l-0.053,-0.265l-0.038,-0.267l-0.022,-0.268l-0.008,-0.27l0,-39.151l0.008,-0.269l0.022,-0.269l0.038,-0.267l0.053,-0.264l0.067,-0.262l0.082,-0.256l0.096,-0.252l0.11,-0.246l0.124,-0.24l0.137,-0.232l0.15,-0.224l0.162,-0.216l0.174,-0.206l0.185,-0.196l0.196,-0.185l0.206,-0.174l0.215,-0.162l0.225,-0.15l0.232,-0.137l0.239,-0.124l0.247,-0.11l0.251,-0.096l0.257,-0.082l0.261,-0.067l0.265,-0.053l0.267,-0.038l0.269,-0.022l0.269,-0.008l0.27,0.008Z" style="fill:#11132d;"/></g><g id="Layer-7"><path d="M481.049,395.234c-20.309,22.662 -55.351,24.58 -78.012,4.271c-22.662,-20.309 -24.58,-55.351 -4.271,-78.012c20.309,-22.662 55.35,-24.58 78.012,-4.271c22.662,20.309 24.58,55.351 4.271,78.012" style="fill:#dbab56;fill-rule:nonzero;"/><path d="M398.901,321.614c19.094,-21.307 51.846,-23.1 73.152,-4.005c21.307,19.095 23.1,51.846 4.005,73.152c-19.094,21.307 -51.846,23.1 -73.152,4.005c-21.307,-19.094 -23.1,-51.845 -4.005,-73.152" style="fill:#efb30c;fill-rule:nonzero;"/><path d="M411.602,394.291c-21.313,-19.101 -23.105,-51.84 -4.005,-73.153c8.462,-9.442 19.692,-15.188 31.281,-16.721c-14.514,-0.359 -29.339,5.327 -39.977,17.197c-19.101,21.313 -17.308,54.052 4.005,73.153c11.87,10.638 27.106,14.806 41.615,12.729c-11.566,-0.392 -23.477,-4.743 -32.919,-13.205" style="fill:#e5a300;fill-rule:nonzero;"/><path d="M434.651,304.521c28.647,-1.568 53.062,20.312 54.496,48.838c1.568,28.647 -20.192,52.928 -48.839,54.496" style="fill:#e5a300;fill-rule:nonzero;"/><g><g opacity="0.720001"><clipPath id="_clip2"><rect x="416.413" y="335.407" width="45.271" height="43.623"/></clipPath><g clip-path="url(#_clip2)"><path d="M447.768,375.026l6.871,-7.667c4.743,-4.857 2.951,-9.571 1.211,-12.19c-1.142,-1.719 -2.791,-3.122 -4.842,-3.534c-5.656,-1.137 -10.326,4.116 -10.326,4.116c5.645,-7.979 1.542,-13.223 1.542,-13.223c-0.101,-0.109 -0.201,-0.217 -0.301,-0.321c-3.937,-4.112 -10.824,-3.612 -14.947,0.987l-6.56,7.32l27.352,24.512Z" style="fill:none;stroke:#f9e310;stroke-width:8.01px;"/></g></g></g><g><g opacity="0.720001"><g><clipPath id="_clip3"><rect x="419.216" y="337.811" width="41.189" height="37.457"/></clipPath><g clip-path="url(#_clip3)"><path d="M426.37,340.863l-2.48,-2.223c-1.236,-1.108 -3.044,-1.106 -4.039,0.004c-0.995,1.11 -0.799,2.907 0.437,4.015l2.48,2.223l3.602,-4.019Z" style="fill:#f9e310;fill-rule:nonzero;"/><path d="M453.201,372.155l2.705,2.424c1.109,0.994 2.816,0.901 3.81,-0.209c0.995,-1.11 0.902,-2.816 -0.208,-3.81l-2.705,-2.424l-3.602,4.019Z" style="fill:#f9e310;fill-rule:nonzero;"/></g></g></g></g><path d="M401.599,324.032c-17.771,19.829 -16.09,50.522 3.739,68.293c19.828,17.77 50.522,16.09 68.292,-3.739c17.771,-19.829 16.091,-50.523 -3.739,-68.293c-19.963,-17.891 -50.521,-16.09 -68.292,3.739m77.022,69.026c-20.309,22.662 -55.35,24.58 -78.012,4.272c-22.661,-20.31 -24.58,-55.351 -4.271,-78.013c20.309,-22.661 55.351,-24.58 78.012,-4.271c22.662,20.309 24.581,55.351 4.271,78.012" style="fill:#f7d27f;fill-rule:nonzero;"/><path d="M400.491,322.553c0.135,0.121 0.149,0.377 0.028,0.512c-0.121,0.134 -0.377,0.149 -0.511,0.028l-2.698,-2.418c-0.135,-0.121 -0.149,-0.377 -0.028,-0.512c0.121,-0.134 0.376,-0.149 0.511,-0.027l2.698,2.417Z" style="fill:#ffe0a1;fill-rule:nonzero;"/><path d="M477.784,391.822c0.135,0.12 0.149,0.376 0.028,0.511c-0.121,0.135 -0.377,0.149 -0.511,0.028l-2.698,-2.418c-0.135,-0.12 -0.149,-0.376 -0.028,-0.512c0.121,-0.134 0.376,-0.148 0.511,-0.027l2.698,2.418Z" style="fill:#ffe0a1;fill-rule:nonzero;"/><path d="M435.126,306.163c0.013,0.255 -0.229,0.525 -0.364,0.404c-0.256,0.014 -0.39,-0.106 -0.405,-0.362l-0.195,-3.581c-0.015,-0.256 0.227,-0.525 0.362,-0.405c0.256,-0.014 0.526,0.228 0.405,0.363l0.196,3.581Z" style="fill:#ffe0a1;fill-rule:nonzero;"/><path d="M440.797,409.753c0.014,0.256 -0.228,0.525 -0.363,0.404c-0.256,0.014 -0.525,-0.227 -0.405,-0.362l-0.195,-3.581c-0.015,-0.256 0.227,-0.525 0.362,-0.405c0.256,-0.014 0.526,0.228 0.405,0.363l0.196,3.581Z" style="fill:#ffe0a1;fill-rule:nonzero;"/><path d="M471.37,319.186c-0.121,0.135 -0.376,0.149 -0.511,0.028c-0.135,-0.121 -0.149,-0.377 -0.029,-0.511l2.418,-2.698c0.122,-0.135 0.377,-0.149 0.512,-0.028c0.135,0.121 0.149,0.376 0.028,0.511l-2.418,2.698Z" style="fill:#ffe0a1;fill-rule:nonzero;"/><path d="M402.102,396.479c-0.121,0.135 -0.377,0.148 -0.512,0.028c-0.134,-0.121 -0.149,-0.377 -0.028,-0.511l2.418,-2.699c0.121,-0.134 0.376,-0.148 0.512,-0.028c0.134,0.121 0.149,0.377 0.027,0.512l-2.417,2.698Z" style="fill:#ffe0a1;fill-rule:nonzero;"/><path d="M487.64,353.955c-0.255,0.014 -0.391,-0.107 -0.404,-0.363c-0.014,-0.256 0.107,-0.39 0.362,-0.405l3.581,-0.195c0.256,-0.015 0.525,0.227 0.405,0.362c0.014,0.256 -0.228,0.526 -0.363,0.405l-3.581,0.196Z" style="fill:#ffe0a1;fill-rule:nonzero;"/><path d="M383.915,359.505c-0.256,0.014 -0.391,-0.107 -0.405,-0.363c-0.014,-0.256 0.228,-0.525 0.363,-0.404l3.581,-0.196c0.255,-0.015 0.525,0.228 0.404,0.362c0.015,0.256 -0.227,0.526 -0.362,0.405l-3.581,0.196Z" style="fill:#ffe0a1;fill-rule:nonzero;"/><path d="M388.53,345.399c0.256,-0.014 0.405,0.363 0.284,0.498c0.014,0.255 -0.363,0.404 -0.497,0.283l-3.502,-0.706c-0.256,0.014 -0.405,-0.363 -0.285,-0.497c-0.013,-0.256 0.363,-0.405 0.498,-0.284l3.502,0.706Z" style="fill:#ffe0a1;fill-rule:nonzero;"/><path d="M490.145,366.902c0.256,-0.014 0.405,0.362 0.284,0.498c0.014,0.255 -0.363,0.404 -0.498,0.283l-3.502,-0.706c-0.256,0.014 -0.405,-0.363 -0.284,-0.497c-0.014,-0.256 0.363,-0.405 0.498,-0.285l3.502,0.707Z" style="fill:#ffe0a1;fill-rule:nonzero;"/><path d="M410.544,314.05c0.135,0.121 0.028,0.511 -0.093,0.646c-0.12,0.135 -0.511,0.028 -0.646,-0.093l-1.959,-2.971c-0.135,-0.121 -0.028,-0.512 0.093,-0.646c0.121,-0.135 0.512,-0.028 0.647,0.092l1.958,2.972Z" style="fill:#ffe0a1;fill-rule:nonzero;"/><path d="M467.247,400.864c0.135,0.121 0.028,0.512 -0.093,0.646c-0.12,0.136 -0.511,0.029 -0.646,-0.092l-1.959,-2.971c-0.135,-0.121 -0.028,-0.512 0.094,-0.646c0.12,-0.135 0.511,-0.029 0.646,0.092l1.958,2.971Z" style="fill:#ffe0a1;fill-rule:nonzero;"/><path d="M448.268,307.239c0.014,0.256 -0.363,0.405 -0.498,0.284c-0.255,0.014 -0.404,-0.363 -0.283,-0.498l0.706,-3.502c-0.014,-0.256 0.363,-0.405 0.497,-0.284c0.256,-0.014 0.405,0.363 0.284,0.498l-0.706,3.502Z" style="fill:#ffe0a1;fill-rule:nonzero;"/><path d="M427.021,408.839c0.014,0.256 -0.363,0.405 -0.498,0.284c-0.255,0.014 -0.404,-0.362 -0.283,-0.498l0.706,-3.502c-0.014,-0.256 0.363,-0.404 0.497,-0.283c0.256,-0.015 0.405,0.362 0.284,0.497l-0.706,3.502Z" style="fill:#ffe0a1;fill-rule:nonzero;"/><path d="M479.738,329.118c-0.121,0.135 -0.512,0.028 -0.646,-0.093c-0.135,-0.121 -0.028,-0.511 0.092,-0.647l2.971,-1.958c0.122,-0.135 0.512,-0.028 0.647,0.093c0.135,0.121 0.028,0.511 -0.093,0.647l-2.971,1.958Z" style="fill:#ffe0a1;fill-rule:nonzero;"/><path d="M392.803,385.956c-0.121,0.135 -0.512,0.028 -0.646,-0.093c-0.135,-0.121 -0.028,-0.511 0.092,-0.646l2.972,-1.959c0.121,-0.135 0.511,-0.028 0.646,0.093c0.135,0.121 0.028,0.512 -0.093,0.647l-2.971,1.958Z" style="fill:#ffe0a1;fill-rule:nonzero;"/><path d="M389.823,371.368c0.256,-0.014 0.512,-0.028 0.526,0.228c0.014,0.256 0.028,0.511 -0.228,0.525l-3.404,1.085c-0.256,0.014 -0.512,0.028 -0.525,-0.228c-0.015,-0.256 -0.029,-0.512 0.227,-0.526l3.404,-1.084Z" style="fill:#ffe0a1;fill-rule:nonzero;"/><path d="M488.362,339.036c0.256,-0.014 0.512,-0.028 0.525,0.228c0.015,0.256 0.029,0.512 -0.227,0.525l-3.404,1.085c-0.256,0.014 -0.512,0.028 -0.526,-0.228c-0.014,-0.256 -0.028,-0.511 0.228,-0.526l3.404,-1.084Z" style="fill:#ffe0a1;fill-rule:nonzero;"/><path d="M392.987,333.098c0.135,0.121 0.405,0.363 0.163,0.632c-0.121,0.136 -0.363,0.405 -0.632,0.163l-3.168,-1.622c-0.134,-0.121 -0.405,-0.363 -0.163,-0.632c0.121,-0.135 0.363,-0.405 0.633,-0.164l3.167,1.623Z" style="fill:#ffe0a1;fill-rule:nonzero;"/><path d="M485.608,380.106c0.135,0.12 0.404,0.363 0.163,0.632c-0.121,0.135 -0.363,0.404 -0.633,0.163l-3.167,-1.623c-0.135,-0.12 -0.405,-0.362 -0.163,-0.632c0.121,-0.135 0.362,-0.404 0.633,-0.163l3.167,1.623Z" style="fill:#ffe0a1;fill-rule:nonzero;"/><path d="M422.3,308.532c0.014,0.256 0.028,0.512 -0.228,0.525c-0.256,0.015 -0.511,0.029 -0.525,-0.227l-1.085,-3.404c-0.014,-0.256 -0.028,-0.512 0.228,-0.526c0.256,-0.014 0.511,-0.028 0.526,0.228l1.084,3.404Z" style="fill:#ffe0a1;fill-rule:nonzero;"/><path d="M454.631,407.071c0.014,0.256 0.028,0.512 -0.228,0.525c-0.255,0.014 -0.511,0.029 -0.525,-0.227l-1.084,-3.404c-0.015,-0.256 -0.028,-0.512 0.228,-0.526c0.255,-0.014 0.511,-0.028 0.525,0.228l1.084,3.404Z" style="fill:#ffe0a1;fill-rule:nonzero;"/><path d="M460.57,311.696c-0.121,0.135 -0.363,0.404 -0.632,0.163c-0.136,-0.121 -0.405,-0.363 -0.163,-0.633l1.622,-3.167c0.121,-0.135 0.362,-0.405 0.632,-0.163c0.135,0.121 0.405,0.362 0.164,0.633l-1.623,3.167Z" style="fill:#ffe0a1;fill-rule:nonzero;"/><path d="M413.562,404.317c-0.121,0.135 -0.363,0.404 -0.632,0.162c-0.136,-0.12 -0.405,-0.362 -0.163,-0.632l1.622,-3.168c0.121,-0.134 0.362,-0.404 0.632,-0.162c0.135,0.12 0.405,0.362 0.163,0.632l-1.622,3.168Z" style="fill:#ffe0a1;fill-rule:nonzero;"/><path d="M437.815,244.328l0.313,0.031l0.31,0.051l0.307,0.072l0.301,0.091l0.294,0.111l0.287,0.13l0.277,0.148l0.267,0.166l0.256,0.183l0.243,0.2l0.23,0.215l0.215,0.23l0.199,0.243l0.183,0.255l0.166,0.268l0.149,0.277l0.13,0.287l0.11,0.294l0.092,0.301l0.071,0.306l0.051,0.311l0.031,0.313l0.01,0.314l0,53.475l-0.01,0.314l-0.031,0.314l-0.051,0.31l-0.071,0.306l-0.092,0.301l-0.11,0.295l-0.13,0.286l-0.149,0.278l-0.166,0.267l-0.183,0.255l-0.199,0.244l-0.215,0.229l-0.23,0.215l-0.243,0.2l-0.256,0.183l-0.267,0.166l-0.277,0.148l-0.287,0.13l-0.294,0.111l-0.301,0.091l-0.307,0.072l-0.31,0.051l-0.313,0.031l-0.315,0.01l-0.314,-0.01l-0.313,-0.031l-0.31,-0.051l-0.307,-0.072l-0.301,-0.091l-0.294,-0.111l-0.287,-0.13l-0.277,-0.148l-0.267,-0.166l-0.256,-0.183l-0.243,-0.2l-0.23,-0.215l-0.215,-0.229l-0.199,-0.244l-0.183,-0.255l-0.166,-0.267l-0.149,-0.278l-0.13,-0.286l-0.11,-0.295l-0.092,-0.301l-0.071,-0.306l-0.051,-0.31l-0.031,-0.314l-0.011,-0.314l0,-53.475l0.011,-0.314l0.031,-0.313l0.051,-0.311l0.071,-0.306l0.092,-0.301l0.11,-0.294l0.13,-0.287l0.149,-0.277l0.166,-0.268l0.183,-0.255l0.199,-0.243l0.215,-0.23l0.23,-0.215l0.243,-0.2l0.256,-0.183l0.267,-0.166l0.277,-0.148l0.287,-0.13l0.294,-0.111l0.301,-0.091l0.307,-0.072l0.31,-0.051l0.313,-0.031l0.314,-0.01l0.315,0.01Z" style="fill:#f7d27f;"/><path d="M406.36,292.078l0.246,0.026l0.245,0.038l0.242,0.05l0.239,0.063l0.236,0.076l0.232,0.087l0.227,0.099l0.221,0.111l0.215,0.122l0.209,0.133l0.202,0.143l0.194,0.154l0.186,0.163l0.177,0.173l0.168,0.182l0.159,0.19l0.149,0.198l0.138,0.205l0.127,0.212l0.117,0.219l0.105,0.224l0.093,0.229l0.081,0.234l0.069,0.238l0.057,0.241l0.045,0.243l0.031,0.246l0.019,0.246l0.007,0.248l0,32.467l-0.007,0.247l-0.019,0.247l-0.031,0.246l-0.045,0.243l-0.057,0.241l-0.069,0.238l-0.081,0.234l-0.093,0.229l-0.105,0.224l-0.117,0.219l-0.127,0.212l-0.138,0.205l-0.149,0.198l-0.159,0.19l-0.168,0.182l-0.177,0.173l-0.186,0.163l-0.194,0.154l-0.202,0.143l-0.209,0.133l-0.215,0.122l-0.221,0.111l-0.227,0.099l-0.232,0.087l-0.236,0.075l-0.239,0.063l-0.242,0.051l-0.245,0.038l-0.246,0.026l-0.247,0.012l-0.248,0l-0.247,-0.012l-0.246,-0.026l-0.245,-0.038l-0.242,-0.051l-0.24,-0.063l-0.236,-0.075l-0.231,-0.087l-0.227,-0.099l-0.221,-0.111l-0.216,-0.122l-0.209,-0.133l-0.201,-0.143l-0.195,-0.154l-0.185,-0.163l-0.178,-0.173l-0.168,-0.182l-0.158,-0.19l-0.149,-0.198l-0.138,-0.205l-0.128,-0.212l-0.116,-0.219l-0.105,-0.224l-0.093,-0.229l-0.082,-0.234l-0.069,-0.238l-0.057,-0.241l-0.044,-0.243l-0.032,-0.246l-0.019,-0.247l-0.006,-0.247l0,-32.467l0.006,-0.248l0.019,-0.246l0.032,-0.246l0.044,-0.243l0.057,-0.241l0.069,-0.238l0.082,-0.234l0.093,-0.229l0.105,-0.224l0.116,-0.219l0.128,-0.212l0.138,-0.205l0.149,-0.198l0.158,-0.19l0.168,-0.182l0.178,-0.173l0.185,-0.163l0.195,-0.154l0.201,-0.143l0.209,-0.133l0.216,-0.122l0.221,-0.111l0.227,-0.099l0.231,-0.087l0.236,-0.076l0.24,-0.063l0.242,-0.05l0.245,-0.038l0.246,-0.026l0.247,-0.013l0.248,0l0.247,0.013Z" style="fill:#efb30c;"/><path d="M465.403,283.475l0.209,0.014l0.209,0.022l0.207,0.032l0.206,0.041l0.204,0.05l0.201,0.059l0.198,0.067l0.196,0.076l0.192,0.085l0.188,0.092l0.184,0.101l0.179,0.109l0.175,0.117l0.169,0.124l0.163,0.131l0.158,0.138l0.151,0.145l0.145,0.152l0.139,0.157l0.131,0.164l0.124,0.169l0.117,0.174l0.108,0.18l0.101,0.184l0.093,0.188l0.084,0.192l0.077,0.195l0.067,0.199l0.059,0.201l0.049,0.204l0.041,0.206l0.032,0.207l0.023,0.208l0.014,0.21l0.004,0.209l0,22.917l-0.004,0.21l-0.014,0.209l-0.023,0.209l-0.032,0.207l-0.041,0.206l-0.049,0.203l-0.059,0.202l-0.067,0.198l-0.077,0.196l-0.084,0.192l-0.093,0.188l-0.101,0.184l-0.108,0.179l-0.117,0.174l-0.124,0.17l-0.131,0.163l-0.139,0.158l-0.145,0.151l-0.151,0.145l-0.158,0.139l-0.163,0.131l-0.169,0.124l-0.175,0.116l-0.179,0.109l-0.184,0.101l-0.188,0.093l-0.192,0.084l-0.196,0.076l-0.198,0.068l-0.201,0.059l-0.204,0.049l-0.206,0.041l-0.207,0.032l-0.209,0.023l-0.209,0.014l-0.21,0.004l-0.209,-0.004l-0.21,-0.014l-0.208,-0.023l-0.207,-0.032l-0.206,-0.041l-0.204,-0.049l-0.201,-0.059l-0.199,-0.068l-0.195,-0.076l-0.192,-0.084l-0.188,-0.093l-0.184,-0.101l-0.179,-0.109l-0.175,-0.116l-0.169,-0.124l-0.163,-0.131l-0.158,-0.139l-0.152,-0.145l-0.145,-0.151l-0.138,-0.158l-0.131,-0.163l-0.124,-0.17l-0.117,-0.174l-0.109,-0.179l-0.1,-0.184l-0.093,-0.188l-0.085,-0.192l-0.076,-0.196l-0.067,-0.198l-0.059,-0.202l-0.05,-0.203l-0.041,-0.206l-0.031,-0.207l-0.023,-0.209l-0.014,-0.209l-0.005,-0.21l0,-22.917l0.005,-0.209l0.014,-0.21l0.023,-0.208l0.031,-0.207l0.041,-0.206l0.05,-0.204l0.059,-0.201l0.067,-0.199l0.076,-0.195l0.085,-0.192l0.093,-0.188l0.1,-0.184l0.109,-0.18l0.117,-0.174l0.124,-0.169l0.131,-0.164l0.138,-0.157l0.145,-0.152l0.152,-0.145l0.158,-0.138l0.163,-0.131l0.169,-0.124l0.175,-0.117l0.179,-0.109l0.184,-0.101l0.188,-0.092l0.192,-0.085l0.195,-0.076l0.199,-0.067l0.201,-0.059l0.204,-0.05l0.206,-0.041l0.207,-0.032l0.208,-0.022l0.21,-0.014l0.209,-0.005l0.21,0.005Z" style="fill:#f7d27f;"/><path d="M415.931,298.761l0.231,0.022l0.23,0.034l0.228,0.044l0.226,0.056l0.222,0.066l0.22,0.078l0.215,0.087l0.21,0.098l0.206,0.108l0.2,0.118l0.195,0.127l0.188,0.137l0.181,0.145l0.174,0.154l0.166,0.162l0.158,0.171l0.15,0.177l0.141,0.185l0.132,0.191l0.123,0.197l0.112,0.203l0.103,0.209l0.093,0.213l0.083,0.217l0.071,0.221l0.061,0.224l0.05,0.227l0.04,0.229l0.028,0.23l0.016,0.232l0.006,0.232l0,28.647l-0.006,0.232l-0.016,0.232l-0.028,0.231l-0.04,0.229l-0.05,0.227l-0.061,0.224l-0.071,0.221l-0.083,0.217l-0.093,0.213l-0.103,0.208l-0.112,0.203l-0.123,0.198l-0.132,0.191l-0.141,0.184l-0.15,0.178l-0.158,0.17l-0.166,0.162l-0.174,0.154l-0.181,0.146l-0.188,0.136l-0.195,0.128l-0.2,0.117l-0.206,0.108l-0.21,0.098l-0.215,0.088l-0.22,0.077l-0.222,0.066l-0.226,0.056l-0.228,0.045l-0.23,0.033l-0.231,0.023l-0.232,0.011l-0.232,0l-0.232,-0.011l-0.231,-0.023l-0.23,-0.033l-0.228,-0.045l-0.226,-0.056l-0.222,-0.066l-0.22,-0.077l-0.215,-0.088l-0.21,-0.098l-0.206,-0.108l-0.2,-0.117l-0.195,-0.128l-0.188,-0.136l-0.181,-0.146l-0.174,-0.154l-0.166,-0.162l-0.158,-0.17l-0.15,-0.178l-0.141,-0.184l-0.132,-0.191l-0.122,-0.198l-0.113,-0.203l-0.103,-0.208l-0.093,-0.213l-0.082,-0.217l-0.072,-0.221l-0.061,-0.224l-0.05,-0.227l-0.04,-0.229l-0.028,-0.231l-0.016,-0.232l-0.006,-0.232l0,-28.647l0.006,-0.232l0.016,-0.232l0.028,-0.23l0.04,-0.229l0.05,-0.227l0.061,-0.224l0.072,-0.221l0.082,-0.217l0.093,-0.213l0.103,-0.209l0.113,-0.203l0.122,-0.197l0.132,-0.191l0.141,-0.185l0.15,-0.177l0.158,-0.171l0.166,-0.162l0.174,-0.154l0.181,-0.145l0.188,-0.137l0.195,-0.127l0.2,-0.118l0.206,-0.108l0.21,-0.098l0.215,-0.087l0.22,-0.078l0.222,-0.066l0.226,-0.056l0.228,-0.044l0.23,-0.034l0.231,-0.022l0.232,-0.011l0.232,0l0.232,0.011Z" style="fill:#11132d;"/><path d="M455.869,296.846l0.268,0.023l0.267,0.037l0.265,0.053l0.261,0.067l0.257,0.082l0.252,0.096l0.246,0.111l0.239,0.123l0.233,0.137l0.224,0.15l0.215,0.162l0.206,0.174l0.196,0.185l0.185,0.196l0.174,0.206l0.162,0.216l0.15,0.224l0.137,0.232l0.124,0.24l0.11,0.246l0.096,0.252l0.082,0.257l0.068,0.261l0.052,0.264l0.038,0.267l0.023,0.269l0.007,0.269l0,39.151l-0.007,0.27l-0.023,0.269l-0.038,0.267l-0.052,0.264l-0.068,0.261l-0.082,0.257l-0.096,0.252l-0.11,0.246l-0.124,0.24l-0.137,0.232l-0.15,0.224l-0.162,0.216l-0.174,0.206l-0.185,0.196l-0.196,0.185l-0.206,0.174l-0.215,0.162l-0.224,0.15l-0.233,0.137l-0.239,0.123l-0.246,0.111l-0.252,0.096l-0.257,0.082l-0.261,0.067l-0.265,0.053l-0.267,0.037l-0.268,0.023l-0.27,0.007l-0.269,-0.007l-0.269,-0.023l-0.267,-0.037l-0.265,-0.053l-0.261,-0.067l-0.257,-0.082l-0.251,-0.096l-0.247,-0.111l-0.239,-0.123l-0.232,-0.137l-0.225,-0.15l-0.215,-0.162l-0.206,-0.174l-0.196,-0.185l-0.185,-0.196l-0.174,-0.206l-0.162,-0.216l-0.15,-0.224l-0.137,-0.232l-0.124,-0.24l-0.11,-0.246l-0.096,-0.252l-0.082,-0.257l-0.067,-0.261l-0.053,-0.264l-0.038,-0.267l-0.022,-0.269l-0.008,-0.27l0,-39.151l0.008,-0.269l0.022,-0.269l0.038,-0.267l0.053,-0.264l0.067,-0.261l0.082,-0.257l0.096,-0.252l0.11,-0.246l0.124,-0.24l0.137,-0.232l0.15,-0.224l0.162,-0.216l0.174,-0.206l0.185,-0.196l0.196,-0.185l0.206,-0.174l0.215,-0.162l0.225,-0.15l0.232,-0.137l0.239,-0.123l0.247,-0.111l0.251,-0.096l0.257,-0.082l0.261,-0.067l0.265,-0.053l0.267,-0.037l0.269,-0.023l0.269,-0.008l0.27,0.008Z" style="fill:#11132d;"/><path d="M432.839,382.777l0.289,0.023l0.286,0.039l0.285,0.055l0.28,0.07l0.277,0.085l0.271,0.099l0.266,0.115l0.259,0.128l0.252,0.142l0.244,0.156l0.235,0.169l0.225,0.181l0.216,0.193l0.204,0.205l0.193,0.215l0.182,0.226l0.168,0.235l0.156,0.244l0.143,0.251l0.128,0.26l0.114,0.265l0.1,0.272l0.085,0.276l0.07,0.281l0.054,0.284l0.039,0.287l0.024,0.288l0.008,0.289l0,39.662l-0.008,0.29l-0.024,0.288l-0.039,0.287l-0.054,0.284l-0.07,0.28l-0.085,0.277l-0.1,0.271l-0.114,0.266l-0.128,0.259l-0.143,0.252l-0.156,0.244l-0.168,0.235l-0.182,0.225l-0.193,0.216l-0.204,0.204l-0.216,0.193l-0.225,0.182l-0.235,0.168l-0.244,0.156l-0.252,0.143l-0.259,0.128l-0.266,0.115l-0.271,0.099l-0.277,0.085l-0.28,0.07l-0.285,0.055l-0.286,0.039l-0.289,0.023l-0.289,0.008l-0.289,-0.008l-0.288,-0.023l-0.287,-0.039l-0.284,-0.055l-0.281,-0.07l-0.276,-0.085l-0.272,-0.099l-0.266,-0.115l-0.259,-0.128l-0.252,-0.143l-0.243,-0.156l-0.235,-0.168l-0.226,-0.182l-0.215,-0.193l-0.205,-0.204l-0.193,-0.216l-0.181,-0.225l-0.169,-0.235l-0.156,-0.244l-0.142,-0.252l-0.129,-0.259l-0.114,-0.266l-0.1,-0.271l-0.085,-0.277l-0.069,-0.28l-0.055,-0.284l-0.039,-0.287l-0.023,-0.288l-0.008,-0.29l0,-39.662l0.008,-0.289l0.023,-0.288l0.039,-0.287l0.055,-0.284l0.069,-0.281l0.085,-0.276l0.1,-0.272l0.114,-0.265l0.129,-0.26l0.142,-0.251l0.156,-0.244l0.169,-0.235l0.181,-0.226l0.193,-0.215l0.205,-0.205l0.215,-0.193l0.226,-0.181l0.235,-0.169l0.243,-0.156l0.252,-0.142l0.259,-0.128l0.266,-0.115l0.272,-0.099l0.276,-0.085l0.281,-0.07l0.284,-0.055l0.287,-0.039l0.288,-0.023l0.289,-0.008l0.289,0.008Z" style="fill:#efb30c;"/></g><g id="Layer-4"><path d="M619.533,705.021c-25.118,-17.178 -31.594,-51.669 -14.417,-76.788c17.178,-25.119 51.669,-31.594 76.788,-14.417c25.119,17.179 31.594,51.67 14.417,76.788c-17.178,25.119 -51.669,31.595 -76.788,14.417" style="fill:#dbab56;fill-rule:nonzero;"/><path d="M681.801,613.966c23.617,16.15 29.669,48.388 13.519,72.004c-16.15,23.617 -48.388,29.669 -72.004,13.518c-23.617,-16.149 -29.669,-48.386 -13.519,-72.003c16.15,-23.617 48.388,-29.669 72.004,-13.519" style="fill:#efb30c;fill-rule:nonzero;"/><path d="M611.404,636.045c16.155,-23.624 48.381,-29.674 72.004,-13.519c10.467,7.158 17.629,17.541 20.66,28.831c-1.537,-14.437 -9.109,-28.393 -22.267,-37.391c-23.624,-16.155 -55.849,-10.105 -72.004,13.518c-8.997,13.158 -11.142,28.808 -7.189,42.922c-1.12,-11.518 1.639,-23.895 8.796,-34.361" style="fill:#e5a300;fill-rule:nonzero;"/><path d="M703.415,647.179c5.294,28.198 -13.213,55.26 -41.308,60.404c-28.197,5.294 -55.11,-13.11 -60.404,-41.307" style="fill:#e5a300;fill-rule:nonzero;"/><g><g opacity="0.720001"><clipPath id="_clip4"><rect x="631.221" y="635.067" width="41.765" height="46.35"/></clipPath><g clip-path="url(#_clip4)"><path d="M635.224,669.387l8.498,5.812c5.435,4.068 9.875,1.676 12.245,-0.391c1.554,-1.357 2.73,-3.174 2.871,-5.262c0.389,-5.756 -5.428,-9.7 -5.428,-9.7c8.647,4.555 13.31,-0.197 13.31,-0.197c0.096,-0.115 0.19,-0.228 0.28,-0.34c3.562,-4.441 2.168,-11.204 -2.93,-14.691l-8.114,-5.547l-20.732,30.316Z" style="fill:none;stroke:#f9e310;stroke-width:8.01px;"/></g></g></g><g><g opacity="0.720001"><g><clipPath id="_clip5"><rect x="636.259" y="636.529" width="32.496" height="45.089"/></clipPath><g clip-path="url(#_clip5)"><path d="M666.302,643.713l1.88,-2.749c0.937,-1.37 0.699,-3.163 -0.531,-4.004c-1.23,-0.841 -2.987,-0.412 -3.924,0.958l-1.88,2.749l4.455,3.046Z" style="fill:#f9e310;fill-rule:nonzero;"/><path d="M638.78,674.398l-2.05,2.998c-0.841,1.23 -0.526,2.909 0.704,3.75c1.23,0.842 2.909,0.526 3.751,-0.704l2.05,-2.998l-4.455,-3.046Z" style="fill:#f9e310;fill-rule:nonzero;"/></g></g></g></g><path d="M679.756,616.956c-21.979,-15.03 -52.19,-9.357 -67.22,12.621c-15.031,21.979 -9.359,52.191 12.62,67.221c21.979,15.03 52.19,9.357 67.221,-12.621c15.132,-22.128 9.358,-52.191 -12.621,-67.221m-58.383,85.373c-25.118,-17.177 -31.594,-51.669 -14.417,-76.787c17.178,-25.118 51.669,-31.595 76.788,-14.417c25.118,17.178 31.595,51.669 14.417,76.788c-17.178,25.118 -51.67,31.594 -76.788,14.416" style="fill:#f7d27f;fill-rule:nonzero;"/><path d="M681.078,615.666c-0.103,0.149 -0.354,0.196 -0.504,0.094c-0.149,-0.102 -0.197,-0.354 -0.094,-0.503l2.045,-2.99c0.102,-0.15 0.354,-0.198 0.503,-0.095c0.15,0.102 0.197,0.353 0.095,0.504l-2.045,2.99Z" style="fill:#ffe0a1;fill-rule:nonzero;"/><path d="M622.49,701.338c-0.102,0.149 -0.354,0.196 -0.503,0.095c-0.15,-0.103 -0.197,-0.355 -0.095,-0.504l2.045,-2.99c0.102,-0.15 0.354,-0.197 0.504,-0.095c0.149,0.102 0.196,0.354 0.094,0.504l-2.045,2.99Z" style="fill:#ffe0a1;fill-rule:nonzero;"/><path d="M701.85,647.864c-0.252,0.047 -0.551,-0.157 -0.449,-0.307c-0.047,-0.252 0.055,-0.401 0.306,-0.449l3.526,-0.661c0.251,-0.048 0.551,0.157 0.448,0.307c0.047,0.252 -0.157,0.55 -0.307,0.448l-3.524,0.662Z" style="fill:#ffe0a1;fill-rule:nonzero;"/><path d="M599.885,667.008c-0.251,0.047 -0.551,-0.157 -0.448,-0.307c-0.048,-0.252 0.157,-0.55 0.306,-0.449l3.525,-0.661c0.252,-0.048 0.551,0.157 0.449,0.307c0.047,0.252 -0.158,0.55 -0.307,0.448l-3.525,0.662Z" style="fill:#ffe0a1;fill-rule:nonzero;"/><path d="M693.668,685.498c-0.149,-0.102 -0.197,-0.354 -0.095,-0.503c0.103,-0.149 0.354,-0.197 0.504,-0.095l2.99,2.045c0.15,0.103 0.197,0.354 0.094,0.503c-0.101,0.151 -0.353,0.197 -0.503,0.095l-2.99,-2.045Z" style="fill:#ffe0a1;fill-rule:nonzero;"/><path d="M607.996,626.911c-0.149,-0.103 -0.197,-0.354 -0.095,-0.504c0.103,-0.149 0.354,-0.197 0.504,-0.095l2.99,2.045c0.15,0.103 0.197,0.355 0.095,0.504c-0.102,0.15 -0.354,0.196 -0.504,0.095l-2.99,-2.045Z" style="fill:#ffe0a1;fill-rule:nonzero;"/><path d="M661.32,706.167c-0.047,-0.252 0.055,-0.401 0.307,-0.448c0.252,-0.047 0.401,0.054 0.448,0.306l0.662,3.525c0.047,0.252 -0.157,0.551 -0.307,0.449c-0.252,0.047 -0.55,-0.157 -0.448,-0.307l-0.662,-3.525Z" style="fill:#ffe0a1;fill-rule:nonzero;"/><path d="M642.278,604.054c-0.047,-0.251 0.055,-0.401 0.307,-0.448c0.252,-0.047 0.55,0.157 0.448,0.306l0.662,3.525c0.047,0.252 -0.157,0.551 -0.307,0.449c-0.252,0.047 -0.55,-0.157 -0.448,-0.307l-0.662,-3.525Z" style="fill:#ffe0a1;fill-rule:nonzero;"/><path d="M656.866,606.788c0.047,0.252 -0.307,0.449 -0.456,0.347c-0.252,0.047 -0.449,-0.307 -0.347,-0.456l0.243,-3.565c-0.047,-0.252 0.307,-0.448 0.456,-0.346c0.252,-0.047 0.449,0.307 0.347,0.457l-0.243,3.563Z" style="fill:#ffe0a1;fill-rule:nonzero;"/><path d="M648.81,710.34c0.047,0.252 -0.307,0.449 -0.456,0.347c-0.252,0.047 -0.449,-0.307 -0.346,-0.456l0.243,-3.565c-0.047,-0.252 0.307,-0.448 0.456,-0.347c0.252,-0.046 0.449,0.308 0.346,0.458l-0.243,3.563Z" style="fill:#ffe0a1;fill-rule:nonzero;"/><path d="M690.82,624.523c-0.102,0.149 -0.503,0.095 -0.652,-0.009c-0.151,-0.101 -0.095,-0.502 0.006,-0.652l2.691,-2.329c0.102,-0.15 0.504,-0.096 0.653,0.008c0.15,0.101 0.095,0.502 -0.008,0.653l-2.69,2.328Z" style="fill:#ffe0a1;fill-rule:nonzero;"/><path d="M612.15,692.072c-0.103,0.149 -0.504,0.094 -0.653,-0.008c-0.15,-0.102 -0.095,-0.504 0.007,-0.653l2.691,-2.329c0.102,-0.151 0.503,-0.095 0.653,0.007c0.149,0.102 0.094,0.504 -0.008,0.653l-2.69,2.33Z" style="fill:#ffe0a1;fill-rule:nonzero;"/><path d="M702.497,661.035c-0.251,0.047 -0.448,-0.307 -0.346,-0.457c-0.048,-0.251 0.307,-0.448 0.456,-0.346l3.565,0.243c0.252,-0.047 0.448,0.307 0.346,0.456c0.047,0.252 -0.307,0.449 -0.457,0.347l-3.564,-0.243Z" style="fill:#ffe0a1;fill-rule:nonzero;"/><path d="M598.993,653.231c-0.252,0.047 -0.449,-0.307 -0.346,-0.457c-0.048,-0.251 0.306,-0.448 0.456,-0.346l3.564,0.243c0.252,-0.047 0.449,0.307 0.347,0.456c0.046,0.252 -0.308,0.449 -0.457,0.347l-3.564,-0.243Z" style="fill:#ffe0a1;fill-rule:nonzero;"/><path d="M684.913,695.092c-0.149,-0.103 -0.095,-0.504 0.008,-0.653c0.102,-0.15 0.503,-0.095 0.653,0.007l2.329,2.691c0.15,0.101 0.095,0.503 -0.008,0.652c-0.102,0.15 -0.503,0.095 -0.653,-0.008l-2.329,-2.689Z" style="fill:#ffe0a1;fill-rule:nonzero;"/><path d="M617.214,616.318c-0.15,-0.103 -0.095,-0.504 0.007,-0.653c0.103,-0.15 0.504,-0.095 0.654,0.007l2.329,2.691c0.15,0.102 0.094,0.504 -0.008,0.653c-0.102,0.15 -0.503,0.094 -0.653,-0.008l-2.329,-2.69Z" style="fill:#ffe0a1;fill-rule:nonzero;"/><path d="M631.289,611.46c0.047,0.252 0.095,0.504 -0.157,0.551c-0.252,0.048 -0.504,0.095 -0.551,-0.157l-1.519,-3.233c-0.047,-0.252 -0.095,-0.504 0.157,-0.552c0.252,-0.047 0.504,-0.093 0.551,0.158l1.519,3.233Z" style="fill:#ffe0a1;fill-rule:nonzero;"/><path d="M676.206,704.937c0.047,0.251 0.095,0.503 -0.157,0.551c-0.252,0.046 -0.504,0.094 -0.551,-0.158l-1.519,-3.234c-0.047,-0.251 -0.095,-0.504 0.157,-0.55c0.252,-0.048 0.504,-0.095 0.551,0.158l1.519,3.232Z" style="fill:#ffe0a1;fill-rule:nonzero;"/><path d="M669.645,609.603c-0.103,0.148 -0.308,0.447 -0.606,0.243c-0.149,-0.102 -0.449,-0.307 -0.245,-0.606l1.196,-3.352c0.101,-0.149 0.307,-0.449 0.606,-0.244c0.149,0.103 0.447,0.307 0.244,0.605l-1.196,3.353Z" style="fill:#ffe0a1;fill-rule:nonzero;"/><path d="M635.128,707.566c-0.103,0.149 -0.307,0.448 -0.606,0.244c-0.149,-0.102 -0.449,-0.306 -0.244,-0.606l1.195,-3.352c0.102,-0.149 0.307,-0.448 0.606,-0.244c0.15,0.103 0.448,0.307 0.244,0.605l-1.195,3.353Z" style="fill:#ffe0a1;fill-rule:nonzero;"/><path d="M697.825,635.457c-0.251,0.048 -0.503,0.095 -0.551,-0.157c-0.047,-0.252 -0.094,-0.503 0.157,-0.551l3.234,-1.519c0.252,-0.047 0.504,-0.094 0.551,0.158c0.047,0.251 0.094,0.503 -0.158,0.55l-3.233,1.519Z" style="fill:#ffe0a1;fill-rule:nonzero;"/><path d="M604.35,680.374c-0.251,0.048 -0.503,0.095 -0.551,-0.157c-0.047,-0.252 -0.094,-0.503 0.157,-0.551l3.234,-1.52c0.252,-0.046 0.503,-0.093 0.551,0.158c0.047,0.252 0.094,0.504 -0.158,0.55l-3.233,1.52Z" style="fill:#ffe0a1;fill-rule:nonzero;"/><path d="M699.684,673.814c-0.149,-0.103 -0.448,-0.308 -0.244,-0.606c0.102,-0.15 0.306,-0.449 0.606,-0.245l3.352,1.196c0.149,0.101 0.448,0.305 0.244,0.605c-0.103,0.15 -0.307,0.448 -0.605,0.243l-3.353,-1.194Z" style="fill:#ffe0a1;fill-rule:nonzero;"/><path d="M601.72,639.297c-0.149,-0.103 -0.448,-0.308 -0.244,-0.606c0.102,-0.15 0.307,-0.449 0.606,-0.245l3.352,1.196c0.149,0.102 0.449,0.306 0.244,0.605c-0.103,0.15 -0.307,0.449 -0.606,0.244l-3.352,-1.194Z" style="fill:#ffe0a1;fill-rule:nonzero;"/><path d="M655.535,545.125l0.313,0.031l0.31,0.051l0.306,0.071l0.301,0.092l0.295,0.11l0.286,0.13l0.278,0.149l0.267,0.166l0.256,0.183l0.243,0.199l0.229,0.215l0.215,0.23l0.2,0.243l0.183,0.256l0.166,0.267l0.148,0.277l0.13,0.287l0.111,0.294l0.091,0.301l0.072,0.307l0.051,0.31l0.031,0.313l0.01,0.314l0,53.476l-0.01,0.315l-0.031,0.313l-0.051,0.31l-0.072,0.307l-0.091,0.301l-0.111,0.294l-0.13,0.287l-0.148,0.277l-0.166,0.267l-0.183,0.256l-0.2,0.243l-0.215,0.23l-0.229,0.215l-0.243,0.199l-0.256,0.183l-0.267,0.166l-0.278,0.149l-0.286,0.13l-0.295,0.11l-0.301,0.092l-0.306,0.071l-0.31,0.051l-0.313,0.031l-0.315,0.01l-0.314,-0.01l-0.313,-0.031l-0.311,-0.051l-0.306,-0.071l-0.301,-0.092l-0.294,-0.11l-0.287,-0.13l-0.277,-0.149l-0.267,-0.166l-0.256,-0.183l-0.243,-0.199l-0.23,-0.215l-0.215,-0.23l-0.199,-0.243l-0.184,-0.256l-0.166,-0.267l-0.148,-0.277l-0.13,-0.287l-0.111,-0.294l-0.091,-0.301l-0.071,-0.307l-0.052,-0.31l-0.031,-0.313l-0.01,-0.315l0,-53.476l0.01,-0.314l0.031,-0.313l0.052,-0.31l0.071,-0.307l0.091,-0.301l0.111,-0.294l0.13,-0.287l0.148,-0.277l0.166,-0.267l0.184,-0.256l0.199,-0.243l0.215,-0.23l0.23,-0.215l0.243,-0.199l0.256,-0.183l0.267,-0.166l0.277,-0.149l0.287,-0.13l0.294,-0.11l0.301,-0.092l0.306,-0.071l0.311,-0.051l0.313,-0.031l0.314,-0.011l0.315,0.011Z" style="fill:#f7d27f;"/><path d="M620.805,577.006l0.246,0.025l0.244,0.038l0.243,0.051l0.239,0.063l0.236,0.075l0.232,0.088l0.226,0.099l0.222,0.111l0.215,0.121l0.209,0.133l0.202,0.144l0.194,0.153l0.186,0.164l0.177,0.173l0.168,0.181l0.159,0.19l0.148,0.198l0.139,0.206l0.127,0.212l0.116,0.218l0.105,0.225l0.094,0.229l0.081,0.234l0.069,0.237l0.057,0.241l0.044,0.244l0.032,0.245l0.019,0.247l0.007,0.248l0,32.467l-0.007,0.247l-0.019,0.247l-0.032,0.245l-0.044,0.244l-0.057,0.241l-0.069,0.237l-0.081,0.234l-0.094,0.23l-0.105,0.224l-0.116,0.218l-0.127,0.212l-0.139,0.206l-0.148,0.198l-0.159,0.19l-0.168,0.182l-0.177,0.172l-0.186,0.164l-0.194,0.153l-0.202,0.144l-0.209,0.133l-0.215,0.122l-0.222,0.11l-0.226,0.099l-0.232,0.088l-0.236,0.075l-0.239,0.063l-0.243,0.051l-0.244,0.038l-0.246,0.025l-0.248,0.013l-0.247,0l-0.247,-0.013l-0.247,-0.025l-0.244,-0.038l-0.242,-0.051l-0.24,-0.063l-0.236,-0.075l-0.231,-0.088l-0.227,-0.099l-0.222,-0.11l-0.215,-0.122l-0.209,-0.133l-0.202,-0.144l-0.194,-0.153l-0.186,-0.164l-0.177,-0.172l-0.168,-0.182l-0.159,-0.19l-0.148,-0.198l-0.138,-0.206l-0.128,-0.212l-0.116,-0.218l-0.105,-0.224l-0.093,-0.23l-0.082,-0.234l-0.069,-0.237l-0.057,-0.241l-0.044,-0.244l-0.032,-0.245l-0.019,-0.247l-0.006,-0.247l0,-32.467l0.006,-0.248l0.019,-0.247l0.032,-0.245l0.044,-0.244l0.057,-0.241l0.069,-0.237l0.082,-0.234l0.093,-0.229l0.105,-0.225l0.116,-0.218l0.128,-0.212l0.138,-0.206l0.148,-0.198l0.159,-0.19l0.168,-0.181l0.177,-0.173l0.186,-0.164l0.194,-0.153l0.202,-0.144l0.209,-0.133l0.215,-0.121l0.222,-0.111l0.227,-0.099l0.231,-0.088l0.236,-0.075l0.24,-0.063l0.242,-0.051l0.244,-0.038l0.247,-0.025l0.247,-0.013l0.247,0l0.248,0.013Z" style="fill:#f7d27f;"/><path d="M688.852,590.955l0.21,0.014l0.208,0.023l0.207,0.032l0.206,0.041l0.204,0.05l0.201,0.058l0.199,0.068l0.195,0.076l0.192,0.084l0.188,0.093l0.184,0.101l0.179,0.109l0.175,0.116l0.169,0.124l0.163,0.131l0.158,0.139l0.152,0.145l0.145,0.151l0.138,0.158l0.131,0.163l0.124,0.17l0.117,0.174l0.109,0.179l0.1,0.184l0.093,0.188l0.085,0.192l0.076,0.196l0.067,0.198l0.059,0.202l0.05,0.203l0.041,0.206l0.031,0.207l0.023,0.209l0.014,0.209l0.005,0.21l0,22.918l-0.005,0.209l-0.014,0.21l-0.023,0.208l-0.031,0.208l-0.041,0.205l-0.05,0.204l-0.059,0.201l-0.067,0.199l-0.076,0.195l-0.085,0.192l-0.093,0.188l-0.1,0.184l-0.109,0.18l-0.117,0.174l-0.124,0.169l-0.131,0.164l-0.138,0.157l-0.145,0.152l-0.152,0.145l-0.158,0.138l-0.163,0.131l-0.169,0.124l-0.175,0.117l-0.179,0.109l-0.184,0.101l-0.188,0.092l-0.192,0.085l-0.195,0.076l-0.199,0.067l-0.201,0.059l-0.204,0.05l-0.206,0.041l-0.207,0.032l-0.208,0.022l-0.21,0.014l-0.209,0.005l-0.21,-0.005l-0.209,-0.014l-0.209,-0.022l-0.207,-0.032l-0.206,-0.041l-0.204,-0.05l-0.201,-0.059l-0.199,-0.067l-0.195,-0.076l-0.192,-0.085l-0.188,-0.092l-0.184,-0.101l-0.179,-0.109l-0.175,-0.117l-0.169,-0.124l-0.163,-0.131l-0.158,-0.138l-0.151,-0.145l-0.146,-0.152l-0.138,-0.157l-0.131,-0.164l-0.124,-0.169l-0.117,-0.174l-0.108,-0.18l-0.101,-0.184l-0.093,-0.188l-0.085,-0.192l-0.076,-0.195l-0.067,-0.199l-0.059,-0.201l-0.049,-0.204l-0.041,-0.205l-0.032,-0.208l-0.023,-0.208l-0.014,-0.21l-0.004,-0.209l0,-22.918l0.004,-0.21l0.014,-0.209l0.023,-0.209l0.032,-0.207l0.041,-0.206l0.049,-0.203l0.059,-0.202l0.067,-0.198l0.076,-0.196l0.085,-0.192l0.093,-0.188l0.101,-0.184l0.108,-0.179l0.117,-0.174l0.124,-0.17l0.131,-0.163l0.138,-0.158l0.146,-0.151l0.151,-0.145l0.158,-0.139l0.163,-0.131l0.169,-0.124l0.175,-0.116l0.179,-0.109l0.184,-0.101l0.188,-0.093l0.192,-0.084l0.195,-0.076l0.199,-0.068l0.201,-0.058l0.204,-0.05l0.206,-0.041l0.207,-0.032l0.209,-0.023l0.209,-0.014l0.21,-0.004l0.209,0.004Z" style="fill:#f7d27f;"/><path d="M645.859,590.421l0.233,0.016l0.231,0.025l0.231,0.035l0.228,0.046l0.227,0.055l0.223,0.066l0.221,0.074l0.217,0.085l0.213,0.094l0.209,0.103l0.205,0.112l0.199,0.121l0.194,0.129l0.188,0.138l0.181,0.146l0.176,0.154l0.168,0.161l0.161,0.168l0.154,0.175l0.146,0.182l0.138,0.188l0.129,0.194l0.121,0.199l0.112,0.204l0.103,0.209l0.094,0.214l0.084,0.217l0.075,0.221l0.066,0.223l0.055,0.227l0.045,0.228l0.036,0.231l0.025,0.231l0.015,0.233l0.006,0.233l0,25.783l-0.006,0.233l-0.015,0.232l-0.025,0.232l-0.036,0.23l-0.045,0.229l-0.055,0.226l-0.066,0.224l-0.075,0.221l-0.084,0.217l-0.094,0.213l-0.103,0.209l-0.112,0.205l-0.121,0.199l-0.129,0.194l-0.138,0.187l-0.146,0.182l-0.154,0.175l-0.161,0.169l-0.168,0.161l-0.176,0.154l-0.181,0.145l-0.188,0.138l-0.194,0.13l-0.199,0.121l-0.205,0.112l-0.209,0.103l-0.213,0.094l-0.217,0.084l-0.221,0.075l-0.223,0.065l-0.227,0.056l-0.228,0.045l-0.231,0.036l-0.231,0.025l-0.233,0.015l-0.233,0.005l-0.233,-0.005l-0.233,-0.015l-0.231,-0.025l-0.231,-0.036l-0.228,-0.045l-0.226,-0.056l-0.224,-0.065l-0.221,-0.075l-0.217,-0.084l-0.213,-0.094l-0.209,-0.103l-0.205,-0.112l-0.199,-0.121l-0.194,-0.13l-0.188,-0.138l-0.181,-0.145l-0.176,-0.154l-0.168,-0.161l-0.161,-0.169l-0.154,-0.175l-0.146,-0.182l-0.137,-0.187l-0.13,-0.194l-0.121,-0.199l-0.112,-0.205l-0.103,-0.209l-0.094,-0.213l-0.084,-0.217l-0.075,-0.221l-0.065,-0.224l-0.056,-0.226l-0.045,-0.229l-0.036,-0.23l-0.025,-0.232l-0.015,-0.232l-0.005,-0.233l0,-25.783l0.005,-0.233l0.015,-0.233l0.025,-0.231l0.036,-0.231l0.045,-0.228l0.056,-0.227l0.065,-0.223l0.075,-0.221l0.084,-0.217l0.094,-0.214l0.103,-0.209l0.112,-0.204l0.121,-0.199l0.13,-0.194l0.137,-0.188l0.146,-0.182l0.154,-0.175l0.161,-0.168l0.168,-0.161l0.176,-0.154l0.181,-0.146l0.188,-0.138l0.194,-0.129l0.199,-0.121l0.205,-0.112l0.209,-0.103l0.213,-0.094l0.217,-0.085l0.221,-0.074l0.224,-0.066l0.226,-0.055l0.228,-0.046l0.231,-0.035l0.231,-0.025l0.233,-0.016l0.233,-0.005l0.233,0.005Z" style="fill:#11132d;"/><path d="M679.474,597.118l0.283,0.03l0.281,0.045l0.278,0.06l0.274,0.075l0.27,0.09l0.265,0.103l0.259,0.118l0.252,0.131l0.245,0.144l0.237,0.157l0.228,0.17l0.219,0.182l0.209,0.192l0.199,0.204l0.187,0.214l0.176,0.224l0.163,0.233l0.151,0.241l0.138,0.248l0.124,0.256l0.111,0.262l0.096,0.268l0.082,0.272l0.068,0.276l0.052,0.28l0.038,0.282l0.023,0.283l0.007,0.284l0,39.151l-0.007,0.285l-0.023,0.283l-0.038,0.282l-0.052,0.279l-0.068,0.277l-0.082,0.272l-0.096,0.268l-0.111,0.262l-0.124,0.255l-0.138,0.249l-0.151,0.241l-0.163,0.233l-0.176,0.224l-0.187,0.214l-0.199,0.203l-0.209,0.193l-0.219,0.182l-0.228,0.169l-0.237,0.158l-0.245,0.144l-0.252,0.131l-0.259,0.118l-0.265,0.103l-0.27,0.089l-0.274,0.075l-0.278,0.06l-0.281,0.046l-0.283,0.03l-0.284,0.015l-0.284,0l-0.284,-0.015l-0.283,-0.03l-0.281,-0.046l-0.278,-0.06l-0.274,-0.075l-0.27,-0.089l-0.265,-0.103l-0.259,-0.118l-0.252,-0.131l-0.245,-0.144l-0.237,-0.158l-0.229,-0.169l-0.219,-0.182l-0.208,-0.193l-0.199,-0.203l-0.187,-0.214l-0.176,-0.224l-0.163,-0.233l-0.151,-0.241l-0.138,-0.249l-0.124,-0.255l-0.111,-0.262l-0.096,-0.268l-0.082,-0.272l-0.068,-0.277l-0.053,-0.279l-0.037,-0.282l-0.023,-0.283l-0.008,-0.285l0,-39.151l0.008,-0.284l0.023,-0.283l0.037,-0.282l0.053,-0.28l0.068,-0.276l0.082,-0.272l0.096,-0.268l0.111,-0.262l0.124,-0.256l0.138,-0.248l0.151,-0.241l0.163,-0.233l0.176,-0.224l0.187,-0.214l0.199,-0.204l0.208,-0.192l0.219,-0.182l0.229,-0.17l0.237,-0.157l0.245,-0.144l0.252,-0.131l0.259,-0.118l0.265,-0.103l0.27,-0.09l0.274,-0.075l0.278,-0.06l0.281,-0.045l0.283,-0.03l0.284,-0.015l0.284,0l0.284,0.015Z" style="fill:#11132d;"/></g></svg>