<?xml version="1.0" encoding="UTF-8" standalone="no"?>
<svg width="3904px" height="3904px" viewBox="0 0 3904 3904" version="1.1" xmlns="http://www.w3.org/2000/svg" xmlns:xlink="http://www.w3.org/1999/xlink">
    <!-- Generator: Sketch 43.2 (39069) - http://www.bohemiancoding.com/sketch -->
    <title>black</title>
    <desc>Created with Sketch.</desc>
    <defs></defs>
    <g id="Page-1" stroke="none" stroke-width="1" fill="none" fill-rule="evenodd">
        <g id="black" fill="#000000">
            <path d="M1967.58894,0.499652681 L1980.09401,0.639153846 L1992.58391,0.855987179 L2005.05713,1.15318531 L2017.51216,1.52771562 L2029.97022,1.98109441 L2042.42525,2.51332168 L2054.82569,3.12288112 L2067.24433,3.81128904 L2079.62506,4.57702914 L2092.00427,5.4201014 L2104.36074,6.34050583 L2116.70659,7.33824242 L2129.03273,8.41482751 L2141.33309,9.56571212 L2153.61981,10.7939289 L2165.87317,12.0964452 L2178.15534,13.4808427 L2190.37685,14.936507 L2202.57259,16.4679872 L2214.76984,18.0767995 L2226.94132,19.7599114 L2239.07489,21.5173228 L2251.2221,23.3535828 L2263.32838,25.2611096 L2275.41949,27.2459685 L2287.44995,29.2975455 L2299.48344,31.4264545 L2311.50329,33.6326958 L2323.50797,35.9132366 L2335.46716,38.263528 L2347.40967,40.6866026 L2359.32186,43.1824604 L2371.21888,45.754134 L2383.08406,48.3955583 L2394.91437,51.1067331 L2406.74619,53.8967564 L2418.52797,56.7519814 L2430.25669,59.6724079 L2442.02331,62.6792646 L2453.73686,65.7528392 L2465.39582,68.8885828 L2477.01839,72.0910443 L2488.66067,75.3784196 L2500.23017,78.7218986 L2511.79663,82.1442261 L2523.36917,85.6454021 L2534.86436,89.2011655 L2546.32166,92.8221305 L2557.75165,96.5143625 L2569.17104,100.280894 L2580.54948,104.112627 L2591.89002,108.008045 L2603.18354,111.965633 L2614.48466,116.005101 L2625.71905,120.099157 L2636.95496,124.272062 L2648.13325,128.502586 L2659.28576,132.801345 L2670.39581,137.162273 L2681.48009,141.592951 L2692.53101,146.087315 L2703.53947,150.645364 L2714.51912,155.270131 L2725.45632,159.95555 L2736.37835,164.712237 L2747.27005,169.537157 L2758.07381,174.401502 L2768.89273,179.353794 L2779.64949,184.356124 L2790.38956,189.431237 L2801.08566,194.56397 L2811.71959,199.748258 L2822.33836,205.005329 L2832.9086,210.318503 L2843.46369,215.704462 L2853.98693,221.155621 L2864.4298,226.644689 L2874.88936,232.224735 L2885.25338,237.835108 L2895.59922,243.515232 L2905.87984,249.242361 L2916.17564,255.058953 L2926.39107,260.911937 L2936.58678,266.836188 L2946.75065,272.82564 L2956.84629,278.856033 L2966.96013,284.980437 L2976.98905,291.135168 L2989.42891,298.888097 L2999.35927,305.171714 L3009.25931,311.519017 L3019.1366,317.934555 L3028.93352,324.383451 L3038.70618,330.900582 L3048.44852,337.482914 L3060.53053,345.765037 L3072.53825,354.129042 L3082.13957,360.913044 L3091.66355,367.728889 L3103.54087,376.350668 L3115.30445,385.025517 L3126.97706,393.768601 L3136.32971,400.87103 L3145.62624,408.021981 L3157.16542,417.021323 L3166.35278,424.285998 L3177.71,433.389965 L3186.80183,440.780494 L3198.08778,450.080066 L3209.31762,459.475167 L3220.4292,468.91424 L3231.49679,478.457939 L3242.48251,488.074422 L3253.38483,497.762171 L3262.10365,505.616693 L3272.84221,515.419683 L3281.44428,523.380347 L3292.0964,533.37136 L3302.67423,543.441221 L3313.16714,553.580833 L3323.60244,563.815973 L3333.91339,574.079923 L3344.17583,584.450015 L3352.36242,592.836765 L3362.46564,603.323613 L3372.52034,613.915087 L3382.47648,624.562666 L3390.43563,633.190509 L3400.25984,643.983654 L3409.96427,654.805608 L3417.75511,663.610861 L3427.3261,674.578382 L3436.84403,685.650529 L3444.43319,694.5968 L3453.78584,705.775089 L3463.07631,717.050422 L3470.482,726.161971 L3479.58294,737.51312 L3486.84913,746.703517 L3494.06225,755.937888 L3502.97668,767.511936 L3511.835,779.19061 L3518.86768,788.594808 L3527.51523,800.32352 L3534.45087,809.861154 L3542.95589,821.727851 L3549.74899,831.339784 L3558.11603,843.352048 L3564.76508,853.036765 L3571.34893,862.751808 L3577.86909,872.495661 L3584.35286,882.31533 L3590.75475,892.136515 L3597.12025,902.033516 L3603.41448,911.948713 L3609.689,921.968536 L3615.85283,931.941353 L3621.96056,941.95966 L3628.03644,952.06288 L3634.0456,962.191878 L3639.98957,972.349685 L3645.87136,982.542368 L3651.71373,992.810867 L3657.49393,1003.11424 L3663.20741,1013.44491 L3668.88147,1023.85139 L3674.46455,1034.23968 L3679.97788,1044.65375 L3685.4533,1055.14514 L3690.86807,1065.67597 L3696.24038,1076.28564 L3701.51716,1086.86498 L3706.72571,1097.46707 L3711.89332,1108.148 L3716.98966,1118.85169 L3722.03141,1129.60844 L3726.99432,1140.36368 L3731.91932,1151.21292 L3736.77153,1162.07734 L3741.55703,1172.97056 L3746.27429,1183.89107 L3750.9127,1194.81159 L3755.52382,1205.85341 L3760.05458,1216.89371 L3764.5171,1227.96131 L3768.91139,1239.0562 L3773.23137,1250.16171 L3777.48768,1261.30664 L3781.71062,1272.57287 L3785.84865,1283.82091 L3789.90934,1295.06895 L3793.87755,1306.28363 L3797.82149,1317.6454 L3801.69416,1329.03142 L3805.48799,1340.41593 L3809.21509,1351.83531 L3812.86638,1363.26379 L3816.44793,1374.7135 L3819.97791,1386.25419 L3823.45786,1397.88434 L3826.81802,1409.37348 L3830.14937,1421.03244 L3833.38064,1432.62013 L3836.56035,1444.29729 L3839.67032,1456.00174 L3842.70144,1467.70619 L3845.681,1479.51527 L3848.54381,1491.17272 L3851.37174,1502.99696 L3854.13902,1514.90004 L3856.81532,1526.74855 L3859.4158,1538.6016 L3861.95563,1550.54259 L3864.40752,1562.42445 L3866.79572,1574.38516 L3869.10962,1586.358 L3871.35983,1598.40969 L3873.52058,1610.40072 L3875.61916,1622.47516 L3877.62828,1634.48742 L3879.58433,1646.64373 L3881.44031,1658.66509 L3883.24321,1670.84718 L3884.96726,1683.03231 L3886.60488,1695.14162 L3888.18337,1707.41772 L3889.67542,1719.61649 L3891.09166,1731.82284 L3892.43664,1744.10956 L3893.70428,1756.39779 L3894.89459,1768.69057 L3896.00605,1780.98639 L3897.04624,1793.35802 L3898.00152,1805.66445 L3898.88402,1818.04214 L3899.68918,1830.41984 L3900.41853,1842.87638 L3901.066,1855.25711 L3901.63462,1867.64087 L3902.13045,1880.1702 L3902.54441,1892.62674 L3902.878,1905.00899 L3903.13729,1917.53528 L3903.31469,1929.98728 L3903.41326,1942.58484 L3903.43297,1955.10507 L3903.37383,1967.55403 L3903.23585,1980.07881 L3903.01901,1992.53232 L3902.72181,2005.06013 L3902.34425,2017.58795 L3901.89239,2029.97322 L3901.36471,2042.35547 L3900.74909,2054.88479 L3900.06219,2067.26552 L3899.301,2079.57347 L3898.45187,2092.0285 L3897.53601,2104.33038 L3896.53676,2116.70201 L3895.46321,2129.00237 L3894.30626,2141.36945 L3893.0841,2153.59097 L3891.77855,2165.87617 L3890.39416,2178.15834 L3888.94001,2190.3662 L3887.40853,2202.56194 L3885.79972,2214.75465 L3884.11357,2226.94432 L3882.36223,2239.04756 L3880.52142,2251.21904 L3878.61541,2263.31925 L3876.63206,2275.40429 L3874.57442,2287.47115 L3872.43793,2299.53951 L3870.23776,2311.53206 L3867.96328,2323.50339 L3865.60996,2335.47774 L3863.18385,2347.43087 L3860.68193,2359.37187 L3858.11632,2371.24008 L3855.47793,2383.09465 L3852.76523,2394.92647 L3849.99341,2406.68702 L3847.12908,2418.5052 L3844.19046,2430.30518 L3841.19725,2442.01721 L3838.12671,2453.72014 L3835.0031,2465.33513 L3831.78244,2477.0229 L3828.49052,2488.68186 L3825.144,2500.26198 L3821.72471,2511.82086 L3818.25841,2523.27967 L3814.69051,2534.80974 L3811.05287,2546.31859 L3807.36215,2557.74859 L3803.60017,2569.15584 L3799.76237,2580.55248 L3795.88212,2591.84753 L3791.9033,2603.19867 L3787.85019,2614.53769 L3783.75613,2625.7736 L3779.60749,2636.94128 L3775.36635,2648.15293 L3771.07972,2659.27208 L3766.69908,2670.43217 L3762.26992,2681.5119 L3757.77252,2692.56737 L3753.22964,2703.54247 L3748.61852,2714.49028 L3743.9058,2725.48964 L3739.15518,2736.39651 L3734.33633,2747.27457 L3729.4735,2758.07529 L3724.51514,2768.90938 L3719.51888,2779.65097 L3714.45134,2790.3774 L3709.3171,2801.0735 L3704.11006,2811.75443 L3698.84693,2822.38685 L3693.52465,2832.97377 L3688.1857,2843.43636 L3682.7118,2854.00509 L3677.22879,2864.43432 L3671.65026,2874.89236 L3666.03989,2885.25487 L3660.35825,2895.60222 L3654.61444,2905.91469 L3648.83121,2916.15134 L3642.95245,2926.41074 L3637.04488,2936.57765 L3631.05543,2946.74304 L3624.99167,2956.89478 L3618.91428,2966.93128 L3612.74135,2976.98902 L3606.54113,2986.95122 L3600.27116,2996.89522 L3593.94205,3006.80132 L3587.55229,3016.66952 L3581.09126,3026.51799 L3572.95622,3038.73648 L3564.76508,3050.84124 L3558.12209,3060.51685 L3549.74293,3072.54731 L3542.95589,3082.15015 L3534.45087,3094.01533 L3527.52282,3103.54538 L3518.86768,3115.28319 L3511.84865,3124.66768 L3504.76896,3134.01729 L3495.83331,3145.65351 L3486.84913,3157.17297 L3479.57536,3166.37398 L3470.482,3177.71451 L3463.08389,3186.81696 L3453.76916,3198.12111 L3444.42409,3209.2903 L3434.94105,3220.45494 L3425.43677,3231.47705 L3415.80968,3242.4749 L3406.14164,3253.35447 L3398.24769,3262.11878 L3388.43712,3272.86341 L3378.52799,3283.55647 L3370.49151,3292.11153 L3360.42165,3302.68784 L3350.31236,3313.15043 L3340.10603,3323.55692 L3329.78446,3333.92549 L3319.36433,3344.23645 L3308.98666,3354.35331 L3298.4149,3364.50809 L3287.80826,3374.54611 L3277.18191,3384.45221 L3266.40544,3394.35072 L3255.55165,3404.17039 L3244.68572,3413.85663 L3235.89108,3421.58984 L3227.05247,3429.26999 L3215.99397,3438.74849 L3204.80507,3448.19363 L3193.62374,3457.4932 L3184.53949,3464.94438 L3175.43552,3472.32126 L3164.05253,3481.41916 L3154.84242,3488.67929 L3143.2896,3497.66044 L3131.72162,3506.51724 L3122.36139,3513.58328 L3112.9481,3520.6008 L3101.12082,3529.29384 L3089.25564,3537.87923 L3079.70891,3544.69052 L3070.12276,3551.44268 L3058.08926,3559.79759 L3045.9845,3568.06758 L3036.24217,3574.62869 L3026.46041,3581.13066 L3014.18885,3589.16714 L3004.32218,3595.53567 L2994.42366,3601.839 L2984.45236,3608.10593 L2974.45225,3614.30616 L2964.41423,3620.44724 L2954.31101,3626.54435 L2944.20779,3632.55806 L2934.0333,3638.53235 L2923.83001,3644.43992 L2913.59032,3650.28684 L2903.34911,3656.05188 L2893.04119,3661.77446 L2882.70294,3667.43184 L2872.27068,3673.05737 L2861.80506,3678.62074 L2851.36673,3684.08706 L2840.83591,3689.52154 L2830.30357,3694.87566 L2819.67874,3700.19642 L2809.02055,3705.45197 L2798.45788,3710.58167 L2787.70719,3715.72199 L2776.95802,3720.78042 L2766.14517,3725.78881 L2755.36719,3730.70168 L2744.49671,3735.57664 L2733.68992,3740.34394 L2722.76182,3745.08395 L2711.79733,3749.76179 L2700.81465,3754.36836 L2689.76676,3758.92186 L2678.69158,3763.40712 L2667.6437,3767.80293 L2656.51848,3772.15021 L2645.32654,3776.44442 L2634.10883,3780.67039 L2622.95935,3784.79174 L2611.71738,3788.8676 L2600.4284,3792.88433 L2589.07118,3796.84495 L2577.69122,3800.73582 L2566.28852,3804.5539 L2554.91008,3808.28707 L2543.4634,3811.96566 L2532.01975,3815.56388 L2520.41538,3819.13329 L2508.95051,3822.58291 L2497.37494,3825.98704 L2485.8009,3829.31384 L2474.11767,3832.59212 L2462.45568,3835.787 L2450.84524,3838.8909 L2439.12714,3841.94476 L2427.33929,3844.93949 L2415.60755,3847.8402 L2403.78634,3850.68633 L2391.94845,3853.45816 L2380.1136,3856.15114 L2368.26358,3858.76982 L2356.32562,3861.32936 L2344.43163,3863.80247 L2332.48305,3866.20887 L2320.43288,3868.55613 L2308.52979,3870.79876 L2296.469,3872.99135 L2284.48403,3875.09297 L2272.4005,3877.13393 L2260.30636,3879.09908 L2248.21525,3880.98538 L2236.04074,3882.80647 L2223.93143,3884.54114 L2211.74934,3886.20606 L2199.54905,3887.79667 L2187.27902,3889.31754 L2175.06508,3890.75198 L2162.77988,3892.11666 L2150.5705,3893.39643 L2138.27468,3894.60645 L2125.9819,3895.73611 L2113.60875,3896.79602 L2101.30687,3897.77101 L2088.93069,3898.67473 L2076.54997,3899.49809 L2064.1662,3900.24412 L2051.78548,3900.9113 L2039.25463,3901.5057 L2026.87239,3902.01669 L2014.34458,3902.45339 L2001.88803,3902.8067 L1989.5073,3903.08115 L1976.98101,3903.27979 L1964.45775,3903.39958 L1951.936,3903.439 L1939.41425,3903.39958 L1926.88948,3903.27979 L1914.3647,3903.08115 L1901.98245,3902.8067 L1889.52742,3902.45339 L1876.9981,3902.01669 L1864.61585,3901.5057 L1852.08652,3900.9113 L1839.70428,3900.24412 L1827.32052,3899.49809 L1814.94131,3898.67473 L1802.56664,3897.77101 L1790.26173,3896.79602 L1777.8901,3895.73611 L1765.5958,3894.60645 L1753.30454,3893.39643 L1741.08757,3892.11666 L1728.80237,3890.75198 L1716.59753,3889.31754 L1704.32598,3887.79667 L1692.13176,3886.20757 L1679.94512,3884.54114 L1667.83581,3882.80799 L1655.6613,3880.98689 L1643.56412,3879.09908 L1631.47756,3877.13545 L1619.4001,3875.096 L1607.39541,3872.98984 L1595.34069,3870.79876 L1583.43154,3868.55461 L1571.38895,3866.20887 L1559.43128,3863.80096 L1547.55396,3861.33088 L1535.616,3858.77133 L1523.7584,3856.15114 L1511.91445,3853.45664 L1500.08566,3850.68633 L1488.27355,3847.84324 L1476.54029,3844.94101 L1464.75244,3841.9478 L1453.04496,3838.89545 L1441.41632,3835.787 L1429.7331,3832.58757 L1418.0802,3829.31688 L1406.49554,3825.98704 L1394.93211,3822.58594 L1383.45662,3819.13329 L1371.85225,3815.56388 L1360.40709,3811.96566 L1348.98467,3808.29466 L1337.57135,3804.55087 L1326.16865,3800.73127 L1314.80082,3796.84495 L1303.43147,3792.87978 L1292.17888,3788.8767 L1280.91265,3784.79174 L1269.76317,3780.67039 L1258.54546,3776.44442 L1247.35352,3772.15021 L1236.25256,3767.81202 L1225.15312,3763.39651 L1214.10524,3758.92186 L1203.05735,3754.36836 L1192.10196,3749.77392 L1181.09502,3745.07788 L1170.19573,3740.35001 L1159.36164,3735.57058 L1148.5033,3730.70168 L1137.72532,3725.78881 L1126.91398,3720.78042 L1116.17997,3715.72957 L1105.4126,3710.58167 L1094.84994,3705.45197 L1084.19326,3700.19642 L1073.56691,3694.87566 L1063.03609,3689.52154 L1052.50527,3684.08706 L1042.06694,3678.62074 L1031.61648,3673.06647 L1021.16906,3667.43184 L1010.81413,3661.76536 L1000.53805,3656.06098 L990.265003,3650.27774 L980.025315,3644.43083 L969.820501,3638.52174 L959.680889,3632.56868 L949.542794,3626.53374 L939.439573,3620.43662 L929.419751,3614.30616 L919.41964,3608.10593 L909.466535,3601.85113 L899.549822,3595.53567 L889.681631,3589.16714 L879.824054,3582.72127 L870.033195,3576.23447 L860.289341,3569.69308 L850.601592,3563.10619 L840.918392,3556.43743 L831.301909,3549.72621 L819.359396,3541.27426 L807.454791,3532.71465 L797.986908,3525.80934 L788.56603,3518.85097 L776.869161,3510.08969 L767.542295,3503.00545 L758.245755,3495.85602 L746.724779,3486.87184 L735.276585,3477.80578 L726.111965,3470.44709 L714.791142,3461.23092 L703.543103,3451.93438 L694.560441,3444.4089 L683.442804,3434.96376 L672.352462,3425.40035 L661.378875,3415.79296 L650.476556,3406.10521 L639.651569,3396.34013 L631.010078,3388.4386 L620.297298,3378.51128 L609.658818,3368.50359 L599.115866,3358.43676 L588.609305,3348.25317 L578.217985,3338.03168 L567.903997,3327.73285 L557.647628,3317.33698 L547.468592,3306.8653 L537.366888,3296.3178 L527.362228,3285.71571 L517.400026,3274.99686 L507.534867,3264.22343 L497.769786,3253.39844 L488.08052,3242.49612 L480.357917,3233.68784 L470.817251,3222.65663 L461.355432,3211.55113 L453.799625,3202.56088 L444.483373,3191.32346 L435.270231,3180.03903 L427.90093,3170.88957 L418.798479,3159.43228 L409.797621,3147.92495 L402.63454,3138.63902 L393.785314,3127.00584 L386.757184,3117.63803 L378.065655,3105.88809 L371.160347,3096.42021 L362.599221,3084.5156 L355.822801,3074.95522 L347.437568,3062.95509 L340.767289,3053.27189 L334.180408,3043.58566 L327.640533,3033.84181 L321.153728,3024.04943 L314.707865,3014.19185 L308.339333,3004.32366 L302.023873,2994.40847 L295.769065,2984.45536 L289.567329,2974.45525 L283.438375,2964.43391 L277.341265,2954.33221 L271.306323,2944.19411 L265.351746,2934.05298 L259.444175,2923.84969 L253.597256,2913.61 L247.812507,2903.33543 L242.092959,2893.03054 L236.411319,2882.64529 L230.808528,2872.257 L225.269422,2861.83838 L219.78642,2851.36973 L214.351939,2840.83891 L208.997824,2830.30657 L203.678584,2819.68174 L198.453355,2809.08723 L193.263002,2798.39871 L188.160596,2787.72687 L183.09458,2776.96102 L178.099832,2766.18001 L173.173318,2755.37019 L168.319587,2744.5452 L163.511346,2733.64591 L158.781953,2722.74662 L154.101083,2711.77152 L149.492995,2700.78429 L144.953142,2689.76976 L140.478491,2678.72188 L136.049329,2667.58756 L131.711146,2656.48812 L127.429066,2645.32954 L123.216738,2634.14519 L119.071127,2622.92748 L114.984653,2611.66276 L110.970962,2600.37529 L107.017923,2589.03931 L103.142217,2577.70635 L99.3347448,2566.33852 L95.5788275,2554.89033 L91.8987261,2543.43152 L88.2883753,2531.953 L84.7508077,2520.45174 L81.2784417,2508.90802 L77.8773427,2497.34307 L74.5475105,2485.75992 L71.2874289,2474.14038 L68.0970979,2462.49355 L64.959838,2450.75878 L61.9181061,2439.08617 L58.9339942,2427.33471 L56.0226655,2415.56506 L53.1871527,2403.78934 L50.4183578,2391.96055 L47.7314441,2380.15299 L45.1036667,2368.25748 L42.5517051,2356.35743 L40.0740431,2344.44221 L37.6661317,2332.48605 L35.3340361,2320.51473 L33.0701748,2308.4964 L30.8912273,2296.51598 L28.7729324,2284.437 L26.7395513,2272.39744 L24.7744044,2260.31088 L22.8820408,2248.17731 L21.0670093,2236.03919 L19.3277937,2223.89197 L17.6659103,2211.74324 L16.0722611,2199.51111 L14.565042,2187.35025 L13.1275734,2175.10902 L11.7613718,2162.82382 L10.4740186,2150.53407 L9.26551399,2138.24129 L8.13434149,2125.94699 L7.08201748,2113.64966 L6.09944406,2101.27045 L5.19723543,2088.8973 L4.37387529,2076.51657 L3.62784732,2064.13281 L2.95915152,2051.71418 L2.3693042,2039.29554 L1.85678904,2026.839 L1.42463869,2014.42036 L1.06982051,2001.96381 L0.790818182,1989.43752 L0.59369697,1976.94762 L0.475424242,1964.46075 L0.436,1951.939 L0.475424242,1939.41725 L0.59369697,1926.92887 L0.790818182,1914.44048 L1.06982051,1901.91267 L1.42463869,1889.45764 L1.85678904,1877.03749 L2.3693042,1864.58246 L2.95915152,1852.16231 L3.62784732,1839.74519 L4.37387529,1827.35991 L5.19723543,1814.9807 L6.09944406,1802.60755 L7.08201748,1790.22834 L8.13434149,1777.92949 L9.26551399,1765.63671 L10.4740186,1753.34393 L11.7613718,1741.05266 L13.1275734,1728.76898 L14.565042,1716.52623 L16.0722611,1704.36537 L17.6659103,1692.13476 L19.3277937,1679.98451 L21.0670093,1667.83881 L22.8820408,1655.70069 L24.7744044,1643.56712 L26.7395513,1631.48056 L28.7729324,1619.43949 L30.8912273,1607.36202 L33.0701748,1595.38009 L35.3340361,1583.36176 L37.6661317,1571.39195 L40.0740431,1559.43428 L42.5517051,1547.52057 L45.1036667,1535.619 L47.7314441,1523.72501 L50.4183578,1511.91745 L53.1871527,1500.08866 L56.0226655,1488.31294 L58.9339942,1476.54329 L61.9181061,1464.79183 L64.959838,1453.11922 L68.0970979,1441.38293 L71.2874289,1429.7361 L74.5475105,1418.11808 L77.8773427,1406.53493 L81.2784417,1394.96998 L84.7508077,1383.42474 L88.2883753,1371.925 L91.8987261,1360.44496 L95.5788275,1348.98767 L99.3347448,1337.53948 L103.142217,1326.17165 L107.017923,1314.83718 L110.970962,1303.50271 L114.984653,1292.21524 L119.071127,1280.94901 L123.216738,1269.73281 L127.429066,1258.54846 L131.711146,1247.38988 L136.049329,1236.28892 L140.478491,1225.15612 L144.953142,1214.10824 L149.492995,1203.09371 L154.101083,1192.10496 L158.781953,1181.13138 L163.511346,1170.23209 L168.319587,1159.33129 L173.173318,1148.5063 L178.099832,1137.69647 L183.09458,1126.91698 L188.160596,1116.15113 L193.266035,1105.47171 L198.453355,1094.79077 L203.674035,1084.20384 L208.997824,1073.56991 L214.361037,1063.02241 L219.78642,1052.50827 L225.266389,1042.0472 L230.813077,1031.6119 L236.40677,1021.24029 L242.08841,1010.85504 L247.817056,1000.53347 L253.597256,990.268003 L259.444175,980.028315 L265.351746,969.823501 L271.315421,959.66721 L277.335199,949.553375 L283.427761,939.460769 L289.573394,929.413653 L295.773614,919.413542 L302.023873,909.469535 L308.339333,899.552822 L314.7018,889.693728 L321.147663,879.836152 L327.634467,870.045293 L334.168277,860.310537 L340.773354,850.595494 L347.437568,840.921392 L354.141205,831.314007 L362.593156,819.371494 L371.160347,807.457791 L378.07172,797.98081 L386.749603,786.249065 L393.785314,776.872161 L400.875612,767.536197 L409.79004,755.962149 L417.00316,746.727779 L426.076801,735.270487 L433.427906,726.114965 L442.642564,714.794142 L451.931522,703.556717 L459.45852,694.574055 L468.902142,683.454902 L476.545896,674.578382 L486.136601,663.589633 L495.836481,652.641824 L505.577302,641.810772 L515.434879,631.013078 L525.354625,620.309396 L535.371415,609.661818 L545.436727,599.118866 L555.611214,588.621403 L565.843322,578.220985 L576.131533,567.916094 L586.5365,557.650628 L597.008185,547.471592 L607.546589,537.378986 L618.159291,527.365228 L628.87662,517.403026 L639.640955,507.546965 L650.48717,497.762171 L661.38949,488.074422 L672.375206,478.457939 L683.442804,468.91424 L694.572571,459.460003 L705.764507,450.09523 L714.803273,442.636466 L726.124096,433.420291 L735.265971,426.081317 L746.724779,417.00616 L758.245755,408.021981 L767.542295,400.87103 L779.219452,392.015739 L790.923903,383.275688 L800.367526,376.323374 L812.226641,367.715242 L821.750628,360.899397 L831.31404,354.141172 L840.932038,347.43147 L850.615239,340.761191 L860.302988,334.175826 L870.046841,327.634435 L879.8377,321.147631 L889.667984,314.718446 L899.549822,308.342333 L909.451372,302.035971 L919.41964,295.772065 L929.419751,289.570329 L939.439573,283.441375 L949.527631,277.351846 L959.665726,271.316904 L969.806854,265.363844 L980.010152,259.454756 L990.24984,253.607838 L1000.53805,247.815507 L1010.8581,242.088378 L1021.19787,236.429483 L1031.61648,230.811528 L1042.03662,225.272422 L1052.52043,219.781838 L1063.03609,214.354939 L1073.59875,208.985661 L1084.1781,203.689166 L1094.80293,198.448774 L1105.47629,193.266002 L1116.17997,188.148432 L1126.91398,183.096064 L1137.67831,178.110414 L1148.48814,173.1839 L1159.32829,168.322587 L1170.22909,163.514346 L1181.12838,158.784953 L1192.0868,154.110148 L1203.09071,149.495995 L1214.10524,144.956142 L1225.15312,140.481491 L1236.25256,136.064459 L1247.3702,131.720211 L1258.52878,127.439648 L1269.72981,123.219738 L1280.94601,119.074127 L1292.21224,114.987653 L1303.48303,110.980027 L1314.8175,107.026988 L1326.16865,103.145217 L1337.57135,99.3271305 L1348.98467,95.5818275 L1360.42528,91.9062751 L1371.9038,88.2974406 L1383.40507,84.759873 L1394.94879,81.2859907 L1406.51374,77.8848916 L1418.11508,74.5505105 L1429.7331,71.2904289 L1441.39813,68.0940326 L1453.07983,64.9719359 L1464.80703,61.9165571 L1476.54029,58.9369942 L1488.29175,56.0302145 L1500.06746,53.1947016 L1511.89625,50.4259068 L1523.7584,47.7268625 L1535.6342,45.1021177 L1547.51757,42.5547051 L1559.44947,40.0740105 L1571.38895,37.6691317 L1583.35876,35.3370361 L1595.35889,33.0762075 L1607.37722,30.8911946 L1619.41829,28.778965 L1631.49576,26.7395186 L1643.58232,24.7743718 L1655.6795,22.8880734 L1667.81762,21.073042 L1679.98151,19.3307937 L1692.14995,17.6673939 L1704.34418,16.0782937 L1716.56114,14.563493 L1728.80237,13.1260245 L1741.04966,11.7643718 L1753.32273,10.478535 L1765.614,9.2700303 L1777.92649,8.13734149 L1790.26173,7.08046853 L1802.60455,6.10244406 L1814.9595,5.20175175 L1827.33871,4.37839161 L1839.74219,3.63084732 L1852.15931,2.96215152 L1864.56126,2.37382051 L1877.01629,1.85978904 L1889.45464,1.42763869 L1901.92786,1.0713042 L1914.41928,0.795334499 L1926.90767,0.59669697 L1939.43245,0.478424242 L1951.936,0.439 L1967.58894,0.499652681 Z M1951.454,1664.939 L1950.973,1664.94 L1950.493,1664.942 L1950.002,1664.945 L1949.537,1664.948 L1949.06,1664.953 L1948.572,1664.958 L1948.098,1664.963 L1947.624,1664.97 L1947.139,1664.977 L1946.656,1664.985 L1946.185,1664.994 L1945.716,1665.003 L1945.236,1665.013 L1944.756,1665.024 L1944.29,1665.036 L1943.813,1665.048 L1943.336,1665.061 L1942.873,1665.075 L1942.399,1665.089 L1941.913,1665.105 L1941.442,1665.121 L1940.983,1665.138 L1940.5,1665.156 L1940.032,1665.174 L1939.563,1665.193 L1939.084,1665.213 L1938.629,1665.233 L1938.165,1665.254 L1937.69,1665.276 L1937.214,1665.299 L1936.739,1665.322 L1936.279,1665.346 L1935.82,1665.37 L1935.348,1665.396 L1934.877,1665.423 L1934.421,1665.449 L1933.953,1665.477 L1933.487,1665.505 L1933.021,1665.534 L1932.555,1665.564 L1932.09,1665.595 L1931.627,1665.626 L1931.167,1665.658 L1930.707,1665.69 L1930.245,1665.724 L1929.773,1665.758 L1929.315,1665.793 L1928.86,1665.828 L1928.404,1665.864 L1927.937,1665.901 L1927.471,1665.939 L1927.016,1665.977 L1926.563,1666.015 L1926.102,1666.055 L1925.64,1666.096 L1925.19,1666.136 L1924.73,1666.178 L1924.258,1666.222 L1923.811,1666.264 L1923.353,1666.308 L1922.899,1666.352 L1922.443,1666.398 L1921.987,1666.444 L1921.536,1666.49 L1921.07,1666.538 L1920.63,1666.585 L1920.169,1666.634 L1919.706,1666.684 L1919.268,1666.733 L1918.81,1666.784 L1918.353,1666.836 L1917.917,1666.886 L1917.459,1666.94 L1916.992,1666.995 L1916.55,1667.048 L1916.11,1667.101 L1915.655,1667.157 L1915.201,1667.214 L1914.75,1667.271 L1914.301,1667.328 L1913.853,1667.386 L1913.405,1667.445 L1912.955,1667.505 L1912.509,1667.565 L1912.064,1667.625 L1911.617,1667.687 L1911.162,1667.75 L1910.723,1667.812 L1910.281,1667.875 L1909.825,1667.94 L1909.385,1668.004 L1908.934,1668.071 L1908.487,1668.137 L1908.05,1668.203 L1907.61,1668.27 L1907.162,1668.339 L1906.719,1668.407 L1906.273,1668.477 L1905.828,1668.548 L1905.4,1668.616 L1904.952,1668.689 L1904.497,1668.763 L1904.059,1668.835 L1903.634,1668.906 L1903.182,1668.982 L1902.743,1669.057 L1902.304,1669.132 L1901.854,1669.21 L1901.421,1669.285 L1900.989,1669.361 L1900.546,1669.44 L1900.095,1669.521 L1899.677,1669.597 L1899.236,1669.677 L1898.792,1669.759 L1898.353,1669.841 L1897.91,1669.924 L1897.484,1670.004 L1897.048,1670.088 L1896.607,1670.172 L1896.172,1670.257 L1895.738,1670.342 L1895.304,1670.427 L1894.872,1670.513 L1894.435,1670.601 L1894.004,1670.688 L1893.561,1670.778 L1893.132,1670.867 L1892.703,1670.955 L1892.263,1671.047 L1891.836,1671.137 L1891.392,1671.231 L1890.966,1671.322 L1890.547,1671.412 L1890.099,1671.51 L1889.675,1671.602 L1889.252,1671.695 L1888.807,1671.794 L1888.379,1671.89 L1887.958,1671.984 L1887.521,1672.083 L1887.096,1672.181 L1886.671,1672.278 L1886.224,1672.382 L1885.796,1672.482 L1885.385,1672.578 L1884.963,1672.678 L1884.525,1672.782 L1884.087,1672.887 L1883.668,1672.989 L1883.244,1673.092 L1882.814,1673.197 L1882.397,1673.3 L1881.969,1673.406 L1881.53,1673.516 L1881.103,1673.623 L1880.7,1673.725 L1880.275,1673.833 L1879.827,1673.948 L1879.415,1674.055 L1878.998,1674.163 L1878.558,1674.278 L1878.142,1674.388 L1877.721,1674.499 L1877.307,1674.609 L1876.888,1674.722 L1876.451,1674.84 L1876.027,1674.955 L1875.597,1675.072 L1875.187,1675.185 L1874.771,1675.3 L1874.344,1675.418 L1873.93,1675.534 L1873.51,1675.653 L1873.085,1675.773 L1872.667,1675.892 L1872.244,1676.013 L1871.833,1676.132 L1871.411,1676.254 L1870.984,1676.378 L1870.575,1676.498 L1870.16,1676.621 L1869.736,1676.747 L1869.324,1676.869 L1868.906,1676.995 L1868.477,1677.124 L1868.072,1677.247 L1867.656,1677.374 L1867.236,1677.503 L1866.817,1677.632 L1866.403,1677.761 L1865.989,1677.89 L1865.572,1678.02 L1865.168,1678.148 L1864.745,1678.282 L1864.322,1678.417 L1863.919,1678.546 L1863.506,1678.679 L1863.085,1678.815 L1862.684,1678.946 L1862.272,1679.081 L1861.85,1679.219 L1861.432,1679.358 L1861.034,1679.49 L1860.625,1679.627 L1860.197,1679.77 L1859.797,1679.905 L1859.39,1680.043 L1858.965,1680.189 L1858.559,1680.328 L1858.153,1680.467 L1857.738,1680.611 L1857.334,1680.752 L1856.919,1680.897 L1856.524,1681.035 L1856.103,1681.184 L1855.69,1681.331 L1855.297,1681.471 L1854.878,1681.621 L1854.475,1681.766 L1854.065,1681.914 L1853.655,1682.063 L1853.255,1682.21 L1852.838,1682.362 L1852.439,1682.51 L1852.04,1682.658 L1851.625,1682.812 L1851.227,1682.961 L1850.819,1683.114 L1850.406,1683.27 L1850.01,1683.42 L1849.604,1683.575 L1849.19,1683.733 L1848.796,1683.885 L1848.394,1684.04 L1847.991,1684.197 L1847.588,1684.354 L1847.177,1684.515 L1846.777,1684.672 L1846.376,1684.831 L1845.975,1684.99 L1845.575,1685.149 L1845.176,1685.309 L1844.779,1685.469 L1844.37,1685.634 L1843.962,1685.8 L1843.567,1685.961 L1843.17,1686.123 L1842.773,1686.287 L1842.368,1686.454 L1841.963,1686.622 L1841.569,1686.786 L1841.175,1686.951 L1840.781,1687.117 L1840.379,1687.286 L1839.977,1687.457 L1839.575,1687.628 L1839.173,1687.799 L1838.793,1687.963 L1838.392,1688.135 L1837.993,1688.308 L1837.604,1688.477 L1837.195,1688.656 L1836.807,1688.826 L1836.409,1689.001 L1836.013,1689.177 L1835.626,1689.348 L1835.23,1689.525 L1834.824,1689.706 L1834.43,1689.884 L1834.045,1690.057 L1833.651,1690.236 L1833.258,1690.414 L1832.855,1690.599 L1832.473,1690.774 L1832.091,1690.949 L1831.679,1691.14 L1831.279,1691.326 L1830.899,1691.503 L1830.519,1691.68 L1830.13,1691.863 L1829.731,1692.051 L1829.333,1692.24 L1828.956,1692.419 L1828.569,1692.604 L1828.162,1692.799 L1827.776,1692.984 L1827.39,1693.17 L1827.006,1693.357 L1826.621,1693.544 L1826.227,1693.736 L1825.844,1693.924 L1825.451,1694.118 L1825.059,1694.311 L1824.677,1694.501 L1824.286,1694.696 L1823.906,1694.886 L1823.515,1695.081 L1823.126,1695.278 L1822.757,1695.464 L1822.369,1695.661 L1821.97,1695.864 L1821.593,1696.057 L1821.206,1696.255 L1820.83,1696.449 L1820.444,1696.649 L1820.059,1696.849 L1819.674,1697.049 L1819.28,1697.255 L1818.906,1697.451 L1818.534,1697.647 L1818.151,1697.85 L1817.759,1698.058 L1817.377,1698.261 L1816.996,1698.465 L1816.626,1698.663 L1816.237,1698.873 L1815.857,1699.078 L1815.489,1699.278 L1815.09,1699.495 L1814.712,1699.701 L1814.346,1699.902 L1813.96,1700.114 L1813.583,1700.322 L1813.208,1700.53 L1812.833,1700.738 L1812.448,1700.953 L1812.064,1701.168 L1811.691,1701.378 L1811.319,1701.588 L1810.947,1701.798 L1810.575,1702.009 L1810.194,1702.227 L1809.814,1702.444 L1809.444,1702.656 L1809.065,1702.875 L1808.686,1703.094 L1808.318,1703.307 L1807.95,1703.522 L1807.572,1703.742 L1807.197,1703.962 L1806.82,1704.184 L1806.444,1704.406 L1806.091,1704.614 L1805.717,1704.837 L1805.322,1705.073 L1804.969,1705.284 L1804.596,1705.508 L1804.214,1705.738 L1803.853,1705.956 L1803.493,1706.174 L1803.122,1706.4 L1802.742,1706.632 L1802.374,1706.858 L1802.004,1707.085 L1801.647,1707.306 L1801.28,1707.533 L1800.903,1707.767 L1800.535,1707.996 L1800.161,1708.23 L1799.796,1708.459 L1799.43,1708.689 L1799.076,1708.913 L1798.713,1709.143 L1798.341,1709.379 L1797.98,1709.61 L1797.606,1709.849 L1797.246,1710.081 L1796.876,1710.319 L1796.516,1710.552 L1796.157,1710.785 L1795.786,1711.026 L1795.427,1711.26 L1795.072,1711.493 L1794.706,1711.733 L1794.328,1711.982 L1793.971,1712.218 L1793.627,1712.447 L1793.263,1712.689 L1792.899,1712.933 L1792.544,1713.17 L1792.181,1713.414 L1791.822,1713.657 L1791.46,1713.902 L1791.107,1714.141 L1790.746,1714.387 L1790.377,1714.639 L1790.029,1714.878 L1789.669,1715.125 L1789.31,1715.373 L1788.963,1715.613 L1788.608,1715.859 L1788.251,1716.108 L1787.893,1716.358 L1787.54,1716.606 L1787.175,1716.862 L1786.819,1717.114 L1786.467,1717.363 L1786.116,1717.612 L1785.774,1717.856 L1785.423,1718.106 L1785.061,1718.366 L1784.7,1718.626 L1784.359,1718.871 L1784.011,1719.123 L1783.655,1719.382 L1783.307,1719.635 L1782.948,1719.897 L1782.601,1720.151 L1782.255,1720.406 L1781.902,1720.667 L1781.557,1720.922 L1781.212,1721.178 L1780.86,1721.44 L1780.516,1721.696 L1780.165,1721.96 L1779.801,1722.233 L1779.471,1722.481 L1779.13,1722.74 L1778.78,1723.005 L1778.435,1723.267 L1778.082,1723.536 L1777.742,1723.797 L1777.399,1724.06 L1777.052,1724.327 L1776.718,1724.586 L1776.372,1724.854 L1776.014,1725.132 L1775.681,1725.392 L1775.349,1725.652 L1774.996,1725.928 L1774.652,1726.199 L1774.321,1726.46 L1773.983,1726.728 L1773.641,1727 L1773.291,1727.279 L1772.941,1727.558 L1772.613,1727.822 L1772.285,1728.085 L1771.949,1728.356 L1771.614,1728.627 L1771.267,1728.909 L1770.921,1729.191 L1770.587,1729.463 L1770.254,1729.736 L1769.929,1730.003 L1769.577,1730.293 L1769.245,1730.567 L1768.927,1730.831 L1768.583,1731.117 L1768.241,1731.403 L1767.903,1731.685 L1767.586,1731.951 L1767.25,1732.234 L1766.922,1732.511 L1766.594,1732.789 L1766.246,1733.084 L1765.912,1733.369 L1765.59,1733.644 L1765.264,1733.923 L1764.939,1734.203 L1764.606,1734.49 L1764.266,1734.784 L1763.947,1735.06 L1763.624,1735.342 L1763.293,1735.631 L1762.963,1735.92 L1762.633,1736.21 L1762.309,1736.495 L1761.993,1736.774 L1761.664,1737.065 L1761.329,1737.363 L1761.002,1737.655 L1760.675,1737.947 L1760.374,1738.217 L1760.04,1738.517 L1759.707,1738.817 L1759.395,1739.1 L1759.063,1739.401 L1758.751,1739.685 L1758.433,1739.975 L1758.116,1740.266 L1757.786,1740.569 L1757.456,1740.873 L1757.14,1741.165 L1756.824,1741.458 L1756.516,1741.744 L1756.194,1742.044 L1755.879,1742.338 L1755.566,1742.633 L1755.232,1742.946 L1754.919,1743.242 L1754.607,1743.537 L1754.294,1743.834 L1753.976,1744.137 L1753.665,1744.434 L1753.347,1744.738 L1753.03,1745.043 L1752.72,1745.341 L1752.404,1745.647 L1752.095,1745.946 L1751.78,1746.253 L1751.478,1746.547 L1751.164,1746.854 L1750.85,1747.162 L1750.537,1747.47 L1750.224,1747.779 L1749.924,1748.075 L1749.625,1748.372 L1749.301,1748.695 L1748.983,1749.012 L1748.699,1749.297 L1748.389,1749.609 L1748.072,1749.927 L1747.763,1750.24 L1747.454,1750.553 L1747.165,1750.847 L1746.851,1751.167 L1746.544,1751.481 L1746.263,1751.77 L1745.943,1752.098 L1745.631,1752.42 L1745.338,1752.723 L1745.04,1753.033 L1744.742,1753.344 L1744.431,1753.668 L1744.134,1753.979 L1743.837,1754.291 L1743.528,1754.616 L1743.232,1754.929 L1742.937,1755.242 L1742.636,1755.562 L1742.341,1755.876 L1742.047,1756.19 L1741.748,1756.512 L1741.455,1756.827 L1741.156,1757.149 L1740.858,1757.472 L1740.566,1757.789 L1740.275,1758.106 L1739.978,1758.43 L1739.676,1758.761 L1739.399,1759.065 L1739.109,1759.384 L1738.796,1759.731 L1738.514,1760.043 L1738.233,1760.356 L1737.926,1760.698 L1737.639,1761.019 L1737.353,1761.339 L1737.068,1761.66 L1736.782,1761.983 L1736.491,1762.313 L1736.207,1762.635 L1735.911,1762.972 L1735.634,1763.289 L1735.358,1763.606 L1735.05,1763.959 L1734.769,1764.283 L1734.488,1764.608 L1734.2,1764.942 L1733.926,1765.261 L1733.646,1765.587 L1733.349,1765.935 L1733.07,1766.262 L1732.798,1766.583 L1732.507,1766.926 L1732.23,1767.254 L1731.953,1767.583 L1731.671,1767.919 L1731.396,1768.249 L1731.125,1768.572 L1730.845,1768.91 L1730.553,1769.262 L1730.278,1769.594 L1730.018,1769.911 L1729.726,1770.265 L1729.449,1770.604 L1729.189,1770.922 L1728.917,1771.256 L1728.628,1771.613 L1728.347,1771.96 L1728.089,1772.28 L1727.819,1772.616 L1727.539,1772.965 L1727.277,1773.292 L1727.008,1773.63 L1726.722,1773.989 L1726.457,1774.325 L1726.197,1774.654 L1725.925,1774.999 L1725.654,1775.345 L1725.383,1775.692 L1725.12,1776.029 L1724.862,1776.36 L1724.588,1776.715 L1724.318,1777.063 L1724.062,1777.396 L1723.796,1777.742 L1723.529,1778.092 L1723.261,1778.442 L1723.002,1778.783 L1722.743,1779.124 L1722.484,1779.466 L1722.214,1779.825 L1721.944,1780.184 L1721.704,1780.504 L1721.448,1780.848 L1721.175,1781.215 L1720.919,1781.56 L1720.664,1781.905 L1720.396,1782.267 L1720.138,1782.619 L1719.896,1782.949 L1719.643,1783.296 L1719.373,1783.666 L1719.12,1784.014 L1718.88,1784.345 L1718.624,1784.7 L1718.357,1785.073 L1718.106,1785.423 L1717.863,1785.762 L1717.609,1786.119 L1717.355,1786.476 L1717.102,1786.834 L1716.853,1787.187 L1716.601,1787.546 L1716.357,1787.894 L1716.118,1788.236 L1715.859,1788.608 L1715.604,1788.975 L1715.366,1789.319 L1715.128,1789.663 L1714.875,1790.032 L1714.626,1790.394 L1714.39,1790.74 L1714.138,1791.11 L1713.887,1791.48 L1713.656,1791.822 L1713.417,1792.175 L1713.175,1792.535 L1712.93,1792.902 L1712.684,1793.269 L1712.448,1793.624 L1712.211,1793.98 L1711.976,1794.337 L1711.728,1794.712 L1711.49,1795.075 L1711.255,1795.433 L1711.025,1795.786 L1710.791,1796.145 L1710.547,1796.522 L1710.31,1796.888 L1710.074,1797.254 L1709.846,1797.609 L1709.615,1797.971 L1709.376,1798.344 L1709.146,1798.707 L1708.916,1799.07 L1708.683,1799.439 L1708.45,1799.809 L1708.218,1800.179 L1707.99,1800.544 L1707.762,1800.909 L1707.543,1801.262 L1707.309,1801.64 L1707.079,1802.013 L1706.849,1802.386 L1706.62,1802.76 L1706.406,1803.11 L1706.178,1803.485 L1705.959,1803.847 L1705.728,1804.229 L1705.501,1804.605 L1705.29,1804.957 L1705.061,1805.34 L1704.832,1805.724 L1704.618,1806.083 L1704.402,1806.449 L1704.178,1806.828 L1703.951,1807.214 L1703.736,1807.581 L1703.524,1807.943 L1703.31,1808.311 L1703.085,1808.699 L1702.861,1809.087 L1702.659,1809.437 L1702.45,1809.802 L1702.227,1810.192 L1702.012,1810.568 L1701.801,1810.94 L1701.579,1811.331 L1701.366,1811.71 L1701.156,1812.083 L1700.947,1812.456 L1700.738,1812.831 L1700.53,1813.205 L1700.316,1813.591 L1700.109,1813.967 L1699.913,1814.324 L1699.692,1814.725 L1699.486,1815.103 L1699.288,1815.466 L1699.067,1815.875 L1698.862,1816.254 L1698.668,1816.614 L1698.459,1817.005 L1698.252,1817.39 L1698.057,1817.757 L1697.852,1818.144 L1697.647,1818.531 L1697.453,1818.899 L1697.249,1819.288 L1697.046,1819.677 L1696.84,1820.072 L1696.646,1820.447 L1696.457,1820.813 L1696.252,1821.209 L1696.049,1821.606 L1695.858,1821.978 L1695.666,1822.356 L1695.466,1822.75 L1695.264,1823.149 L1695.073,1823.529 L1694.883,1823.909 L1694.692,1824.289 L1694.505,1824.665 L1694.306,1825.067 L1694.117,1825.449 L1693.916,1825.858 L1693.728,1826.241 L1693.553,1826.599 L1693.354,1827.009 L1693.165,1827.398 L1692.979,1827.784 L1692.783,1828.191 L1692.608,1828.556 L1692.424,1828.943 L1692.227,1829.357 L1692.048,1829.734 L1691.865,1830.122 L1691.682,1830.512 L1691.5,1830.902 L1691.318,1831.292 L1691.132,1831.693 L1690.946,1832.094 L1690.776,1832.465 L1690.596,1832.858 L1690.411,1833.261 L1690.228,1833.664 L1690.059,1834.038 L1689.881,1834.433 L1689.698,1834.838 L1689.526,1835.222 L1689.345,1835.629 L1689.169,1836.026 L1688.998,1836.412 L1688.828,1836.799 L1688.653,1837.198 L1688.474,1837.607 L1688.305,1837.996 L1688.137,1838.385 L1687.96,1838.796 L1687.787,1839.198 L1687.62,1839.589 L1687.463,1839.958 L1687.288,1840.372 L1687.109,1840.795 L1686.948,1841.178 L1686.783,1841.572 L1686.619,1841.966 L1686.446,1842.382 L1686.279,1842.786 L1686.129,1843.151 L1685.958,1843.57 L1685.792,1843.976 L1685.631,1844.373 L1685.47,1844.771 L1685.306,1845.179 L1685.146,1845.578 L1684.987,1845.978 L1684.828,1846.379 L1684.678,1846.758 L1684.508,1847.191 L1684.347,1847.602 L1684.198,1847.983 L1684.042,1848.386 L1683.873,1848.821 L1683.726,1849.204 L1683.576,1849.596 L1683.421,1850.002 L1683.267,1850.409 L1683.107,1850.833 L1682.962,1851.219 L1682.809,1851.628 L1682.65,1852.054 L1682.507,1852.442 L1682.364,1852.83 L1682.207,1853.258 L1682.056,1853.67 L1681.911,1854.068 L1681.767,1854.467 L1681.618,1854.881 L1681.464,1855.312 L1681.324,1855.704 L1681.181,1856.106 L1681.036,1856.516 L1680.898,1856.911 L1680.749,1857.337 L1680.6,1857.763 L1680.468,1858.145 L1680.329,1858.55 L1680.182,1858.979 L1680.04,1859.393 L1679.902,1859.8 L1679.767,1860.2 L1679.628,1860.616 L1679.491,1861.025 L1679.347,1861.458 L1679.209,1861.876 L1679.081,1862.264 L1678.946,1862.676 L1678.812,1863.088 L1678.676,1863.509 L1678.543,1863.922 L1678.41,1864.337 L1678.283,1864.736 L1678.149,1865.159 L1678.01,1865.598 L1677.887,1865.992 L1677.761,1866.394 L1677.629,1866.82 L1677.5,1867.239 L1677.371,1867.659 L1677.248,1868.064 L1677.118,1868.492 L1676.988,1868.921 L1676.866,1869.327 L1676.747,1869.727 L1676.621,1870.151 L1676.492,1870.59 L1676.372,1870.999 L1676.254,1871.402 L1676.129,1871.836 L1676.01,1872.247 L1675.892,1872.659 L1675.77,1873.088 L1675.653,1873.501 L1675.528,1873.945 L1675.412,1874.359 L1675.297,1874.774 L1675.182,1875.19 L1675.069,1875.6 L1674.949,1876.041 L1674.833,1876.466 L1674.725,1876.867 L1674.606,1877.31 L1674.496,1877.724 L1674.391,1878.121 L1674.272,1878.573 L1674.16,1879.001 L1674.052,1879.418 L1673.942,1879.842 L1673.83,1880.278 L1673.722,1880.703 L1673.62,1881.106 L1673.513,1881.533 L1673.406,1881.96 L1673.297,1882.4 L1673.191,1882.829 L1673.092,1883.235 L1672.986,1883.671 L1672.882,1884.102 L1672.777,1884.54 L1672.678,1884.955 L1672.581,1885.364 L1672.473,1885.822 L1672.376,1886.239 L1672.278,1886.662 L1672.178,1887.099 L1672.083,1887.512 L1671.981,1887.961 L1671.881,1888.406 L1671.788,1888.821 L1671.695,1889.243 L1671.602,1889.666 L1671.504,1890.113 L1671.412,1890.538 L1671.322,1890.958 L1671.225,1891.407 L1671.134,1891.839 L1671.044,1892.266 L1670.955,1892.694 L1670.861,1893.147 L1670.773,1893.576 L1670.685,1894.007 L1670.598,1894.438 L1670.515,1894.851 L1670.424,1895.307 L1670.334,1895.765 L1670.254,1896.175 L1670.169,1896.61 L1670.085,1897.051 L1670.006,1897.464 L1669.918,1897.925 L1669.835,1898.368 L1669.758,1898.783 L1669.676,1899.227 L1669.596,1899.668 L1669.516,1900.11 L1669.435,1900.561 L1669.356,1901.004 L1669.282,1901.424 L1669.209,1901.845 L1669.131,1902.295 L1669.054,1902.746 L1668.977,1903.197 L1668.905,1903.625 L1668.83,1904.074 L1668.756,1904.524 L1668.69,1904.931 L1668.615,1905.391 L1668.543,1905.843 L1668.474,1906.276 L1668.402,1906.734 L1668.336,1907.165 L1668.269,1907.601 L1668.202,1908.041 L1668.132,1908.502 L1668.064,1908.961 L1668.003,1909.376 L1667.939,1909.816 L1667.872,1910.284 L1667.809,1910.726 L1667.747,1911.165 L1667.685,1911.608 L1667.624,1912.055 L1667.56,1912.524 L1667.5,1912.97 L1667.44,1913.42 L1667.382,1913.868 L1667.327,1914.292 L1667.269,1914.741 L1667.209,1915.216 L1667.156,1915.646 L1667.1,1916.101 L1667.042,1916.578 L1666.99,1917.007 L1666.939,1917.438 L1666.886,1917.896 L1666.83,1918.38 L1666.781,1918.813 L1666.732,1919.247 L1666.679,1919.733 L1666.631,1920.172 L1666.584,1920.609 L1666.533,1921.097 L1666.487,1921.539 L1666.442,1921.978 L1666.395,1922.446 L1666.348,1922.914 L1666.305,1923.356 L1666.262,1923.802 L1666.218,1924.273 L1666.174,1924.745 L1666.133,1925.193 L1666.093,1925.643 L1666.053,1926.093 L1666.015,1926.542 L1665.974,1927.019 L1665.934,1927.498 L1665.897,1927.952 L1665.863,1928.383 L1665.825,1928.863 L1665.79,1929.318 L1665.756,1929.776 L1665.72,1930.26 L1665.686,1930.722 L1665.656,1931.158 L1665.624,1931.618 L1665.591,1932.105 L1665.561,1932.57 L1665.532,1933.012 L1665.503,1933.478 L1665.473,1933.968 L1665.447,1934.412 L1665.42,1934.88 L1665.393,1935.351 L1665.367,1935.823 L1665.342,1936.294 L1665.319,1936.742 L1665.296,1937.217 L1665.273,1937.693 L1665.251,1938.168 L1665.23,1938.62 L1665.209,1939.099 L1665.189,1939.578 L1665.171,1940.035 L1665.153,1940.491 L1665.135,1940.974 L1665.118,1941.457 L1665.102,1941.916 L1665.086,1942.402 L1665.072,1942.864 L1665.059,1943.327 L1665.045,1943.816 L1665.032,1944.305 L1665.021,1944.771 L1665.01,1945.239 L1665,1945.707 L1664.991,1946.176 L1664.982,1946.671 L1664.974,1947.166 L1664.966,1947.639 L1664.96,1948.089 L1664.955,1948.563 L1664.95,1949.063 L1664.945,1949.54 L1664.942,1950.017 L1664.939,1950.496 L1664.937,1950.976 L1664.936,1951.457 L1664.936,1951.939 L1664.936,1952.421 L1664.937,1952.902 L1664.939,1953.382 L1664.942,1953.86 L1664.945,1954.338 L1664.95,1954.815 L1664.955,1955.315 L1664.96,1955.789 L1664.966,1956.239 L1664.974,1956.711 L1664.982,1957.206 L1664.991,1957.701 L1665,1958.171 L1665.01,1958.639 L1665.021,1959.107 L1665.032,1959.573 L1665.045,1960.062 L1665.059,1960.55 L1665.072,1961.013 L1665.086,1961.476 L1665.102,1961.961 L1665.118,1962.421 L1665.135,1962.904 L1665.153,1963.387 L1665.171,1963.843 L1665.189,1964.299 L1665.209,1964.779 L1665.23,1965.257 L1665.251,1965.71 L1665.273,1966.185 L1665.296,1966.661 L1665.319,1967.135 L1665.342,1967.583 L1665.367,1968.055 L1665.393,1968.527 L1665.42,1968.997 L1665.447,1969.466 L1665.473,1969.909 L1665.503,1970.4 L1665.532,1970.865 L1665.561,1971.307 L1665.591,1971.773 L1665.624,1972.259 L1665.656,1972.719 L1665.686,1973.156 L1665.72,1973.617 L1665.756,1974.102 L1665.79,1974.56 L1665.825,1975.015 L1665.863,1975.495 L1665.897,1975.926 L1665.934,1976.38 L1665.974,1976.859 L1666.015,1977.336 L1666.053,1977.785 L1666.093,1978.235 L1666.133,1978.684 L1666.174,1979.133 L1666.218,1979.605 L1666.262,1980.076 L1666.305,1980.521 L1666.348,1980.964 L1666.395,1981.432 L1666.442,1981.899 L1666.487,1982.339 L1666.533,1982.78 L1666.584,1983.269 L1666.631,1983.706 L1666.679,1984.144 L1666.732,1984.631 L1666.781,1985.065 L1666.83,1985.498 L1666.886,1985.981 L1666.939,1986.44 L1666.99,1986.87 L1667.042,1987.3 L1667.1,1987.777 L1667.156,1988.232 L1667.209,1988.662 L1667.269,1989.136 L1667.327,1989.586 L1667.382,1990.01 L1667.44,1990.457 L1667.5,1990.907 L1667.56,1991.353 L1667.624,1991.822 L1667.685,1992.27 L1667.747,1992.713 L1667.809,1993.152 L1667.872,1993.594 L1667.939,1994.062 L1668.003,1994.502 L1668.064,1994.917 L1668.132,1995.375 L1668.202,1995.837 L1668.269,1996.277 L1668.336,1996.712 L1668.402,1997.143 L1668.474,1997.601 L1668.543,1998.035 L1668.615,1998.487 L1668.69,1998.947 L1668.756,1999.353 L1668.83,1999.803 L1668.905,2000.252 L1668.977,2000.68 L1669.054,2001.132 L1669.131,2001.583 L1669.209,2002.033 L1669.282,2002.454 L1669.356,2002.874 L1669.435,2003.317 L1669.516,2003.768 L1669.596,2004.209 L1669.676,2004.65 L1669.758,2005.095 L1669.835,2005.51 L1669.918,2005.953 L1670.006,2006.414 L1670.085,2006.827 L1670.169,2007.267 L1670.254,2007.703 L1670.334,2008.113 L1670.424,2008.57 L1670.515,2009.027 L1670.598,2009.44 L1670.685,2009.871 L1670.773,2010.301 L1670.861,2010.731 L1670.955,2011.184 L1671.044,2011.612 L1671.134,2012.039 L1671.225,2012.47 L1671.322,2012.92 L1671.412,2013.34 L1671.504,2013.764 L1671.602,2014.211 L1671.695,2014.634 L1671.788,2015.056 L1671.881,2015.472 L1671.981,2015.916 L1672.083,2016.365 L1672.178,2016.779 L1672.278,2017.215 L1672.376,2017.638 L1672.473,2018.055 L1672.581,2018.513 L1672.678,2018.923 L1672.777,2019.338 L1672.882,2019.775 L1672.986,2020.207 L1673.092,2020.643 L1673.191,2021.049 L1673.297,2021.478 L1673.406,2021.918 L1673.513,2022.345 L1673.62,2022.772 L1673.722,2023.174 L1673.83,2023.599 L1673.942,2024.036 L1674.052,2024.46 L1674.16,2024.877 L1674.272,2025.305 L1674.391,2025.756 L1674.496,2026.154 L1674.606,2026.568 L1674.725,2027.01 L1674.833,2027.412 L1674.949,2027.836 L1675.069,2028.277 L1675.182,2028.687 L1675.297,2029.103 L1675.412,2029.519 L1675.528,2029.933 L1675.653,2030.377 L1675.77,2030.79 L1675.892,2031.219 L1676.01,2031.631 L1676.129,2032.042 L1676.254,2032.476 L1676.372,2032.879 L1676.492,2033.288 L1676.621,2033.726 L1676.747,2034.15 L1676.866,2034.55 L1676.988,2034.957 L1677.118,2035.386 L1677.248,2035.814 L1677.371,2036.219 L1677.5,2036.638 L1677.629,2037.058 L1677.761,2037.483 L1677.887,2037.885 L1678.01,2038.279 L1678.149,2038.719 L1678.283,2039.142 L1678.41,2039.541 L1678.543,2039.955 L1678.676,2040.369 L1678.812,2040.79 L1678.946,2041.202 L1679.081,2041.614 L1679.209,2042.002 L1679.347,2042.42 L1679.491,2042.852 L1679.628,2043.261 L1679.767,2043.677 L1679.902,2044.077 L1680.04,2044.485 L1680.182,2044.899 L1680.329,2045.327 L1680.468,2045.732 L1680.6,2046.114 L1680.749,2046.541 L1680.898,2046.967 L1681.036,2047.362 L1681.181,2047.772 L1681.324,2048.173 L1681.464,2048.566 L1681.618,2048.997 L1681.767,2049.411 L1681.911,2049.81 L1682.056,2050.208 L1682.207,2050.62 L1682.364,2051.048 L1682.507,2051.436 L1682.65,2051.824 L1682.809,2052.25 L1682.962,2052.659 L1683.107,2053.044 L1683.267,2053.469 L1683.421,2053.875 L1683.576,2054.282 L1683.726,2054.674 L1683.873,2055.056 L1684.042,2055.491 L1684.198,2055.895 L1684.347,2056.276 L1684.508,2056.687 L1684.678,2057.119 L1684.828,2057.499 L1684.987,2057.899 L1685.146,2058.299 L1685.306,2058.699 L1685.47,2059.106 L1685.631,2059.504 L1685.792,2059.902 L1685.958,2060.308 L1686.129,2060.726 L1686.279,2061.091 L1686.446,2061.495 L1686.619,2061.912 L1686.783,2062.306 L1686.948,2062.699 L1687.109,2063.083 L1687.288,2063.506 L1687.463,2063.919 L1687.62,2064.289 L1687.787,2064.68 L1687.96,2065.082 L1688.137,2065.493 L1688.305,2065.882 L1688.474,2066.27 L1688.653,2066.679 L1688.828,2067.079 L1688.998,2067.465 L1689.169,2067.851 L1689.345,2068.249 L1689.526,2068.655 L1689.698,2069.04 L1689.881,2069.445 L1690.059,2069.84 L1690.228,2070.213 L1690.411,2070.617 L1690.596,2071.02 L1690.776,2071.412 L1690.946,2071.784 L1691.132,2072.185 L1691.318,2072.586 L1691.5,2072.976 L1691.682,2073.366 L1691.865,2073.755 L1692.048,2074.144 L1692.227,2074.521 L1692.421,2074.929 L1692.606,2075.316 L1692.786,2075.692 L1692.981,2076.099 L1693.167,2076.484 L1693.354,2076.869 L1693.551,2077.274 L1693.728,2077.637 L1693.916,2078.02 L1694.12,2078.434 L1694.303,2078.805 L1694.503,2079.208 L1694.698,2079.599 L1694.883,2079.969 L1695.073,2080.349 L1695.264,2080.728 L1695.461,2081.117 L1695.663,2081.516 L1695.861,2081.904 L1696.054,2082.282 L1696.252,2082.669 L1696.451,2083.055 L1696.646,2083.43 L1696.84,2083.806 L1697.046,2084.201 L1697.252,2084.595 L1697.453,2084.978 L1697.644,2085.341 L1697.852,2085.734 L1698.06,2086.126 L1698.252,2086.487 L1698.462,2086.878 L1698.665,2087.258 L1698.859,2087.618 L1699.069,2088.008 L1699.285,2088.406 L1699.486,2088.775 L1699.698,2089.163 L1699.91,2089.549 L1700.106,2089.905 L1700.319,2090.292 L1700.527,2090.667 L1700.735,2091.042 L1700.95,2091.427 L1701.159,2091.8 L1701.369,2092.174 L1701.579,2092.546 L1701.801,2092.938 L1702.012,2093.309 L1702.224,2093.68 L1702.447,2094.07 L1702.659,2094.44 L1702.861,2094.79 L1703.085,2095.179 L1703.31,2095.567 L1703.524,2095.935 L1703.739,2096.302 L1703.948,2096.658 L1704.181,2097.055 L1704.408,2097.44 L1704.611,2097.783 L1704.828,2098.148 L1705.064,2098.543 L1705.286,2098.915 L1705.505,2099.278 L1705.735,2099.661 L1705.959,2100.031 L1706.171,2100.381 L1706.403,2100.762 L1706.624,2101.123 L1706.849,2101.491 L1707.082,2101.87 L1707.309,2102.237 L1707.535,2102.604 L1707.758,2102.963 L1707.993,2103.34 L1708.221,2103.705 L1708.45,2104.069 L1708.687,2104.444 L1708.916,2104.808 L1709.146,2105.171 L1709.376,2105.533 L1709.607,2105.895 L1709.846,2106.268 L1710.078,2106.629 L1710.31,2106.989 L1710.543,2107.349 L1710.788,2107.727 L1711.029,2108.098 L1711.263,2108.456 L1711.49,2108.802 L1711.724,2109.16 L1711.979,2109.547 L1712.215,2109.903 L1712.444,2110.247 L1712.68,2110.603 L1712.93,2110.976 L1713.179,2111.348 L1713.417,2111.702 L1713.648,2112.044 L1713.887,2112.397 L1714.138,2112.768 L1714.39,2113.137 L1714.63,2113.489 L1714.875,2113.846 L1715.128,2114.214 L1715.37,2114.565 L1715.604,2114.903 L1715.85,2115.258 L1716.118,2115.641 L1716.361,2115.99 L1716.597,2116.326 L1716.853,2116.691 L1717.111,2117.055 L1717.36,2117.407 L1717.609,2117.759 L1717.859,2118.109 L1718.097,2118.443 L1718.357,2118.805 L1718.629,2119.183 L1718.88,2119.532 L1719.12,2119.864 L1719.373,2120.212 L1719.638,2120.576 L1719.901,2120.935 L1720.142,2121.265 L1720.396,2121.611 L1720.664,2121.973 L1720.919,2122.318 L1721.175,2122.663 L1721.443,2123.023 L1721.7,2123.367 L1721.944,2123.694 L1722.223,2124.065 L1722.484,2124.412 L1722.743,2124.753 L1723.002,2125.095 L1723.252,2125.423 L1723.533,2125.792 L1723.806,2126.148 L1724.057,2126.475 L1724.318,2126.814 L1724.583,2127.157 L1724.857,2127.511 L1725.129,2127.861 L1725.383,2128.186 L1725.649,2128.526 L1725.925,2128.878 L1726.202,2129.23 L1726.457,2129.553 L1726.712,2129.876 L1727.003,2130.242 L1727.282,2130.592 L1727.549,2130.925 L1727.819,2131.262 L1728.089,2131.598 L1728.347,2131.917 L1728.618,2132.252 L1728.912,2132.615 L1729.194,2132.962 L1729.454,2133.28 L1729.726,2133.613 L1730.012,2133.961 L1730.284,2134.29 L1730.558,2134.622 L1730.835,2134.955 L1731.12,2135.299 L1731.406,2135.642 L1731.682,2135.972 L1731.948,2136.288 L1732.224,2136.617 L1732.502,2136.945 L1732.792,2137.288 L1733.081,2137.628 L1733.36,2137.956 L1733.641,2138.284 L1733.92,2138.61 L1734.2,2138.936 L1734.493,2139.276 L1734.774,2139.601 L1735.045,2139.912 L1735.352,2140.266 L1735.634,2140.589 L1735.917,2140.912 L1736.213,2141.249 L1736.485,2141.558 L1736.771,2141.882 L1737.068,2142.217 L1737.353,2142.538 L1737.639,2142.859 L1737.938,2143.193 L1738.227,2143.515 L1738.514,2143.834 L1738.801,2144.153 L1739.103,2144.487 L1739.405,2144.819 L1739.682,2145.123 L1739.972,2145.441 L1740.263,2145.759 L1740.566,2146.089 L1740.87,2146.419 L1741.162,2146.735 L1741.455,2147.051 L1741.748,2147.366 L1742.041,2147.681 L1742.335,2147.995 L1742.63,2148.309 L1742.937,2148.636 L1743.232,2148.949 L1743.528,2149.261 L1743.837,2149.587 L1744.134,2149.899 L1744.431,2150.21 L1744.742,2150.534 L1745.04,2150.844 L1745.338,2151.154 L1745.637,2151.464 L1745.95,2151.786 L1746.263,2152.108 L1746.537,2152.39 L1746.851,2152.711 L1747.165,2153.031 L1747.454,2153.325 L1747.77,2153.644 L1748.072,2153.95 L1748.376,2154.256 L1748.705,2154.587 L1748.996,2154.878 L1749.288,2155.17 L1749.619,2155.499 L1749.924,2155.802 L1750.23,2156.105 L1750.55,2156.42 L1750.844,2156.709 L1751.164,2157.023 L1751.485,2157.337 L1751.767,2157.612 L1752.089,2157.925 L1752.411,2158.237 L1752.72,2158.536 L1753.03,2158.835 L1753.341,2159.133 L1753.665,2159.443 L1753.976,2159.741 L1754.288,2160.037 L1754.613,2160.347 L1754.926,2160.642 L1755.239,2160.938 L1755.566,2161.245 L1755.879,2161.539 L1756.194,2161.833 L1756.509,2162.127 L1756.824,2162.42 L1757.14,2162.713 L1757.456,2163.005 L1757.786,2163.308 L1758.116,2163.612 L1758.433,2163.902 L1758.751,2164.193 L1759.056,2164.47 L1759.388,2164.771 L1759.722,2165.073 L1760.04,2165.361 L1760.359,2165.648 L1760.682,2165.937 L1761.016,2166.236 L1761.336,2166.521 L1761.657,2166.806 L1761.993,2167.104 L1762.316,2167.389 L1762.625,2167.662 L1762.963,2167.958 L1763.286,2168.24 L1763.609,2168.523 L1763.962,2168.83 L1764.274,2169.1 L1764.599,2169.381 L1764.939,2169.674 L1765.264,2169.954 L1765.59,2170.234 L1765.919,2170.515 L1766.246,2170.793 L1766.586,2171.082 L1766.929,2171.373 L1767.258,2171.65 L1767.586,2171.927 L1767.903,2172.193 L1768.233,2172.469 L1768.576,2172.755 L1768.919,2173.04 L1769.253,2173.317 L1769.585,2173.591 L1769.914,2173.862 L1770.262,2174.148 L1770.595,2174.421 L1770.913,2174.681 L1771.26,2174.963 L1771.622,2175.257 L1771.957,2175.528 L1772.277,2175.786 L1772.613,2176.056 L1772.949,2176.326 L1773.283,2176.592 L1773.633,2176.871 L1773.999,2177.162 L1774.321,2177.418 L1774.644,2177.672 L1774.996,2177.949 L1775.349,2178.226 L1775.689,2178.492 L1776.014,2178.745 L1776.364,2179.017 L1776.718,2179.292 L1777.06,2179.556 L1777.399,2179.818 L1777.726,2180.069 L1778.082,2180.341 L1778.452,2180.623 L1778.78,2180.873 L1779.121,2181.132 L1779.463,2181.39 L1779.809,2181.651 L1780.181,2181.93 L1780.508,2182.175 L1780.851,2182.432 L1781.212,2182.7 L1781.557,2182.956 L1781.902,2183.211 L1782.264,2183.478 L1782.61,2183.733 L1782.94,2183.974 L1783.299,2184.236 L1783.663,2184.502 L1784.011,2184.754 L1784.342,2184.994 L1784.691,2185.246 L1785.07,2185.518 L1785.432,2185.778 L1785.765,2186.016 L1786.116,2186.266 L1786.467,2186.515 L1786.819,2186.764 L1787.184,2187.021 L1787.549,2187.278 L1787.885,2187.513 L1788.233,2187.757 L1788.617,2188.024 L1788.972,2188.271 L1789.31,2188.505 L1789.66,2188.746 L1790.029,2189 L1790.385,2189.244 L1790.737,2189.485 L1791.107,2189.737 L1791.477,2189.988 L1791.831,2190.227 L1792.172,2190.457 L1792.526,2190.696 L1792.899,2190.945 L1793.272,2191.194 L1793.627,2191.431 L1793.971,2191.659 L1794.328,2191.895 L1794.715,2192.15 L1795.072,2192.385 L1795.418,2192.612 L1795.777,2192.846 L1796.148,2193.087 L1796.525,2193.332 L1796.885,2193.565 L1797.246,2193.797 L1797.606,2194.029 L1797.98,2194.267 L1798.341,2194.498 L1798.704,2194.729 L1799.067,2194.959 L1799.43,2195.188 L1799.806,2195.425 L1800.17,2195.653 L1800.535,2195.881 L1800.912,2196.116 L1801.271,2196.339 L1801.637,2196.566 L1802.004,2196.792 L1802.383,2197.025 L1802.751,2197.251 L1803.113,2197.472 L1803.493,2197.703 L1803.844,2197.916 L1804.214,2198.14 L1804.596,2198.37 L1804.96,2198.588 L1805.332,2198.811 L1805.726,2199.046 L1806.091,2199.263 L1806.435,2199.466 L1806.82,2199.694 L1807.217,2199.927 L1807.572,2200.136 L1807.94,2200.35 L1808.308,2200.565 L1808.696,2200.789 L1809.084,2201.014 L1809.434,2201.216 L1809.804,2201.428 L1810.194,2201.651 L1810.565,2201.863 L1810.937,2202.074 L1811.328,2202.295 L1811.701,2202.505 L1812.074,2202.715 L1812.448,2202.924 L1812.833,2203.139 L1813.188,2203.337 L1813.583,2203.555 L1813.989,2203.78 L1814.346,2203.976 L1814.692,2204.166 L1815.1,2204.388 L1815.508,2204.611 L1815.827,2204.784 L1816.237,2205.005 L1816.636,2205.22 L1816.996,2205.413 L1817.367,2205.612 L1817.769,2205.825 L1818.141,2206.023 L1818.514,2206.22 L1818.916,2206.432 L1819.28,2206.622 L1819.694,2206.839 L1820.069,2207.034 L1820.444,2207.229 L1820.82,2207.423 L1821.186,2207.612 L1821.593,2207.821 L1821.97,2208.014 L1822.358,2208.211 L1822.778,2208.424 L1823.146,2208.61 L1823.485,2208.781 L1823.906,2208.992 L1824.317,2209.197 L1824.667,2209.372 L1825.049,2209.561 L1825.462,2209.765 L1825.855,2209.959 L1826.196,2210.126 L1826.621,2210.334 L1827.006,2210.521 L1827.39,2210.707 L1827.817,2210.913 L1828.162,2211.079 L1828.558,2211.269 L1828.945,2211.454 L1829.333,2211.638 L1829.731,2211.826 L1830.119,2212.009 L1830.509,2212.192 L1830.899,2212.375 L1831.289,2212.557 L1831.69,2212.743 L1832.091,2212.928 L1832.441,2213.089 L1832.876,2213.289 L1833.279,2213.473 L1833.64,2213.637 L1834.035,2213.816 L1834.43,2213.994 L1834.835,2214.176 L1835.241,2214.358 L1835.604,2214.52 L1836.002,2214.696 L1836.409,2214.876 L1836.817,2215.056 L1837.217,2215.231 L1837.583,2215.391 L1837.993,2215.569 L1838.403,2215.747 L1838.814,2215.924 L1839.173,2216.078 L1839.542,2216.236 L1839.955,2216.412 L1840.369,2216.587 L1840.792,2216.765 L1841.197,2216.936 L1841.569,2217.091 L1841.985,2217.265 L1842.358,2217.419 L1842.74,2217.577 L1843.192,2217.763 L1843.567,2217.917 L1843.951,2218.073 L1844.37,2218.243 L1844.79,2218.413 L1845.176,2218.568 L1845.553,2218.72 L1845.975,2218.888 L1846.398,2219.056 L1846.777,2219.205 L1847.166,2219.358 L1847.599,2219.528 L1847.98,2219.676 L1848.405,2219.842 L1848.796,2219.993 L1849.179,2220.14 L1849.615,2220.307 L1849.999,2220.453 L1850.428,2220.616 L1850.83,2220.768 L1851.216,2220.913 L1851.603,2221.057 L1852.006,2221.208 L1852.439,2221.368 L1852.872,2221.527 L1853.277,2221.676 L1853.622,2221.802 L1854.065,2221.963 L1854.509,2222.124 L1854.9,2222.265 L1855.264,2222.395 L1855.656,2222.535 L1856.103,2222.693 L1856.558,2222.854 L1856.953,2222.993 L1857.311,2223.118 L1857.715,2223.259 L1858.165,2223.414 L1858.57,2223.554 L1858.976,2223.693 L1859.39,2223.834 L1859.797,2223.972 L1860.197,2224.107 L1860.613,2224.247 L1861.022,2224.384 L1861.432,2224.52 L1861.85,2224.658 L1862.261,2224.793 L1862.673,2224.928 L1863.085,2225.062 L1863.506,2225.198 L1863.919,2225.332 L1864.334,2225.465 L1864.756,2225.599 L1865.179,2225.733 L1865.549,2225.85 L1865.967,2225.981 L1866.437,2226.128 L1866.863,2226.26 L1867.236,2226.375 L1867.61,2226.489 L1868.037,2226.62 L1868.512,2226.764 L1868.895,2226.879 L1869.324,2227.008 L1869.747,2227.134 L1870.125,2227.246 L1870.564,2227.376 L1870.996,2227.503 L1871.422,2227.627 L1871.856,2227.753 L1872.244,2227.864 L1872.679,2227.989 L1873.108,2228.111 L1873.498,2228.222 L1873.895,2228.333 L1874.333,2228.456 L1874.771,2228.578 L1875.211,2228.699 L1875.644,2228.819 L1875.991,2228.913 L1876.439,2229.035 L1876.888,2229.156 L1877.284,2229.262 L1877.721,2229.379 L1878.165,2229.496 L1878.57,2229.603 L1878.975,2229.708 L1879.415,2229.823 L1879.862,2229.938 L1880.275,2230.044 L1880.677,2230.147 L1881.126,2230.26 L1881.53,2230.362 L1881.933,2230.463 L1882.397,2230.578 L1882.802,2230.678 L1883.255,2230.789 L1883.715,2230.9 L1884.076,2230.987 L1884.49,2231.087 L1884.952,2231.197 L1885.409,2231.305 L1885.819,2231.402 L1886.236,2231.499 L1886.659,2231.597 L1887.072,2231.692 L1887.533,2231.797 L1887.958,2231.893 L1888.379,2231.988 L1888.795,2232.081 L1889.217,2232.175 L1889.687,2232.278 L1890.11,2232.371 L1890.535,2232.463 L1891.002,2232.563 L1891.428,2232.654 L1891.812,2232.736 L1892.239,2232.826 L1892.715,2232.925 L1893.144,2233.014 L1893.573,2233.102 L1894.004,2233.19 L1894.387,2233.267 L1894.872,2233.364 L1895.304,2233.45 L1895.738,2233.536 L1896.22,2233.63 L1896.607,2233.705 L1897,2233.781 L1897.484,2233.873 L1897.922,2233.956 L1898.365,2234.039 L1898.804,2234.121 L1899.2,2234.194 L1899.689,2234.283 L1900.131,2234.363 L1900.534,2234.435 L1900.977,2234.514 L1901.421,2234.593 L1901.866,2234.67 L1902.316,2234.748 L1902.719,2234.817 L1903.17,2234.894 L1903.622,2234.97 L1904.071,2235.044 L1904.521,2235.119 L1904.928,2235.185 L1905.388,2235.259 L1905.84,2235.332 L1906.249,2235.397 L1906.707,2235.468 L1907.162,2235.539 L1907.622,2235.61 L1908.086,2235.68 L1908.499,2235.742 L1908.91,2235.803 L1909.373,2235.871 L1909.837,2235.939 L1910.257,2236 L1910.723,2236.066 L1911.186,2236.131 L1911.605,2236.189 L1912.076,2236.254 L1912.497,2236.311 L1912.967,2236.374 L1913.441,2236.437 L1913.816,2236.487 L1914.289,2236.548 L1914.762,2236.608 L1915.189,2236.662 L1915.667,2236.722 L1916.098,2236.775 L1916.526,2236.827 L1917.004,2236.884 L1917.483,2236.941 L1917.917,2236.992 L1918.352,2237.042 L1918.834,2237.096 L1919.268,2237.145 L1919.706,2237.193 L1920.145,2237.241 L1920.63,2237.293 L1921.07,2237.339 L1921.511,2237.385 L1922,2237.435 L1922.443,2237.48 L1922.887,2237.524 L1923.377,2237.572 L1923.823,2237.615 L1924.27,2237.657 L1924.718,2237.698 L1925.166,2237.739 L1925.664,2237.784 L1926.114,2237.823 L1926.563,2237.862 L1927.016,2237.901 L1927.471,2237.939 L1927.925,2237.976 L1928.38,2238.012 L1928.835,2238.048 L1929.339,2238.086 L1929.797,2238.121 L1930.209,2238.151 L1930.719,2238.188 L1931.179,2238.221 L1931.639,2238.252 L1932.102,2238.284 L1932.519,2238.311 L1933.033,2238.344 L1933.499,2238.373 L1933.917,2238.399 L1934.433,2238.429 L1934.901,2238.456 L1935.324,2238.48 L1935.796,2238.506 L1936.315,2238.533 L1936.788,2238.558 L1937.214,2238.579 L1937.69,2238.602 L1938.117,2238.622 L1938.593,2238.643 L1939.12,2238.666 L1939.551,2238.685 L1940.032,2238.704 L1940.512,2238.723 L1940.946,2238.739 L1941.478,2238.758 L1941.962,2238.774 L1942.351,2238.787 L1942.837,2238.802 L1943.373,2238.817 L1943.813,2238.83 L1944.253,2238.841 L1944.792,2238.854 L1945.236,2238.865 L1945.68,2238.874 L1946.221,2238.885 L1946.668,2238.893 L1947.115,2238.9 L1947.612,2238.908 L1948.11,2238.914 L1948.608,2238.92 L1949.06,2238.925 L1949.513,2238.929 L1950.014,2238.933 L1950.469,2238.935 L1950.973,2238.937 L1951.478,2238.938 L1951.936,2238.939 L1952.394,2238.938 L1952.899,2238.937 L1953.403,2238.935 L1953.857,2238.933 L1954.359,2238.929 L1954.812,2238.925 L1955.264,2238.92 L1955.762,2238.914 L1956.26,2238.908 L1956.756,2238.9 L1957.203,2238.893 L1957.65,2238.885 L1958.192,2238.874 L1958.636,2238.865 L1959.08,2238.854 L1959.618,2238.841 L1960.059,2238.83 L1960.499,2238.817 L1961.035,2238.802 L1961.521,2238.787 L1961.91,2238.774 L1962.394,2238.758 L1962.925,2238.739 L1963.359,2238.723 L1963.84,2238.704 L1964.32,2238.685 L1964.752,2238.666 L1965.278,2238.643 L1965.755,2238.622 L1966.182,2238.602 L1966.658,2238.579 L1967.084,2238.558 L1967.556,2238.533 L1968.076,2238.506 L1968.548,2238.48 L1968.97,2238.456 L1969.439,2238.429 L1969.955,2238.399 L1970.373,2238.373 L1970.838,2238.344 L1971.353,2238.311 L1971.77,2238.284 L1972.232,2238.252 L1972.692,2238.221 L1973.155,2238.188 L1973.663,2238.151 L1974.071,2238.121 L1974.531,2238.087 L1975.038,2238.048 L1975.496,2238.012 L1975.949,2237.975 L1976.401,2237.939 L1976.852,2237.901 L1977.306,2237.862 L1977.76,2237.823 L1978.208,2237.784 L1978.708,2237.739 L1979.154,2237.698 L1979.599,2237.657 L1980.048,2237.615 L1980.492,2237.572 L1980.987,2237.524 L1981.429,2237.48 L1981.87,2237.435 L1982.363,2237.385 L1982.801,2237.339 L1983.239,2237.293 L1983.73,2237.241 L1984.166,2237.193 L1984.601,2237.145 L1985.04,2237.096 L1985.522,2237.041 L1985.954,2236.992 L1986.386,2236.941 L1986.864,2236.885 L1987.342,2236.827 L1987.777,2236.775 L1988.211,2236.721 L1988.68,2236.663 L1989.106,2236.609 L1989.586,2236.547 L1990.059,2236.486 L1990.434,2236.437 L1990.898,2236.375 L1991.374,2236.311 L1991.802,2236.253 L1992.264,2236.19 L1992.683,2236.131 L1993.149,2236.066 L1993.615,2236 L1994.031,2235.94 L1994.495,2235.872 L1994.965,2235.803 L1995.379,2235.741 L1995.785,2235.68 L1996.246,2235.61 L1996.706,2235.54 L1997.164,2235.468 L1997.622,2235.397 L1998.031,2235.332 L1998.488,2235.259 L1998.944,2235.185 L1999.35,2235.119 L1999.796,2235.045 L2000.249,2234.97 L2000.71,2234.892 L2001.153,2234.817 L2001.547,2234.749 L2002.006,2234.67 L2002.455,2234.592 L2002.895,2234.514 L2003.342,2234.435 L2003.741,2234.363 L2004.178,2234.284 L2004.671,2234.194 L2005.068,2234.121 L2005.511,2234.038 L2005.945,2233.957 L2006.387,2233.873 L2006.876,2233.78 L2007.26,2233.706 L2007.652,2233.63 L2008.129,2233.537 L2008.567,2233.45 L2009.005,2233.363 L2009.48,2233.268 L2009.868,2233.19 L2010.303,2233.101 L2010.728,2233.014 L2011.162,2232.924 L2011.633,2232.826 L2012.055,2232.737 L2012.438,2232.655 L2012.869,2232.563 L2013.347,2232.46 L2013.756,2232.372 L2014.185,2232.278 L2014.66,2232.173 L2015.066,2232.083 L2015.493,2231.988 L2015.919,2231.892 L2016.333,2231.798 L2016.805,2231.69 L2017.218,2231.596 L2017.63,2231.5 L2018.052,2231.402 L2018.463,2231.305 L2018.92,2231.197 L2019.376,2231.088 L2019.796,2230.987 L2020.168,2230.898 L2020.61,2230.79 L2021.064,2230.679 L2021.481,2230.576 L2021.932,2230.464 L2022.336,2230.363 L2022.751,2230.259 L2023.201,2230.145 L2023.602,2230.043 L2024.003,2229.94 L2024.451,2229.824 L2024.909,2229.705 L2025.308,2229.601 L2025.694,2229.499 L2026.138,2229.382 L2026.594,2229.26 L2026.99,2229.154 L2027.432,2229.035 L2027.874,2228.915 L2028.221,2228.82 L2028.661,2228.699 L2029.113,2228.574 L2029.552,2228.452 L2029.977,2228.333 L2030.367,2228.224 L2030.757,2228.113 L2031.193,2227.989 L2031.628,2227.864 L2032.016,2227.753 L2032.449,2227.627 L2032.882,2227.501 L2033.315,2227.374 L2033.733,2227.251 L2034.117,2227.136 L2034.561,2227.004 L2034.977,2226.879 L2035.36,2226.764 L2035.834,2226.62 L2036.248,2226.494 L2036.643,2226.373 L2037.023,2226.255 L2037.434,2226.128 L2037.891,2225.985 L2038.315,2225.852 L2038.707,2225.729 L2039.116,2225.599 L2039.523,2225.469 L2039.96,2225.329 L2040.366,2225.198 L2040.772,2225.067 L2041.206,2224.926 L2041.611,2224.793 L2042.029,2224.656 L2042.447,2224.517 L2042.849,2224.384 L2043.251,2224.25 L2043.667,2224.11 L2044.082,2223.97 L2044.482,2223.834 L2044.896,2223.693 L2045.309,2223.551 L2045.707,2223.414 L2046.149,2223.261 L2046.561,2223.118 L2046.911,2222.996 L2047.321,2222.851 L2047.777,2222.691 L2048.215,2222.535 L2048.608,2222.395 L2048.955,2222.271 L2049.363,2222.124 L2049.815,2221.96 L2050.25,2221.802 L2050.595,2221.676 L2051,2221.527 L2051.433,2221.368 L2051.865,2221.208 L2052.269,2221.057 L2052.656,2220.913 L2053.041,2220.768 L2053.443,2220.616 L2053.872,2220.453 L2054.256,2220.307 L2054.684,2220.143 L2055.084,2219.989 L2055.466,2219.842 L2055.892,2219.676 L2056.29,2219.521 L2056.697,2219.362 L2057.077,2219.212 L2057.474,2219.056 L2057.896,2218.888 L2058.318,2218.72 L2058.713,2218.561 L2059.09,2218.41 L2059.493,2218.247 L2059.912,2218.077 L2060.305,2217.917 L2060.68,2217.763 L2061.141,2217.574 L2061.514,2217.419 L2061.887,2217.265 L2062.303,2217.091 L2062.675,2216.936 L2063.089,2216.762 L2063.485,2216.595 L2063.916,2216.412 L2064.329,2216.236 L2064.68,2216.086 L2065.067,2215.92 L2065.478,2215.743 L2065.888,2215.565 L2066.298,2215.387 L2066.646,2215.235 L2067.054,2215.056 L2067.462,2214.876 L2067.87,2214.696 L2068.277,2214.516 L2068.621,2214.362 L2069.027,2214.18 L2069.432,2213.998 L2069.837,2213.816 L2070.241,2213.633 L2070.602,2213.468 L2070.986,2213.293 L2071.431,2213.089 L2071.79,2212.924 L2072.172,2212.747 L2072.573,2212.561 L2072.973,2212.375 L2073.373,2212.188 L2073.752,2212.009 L2074.151,2211.822 L2074.529,2211.642 L2074.926,2211.454 L2075.323,2211.264 L2075.7,2211.084 L2076.054,2210.913 L2076.471,2210.712 L2076.866,2210.521 L2077.26,2210.329 L2077.675,2210.126 L2078.027,2209.954 L2078.4,2209.77 L2078.813,2209.566 L2079.204,2209.372 L2079.555,2209.197 L2079.966,2208.992 L2080.377,2208.786 L2080.725,2208.61 L2081.115,2208.413 L2081.524,2208.206 L2081.891,2208.019 L2082.279,2207.821 L2082.686,2207.612 L2083.052,2207.423 L2083.438,2207.224 L2083.803,2207.034 L2084.167,2206.845 L2084.592,2206.622 L2084.955,2206.432 L2085.358,2206.22 L2085.741,2206.017 L2086.103,2205.825 L2086.504,2205.612 L2086.865,2205.419 L2087.225,2205.226 L2087.646,2204.999 L2088.044,2204.784 L2088.363,2204.611 L2088.761,2204.394 L2089.18,2204.166 L2089.537,2203.97 L2089.893,2203.774 L2090.289,2203.555 L2090.684,2203.337 L2091.039,2203.139 L2091.413,2202.931 L2091.808,2202.709 L2092.16,2202.512 L2092.532,2202.301 L2092.946,2202.067 L2093.317,2201.856 L2093.666,2201.657 L2094.056,2201.434 L2094.448,2201.209 L2094.799,2201.008 L2095.165,2200.796 L2095.552,2200.571 L2095.943,2200.344 L2096.31,2200.129 L2096.655,2199.927 L2097.041,2199.7 L2097.426,2199.473 L2097.791,2199.256 L2098.157,2199.039 L2098.517,2198.824 L2098.923,2198.581 L2099.287,2198.363 L2099.646,2198.147 L2100.028,2197.916 L2100.39,2197.696 L2100.748,2197.479 L2101.109,2197.258 L2101.511,2197.011 L2101.867,2196.792 L2102.223,2196.573 L2102.601,2196.339 L2102.96,2196.116 L2103.337,2195.881 L2103.713,2195.646 L2104.066,2195.425 L2104.418,2195.203 L2104.793,2194.966 L2105.168,2194.729 L2105.542,2194.491 L2105.915,2194.252 L2106.265,2194.029 L2106.614,2193.804 L2106.986,2193.565 L2107.358,2193.324 L2107.724,2193.087 L2108.071,2192.861 L2108.441,2192.619 L2108.811,2192.377 L2109.18,2192.135 L2109.544,2191.895 L2109.888,2191.667 L2110.232,2191.439 L2110.6,2191.194 L2110.985,2190.937 L2111.345,2190.696 L2111.687,2190.465 L2112.053,2190.219 L2112.418,2189.972 L2112.753,2189.745 L2113.11,2189.501 L2113.474,2189.252 L2113.855,2188.991 L2114.211,2188.746 L2114.55,2188.513 L2114.912,2188.262 L2115.267,2188.016 L2115.638,2187.757 L2115.999,2187.505 L2116.335,2187.269 L2116.664,2187.038 L2117.04,2186.773 L2117.416,2186.506 L2117.743,2186.274 L2118.094,2186.024 L2118.452,2185.769 L2118.826,2185.501 L2119.168,2185.255 L2119.517,2185.003 L2119.873,2184.745 L2120.221,2184.493 L2120.585,2184.228 L2120.908,2183.992 L2121.262,2183.733 L2121.608,2183.478 L2121.97,2183.211 L2122.315,2182.956 L2122.66,2182.7 L2123.02,2182.432 L2123.364,2182.175 L2123.691,2181.93 L2124.05,2181.66 L2124.433,2181.371 L2124.75,2181.132 L2125.067,2180.892 L2125.432,2180.614 L2125.789,2180.341 L2126.12,2180.088 L2126.485,2179.808 L2126.824,2179.547 L2127.154,2179.292 L2127.508,2179.017 L2127.846,2178.755 L2128.183,2178.492 L2128.536,2178.216 L2128.863,2177.959 L2129.215,2177.682 L2129.575,2177.398 L2129.885,2177.152 L2130.226,2176.881 L2130.601,2176.582 L2130.91,2176.336 L2131.233,2176.076 L2131.607,2175.776 L2131.94,2175.508 L2132.262,2175.247 L2132.599,2174.973 L2132.946,2174.691 L2133.277,2174.421 L2133.622,2174.138 L2133.958,2173.862 L2134.262,2173.612 L2134.631,2173.306 L2134.965,2173.03 L2135.283,2172.765 L2135.626,2172.479 L2135.968,2172.193 L2136.285,2171.927 L2136.601,2171.661 L2136.968,2171.351 L2137.298,2171.072 L2137.613,2170.804 L2137.953,2170.515 L2138.281,2170.234 L2138.595,2169.965 L2138.933,2169.674 L2139.286,2169.37 L2139.598,2169.1 L2139.909,2168.83 L2140.25,2168.534 L2140.586,2168.24 L2140.922,2167.946 L2141.246,2167.662 L2141.555,2167.389 L2141.879,2167.104 L2142.227,2166.795 L2142.535,2166.521 L2142.843,2166.247 L2143.19,2165.937 L2143.525,2165.636 L2143.831,2165.361 L2144.137,2165.085 L2144.471,2164.783 L2144.816,2164.47 L2145.12,2164.193 L2145.438,2163.902 L2145.782,2163.588 L2146.099,2163.297 L2146.39,2163.029 L2146.706,2162.736 L2147.048,2162.42 L2147.363,2162.127 L2147.678,2161.833 L2148.018,2161.515 L2148.332,2161.221 L2148.62,2160.95 L2148.933,2160.655 L2149.245,2160.359 L2149.597,2160.025 L2149.909,2159.728 L2150.194,2159.456 L2150.518,2159.145 L2150.854,2158.822 L2151.164,2158.524 L2151.448,2158.25 L2151.77,2157.937 L2152.092,2157.625 L2152.387,2157.337 L2152.733,2156.998 L2153.054,2156.684 L2153.296,2156.446 L2153.615,2156.131 L2153.96,2155.789 L2154.279,2155.473 L2154.571,2155.182 L2154.862,2154.891 L2155.179,2154.574 L2155.509,2154.243 L2155.812,2153.937 L2156.089,2153.657 L2156.404,2153.338 L2156.719,2153.018 L2157.008,2152.724 L2157.321,2152.403 L2157.622,2152.095 L2157.909,2151.799 L2158.221,2151.477 L2158.533,2151.154 L2158.845,2150.831 L2159.156,2150.507 L2159.441,2150.21 L2159.725,2149.912 L2160.034,2149.587 L2160.344,2149.261 L2160.652,2148.935 L2160.935,2148.636 L2161.229,2148.323 L2161.536,2147.995 L2161.817,2147.695 L2162.124,2147.366 L2162.43,2147.037 L2162.71,2146.735 L2163.015,2146.405 L2163.305,2146.089 L2163.596,2145.773 L2163.899,2145.441 L2164.177,2145.137 L2164.48,2144.805 L2164.794,2144.458 L2165.045,2144.181 L2165.358,2143.834 L2165.67,2143.487 L2165.908,2143.222 L2166.22,2142.873 L2166.531,2142.524 L2166.816,2142.203 L2167.101,2141.882 L2167.373,2141.573 L2167.646,2141.264 L2167.955,2140.912 L2168.263,2140.56 L2168.52,2140.266 L2168.801,2139.942 L2169.097,2139.601 L2169.378,2139.276 L2169.659,2138.951 L2169.964,2138.596 L2170.244,2138.269 L2170.512,2137.956 L2170.79,2137.628 L2171.079,2137.288 L2171.357,2136.96 L2171.634,2136.632 L2171.937,2136.273 L2172.202,2135.956 L2172.453,2135.657 L2172.764,2135.284 L2173.05,2134.94 L2173.288,2134.652 L2173.588,2134.29 L2173.872,2133.945 L2174.145,2133.613 L2174.418,2133.28 L2174.69,2132.946 L2174.972,2132.599 L2175.229,2132.284 L2175.5,2131.949 L2175.795,2131.582 L2176.066,2131.246 L2176.31,2130.941 L2176.589,2130.592 L2176.893,2130.21 L2177.147,2129.891 L2177.389,2129.585 L2177.682,2129.214 L2177.959,2128.862 L2178.21,2128.542 L2178.476,2128.202 L2178.742,2127.861 L2179.027,2127.495 L2179.301,2127.141 L2179.541,2126.831 L2179.814,2126.475 L2180.078,2126.132 L2180.351,2125.776 L2180.608,2125.439 L2180.845,2125.127 L2181.141,2124.737 L2181.412,2124.379 L2181.648,2124.065 L2181.903,2123.727 L2182.172,2123.367 L2182.441,2123.007 L2182.685,2122.679 L2182.953,2122.318 L2183.22,2121.956 L2183.463,2121.628 L2183.729,2121.265 L2183.996,2120.901 L2184.246,2120.559 L2184.487,2120.228 L2184.727,2119.898 L2184.991,2119.532 L2185.255,2119.166 L2185.503,2118.822 L2185.775,2118.443 L2186.037,2118.075 L2186.275,2117.742 L2186.512,2117.407 L2186.749,2117.073 L2187.018,2116.691 L2187.263,2116.343 L2187.498,2116.007 L2187.766,2115.624 L2188.009,2115.275 L2188.268,2114.903 L2188.502,2114.565 L2188.743,2114.214 L2189.009,2113.829 L2189.241,2113.489 L2189.482,2113.137 L2189.722,2112.785 L2189.985,2112.397 L2190.224,2112.044 L2190.454,2111.702 L2190.716,2111.313 L2190.93,2110.994 L2191.167,2110.639 L2191.428,2110.247 L2191.656,2109.903 L2191.916,2109.511 L2192.159,2109.142 L2192.37,2108.82 L2192.597,2108.474 L2192.855,2108.08 L2193.096,2107.709 L2193.329,2107.349 L2193.562,2106.989 L2193.794,2106.629 L2194.026,2106.268 L2194.264,2105.895 L2194.495,2105.533 L2194.726,2105.171 L2194.956,2104.808 L2195.185,2104.444 L2195.422,2104.069 L2195.65,2103.705 L2195.878,2103.34 L2196.09,2103 L2196.348,2102.585 L2196.575,2102.219 L2196.778,2101.889 L2197.011,2101.51 L2197.237,2101.142 L2197.469,2100.762 L2197.7,2100.381 L2197.924,2100.012 L2198.148,2099.642 L2198.378,2099.26 L2198.585,2098.915 L2198.808,2098.543 L2199.043,2098.148 L2199.249,2097.802 L2199.463,2097.44 L2199.691,2097.055 L2199.924,2096.658 L2200.121,2096.321 L2200.347,2095.935 L2200.573,2095.547 L2200.775,2095.198 L2201,2094.81 L2201.224,2094.421 L2201.447,2094.032 L2201.648,2093.68 L2201.849,2093.329 L2202.071,2092.938 L2202.292,2092.546 L2202.491,2092.193 L2202.712,2091.8 L2202.932,2091.407 L2203.136,2091.042 L2203.334,2090.687 L2203.552,2090.292 L2203.777,2089.885 L2203.973,2089.529 L2204.163,2089.183 L2204.385,2088.775 L2204.608,2088.366 L2204.781,2088.047 L2205.002,2087.638 L2205.217,2087.239 L2205.41,2086.878 L2205.609,2086.507 L2205.822,2086.106 L2206.02,2085.734 L2206.217,2085.361 L2206.429,2084.958 L2206.619,2084.595 L2206.836,2084.18 L2207.031,2083.806 L2207.226,2083.43 L2207.42,2083.055 L2207.609,2082.689 L2207.818,2082.282 L2208.011,2081.904 L2208.208,2081.516 L2208.421,2081.097 L2208.607,2080.728 L2208.778,2080.39 L2208.989,2079.969 L2209.194,2079.558 L2209.369,2079.208 L2209.558,2078.826 L2209.762,2078.413 L2209.956,2078.02 L2210.123,2077.678 L2210.331,2077.253 L2210.518,2076.869 L2210.704,2076.484 L2210.91,2076.057 L2211.076,2075.713 L2211.266,2075.316 L2211.451,2074.929 L2211.635,2074.542 L2211.823,2074.144 L2212.006,2073.755 L2212.189,2073.366 L2212.372,2072.976 L2212.554,2072.586 L2212.74,2072.185 L2212.925,2071.784 L2213.086,2071.434 L2213.286,2070.999 L2213.47,2070.596 L2213.634,2070.234 L2213.813,2069.84 L2213.991,2069.445 L2214.173,2069.04 L2214.355,2068.634 L2214.517,2068.27 L2214.693,2067.873 L2214.873,2067.465 L2215.053,2067.057 L2215.228,2066.658 L2215.388,2066.292 L2215.566,2065.882 L2215.744,2065.471 L2215.921,2065.061 L2216.075,2064.701 L2216.233,2064.332 L2216.409,2063.919 L2216.584,2063.506 L2216.762,2063.083 L2216.933,2062.678 L2217.088,2062.306 L2217.262,2061.89 L2217.416,2061.517 L2217.574,2061.135 L2217.76,2060.683 L2217.914,2060.308 L2218.07,2059.924 L2218.24,2059.504 L2218.41,2059.084 L2218.565,2058.699 L2218.717,2058.321 L2218.885,2057.899 L2219.053,2057.477 L2219.202,2057.097 L2219.355,2056.709 L2219.525,2056.276 L2219.673,2055.895 L2219.839,2055.469 L2219.99,2055.078 L2220.137,2054.696 L2220.304,2054.259 L2220.45,2053.875 L2220.613,2053.446 L2220.765,2053.044 L2220.91,2052.659 L2221.054,2052.272 L2221.205,2051.868 L2221.365,2051.436 L2221.524,2051.003 L2221.673,2050.598 L2221.799,2050.253 L2221.96,2049.81 L2222.121,2049.366 L2222.262,2048.974 L2222.392,2048.611 L2222.532,2048.218 L2222.69,2047.772 L2222.851,2047.317 L2222.99,2046.922 L2223.115,2046.564 L2223.256,2046.16 L2223.411,2045.71 L2223.551,2045.305 L2223.69,2044.899 L2223.831,2044.485 L2223.969,2044.078 L2224.104,2043.677 L2224.244,2043.261 L2224.381,2042.852 L2224.517,2042.442 L2224.655,2042.025 L2224.79,2041.614 L2224.925,2041.202 L2225.059,2040.79 L2225.195,2040.369 L2225.329,2039.955 L2225.462,2039.541 L2225.596,2039.119 L2225.73,2038.696 L2225.847,2038.325 L2225.978,2037.908 L2226.125,2037.437 L2226.257,2037.012 L2226.372,2036.638 L2226.486,2036.265 L2226.617,2035.837 L2226.761,2035.363 L2226.876,2034.98 L2227.005,2034.55 L2227.131,2034.127 L2227.243,2033.749 L2227.373,2033.311 L2227.5,2032.879 L2227.624,2032.452 L2227.75,2032.019 L2227.861,2031.631 L2227.986,2031.196 L2228.108,2030.767 L2228.219,2030.377 L2228.33,2029.98 L2228.453,2029.542 L2228.575,2029.103 L2228.696,2028.664 L2228.816,2028.23 L2228.91,2027.883 L2229.032,2027.435 L2229.153,2026.987 L2229.259,2026.591 L2229.376,2026.154 L2229.493,2025.709 L2229.6,2025.305 L2229.705,2024.9 L2229.82,2024.46 L2229.935,2024.012 L2230.041,2023.599 L2230.144,2023.198 L2230.257,2022.748 L2230.359,2022.345 L2230.46,2021.941 L2230.575,2021.478 L2230.675,2021.072 L2230.786,2020.619 L2230.897,2020.159 L2230.984,2019.799 L2231.084,2019.385 L2231.194,2018.923 L2231.302,2018.466 L2231.399,2018.055 L2231.496,2017.638 L2231.594,2017.215 L2231.689,2016.803 L2231.794,2016.341 L2231.89,2015.916 L2231.985,2015.496 L2232.078,2015.08 L2232.172,2014.658 L2232.275,2014.188 L2232.368,2013.764 L2232.46,2013.34 L2232.56,2012.872 L2232.651,2012.447 L2232.733,2012.063 L2232.823,2011.635 L2232.922,2011.16 L2233.011,2010.731 L2233.099,2010.301 L2233.187,2009.871 L2233.264,2009.488 L2233.361,2009.003 L2233.447,2008.57 L2233.533,2008.137 L2233.627,2007.655 L2233.702,2007.267 L2233.778,2006.875 L2233.87,2006.39 L2233.953,2005.953 L2234.036,2005.51 L2234.118,2005.071 L2234.191,2004.674 L2234.28,2004.185 L2234.36,2003.744 L2234.432,2003.341 L2234.511,2002.898 L2234.59,2002.454 L2234.667,2002.009 L2234.745,2001.559 L2234.814,2001.156 L2234.891,2000.705 L2234.967,2000.252 L2235.041,1999.803 L2235.116,1999.353 L2235.182,1998.947 L2235.256,1998.487 L2235.329,1998.035 L2235.394,1997.626 L2235.465,1997.168 L2235.536,1996.712 L2235.607,1996.253 L2235.677,1995.788 L2235.739,1995.375 L2235.8,1994.965 L2235.868,1994.502 L2235.936,1994.038 L2235.997,1993.618 L2236.063,1993.152 L2236.128,1992.689 L2236.186,1992.27 L2236.251,1991.798 L2236.308,1991.377 L2236.371,1990.907 L2236.434,1990.433 L2236.484,1990.058 L2236.545,1989.586 L2236.605,1989.112 L2236.659,1988.686 L2236.719,1988.208 L2236.772,1987.777 L2236.824,1987.348 L2236.881,1986.87 L2236.938,1986.391 L2236.989,1985.957 L2237.039,1985.522 L2237.093,1985.04 L2237.142,1984.606 L2237.19,1984.169 L2237.238,1983.73 L2237.29,1983.245 L2237.336,1982.804 L2237.382,1982.363 L2237.432,1981.875 L2237.477,1981.432 L2237.521,1980.988 L2237.569,1980.497 L2237.612,1980.051 L2237.654,1979.605 L2237.695,1979.157 L2237.736,1978.709 L2237.781,1978.211 L2237.82,1977.761 L2237.859,1977.311 L2237.898,1976.859 L2237.936,1976.404 L2237.973,1975.95 L2238.009,1975.495 L2238.045,1975.039 L2238.083,1974.536 L2238.118,1974.078 L2238.148,1973.666 L2238.185,1973.156 L2238.218,1972.695 L2238.249,1972.235 L2238.281,1971.773 L2238.308,1971.356 L2238.341,1970.841 L2238.37,1970.376 L2238.396,1969.958 L2238.426,1969.442 L2238.453,1968.973 L2238.477,1968.551 L2238.503,1968.079 L2238.53,1967.559 L2238.555,1967.087 L2238.576,1966.661 L2238.599,1966.185 L2238.619,1965.758 L2238.64,1965.281 L2238.663,1964.755 L2238.682,1964.323 L2238.701,1963.843 L2238.72,1963.362 L2238.736,1962.928 L2238.755,1962.397 L2238.771,1961.913 L2238.784,1961.524 L2238.799,1961.038 L2238.814,1960.502 L2238.827,1960.062 L2238.838,1959.621 L2238.851,1959.083 L2238.862,1958.639 L2238.871,1958.195 L2238.882,1957.653 L2238.89,1957.206 L2238.897,1956.759 L2238.905,1956.263 L2238.911,1955.765 L2238.917,1955.267 L2238.922,1954.815 L2238.926,1954.362 L2238.93,1953.86 L2238.932,1953.406 L2238.934,1952.902 L2238.935,1952.397 L2238.936,1951.939 L2238.935,1951.481 L2238.934,1950.976 L2238.932,1950.472 L2238.93,1950.017 L2238.926,1949.516 L2238.922,1949.063 L2238.917,1948.611 L2238.911,1948.113 L2238.905,1947.615 L2238.897,1947.118 L2238.89,1946.671 L2238.882,1946.224 L2238.871,1945.683 L2238.862,1945.239 L2238.851,1944.795 L2238.838,1944.256 L2238.827,1943.816 L2238.814,1943.376 L2238.799,1942.84 L2238.784,1942.354 L2238.771,1941.965 L2238.755,1941.481 L2238.736,1940.949 L2238.72,1940.515 L2238.701,1940.035 L2238.682,1939.554 L2238.663,1939.123 L2238.64,1938.596 L2238.619,1938.12 L2238.599,1937.693 L2238.576,1937.217 L2238.555,1936.791 L2238.53,1936.318 L2238.503,1935.799 L2238.477,1935.327 L2238.453,1934.904 L2238.426,1934.436 L2238.396,1933.92 L2238.37,1933.502 L2238.341,1933.036 L2238.308,1932.522 L2238.281,1932.105 L2238.249,1931.642 L2238.218,1931.182 L2238.185,1930.722 L2238.148,1930.212 L2238.118,1929.8 L2238.083,1929.342 L2238.045,1928.838 L2238.009,1928.383 L2237.973,1927.928 L2237.936,1927.474 L2237.898,1927.019 L2237.859,1926.566 L2237.82,1926.117 L2237.781,1925.667 L2237.736,1925.169 L2237.695,1924.721 L2237.654,1924.273 L2237.612,1923.826 L2237.569,1923.38 L2237.521,1922.89 L2237.477,1922.446 L2237.432,1922.003 L2237.382,1921.514 L2237.336,1921.073 L2237.29,1920.633 L2237.238,1920.148 L2237.19,1919.709 L2237.142,1919.271 L2237.093,1918.837 L2237.039,1918.355 L2236.989,1917.92 L2236.938,1917.486 L2236.881,1917.007 L2236.824,1916.529 L2236.772,1916.101 L2236.719,1915.67 L2236.659,1915.192 L2236.605,1914.765 L2236.545,1914.292 L2236.484,1913.819 L2236.434,1913.444 L2236.371,1912.97 L2236.308,1912.5 L2236.251,1912.079 L2236.186,1911.608 L2236.128,1911.189 L2236.063,1910.726 L2235.997,1910.26 L2235.936,1909.84 L2235.868,1909.376 L2235.8,1908.913 L2235.739,1908.502 L2235.677,1908.089 L2235.607,1907.625 L2235.536,1907.165 L2235.465,1906.71 L2235.394,1906.252 L2235.329,1905.843 L2235.256,1905.391 L2235.182,1904.931 L2235.116,1904.524 L2235.041,1904.074 L2234.967,1903.625 L2234.891,1903.173 L2234.814,1902.722 L2234.745,1902.319 L2234.667,1901.869 L2234.59,1901.424 L2234.511,1900.98 L2234.432,1900.537 L2234.36,1900.134 L2234.28,1899.692 L2234.191,1899.203 L2234.118,1898.807 L2234.036,1898.368 L2233.953,1897.925 L2233.87,1897.487 L2233.778,1897.003 L2233.702,1896.61 L2233.627,1896.223 L2233.533,1895.741 L2233.447,1895.307 L2233.361,1894.875 L2233.264,1894.39 L2233.187,1894.007 L2233.099,1893.576 L2233.011,1893.147 L2232.922,1892.718 L2232.823,1892.242 L2232.733,1891.815 L2232.651,1891.431 L2232.56,1891.005 L2232.46,1890.538 L2232.368,1890.113 L2232.275,1889.69 L2232.172,1889.22 L2232.078,1888.798 L2231.985,1888.382 L2231.89,1887.961 L2231.794,1887.536 L2231.689,1887.075 L2231.594,1886.662 L2231.496,1886.239 L2231.399,1885.822 L2231.302,1885.412 L2231.194,1884.955 L2231.084,1884.493 L2230.984,1884.079 L2230.897,1883.718 L2230.786,1883.258 L2230.675,1882.805 L2230.575,1882.4 L2230.46,1881.936 L2230.359,1881.533 L2230.257,1881.129 L2230.144,1880.68 L2230.041,1880.278 L2229.935,1879.865 L2229.82,1879.418 L2229.705,1878.978 L2229.6,1878.573 L2229.493,1878.168 L2229.376,1877.724 L2229.259,1877.287 L2229.153,1876.891 L2229.032,1876.442 L2228.91,1875.994 L2228.816,1875.647 L2228.696,1875.214 L2228.575,1874.774 L2228.453,1874.336 L2228.33,1873.898 L2228.219,1873.501 L2228.108,1873.111 L2227.986,1872.682 L2227.861,1872.247 L2227.75,1871.859 L2227.624,1871.425 L2227.5,1870.999 L2227.373,1870.567 L2227.243,1870.128 L2227.131,1869.75 L2227.005,1869.327 L2226.876,1868.898 L2226.761,1868.515 L2226.617,1868.04 L2226.486,1867.613 L2226.372,1867.239 L2226.257,1866.866 L2226.125,1866.44 L2225.978,1865.97 L2225.847,1865.552 L2225.73,1865.182 L2225.596,1864.759 L2225.462,1864.337 L2225.329,1863.922 L2225.195,1863.509 L2225.059,1863.088 L2224.925,1862.676 L2224.79,1862.264 L2224.655,1861.853 L2224.517,1861.435 L2224.381,1861.025 L2224.244,1860.616 L2224.104,1860.2 L2223.969,1859.8 L2223.831,1859.393 L2223.69,1858.979 L2223.551,1858.573 L2223.411,1858.168 L2223.256,1857.718 L2223.115,1857.314 L2222.99,1856.956 L2222.851,1856.561 L2222.69,1856.106 L2222.532,1855.659 L2222.392,1855.267 L2222.262,1854.903 L2222.121,1854.512 L2221.96,1854.068 L2221.799,1853.625 L2221.673,1853.28 L2221.524,1852.875 L2221.365,1852.442 L2221.205,1852.009 L2221.054,1851.606 L2220.91,1851.219 L2220.765,1850.833 L2220.613,1850.431 L2220.45,1850.002 L2220.304,1849.618 L2220.137,1849.182 L2219.99,1848.799 L2219.839,1848.408 L2219.673,1847.983 L2219.525,1847.602 L2219.355,1847.169 L2219.202,1846.78 L2219.053,1846.401 L2218.885,1845.978 L2218.717,1845.556 L2218.565,1845.179 L2218.41,1844.793 L2218.24,1844.373 L2218.07,1843.954 L2217.914,1843.57 L2217.76,1843.195 L2217.574,1842.743 L2217.416,1842.361 L2217.262,1841.988 L2217.088,1841.572 L2216.933,1841.2 L2216.762,1840.795 L2216.584,1840.372 L2216.409,1839.958 L2216.233,1839.545 L2216.075,1839.176 L2215.921,1838.817 L2215.744,1838.406 L2215.566,1837.996 L2215.388,1837.586 L2215.228,1837.22 L2215.053,1836.82 L2214.873,1836.412 L2214.693,1836.005 L2214.517,1835.607 L2214.355,1835.244 L2214.173,1834.838 L2213.991,1834.433 L2213.813,1834.038 L2213.634,1833.643 L2213.47,1833.282 L2213.286,1832.879 L2213.086,1832.444 L2212.925,1832.094 L2212.74,1831.693 L2212.554,1831.292 L2212.372,1830.902 L2212.189,1830.512 L2212.006,1830.122 L2211.823,1829.734 L2211.635,1829.336 L2211.448,1828.943 L2211.264,1828.556 L2211.078,1828.17 L2210.913,1827.825 L2210.707,1827.398 L2210.518,1827.009 L2210.328,1826.619 L2210.123,1826.199 L2209.956,1825.858 L2209.765,1825.47 L2209.556,1825.047 L2209.366,1824.665 L2209.2,1824.33 L2208.989,1823.909 L2208.778,1823.488 L2208.607,1823.149 L2208.416,1822.77 L2208.206,1822.356 L2208.013,1821.978 L2207.823,1821.606 L2207.609,1821.189 L2207.415,1820.813 L2207.226,1820.447 L2207.031,1820.072 L2206.836,1819.697 L2206.622,1819.288 L2206.429,1818.919 L2206.214,1818.511 L2206.02,1818.144 L2205.825,1817.777 L2205.609,1817.37 L2205.413,1817.005 L2205.214,1816.634 L2204.999,1816.234 L2204.784,1815.836 L2204.605,1815.506 L2204.385,1815.103 L2204.169,1814.706 L2203.97,1814.343 L2203.774,1813.987 L2203.555,1813.591 L2203.331,1813.186 L2203.133,1812.831 L2202.935,1812.476 L2202.715,1812.083 L2202.495,1811.69 L2202.292,1811.331 L2202.071,1810.94 L2201.849,1810.549 L2201.645,1810.192 L2201.444,1809.841 L2201.224,1809.457 L2201,1809.068 L2200.775,1808.68 L2200.573,1808.33 L2200.347,1807.943 L2200.125,1807.562 L2199.921,1807.214 L2199.694,1806.828 L2199.47,1806.449 L2199.242,1806.064 L2199.04,1805.724 L2198.811,1805.34 L2198.582,1804.957 L2198.382,1804.624 L2198.155,1804.247 L2197.924,1803.866 L2197.693,1803.485 L2197.465,1803.11 L2197.24,1802.741 L2197.011,1802.368 L2196.782,1801.995 L2196.575,1801.659 L2196.341,1801.281 L2196.087,1800.872 L2195.882,1800.544 L2195.654,1800.179 L2195.422,1799.809 L2195.189,1799.439 L2194.956,1799.07 L2194.726,1798.707 L2194.495,1798.344 L2194.257,1797.971 L2194.026,1797.609 L2193.798,1797.254 L2193.562,1796.888 L2193.325,1796.522 L2193.092,1796.163 L2192.858,1795.804 L2192.605,1795.415 L2192.37,1795.057 L2192.155,1794.73 L2191.92,1794.373 L2191.66,1793.98 L2191.424,1793.624 L2191.163,1793.233 L2190.93,1792.884 L2190.72,1792.571 L2190.454,1792.175 L2190.216,1791.822 L2189.985,1791.48 L2189.722,1791.092 L2189.482,1790.74 L2189.245,1790.394 L2189.009,1790.049 L2188.743,1789.663 L2188.506,1789.319 L2188.268,1788.975 L2188.001,1788.591 L2187.766,1788.254 L2187.503,1787.876 L2187.259,1787.528 L2187.018,1787.187 L2186.758,1786.817 L2186.516,1786.476 L2186.275,1786.136 L2186.033,1785.796 L2185.766,1785.423 L2185.503,1785.056 L2185.259,1784.717 L2184.991,1784.345 L2184.727,1783.98 L2184.487,1783.649 L2184.241,1783.312 L2184,1782.982 L2183.734,1782.619 L2183.463,1782.25 L2183.22,1781.921 L2182.953,1781.56 L2182.685,1781.198 L2182.436,1780.865 L2182.167,1780.504 L2181.903,1780.151 L2181.658,1779.825 L2181.412,1779.499 L2181.141,1779.141 L2180.845,1778.75 L2180.598,1778.426 L2180.356,1778.108 L2180.088,1777.758 L2179.81,1777.396 L2179.541,1777.047 L2179.297,1776.731 L2179.022,1776.377 L2178.752,1776.029 L2178.476,1775.676 L2178.205,1775.329 L2177.959,1775.015 L2177.687,1774.67 L2177.389,1774.293 L2177.137,1773.974 L2176.888,1773.661 L2176.594,1773.292 L2176.32,1772.949 L2176.066,1772.632 L2175.795,1772.296 L2175.5,1771.929 L2175.219,1771.581 L2174.967,1771.272 L2174.695,1770.938 L2174.423,1770.604 L2174.145,1770.265 L2173.867,1769.926 L2173.593,1769.594 L2173.294,1769.232 L2173.039,1768.925 L2172.759,1768.588 L2172.463,1768.233 L2172.213,1767.934 L2171.931,1767.598 L2171.629,1767.239 L2171.352,1766.911 L2171.074,1766.583 L2170.801,1766.262 L2170.523,1765.935 L2170.238,1765.602 L2169.959,1765.276 L2169.659,1764.927 L2169.384,1764.608 L2169.103,1764.283 L2168.796,1763.929 L2168.514,1763.606 L2168.263,1763.318 L2167.96,1762.972 L2167.651,1762.62 L2167.368,1762.298 L2167.089,1761.983 L2166.816,1761.675 L2166.531,1761.354 L2166.22,1761.005 L2165.92,1760.669 L2165.665,1760.384 L2165.358,1760.043 L2165.05,1759.703 L2164.788,1759.413 L2164.486,1759.08 L2164.183,1758.747 L2163.894,1758.43 L2163.584,1758.092 L2163.305,1757.789 L2163.027,1757.486 L2162.716,1757.149 L2162.43,1756.841 L2162.124,1756.512 L2161.811,1756.177 L2161.53,1755.876 L2161.223,1755.548 L2160.935,1755.242 L2160.652,1754.943 L2160.344,1754.616 L2160.034,1754.291 L2159.725,1753.965 L2159.441,1753.668 L2159.156,1753.37 L2158.845,1753.047 L2158.533,1752.723 L2158.228,1752.407 L2157.915,1752.085 L2157.622,1751.783 L2157.315,1751.468 L2157.008,1751.154 L2156.719,1750.86 L2156.404,1750.54 L2156.096,1750.227 L2155.812,1749.94 L2155.496,1749.622 L2155.186,1749.31 L2154.875,1748.999 L2154.558,1748.682 L2154.272,1748.398 L2153.96,1748.088 L2153.622,1747.753 L2153.309,1747.445 L2153.047,1747.187 L2152.733,1746.88 L2152.393,1746.547 L2152.079,1746.24 L2151.763,1745.934 L2151.455,1745.634 L2151.164,1745.354 L2150.854,1745.055 L2150.511,1744.726 L2150.194,1744.422 L2149.909,1744.149 L2149.59,1743.846 L2149.252,1743.525 L2148.94,1743.229 L2148.627,1742.934 L2148.332,1742.657 L2148.018,1742.363 L2147.678,1742.044 L2147.356,1741.744 L2147.048,1741.458 L2146.706,1741.141 L2146.39,1740.849 L2146.099,1740.581 L2145.782,1740.29 L2145.438,1739.975 L2145.12,1739.685 L2144.808,1739.401 L2144.464,1739.088 L2144.151,1738.806 L2143.831,1738.517 L2143.511,1738.229 L2143.197,1737.947 L2142.857,1737.643 L2142.542,1737.363 L2142.22,1737.076 L2141.879,1736.774 L2141.563,1736.495 L2141.239,1736.21 L2140.922,1735.931 L2140.579,1735.631 L2140.235,1735.331 L2139.924,1735.06 L2139.605,1734.784 L2139.278,1734.501 L2138.933,1734.203 L2138.595,1733.912 L2138.281,1733.644 L2137.96,1733.369 L2137.613,1733.073 L2137.291,1732.8 L2136.975,1732.533 L2136.609,1732.223 L2136.285,1731.951 L2135.968,1731.685 L2135.618,1731.392 L2135.275,1731.106 L2134.958,1730.842 L2134.639,1730.578 L2134.269,1730.272 L2133.942,1730.003 L2133.63,1729.746 L2133.284,1729.463 L2132.938,1729.18 L2132.592,1728.898 L2132.27,1728.637 L2131.948,1728.376 L2131.599,1728.096 L2131.233,1727.801 L2130.918,1727.548 L2130.593,1727.289 L2130.218,1726.99 L2129.901,1726.738 L2129.575,1726.48 L2129.207,1726.189 L2128.863,1725.918 L2128.536,1725.662 L2128.191,1725.392 L2127.846,1725.123 L2127.5,1724.854 L2127.154,1724.586 L2126.832,1724.337 L2126.485,1724.07 L2126.104,1723.777 L2125.789,1723.536 L2125.449,1723.277 L2125.067,1722.986 L2124.742,1722.74 L2124.425,1722.5 L2124.058,1722.223 L2123.707,1721.96 L2123.356,1721.696 L2123.012,1721.44 L2122.66,1721.178 L2122.315,1720.922 L2121.97,1720.667 L2121.616,1720.406 L2121.27,1720.151 L2120.899,1719.879 L2120.577,1719.644 L2120.229,1719.391 L2119.873,1719.132 L2119.5,1718.862 L2119.16,1718.617 L2118.835,1718.383 L2118.46,1718.115 L2118.086,1717.847 L2117.743,1717.603 L2117.416,1717.371 L2117.04,1717.105 L2116.672,1716.845 L2116.344,1716.614 L2115.99,1716.367 L2115.621,1716.108 L2115.275,1715.868 L2114.921,1715.621 L2114.55,1715.365 L2114.203,1715.125 L2113.855,1714.886 L2113.483,1714.631 L2113.102,1714.371 L2112.753,1714.133 L2112.436,1713.918 L2112.062,1713.665 L2111.678,1713.406 L2111.327,1713.17 L2110.985,1712.94 L2110.609,1712.689 L2110.232,1712.439 L2109.888,1712.21 L2109.544,1711.982 L2109.189,1711.749 L2108.811,1711.5 L2108.432,1711.252 L2108.062,1711.011 L2107.715,1710.785 L2107.367,1710.559 L2106.996,1710.319 L2106.614,1710.073 L2106.265,1709.849 L2105.915,1709.625 L2105.542,1709.387 L2105.159,1709.143 L2104.784,1708.906 L2104.418,1708.675 L2104.075,1708.459 L2103.722,1708.238 L2103.337,1707.996 L2102.969,1707.767 L2102.591,1707.533 L2102.213,1707.299 L2101.867,1707.085 L2101.52,1706.872 L2101.118,1706.625 L2100.738,1706.393 L2100.39,1706.181 L2100.018,1705.956 L2099.646,1705.731 L2099.287,1705.514 L2098.914,1705.29 L2098.527,1705.059 L2098.166,1704.844 L2097.791,1704.621 L2097.416,1704.399 L2097.041,1704.177 L2096.674,1703.962 L2096.31,1703.749 L2095.933,1703.528 L2095.543,1703.301 L2095.174,1703.087 L2094.818,1702.881 L2094.439,1702.663 L2094.046,1702.438 L2093.666,1702.22 L2093.308,1702.016 L2092.936,1701.805 L2092.542,1701.582 L2092.169,1701.371 L2091.818,1701.174 L2091.413,1700.947 L2091.039,1700.738 L2090.664,1700.53 L2090.289,1700.322 L2089.923,1700.12 L2089.537,1699.908 L2089.16,1699.701 L2088.771,1699.489 L2088.383,1699.278 L2088.015,1699.078 L2087.646,1698.878 L2087.235,1698.657 L2086.865,1698.459 L2086.494,1698.261 L2086.113,1698.058 L2085.731,1697.855 L2085.338,1697.647 L2084.965,1697.451 L2084.592,1697.255 L2084.187,1697.044 L2083.813,1696.849 L2083.438,1696.654 L2083.041,1696.449 L2082.666,1696.255 L2082.279,1696.057 L2081.891,1695.859 L2081.513,1695.666 L2081.135,1695.474 L2080.746,1695.278 L2080.346,1695.076 L2079.966,1694.886 L2079.585,1694.696 L2079.194,1694.501 L2078.803,1694.306 L2078.41,1694.113 L2078.038,1693.929 L2077.644,1693.736 L2077.26,1693.549 L2076.866,1693.357 L2076.471,1693.166 L2076.096,1692.984 L2075.7,1692.794 L2075.313,1692.609 L2074.916,1692.419 L2074.529,1692.235 L2074.151,1692.056 L2073.742,1691.863 L2073.362,1691.685 L2072.973,1691.503 L2072.583,1691.321 L2072.183,1691.135 L2071.79,1690.954 L2071.399,1690.774 L2071.007,1690.594 L2070.623,1690.419 L2070.23,1690.24 L2069.826,1690.057 L2069.432,1689.879 L2069.038,1689.702 L2068.632,1689.52 L2068.255,1689.353 L2067.859,1689.177 L2067.462,1689.001 L2067.065,1688.826 L2066.667,1688.652 L2066.277,1688.481 L2065.888,1688.313 L2065.488,1688.14 L2065.088,1687.967 L2064.68,1687.792 L2064.297,1687.628 L2063.895,1687.457 L2063.474,1687.278 L2063.1,1687.121 L2062.696,1686.951 L2062.303,1686.786 L2061.909,1686.622 L2061.503,1686.454 L2061.108,1686.291 L2060.701,1686.123 L2060.305,1685.961 L2059.901,1685.796 L2059.493,1685.631 L2059.101,1685.472 L2058.713,1685.316 L2058.296,1685.149 L2057.896,1684.99 L2057.496,1684.831 L2057.077,1684.665 L2056.686,1684.512 L2056.301,1684.361 L2055.881,1684.197 L2055.477,1684.04 L2055.084,1683.888 L2054.673,1683.73 L2054.268,1683.575 L2053.861,1683.42 L2053.466,1683.27 L2053.052,1683.114 L2052.644,1682.961 L2052.247,1682.812 L2051.832,1682.658 L2051.433,1682.51 L2051.034,1682.362 L2050.617,1682.21 L2050.216,1682.063 L2049.815,1681.917 L2049.396,1681.766 L2048.978,1681.615 L2048.574,1681.471 L2048.181,1681.331 L2047.777,1681.187 L2047.355,1681.038 L2046.945,1680.894 L2046.538,1680.752 L2046.126,1680.608 L2045.718,1680.467 L2045.321,1680.33 L2044.907,1680.189 L2044.482,1680.043 L2044.082,1679.908 L2043.667,1679.768 L2043.239,1679.624 L2042.838,1679.49 L2042.447,1679.36 L2042.029,1679.222 L2041.599,1679.081 L2041.195,1678.948 L2040.772,1678.81 L2040.366,1678.679 L2039.96,1678.548 L2039.535,1678.412 L2039.127,1678.282 L2038.719,1678.153 L2038.292,1678.018 L2037.868,1677.885 L2037.469,1677.761 L2037.069,1677.637 L2036.643,1677.505 L2036.201,1677.37 L2035.8,1677.247 L2035.394,1677.124 L2034.966,1676.995 L2034.561,1676.874 L2034.129,1676.745 L2033.698,1676.617 L2033.303,1676.5 L2032.894,1676.38 L2032.461,1676.254 L2032.039,1676.132 L2031.628,1676.013 L2031.204,1675.892 L2030.78,1675.771 L2030.356,1675.651 L2029.942,1675.534 L2029.54,1675.422 L2029.113,1675.303 L2028.684,1675.185 L2028.268,1675.07 L2027.839,1674.953 L2027.421,1674.84 L2026.99,1674.723 L2026.571,1674.611 L2026.138,1674.496 L2025.717,1674.384 L2025.32,1674.28 L2024.886,1674.166 L2024.451,1674.053 L2024.039,1673.947 L2023.602,1673.835 L2023.177,1673.727 L2022.775,1673.625 L2022.336,1673.514 L2021.897,1673.405 L2021.481,1673.301 L2021.052,1673.196 L2020.622,1673.09 L2020.215,1672.991 L2019.784,1672.887 L2019.341,1672.781 L2018.908,1672.678 L2018.487,1672.578 L2018.076,1672.482 L2017.642,1672.38 L2017.206,1672.279 L2016.781,1672.182 L2016.345,1672.082 L2015.919,1671.985 L2015.493,1671.89 L2015.055,1671.792 L2014.625,1671.696 L2014.197,1671.602 L2013.768,1671.508 L2013.335,1671.415 L2012.905,1671.322 L2012.474,1671.23 L2012.031,1671.136 L2011.609,1671.047 L2011.174,1670.956 L2010.74,1670.867 L2010.315,1670.779 L2009.868,1670.688 L2009.432,1670.6 L2009.005,1670.514 L2008.567,1670.427 L2008.129,1670.341 L2007.7,1670.257 L2007.26,1670.171 L2006.828,1670.088 L2006.387,1670.004 L2005.957,1669.923 L2005.523,1669.842 L2005.08,1669.759 L2004.635,1669.677 L2004.19,1669.596 L2003.777,1669.521 L2003.33,1669.441 L2002.883,1669.361 L2002.455,1669.286 L2002.018,1669.21 L2001.559,1669.13 L2001.129,1669.057 L2000.698,1668.983 L2000.237,1668.906 L1999.808,1668.835 L1999.374,1668.763 L1998.919,1668.689 L1998.476,1668.617 L1998.044,1668.548 L1997.598,1668.477 L1997.152,1668.407 L1996.706,1668.338 L1996.258,1668.269 L1995.822,1668.203 L1995.391,1668.138 L1994.941,1668.071 L1994.483,1668.004 L1994.043,1667.94 L1993.591,1667.875 L1993.149,1667.812 L1992.707,1667.75 L1992.251,1667.686 L1991.814,1667.626 L1991.362,1667.565 L1990.91,1667.504 L1990.47,1667.445 L1990.022,1667.387 L1989.574,1667.329 L1989.118,1667.27 L1988.668,1667.214 L1988.223,1667.158 L1987.765,1667.102 L1987.318,1667.047 L1986.877,1666.994 L1986.41,1666.939 L1985.954,1666.886 L1985.522,1666.836 L1985.064,1666.784 L1984.601,1666.732 L1984.166,1666.684 L1983.705,1666.634 L1983.239,1666.584 L1982.801,1666.538 L1982.338,1666.49 L1981.882,1666.443 L1981.429,1666.398 L1980.975,1666.353 L1980.516,1666.308 L1980.06,1666.264 L1979.612,1666.222 L1979.142,1666.178 L1978.684,1666.136 L1978.232,1666.096 L1977.772,1666.055 L1977.306,1666.015 L1976.852,1665.977 L1976.401,1665.939 L1975.937,1665.901 L1975.472,1665.864 L1975.014,1665.828 L1974.555,1665.793 L1974.095,1665.758 L1973.626,1665.724 L1973.167,1665.69 L1972.704,1665.658 L1972.244,1665.626 L1971.782,1665.595 L1971.316,1665.564 L1970.85,1665.534 L1970.385,1665.505 L1969.918,1665.477 L1969.451,1665.449 L1968.994,1665.423 L1968.524,1665.396 L1968.052,1665.37 L1967.593,1665.346 L1967.132,1665.322 L1966.658,1665.299 L1966.182,1665.276 L1965.707,1665.254 L1965.242,1665.233 L1964.788,1665.213 L1964.308,1665.193 L1963.84,1665.174 L1963.371,1665.156 L1962.889,1665.138 L1962.43,1665.121 L1961.958,1665.105 L1961.473,1665.089 L1960.998,1665.075 L1960.535,1665.061 L1960.059,1665.048 L1959.582,1665.036 L1959.116,1665.024 L1958.636,1665.013 L1958.156,1665.003 L1957.686,1664.994 L1957.216,1664.985 L1956.732,1664.977 L1956.248,1664.97 L1955.774,1664.963 L1955.3,1664.958 L1954.812,1664.953 L1954.335,1664.948 L1953.869,1664.945 L1953.379,1664.942 L1952.899,1664.94 L1952.418,1664.939 L1951.936,1664.939 L1951.454,1664.939 L1951.454,1664.939 Z" id="Shape"></path>
        </g>
    </g>
</svg>