<?xml version="1.0" encoding="UTF-8" standalone="no"?>
<svg width="6482px" height="6482px" viewBox="0 0 6482 6482" version="1.1" xmlns="http://www.w3.org/2000/svg" xmlns:xlink="http://www.w3.org/1999/xlink">
    <!-- Generator: Sketch 43.2 (39069) - http://www.bohemiancoding.com/sketch -->
    <title>black</title>
    <desc>Created with Sketch.</desc>
    <defs></defs>
    <g id="Page-1" stroke="none" stroke-width="1" fill="none" fill-rule="evenodd">
        <g id="black" fill-rule="nonzero" fill="#000000">
            <path d="M3266.92899,0.538714188 L3287.69388,0.770358392 L3308.43359,1.13041406 L3329.1456,1.62391692 L3349.8274,2.24583127 L3370.51423,2.99867494 L3391.19603,3.88244793 L3411.78719,4.89463239 L3432.40857,6.03774618 L3452.96699,7.30927145 L3473.52289,8.70920817 L3494.04103,10.2375563 L3514.54154,11.894316 L3535.00932,13.682005 L3555.43429,15.5930696 L3575.83661,17.6325458 L3596.18354,19.7953976 L3616.5783,22.0942147 L3636.87234,24.5113716 L3657.12359,27.0544221 L3677.37734,29.725884 L3697.5883,32.5207217 L3717.73631,35.4389351 L3737.90698,38.488078 L3758.00967,41.6555607 L3778.08718,44.9514547 L3798.06398,48.3581354 L3818.0458,51.8932273 L3838.00498,55.5567308 L3857.93897,59.34361 L3877.79742,63.2463113 L3897.62817,67.2698704 L3917.40858,71.4142874 L3937.1638,75.6845979 L3956.86614,80.0707306 L3976.51059,84.5726854 L3996.15754,89.2055694 L4015.7214,93.9467221 L4035.19715,98.7961431 L4054.73583,103.789083 L4074.18639,108.892809 L4093.54631,114.099768 L4112.84579,119.417513 L4132.17801,124.876259 L4151.38937,130.428166 L4170.59569,136.111003 L4189.8121,141.924769 L4208.90007,147.829178 L4227.92513,153.841856 L4246.90483,159.972874 L4265.86693,166.227268 L4284.76104,172.58993 L4303.59221,179.058342 L4322.3453,185.629988 L4341.11102,192.337598 L4359.76593,199.135851 L4378.42336,206.065036 L4396.98511,213.089897 L4415.50405,220.228064 L4433.95249,227.469464 L4452.35814,234.826685 L4470.70839,242.289657 L4488.98814,249.85838 L4507.22005,257.537889 L4525.38146,265.318112 L4543.51769,273.216677 L4561.60356,281.228543 L4579.5434,289.305876 L4597.50841,297.529247 L4615.3702,305.835706 L4633.20428,314.263023 L4650.96535,322.786019 L4668.62318,331.394622 L4686.25584,340.124084 L4703.80792,348.946705 L4721.33483,357.890187 L4738.80886,366.941935 L4756.14944,376.056632 L4773.51773,385.322399 L4790.72737,394.638525 L4807.90682,404.070473 L4824.97798,413.580474 L4842.07434,423.239031 L4859.03725,432.958016 L4875.96741,442.795342 L4892.8447,452.740935 L4909.60869,462.754512 L4926.4029,472.924195 L4943.05611,483.144237 L4963.71272,496.018116 L4980.20226,506.452175 L4996.64146,516.991987 L5013.04287,527.645103 L5029.31084,538.353612 L5045.53852,549.175425 L5061.71585,560.105507 L5081.77824,573.858122 L5101.71728,587.746703 L5117.66044,599.011661 L5133.47518,610.329494 L5153.19769,624.646114 L5172.73133,639.050858 L5192.11391,653.568907 L5207.64415,665.362618 L5223.08121,677.236902 L5242.24222,692.180472 L5257.498,704.243596 L5276.35687,719.360897 L5291.45402,731.633004 L5310.19454,747.075111 L5328.84189,762.675846 L5347.29287,778.349598 L5365.67081,794.197082 L5383.91279,810.165426 L5402.01629,826.252108 L5416.49405,839.294684 L5434.32562,855.572726 L5448.60952,868.791552 L5466.29755,885.38181 L5483.86223,902.102996 L5501.2859,918.940005 L5518.6139,935.935639 L5535.73542,952.979114 L5552.77639,970.198839 L5566.37037,984.125189 L5583.14695,1001.53879 L5599.84296,1019.12612 L5616.37531,1036.80662 L5629.59162,1051.13331 L5645.9049,1069.05552 L5662.01928,1087.02557 L5674.95611,1101.64685 L5690.84891,1119.85862 L5706.65361,1138.24412 L5719.25554,1153.09957 L5734.78579,1171.66132 L5750.21278,1190.38421 L5762.51006,1205.5141 L5777.62234,1224.36289 L5789.68798,1239.62371 L5801.66549,1254.95755 L5816.46807,1274.17647 L5831.17747,1293.56911 L5842.85536,1309.18496 L5857.21477,1328.66069 L5868.73153,1344.49811 L5882.85427,1364.20297 L5894.13433,1380.16376 L5908.02795,1400.11034 L5919.06882,1416.19199 L5930.00142,1432.32399 L5940.82827,1448.50384 L5951.59468,1464.80957 L5962.22514,1481.11783 L5972.79517,1497.55198 L5983.24685,1514.01634 L5993.6658,1530.65444 L6003.90095,1547.21448 L6014.04295,1563.85006 L6024.13206,1580.62664 L6034.11038,1597.44603 L6043.98045,1614.31325 L6053.74726,1631.23838 L6063.44863,1648.28941 L6073.04675,1665.39835 L6082.53409,1682.55261 L6091.95597,1699.83276 L6101.22677,1717.0827 L6110.38176,1734.37545 L6119.47379,1751.7966 L6128.46511,1769.28323 L6137.38593,1786.90078 L6146.14812,1804.46796 L6154.79701,1822.07293 L6163.37792,1839.8088 L6171.84049,1857.58247 L6180.2124,1875.44425 L6188.4534,1893.30352 L6196.63146,1911.31888 L6204.68864,1929.35945 L6212.63505,1947.44783 L6220.46814,1965.58154 L6228.17031,1983.71526 L6235.82715,2002.0504 L6243.35056,2020.38302 L6250.76066,2038.76097 L6258.05746,2057.18423 L6265.23086,2075.62513 L6272.29854,2094.13149 L6279.31081,2112.83927 L6286.18208,2131.51684 L6292.92493,2150.19442 L6299.51422,2168.8166 L6306.0632,2187.68302 L6312.49384,2206.58971 L6318.79356,2225.4939 L6324.98248,2244.45598 L6331.04551,2263.43318 L6336.99274,2282.44563 L6342.85434,2301.60915 L6348.63286,2320.92123 L6354.21246,2339.99915 L6359.74423,2359.35907 L6365.10981,2378.60064 L6370.38978,2397.99077 L6375.55394,2417.42622 L6380.58717,2436.86167 L6385.53478,2456.47086 L6390.28853,2475.82827 L6394.98436,2495.46263 L6399.57948,2515.22791 L6404.02352,2534.90258 L6408.34166,2554.58478 L6412.5591,2574.41301 L6416.63051,2594.14305 L6420.59615,2614.00403 L6424.43843,2633.88515 L6428.17494,2653.89719 L6431.76291,2673.80852 L6435.24764,2693.85834 L6438.58382,2713.80492 L6441.83187,2733.99069 L6444.91376,2753.95237 L6447.90751,2774.18096 L6450.77032,2794.41458 L6453.48962,2814.52231 L6456.11073,2834.907 L6458.58831,2855.16328 L6460.94,2875.43214 L6463.17337,2895.83446 L6465.2783,2916.23929 L6467.25484,2936.65167 L6469.10044,2957.0691 L6470.82769,2977.61242 L6472.41395,2998.04747 L6473.87936,3018.60085 L6475.21634,3039.15424 L6476.42744,3059.83855 L6477.50257,3080.39698 L6478.44678,3100.96043 L6479.27011,3121.76561 L6479.9575,3142.44992 L6480.51143,3163.01087 L6480.94199,3183.811 L6481.23656,3204.48777 L6481.40024,3225.40625 L6481.43297,3246.19632 L6481.33477,3266.86804 L6481.10565,3287.66566 L6480.74558,3308.34494 L6480.25208,3329.1476 L6479.62513,3349.95027 L6478.87481,3370.51623 L6477.99859,3391.07718 L6476.97634,3411.88234 L6475.83573,3432.44077 L6474.57176,3452.87834 L6473.16176,3473.56015 L6471.64096,3493.98764 L6469.98169,3514.53095 L6468.19904,3534.95592 L6466.2779,3555.49168 L6464.24848,3575.78574 L6462.0806,3596.18554 L6459.78179,3616.5803 L6457.36715,3636.85167 L6454.8241,3657.10292 L6452.15264,3677.34913 L6449.35276,3697.5903 L6446.44463,3717.68795 L6443.38793,3737.89891 L6440.22296,3757.99153 L6436.92957,3778.05896 L6433.51283,3798.0962 L6429.96515,3818.13593 L6426.31172,3838.04977 L6422.53491,3857.92838 L6418.62718,3877.81201 L6414.59858,3897.66039 L6410.4441,3917.48864 L6406.18385,3937.19602 L6401.80276,3956.88074 L6397.29827,3976.5277 L6392.69562,3996.0563 L6387.93934,4015.6806 L6383.05971,4035.27468 L6378.08943,4054.72272 L6372.99075,4074.15565 L6367.80393,4093.44255 L6362.45597,4112.8503 L6356.98968,4132.21021 L6351.43272,4151.43921 L6345.75493,4170.63294 L6339.99907,4189.6605 L6334.07451,4208.80639 L6328.03415,4227.91705 L6321.90564,4246.89677 L6315.6588,4265.83871 L6309.28607,4284.76304 L6302.84284,4303.51867 L6296.23594,4322.36745 L6289.50568,4341.19609 L6282.70742,4359.85353 L6275.81852,4378.39766 L6268.77603,4397.01481 L6261.65801,4415.47836 L6254.38388,4434.00989 L6247.02918,4452.40798 L6239.56116,4470.76579 L6232.01763,4488.99014 L6224.36078,4507.16917 L6216.53522,4525.43381 L6208.64673,4543.54487 L6200.64494,4561.60808 L6192.57013,4579.54287 L6184.33668,4597.53307 L6176.0403,4615.36968 L6167.62556,4633.18111 L6159.10006,4650.94218 L6150.45368,4668.67805 L6141.71416,4686.33338 L6132.87641,4703.91315 L6124.01099,4721.28647 L6114.92148,4738.83604 L6105.81684,4756.15396 L6096.55359,4773.51973 L6087.23747,4790.72686 L6077.80301,4807.90882 L6068.26531,4825.03287 L6058.66215,4842.03101 L6048.90036,4859.06693 L6039.09073,4875.94926 L6029.14514,4892.82908 L6019.07616,4909.68623 L6008.98455,4926.35202 L5998.73428,4943.05307 L5988.43871,4959.59549 L5978.02731,4976.10768 L5967.51771,4992.55694 L5956.90739,5008.94326 L5946.17874,5025.29682 L5932.67036,5045.58585 L5919.06882,5065.68602 L5908.03802,5081.75254 L5894.12427,5101.72934 L5882.85427,5117.67503 L5868.73153,5137.37738 L5857.22738,5153.2022 L5842.85536,5172.69304 L5831.20013,5188.27616 L5819.44418,5203.80135 L5804.60637,5223.12351 L5789.68798,5242.25178 L5777.60975,5257.53022 L5762.51006,5276.36138 L5750.22537,5291.47616 L5734.75809,5310.2469 L5719.24043,5328.79355 L5703.49367,5347.33263 L5687.71165,5365.63504 L5671.72569,5383.89717 L5655.67173,5401.9629 L5642.56369,5416.51619 L5626.27306,5434.35784 L5609.81877,5452.11386 L5596.47405,5466.31969 L5579.75286,5483.88185 L5562.96621,5501.25517 L5546.01841,5518.53533 L5528.87926,5535.75253 L5511.57644,5552.87407 L5494.34413,5569.67329 L5476.78954,5586.53549 L5459.17702,5603.2038 L5441.53177,5619.65306 L5423.63725,5636.08972 L5405.61434,5652.39546 L5387.57126,5668.47963 L5372.9676,5681.32077 L5358.29093,5694.07379 L5339.92809,5709.81301 L5321.34872,5725.49684 L5302.78192,5740.93894 L5287.69736,5753.31176 L5272.58005,5765.56121 L5253.67839,5780.66843 L5238.38484,5792.72401 L5219.20117,5807.63737 L5199.99233,5822.34425 L5184.4495,5834.07754 L5168.81856,5845.73025 L5149.17915,5860.1652 L5129.47681,5874.4214 L5113.62429,5885.73167 L5097.70631,5896.94375 L5077.72447,5910.81723 L5057.6243,5924.5497 L5041.44698,5935.44454 L5025.20419,5946.24118 L5004.82705,5959.5859 L4988.44326,5970.16096 L4972.00659,5980.62775 L4955.44907,5991.0341 L4938.8437,6001.3297 L4922.17539,6011.52707 L4905.39881,6021.65143 L4888.62223,6031.63731 L4871.72731,6041.55772 L4854.78456,6051.36735 L4837.78137,6061.07627 L4820.77566,6070.64922 L4803.65917,6080.15167 L4786.49232,6089.54585 L4769.16936,6098.88714 L4751.79101,6108.12522 L4734.45797,6117.20214 L4716.97136,6126.22619 L4699.48222,6135.11681 L4681.83949,6143.95203 L4664.14138,6152.67896 L4646.60187,6161.19692 L4628.75016,6169.73251 L4610.90097,6178.13213 L4592.94603,6186.44865 L4575.049,6194.60656 L4556.99838,6202.70152 L4539.05351,6210.61771 L4520.9072,6218.48858 L4502.70046,6226.25622 L4484.46353,6233.90551 L4466.11831,6241.46668 L4447.72777,6248.91453 L4429.38256,6256.21386 L4410.90894,6263.43259 L4392.32452,6270.56321 L4373.69731,6277.58051 L4355.18339,6284.42408 L4336.5159,6291.19212 L4317.77034,6297.86197 L4298.91148,6304.43866 L4280.01485,6310.89952 L4261.08046,6317.23951 L4242.18635,6323.4385 L4223.17893,6329.54687 L4204.17655,6335.52178 L4184.90728,6341.44885 L4165.86966,6347.177 L4146.64821,6352.82962 L4127.42931,6358.35383 L4108.0291,6363.79748 L4088.66415,6369.10263 L4069.38481,6374.25671 L4049.92669,6379.3277 L4030.35275,6384.30051 L4010.87198,6389.11719 L3991.24265,6393.84324 L3971.58562,6398.44591 L3951.93364,6402.91765 L3932.25647,6407.26602 L3912.43327,6411.51618 L3892.68308,6415.62283 L3872.84225,6419.6187 L3852.83273,6423.51636 L3833.06743,6427.24029 L3813.04027,6430.88113 L3793.13901,6434.37091 L3773.07409,6437.75996 L3752.99155,6441.02312 L3732.91405,6444.15536 L3712.69805,6447.17931 L3692.59033,6450.05976 L3672.36174,6452.82439 L3652.10294,6455.46563 L3631.72834,6457.99106 L3611.44687,6460.37297 L3591.04707,6462.63905 L3570.77318,6464.76413 L3550.35574,6466.77339 L3529.94336,6468.64921 L3509.39752,6470.40921 L3488.97003,6472.0282 L3468.41916,6473.52884 L3447.86075,6474.89605 L3427.29728,6476.13484 L3406.73887,6477.24271 L3385.93116,6478.22972 L3365.37023,6479.07823 L3344.56758,6479.80338 L3323.88325,6480.39006 L3303.32482,6480.84578 L3282.52469,6481.17563 L3261.72959,6481.37454 L3240.937,6481.44 L3220.14441,6481.37454 L3199.3468,6481.17563 L3178.54918,6480.84578 L3157.98823,6480.39006 L3137.30643,6479.80338 L3116.50126,6479.07823 L3095.94031,6478.22972 L3075.13514,6477.24271 L3054.5742,6476.13484 L3034.01075,6474.89605 L3013.45484,6473.52884 L2992.90648,6472.0282 L2972.47395,6470.40921 L2951.93064,6468.64921 L2931.51573,6466.77339 L2911.10587,6464.76413 L2890.81937,6462.63905 L2870.41958,6460.37297 L2850.15322,6457.99106 L2829.77609,6455.46563 L2809.52737,6452.8269 L2789.29123,6450.05976 L2769.1835,6447.18184 L2748.96751,6444.15787 L2728.87992,6441.02312 L2708.80997,6437.76248 L2688.75513,6434.37594 L2668.82113,6430.87862 L2648.80405,6427.24029 L2629.02869,6423.51384 L2609.03175,6419.6187 L2589.17582,6415.62032 L2569.45332,6411.51871 L2549.63012,6407.26853 L2529.94036,6402.91765 L2510.27327,6398.44339 L2490.63135,6393.84324 L2471.01713,6389.12224 L2451.53384,6384.30303 L2431.9599,6379.33275 L2412.51942,6374.26427 L2393.20985,6369.10263 L2373.80965,6363.78992 L2354.4598,6358.35888 L2335.22326,6352.82962 L2316.02198,6347.18203 L2296.96672,6341.44885 L2277.69746,6335.52178 L2258.69256,6329.54687 L2239.72543,6323.45111 L2220.7734,6317.23447 L2201.83901,6310.89196 L2182.96253,6304.43866 L2164.08351,6297.85442 L2145.39839,6291.20723 L2126.69061,6284.42408 L2108.17669,6277.58051 L2089.54948,6270.56321 L2070.96507,6263.43259 L2052.53172,6256.22895 L2034.1009,6248.89692 L2015.7557,6241.46668 L1997.41048,6233.90551 L1979.21885,6226.27636 L1960.94163,6218.4785 L1942.84316,6210.62779 L1924.85296,6202.69146 L1906.82249,6194.60656 L1888.92546,6186.44865 L1870.97303,6178.13213 L1853.14902,6169.7451 L1835.2696,6161.19692 L1817.73012,6152.67896 L1800.03451,6143.95203 L1782.38926,6135.11681 L1764.90264,6126.22619 L1747.41603,6117.20214 L1730.08299,6108.12522 L1712.72981,6098.90225 L1695.38168,6089.54585 L1678.18714,6080.13656 L1661.12352,6070.66433 L1644.06494,6061.06116 L1627.06175,6051.35226 L1610.11647,6041.54011 L1593.27947,6031.65494 L1576.44498,6021.63381 L1559.66839,6011.50944 L1543.0303,6001.3297 L1526.42493,5991.0341 L1509.89762,5980.64789 L1493.43074,5970.16096 L1477.04443,5959.5859 L1460.67575,5948.88242 L1444.41785,5938.11097 L1428.238,5927.24887 L1412.15132,5916.31122 L1396.07219,5905.23763 L1380.10385,5894.09352 L1360.27309,5880.05891 L1340.50528,5865.84552 L1324.78369,5854.37913 L1309.14015,5842.82463 L1289.71729,5828.27637 L1274.22986,5816.51286 L1258.79279,5804.6411 L1239.662,5789.72271 L1220.65207,5774.66835 L1205.43405,5762.44911 L1186.63562,5747.1455 L1167.95805,5731.70842 L1153.04217,5719.21223 L1134.58114,5703.5284 L1116.16542,5687.64819 L1097.94358,5671.69494 L1079.84009,5655.60826 L1061.865,5639.39317 L1047.51565,5626.27253 L1029.72688,5609.78804 L1012.06149,5593.17009 L994.554732,5576.45394 L977.108397,5559.5439 L959.853423,5542.57093 L942.726859,5525.46954 L925.695973,5508.20701 L908.7935,5490.8186 L892.019438,5473.30428 L875.40652,5455.69932 L858.864103,5437.90048 L842.482829,5420.011 L826.267735,5402.03591 L810.178534,5383.93241 L797.355012,5369.3061 L781.512564,5350.98858 L765.801043,5332.54769 L753.254489,5317.61922 L737.784684,5298.95928 L722.486095,5280.22128 L710.249238,5265.02844 L695.134453,5246.0034 L680.188366,5226.89527 L668.293941,5211.47582 L653.599641,5192.15871 L641.929304,5176.6033 L627.496863,5157.09231 L616.030475,5141.37072 L601.81457,5121.6029 L590.562203,5105.72772 L576.638372,5085.80129 L565.562253,5069.72216 L554.624618,5053.638 L543.765037,5037.45816 L532.993581,5021.19773 L522.290109,5004.82905 L511.715046,4988.44274 L501.228111,4971.97839 L490.841889,4955.45107 L480.543794,4938.8457 L470.366556,4922.20509 L460.242194,4905.43103 L450.221064,4888.59653 L440.333382,4871.757 L430.523753,4854.81426 L420.814839,4837.81107 L411.209158,4820.74996 L401.711746,4803.6385 L392.27728,4786.39361 L382.973744,4769.14366 L373.775958,4751.84336 L364.671335,4734.45997 L355.647281,4716.97336 L346.756676,4699.48422 L337.923982,4681.84149 L329.247395,4664.24912 L320.62872,4646.50064 L312.156083,4628.77986 L303.743872,4610.90297 L295.450002,4593.00091 L287.269437,4575.051 L279.209729,4557.07591 L271.225558,4538.97744 L263.372315,4520.87898 L255.599646,4502.65462 L247.947833,4484.41013 L240.409325,4466.1203 L232.979086,4447.7751 L225.624382,4429.28636 L218.420751,4410.85554 L211.31028,4392.32652 L204.315633,4373.7547 L197.431771,4355.12749 L190.646107,4336.42222 L183.981301,4317.67917 L177.417208,4298.85557 L170.981529,4280.03699 L164.659152,4261.1605 L158.422384,4242.15057 L152.311509,4223.12301 L146.316456,4204.06272 L140.442261,4184.96467 L134.676335,4165.79612 L129.028748,4146.59231 L123.499502,4127.35828 L118.086078,4108.06382 L112.788475,4088.72405 L107.578999,4069.23826 L102.528148,4049.85568 L97.572976,4030.34216 L92.7386621,4010.79845 L88.0302419,3991.24465 L83.432608,3971.60273 L78.9709392,3951.99607 L74.6074674,3932.24336 L70.3698891,3912.48311 L66.2556866,3892.69767 L62.2573062,3872.84425 L58.3848193,3852.96566 L54.6256367,3833.009 L51.0074551,3813.1153 L47.4899881,3793.05794 L44.1135221,3773.06603 L40.8503601,3752.99608 L37.7080562,3732.84806 L34.6941636,3712.6925 L31.8061647,3692.52182 L29.0465773,3672.34863 L26.400294,3652.03696 L23.8975295,3631.84363 L21.5105869,3611.51685 L19.2419844,3591.11705 L17.1043112,3570.7097 L15.0975675,3550.29732 L13.2192351,3529.88241 L11.4718321,3509.46247 L9.84025116,3488.90657 L8.34211744,3468.36073 L6.97491305,3447.80231 L5.73612013,3427.23885 L4.62573868,3406.61749 L3.64628655,3385.99611 L2.79524587,3365.3118 L2.0776524,3344.69043 L1.48847041,3324.0061 L1.025182,3303.20597 L0.697858667,3282.46627 L0.501464666,3261.73159 L0.436,3240.939 L0.501464666,3220.14641 L0.697858667,3199.40923 L1.025182,3178.67203 L1.48847041,3157.86938 L2.0776524,3137.18757 L2.79524587,3116.56369 L3.64628655,3095.88189 L4.62573868,3075.258 L5.73612013,3054.63915 L6.97491305,3034.07317 L8.34211744,3013.51727 L9.84025116,2992.97143 L11.4718321,2972.41553 L13.2192351,2951.99307 L15.0975675,2931.58068 L17.1043112,2911.1683 L19.2419844,2890.75842 L21.5105869,2870.36115 L23.8975295,2850.03184 L26.400294,2829.83852 L29.0465773,2809.52937 L31.8061647,2789.35366 L34.6941636,2769.1855 L37.7080562,2749.02994 L40.8503601,2728.88192 L44.1135221,2708.81197 L47.4899881,2688.81756 L51.0074551,2668.7627 L54.6256367,2648.86649 L58.3848193,2628.90984 L62.2573062,2609.03375 L66.2556866,2589.17782 L70.3698891,2569.39489 L74.6074674,2549.63212 L78.9709392,2529.88193 L83.432608,2510.27527 L88.0302419,2490.63335 L92.7386621,2471.07955 L97.572976,2451.53584 L102.528148,2432.02232 L107.578999,2412.63974 L112.788475,2393.15142 L118.086078,2373.81165 L123.499502,2354.51972 L129.028748,2335.28569 L134.676335,2316.08188 L140.442261,2296.9108 L146.316456,2277.81528 L152.311509,2258.75246 L158.422384,2239.72743 L164.659152,2220.7175 L170.981529,2201.84101 L177.417208,2183.01992 L183.981301,2164.19883 L190.646107,2145.45578 L197.431771,2126.748 L204.315633,2108.1233 L211.31028,2089.55148 L218.420751,2071.02246 L225.624382,2052.58912 L232.979086,2034.1029 L240.409325,2015.7577 L247.947833,1997.46787 L255.599646,1979.22085 L263.372315,1960.99902 L271.225558,1942.90056 L279.209729,1924.79958 L287.269437,1906.82449 L295.450002,1888.87457 L303.743872,1870.97503 L312.156083,1853.09814 L320.633756,1835.36477 L329.247395,1817.62888 L337.916428,1800.04909 L346.756676,1782.39126 L355.662388,1764.87695 L364.671335,1747.41803 L373.770922,1730.04723 L382.981298,1712.71923 L392.269726,1695.49698 L401.704192,1678.25209 L411.216712,1661.11293 L420.814839,1644.06694 L430.523753,1627.06375 L440.333382,1610.11847 L450.236172,1593.25377 L460.232122,1576.45956 L470.348931,1559.70061 L480.553866,1543.01719 L490.849443,1526.41183 L501.228111,1509.89962 L511.715046,1493.43274 L522.280038,1477.06154 L532.98351,1460.69286 L543.754965,1444.43496 L554.604474,1428.27022 L565.572324,1412.13821 L576.638372,1396.07419 L587.769882,1380.12096 L601.804499,1360.2902 L616.030475,1340.50728 L627.506934,1324.77058 L641.916716,1305.28981 L653.599641,1289.71929 L665.373209,1274.21675 L680.175778,1254.99784 L692.153294,1239.664 L707.220239,1220.63896 L719.426881,1205.43605 L734.727987,1186.63762 L750.15247,1167.97767 L762.651186,1153.0618 L778.332491,1134.59824 L791.025082,1119.85862 L806.950621,1101.6116 L823.057447,1083.43257 L839.232257,1065.44741 L855.600941,1047.51765 L872.072859,1029.74399 L888.705919,1012.06349 L905.419552,994.556731 L922.314471,977.125504 L939.305071,959.855422 L956.388832,942.743964 L973.666467,925.697973 L991.054889,908.7955 L1008.5541,892.036545 L1026.17668,875.408519 L1043.973,858.866103 L1061.84737,842.499935 L1079.85771,826.252108 L1097.96121,810.165426 L1116.20319,794.197082 L1134.58114,778.349598 L1153.06231,762.650666 L1171.64673,747.100292 L1186.65576,734.714879 L1205.45419,719.411254 L1220.63444,707.224755 L1239.662,692.155293 L1258.79279,677.236902 L1274.22986,665.362618 L1293.61999,650.658248 L1313.05544,636.145235 L1328.73675,624.600792 L1348.42902,610.306833 L1364.24378,598.989 L1380.12399,587.766845 L1396.09485,576.625264 L1412.17398,565.549145 L1428.26067,554.614027 L1444.44051,543.751929 L1460.69841,532.980474 L1477.02177,522.304696 L1493.43074,511.717046 L1509.87245,501.245218 L1526.42493,490.843888 L1543.0303,480.545794 L1559.66839,470.368555 L1576.4198,460.256782 L1593.25429,450.235652 L1610.09381,440.350488 L1627.03657,430.538341 L1644.03976,420.829428 L1661.12352,411.211158 L1678.26015,401.701156 L1695.42952,392.304459 L1712.72981,382.975743 L1730.03264,373.777958 L1747.4412,364.660744 L1764.90264,355.64928 L1782.44213,346.733497 L1800.00933,337.938571 L1817.65206,329.236806 L1835.37536,320.630719 L1853.14902,312.132902 L1870.97303,303.743353 L1888.8474,295.464592 L1906.79732,287.284026 L1924.79758,279.211728 L1942.89856,271.227557 L1960.99702,263.374315 L1979.19368,255.611716 L1997.46587,247.949832 L2015.7557,240.411324 L2034.1009,232.981085 L2052.53172,225.646524 L2070.99276,218.432822 L2089.52179,211.324869 L2108.1213,204.317633 L2126.746,197.433771 L2145.45378,190.648107 L2164.16913,183.993371 L2182.99022,177.429279 L2201.83901,170.983528 L2220.7734,164.643526 L2239.72543,158.424383 L2258.72277,152.321062 L2277.78306,146.328527 L2296.88112,140.454332 L2316.04968,134.685888 L2335.25349,129.038301 L2354.51772,123.501501 L2373.80965,118.088077 L2393.17965,112.780403 L2412.57732,107.596105 L2432.05055,102.522593 L2451.53384,97.5749754 L2471.04735,92.7482152 L2490.60113,88.0397948 L2510.24305,83.442161 L2529.94036,78.9603492 L2549.66034,74.601913 L2569.39289,70.3718884 L2589.20603,66.2526502 L2609.03175,62.2593055 L2628.90784,58.3868186 L2648.83427,54.6326719 L2668.79092,51.0044185 L2688.78534,47.4970231 L2708.84019,44.1104855 L2728.91015,40.8473238 L2748.99773,37.7150912 L2769.1533,34.7011988 L2789.35166,31.808164 L2809.55757,29.0460586 L2829.80631,26.407329 L2850.09279,23.8919751 L2870.41958,21.5050327 L2890.75642,19.2439838 L2911.13608,17.1088285 L2931.54595,15.1020846 L2951.99107,13.2212344 L2972.47395,11.4662778 L2992.96943,9.84225048 L3013.48505,8.34663463 L3034.04095,6.97943024 L3054.63715,5.73811945 L3075.256,4.62773799 L3095.84967,3.65080372 L3116.53147,2.79724518 L3137.18557,2.07965172 L3157.89758,1.48795186 L3178.63981,1.02969919 L3199.37701,0.699857982 L3220.17463,0.503463981 L3240.937,0.437999315 L3266.92899,0.538714188 Z M3240.454,2953.939 L3239.973,2953.94 L3239.493,2953.942 L3239.002,2953.945 L3238.537,2953.948 L3238.06,2953.953 L3237.572,2953.958 L3237.098,2953.963 L3236.624,2953.97 L3236.139,2953.977 L3235.656,2953.985 L3235.185,2953.994 L3234.716,2954.003 L3234.236,2954.013 L3233.756,2954.024 L3233.29,2954.036 L3232.813,2954.048 L3232.336,2954.061 L3231.873,2954.075 L3231.399,2954.089 L3230.913,2954.105 L3230.442,2954.121 L3229.983,2954.138 L3229.5,2954.156 L3229.032,2954.174 L3228.563,2954.193 L3228.084,2954.213 L3227.629,2954.233 L3227.165,2954.254 L3226.69,2954.276 L3226.214,2954.299 L3225.739,2954.322 L3225.279,2954.346 L3224.82,2954.37 L3224.348,2954.396 L3223.877,2954.423 L3223.421,2954.449 L3222.953,2954.477 L3222.487,2954.505 L3222.021,2954.534 L3221.555,2954.564 L3221.09,2954.595 L3220.627,2954.626 L3220.167,2954.658 L3219.707,2954.69 L3219.245,2954.724 L3218.773,2954.758 L3218.315,2954.793 L3217.86,2954.828 L3217.404,2954.864 L3216.937,2954.901 L3216.471,2954.939 L3216.016,2954.977 L3215.563,2955.015 L3215.102,2955.055 L3214.64,2955.096 L3214.19,2955.136 L3213.73,2955.178 L3213.258,2955.222 L3212.811,2955.264 L3212.353,2955.308 L3211.899,2955.352 L3211.443,2955.398 L3210.987,2955.444 L3210.536,2955.49 L3210.07,2955.538 L3209.63,2955.585 L3209.169,2955.634 L3208.706,2955.684 L3208.268,2955.733 L3207.81,2955.784 L3207.353,2955.836 L3206.917,2955.886 L3206.459,2955.94 L3205.992,2955.995 L3205.55,2956.048 L3205.11,2956.101 L3204.655,2956.157 L3204.201,2956.214 L3203.75,2956.271 L3203.301,2956.328 L3202.853,2956.386 L3202.405,2956.445 L3201.955,2956.505 L3201.509,2956.565 L3201.064,2956.625 L3200.617,2956.687 L3200.162,2956.75 L3199.723,2956.812 L3199.281,2956.875 L3198.825,2956.94 L3198.385,2957.004 L3197.934,2957.071 L3197.487,2957.137 L3197.05,2957.203 L3196.61,2957.27 L3196.162,2957.339 L3195.719,2957.407 L3195.273,2957.477 L3194.828,2957.548 L3194.4,2957.616 L3193.952,2957.689 L3193.497,2957.763 L3193.059,2957.835 L3192.634,2957.906 L3192.182,2957.982 L3191.743,2958.057 L3191.304,2958.132 L3190.854,2958.21 L3190.421,2958.285 L3189.989,2958.361 L3189.546,2958.44 L3189.095,2958.521 L3188.677,2958.597 L3188.236,2958.677 L3187.792,2958.759 L3187.353,2958.841 L3186.91,2958.924 L3186.484,2959.004 L3186.048,2959.088 L3185.607,2959.172 L3185.172,2959.257 L3184.738,2959.342 L3184.304,2959.427 L3183.872,2959.513 L3183.435,2959.601 L3183.004,2959.688 L3182.561,2959.778 L3182.132,2959.867 L3181.703,2959.955 L3181.263,2960.047 L3180.836,2960.137 L3180.392,2960.231 L3179.966,2960.322 L3179.547,2960.412 L3179.099,2960.51 L3178.675,2960.602 L3178.252,2960.695 L3177.807,2960.794 L3177.379,2960.89 L3176.958,2960.984 L3176.521,2961.083 L3176.096,2961.181 L3175.671,2961.278 L3175.224,2961.382 L3174.796,2961.482 L3174.385,2961.578 L3173.963,2961.678 L3173.525,2961.782 L3173.087,2961.887 L3172.668,2961.989 L3172.244,2962.092 L3171.814,2962.197 L3171.397,2962.3 L3170.969,2962.406 L3170.53,2962.516 L3170.103,2962.623 L3169.7,2962.725 L3169.275,2962.833 L3168.827,2962.948 L3168.415,2963.055 L3167.998,2963.163 L3167.558,2963.278 L3167.142,2963.388 L3166.721,2963.499 L3166.307,2963.609 L3165.888,2963.722 L3165.451,2963.84 L3165.027,2963.955 L3164.597,2964.072 L3164.187,2964.185 L3163.771,2964.3 L3163.344,2964.418 L3162.93,2964.534 L3162.51,2964.653 L3162.085,2964.773 L3161.667,2964.892 L3161.244,2965.013 L3160.833,2965.132 L3160.411,2965.254 L3159.984,2965.378 L3159.575,2965.498 L3159.16,2965.621 L3158.736,2965.747 L3158.324,2965.869 L3157.906,2965.995 L3157.477,2966.124 L3157.072,2966.247 L3156.656,2966.374 L3156.236,2966.503 L3155.817,2966.632 L3155.403,2966.761 L3154.989,2966.89 L3154.572,2967.02 L3154.168,2967.148 L3153.745,2967.282 L3153.322,2967.417 L3152.919,2967.546 L3152.506,2967.679 L3152.085,2967.815 L3151.684,2967.946 L3151.272,2968.081 L3150.85,2968.219 L3150.432,2968.358 L3150.034,2968.49 L3149.625,2968.627 L3149.197,2968.77 L3148.797,2968.905 L3148.39,2969.043 L3147.965,2969.189 L3147.559,2969.328 L3147.153,2969.467 L3146.738,2969.611 L3146.334,2969.752 L3145.919,2969.897 L3145.524,2970.035 L3145.103,2970.184 L3144.69,2970.331 L3144.297,2970.471 L3143.878,2970.621 L3143.475,2970.766 L3143.065,2970.914 L3142.655,2971.063 L3142.255,2971.21 L3141.838,2971.362 L3141.439,2971.51 L3141.04,2971.658 L3140.625,2971.812 L3140.227,2971.961 L3139.819,2972.114 L3139.406,2972.27 L3139.01,2972.42 L3138.604,2972.575 L3138.19,2972.733 L3137.796,2972.885 L3137.394,2973.04 L3136.991,2973.197 L3136.588,2973.354 L3136.177,2973.515 L3135.777,2973.672 L3135.376,2973.831 L3134.975,2973.99 L3134.575,2974.149 L3134.176,2974.309 L3133.779,2974.469 L3133.37,2974.634 L3132.962,2974.8 L3132.567,2974.961 L3132.17,2975.123 L3131.773,2975.287 L3131.368,2975.454 L3130.963,2975.622 L3130.569,2975.786 L3130.175,2975.951 L3129.781,2976.117 L3129.379,2976.286 L3128.977,2976.457 L3128.575,2976.628 L3128.173,2976.799 L3127.793,2976.963 L3127.392,2977.135 L3126.993,2977.308 L3126.604,2977.477 L3126.195,2977.656 L3125.807,2977.826 L3125.409,2978.001 L3125.013,2978.177 L3124.626,2978.348 L3124.23,2978.525 L3123.824,2978.706 L3123.43,2978.884 L3123.045,2979.057 L3122.651,2979.236 L3122.258,2979.414 L3121.855,2979.599 L3121.473,2979.774 L3121.091,2979.949 L3120.679,2980.14 L3120.279,2980.326 L3119.899,2980.503 L3119.519,2980.68 L3119.13,2980.863 L3118.731,2981.051 L3118.333,2981.24 L3117.956,2981.419 L3117.569,2981.604 L3117.162,2981.799 L3116.776,2981.984 L3116.39,2982.17 L3116.006,2982.357 L3115.621,2982.544 L3115.227,2982.736 L3114.844,2982.924 L3114.451,2983.118 L3114.059,2983.311 L3113.677,2983.501 L3113.286,2983.696 L3112.906,2983.886 L3112.515,2984.081 L3112.126,2984.278 L3111.757,2984.464 L3111.369,2984.661 L3110.97,2984.864 L3110.593,2985.057 L3110.206,2985.255 L3109.83,2985.449 L3109.444,2985.649 L3109.059,2985.849 L3108.674,2986.049 L3108.28,2986.255 L3107.906,2986.451 L3107.534,2986.647 L3107.151,2986.85 L3106.759,2987.058 L3106.377,2987.261 L3105.996,2987.465 L3105.626,2987.663 L3105.237,2987.873 L3104.857,2988.078 L3104.489,2988.278 L3104.09,2988.495 L3103.712,2988.701 L3103.346,2988.902 L3102.96,2989.114 L3102.583,2989.322 L3102.208,2989.53 L3101.833,2989.738 L3101.448,2989.953 L3101.064,2990.168 L3100.691,2990.378 L3100.319,2990.588 L3099.947,2990.798 L3099.575,2991.009 L3099.194,2991.227 L3098.814,2991.444 L3098.444,2991.656 L3098.065,2991.875 L3097.686,2992.094 L3097.318,2992.307 L3096.95,2992.522 L3096.572,2992.742 L3096.197,2992.962 L3095.82,2993.184 L3095.444,2993.406 L3095.091,2993.614 L3094.717,2993.837 L3094.322,2994.073 L3093.969,2994.284 L3093.596,2994.508 L3093.214,2994.738 L3092.853,2994.956 L3092.493,2995.174 L3092.122,2995.4 L3091.742,2995.632 L3091.374,2995.858 L3091.004,2996.085 L3090.647,2996.306 L3090.28,2996.533 L3089.903,2996.767 L3089.535,2996.996 L3089.161,2997.23 L3088.796,2997.459 L3088.43,2997.689 L3088.076,2997.913 L3087.713,2998.143 L3087.341,2998.379 L3086.98,2998.61 L3086.606,2998.849 L3086.246,2999.081 L3085.876,2999.319 L3085.516,2999.552 L3085.157,2999.785 L3084.786,3000.026 L3084.427,3000.26 L3084.072,3000.493 L3083.706,3000.733 L3083.328,3000.982 L3082.971,3001.218 L3082.627,3001.447 L3082.263,3001.689 L3081.899,3001.933 L3081.544,3002.17 L3081.181,3002.414 L3080.822,3002.657 L3080.46,3002.902 L3080.107,3003.141 L3079.746,3003.387 L3079.377,3003.639 L3079.029,3003.878 L3078.669,3004.125 L3078.31,3004.373 L3077.963,3004.613 L3077.608,3004.859 L3077.251,3005.108 L3076.893,3005.358 L3076.54,3005.606 L3076.175,3005.862 L3075.819,3006.114 L3075.467,3006.363 L3075.116,3006.612 L3074.774,3006.856 L3074.423,3007.106 L3074.061,3007.366 L3073.7,3007.626 L3073.359,3007.871 L3073.011,3008.123 L3072.655,3008.382 L3072.307,3008.635 L3071.948,3008.897 L3071.601,3009.151 L3071.255,3009.406 L3070.902,3009.667 L3070.557,3009.922 L3070.212,3010.178 L3069.86,3010.44 L3069.516,3010.696 L3069.165,3010.96 L3068.801,3011.233 L3068.471,3011.481 L3068.13,3011.74 L3067.78,3012.005 L3067.435,3012.267 L3067.082,3012.536 L3066.742,3012.797 L3066.399,3013.06 L3066.052,3013.327 L3065.718,3013.586 L3065.372,3013.854 L3065.014,3014.132 L3064.681,3014.392 L3064.349,3014.652 L3063.996,3014.928 L3063.652,3015.199 L3063.321,3015.46 L3062.983,3015.728 L3062.641,3016 L3062.291,3016.279 L3061.941,3016.558 L3061.613,3016.822 L3061.285,3017.085 L3060.949,3017.356 L3060.614,3017.627 L3060.267,3017.909 L3059.921,3018.191 L3059.587,3018.463 L3059.254,3018.736 L3058.929,3019.003 L3058.577,3019.293 L3058.245,3019.567 L3057.927,3019.831 L3057.583,3020.117 L3057.241,3020.403 L3056.903,3020.685 L3056.586,3020.951 L3056.25,3021.234 L3055.922,3021.511 L3055.594,3021.789 L3055.246,3022.084 L3054.912,3022.369 L3054.59,3022.644 L3054.264,3022.923 L3053.939,3023.203 L3053.606,3023.49 L3053.266,3023.784 L3052.947,3024.06 L3052.624,3024.342 L3052.293,3024.631 L3051.963,3024.92 L3051.633,3025.21 L3051.309,3025.495 L3050.993,3025.774 L3050.664,3026.065 L3050.329,3026.363 L3050.002,3026.655 L3049.675,3026.947 L3049.374,3027.217 L3049.04,3027.517 L3048.707,3027.817 L3048.395,3028.1 L3048.063,3028.401 L3047.751,3028.685 L3047.433,3028.975 L3047.116,3029.266 L3046.786,3029.569 L3046.456,3029.873 L3046.14,3030.165 L3045.824,3030.458 L3045.516,3030.744 L3045.194,3031.044 L3044.879,3031.338 L3044.566,3031.633 L3044.232,3031.946 L3043.919,3032.242 L3043.607,3032.537 L3043.294,3032.834 L3042.976,3033.137 L3042.665,3033.434 L3042.347,3033.738 L3042.03,3034.043 L3041.72,3034.341 L3041.404,3034.647 L3041.095,3034.946 L3040.78,3035.253 L3040.478,3035.547 L3040.164,3035.854 L3039.85,3036.162 L3039.537,3036.47 L3039.224,3036.779 L3038.924,3037.075 L3038.625,3037.372 L3038.301,3037.695 L3037.983,3038.012 L3037.699,3038.297 L3037.389,3038.609 L3037.072,3038.927 L3036.763,3039.24 L3036.454,3039.553 L3036.165,3039.847 L3035.851,3040.167 L3035.544,3040.481 L3035.263,3040.77 L3034.943,3041.098 L3034.631,3041.42 L3034.338,3041.723 L3034.04,3042.033 L3033.742,3042.344 L3033.431,3042.668 L3033.134,3042.979 L3032.837,3043.291 L3032.528,3043.616 L3032.232,3043.929 L3031.937,3044.242 L3031.636,3044.562 L3031.341,3044.876 L3031.047,3045.19 L3030.748,3045.512 L3030.455,3045.827 L3030.156,3046.149 L3029.858,3046.472 L3029.566,3046.789 L3029.275,3047.106 L3028.978,3047.43 L3028.676,3047.761 L3028.399,3048.065 L3028.109,3048.384 L3027.796,3048.731 L3027.514,3049.043 L3027.233,3049.356 L3026.926,3049.698 L3026.639,3050.019 L3026.353,3050.339 L3026.068,3050.66 L3025.782,3050.983 L3025.491,3051.313 L3025.207,3051.635 L3024.911,3051.972 L3024.634,3052.289 L3024.358,3052.606 L3024.05,3052.959 L3023.769,3053.283 L3023.488,3053.608 L3023.2,3053.942 L3022.926,3054.261 L3022.646,3054.587 L3022.349,3054.935 L3022.07,3055.262 L3021.798,3055.583 L3021.507,3055.926 L3021.23,3056.254 L3020.953,3056.583 L3020.671,3056.919 L3020.396,3057.249 L3020.125,3057.572 L3019.845,3057.91 L3019.553,3058.262 L3019.278,3058.594 L3019.018,3058.911 L3018.726,3059.265 L3018.449,3059.604 L3018.189,3059.922 L3017.917,3060.256 L3017.628,3060.613 L3017.347,3060.96 L3017.089,3061.28 L3016.819,3061.616 L3016.539,3061.965 L3016.277,3062.292 L3016.008,3062.63 L3015.722,3062.989 L3015.457,3063.325 L3015.197,3063.654 L3014.925,3063.999 L3014.654,3064.345 L3014.383,3064.692 L3014.12,3065.029 L3013.862,3065.36 L3013.588,3065.715 L3013.318,3066.063 L3013.062,3066.396 L3012.796,3066.742 L3012.529,3067.092 L3012.261,3067.442 L3012.002,3067.783 L3011.743,3068.124 L3011.484,3068.466 L3011.214,3068.825 L3010.944,3069.184 L3010.704,3069.504 L3010.448,3069.848 L3010.175,3070.215 L3009.919,3070.56 L3009.664,3070.905 L3009.396,3071.267 L3009.138,3071.619 L3008.896,3071.949 L3008.643,3072.296 L3008.373,3072.666 L3008.12,3073.014 L3007.88,3073.345 L3007.624,3073.7 L3007.357,3074.073 L3007.106,3074.423 L3006.863,3074.762 L3006.609,3075.119 L3006.355,3075.476 L3006.102,3075.834 L3005.853,3076.187 L3005.601,3076.546 L3005.357,3076.894 L3005.118,3077.236 L3004.859,3077.608 L3004.604,3077.975 L3004.366,3078.319 L3004.128,3078.663 L3003.875,3079.032 L3003.626,3079.394 L3003.39,3079.74 L3003.138,3080.11 L3002.887,3080.48 L3002.656,3080.822 L3002.417,3081.175 L3002.175,3081.535 L3001.93,3081.902 L3001.684,3082.269 L3001.448,3082.624 L3001.211,3082.98 L3000.976,3083.337 L3000.728,3083.712 L3000.49,3084.075 L3000.255,3084.433 L3000.025,3084.786 L2999.791,3085.145 L2999.547,3085.522 L2999.31,3085.888 L2999.074,3086.254 L2998.846,3086.609 L2998.615,3086.971 L2998.376,3087.344 L2998.146,3087.707 L2997.916,3088.07 L2997.683,3088.439 L2997.45,3088.809 L2997.218,3089.179 L2996.99,3089.544 L2996.762,3089.909 L2996.543,3090.262 L2996.309,3090.64 L2996.079,3091.013 L2995.849,3091.386 L2995.62,3091.76 L2995.406,3092.11 L2995.178,3092.485 L2994.959,3092.847 L2994.728,3093.229 L2994.501,3093.605 L2994.29,3093.957 L2994.061,3094.34 L2993.832,3094.724 L2993.618,3095.083 L2993.402,3095.449 L2993.178,3095.828 L2992.951,3096.214 L2992.736,3096.581 L2992.524,3096.943 L2992.31,3097.311 L2992.085,3097.699 L2991.861,3098.087 L2991.659,3098.437 L2991.45,3098.802 L2991.227,3099.192 L2991.012,3099.568 L2990.801,3099.94 L2990.579,3100.331 L2990.366,3100.71 L2990.156,3101.083 L2989.947,3101.456 L2989.738,3101.831 L2989.53,3102.205 L2989.316,3102.591 L2989.109,3102.967 L2988.913,3103.324 L2988.692,3103.725 L2988.486,3104.103 L2988.288,3104.466 L2988.067,3104.875 L2987.862,3105.254 L2987.668,3105.614 L2987.459,3106.005 L2987.252,3106.39 L2987.057,3106.757 L2986.852,3107.144 L2986.647,3107.531 L2986.453,3107.899 L2986.249,3108.288 L2986.046,3108.677 L2985.84,3109.072 L2985.646,3109.447 L2985.457,3109.813 L2985.252,3110.209 L2985.049,3110.606 L2984.858,3110.978 L2984.666,3111.356 L2984.466,3111.75 L2984.264,3112.149 L2984.073,3112.529 L2983.883,3112.909 L2983.692,3113.289 L2983.505,3113.665 L2983.306,3114.067 L2983.117,3114.449 L2982.916,3114.858 L2982.728,3115.241 L2982.553,3115.599 L2982.354,3116.009 L2982.165,3116.398 L2981.979,3116.784 L2981.783,3117.191 L2981.608,3117.556 L2981.424,3117.943 L2981.227,3118.357 L2981.048,3118.734 L2980.865,3119.122 L2980.682,3119.512 L2980.5,3119.902 L2980.318,3120.292 L2980.132,3120.693 L2979.946,3121.094 L2979.776,3121.465 L2979.596,3121.858 L2979.411,3122.261 L2979.228,3122.664 L2979.059,3123.038 L2978.881,3123.433 L2978.698,3123.838 L2978.526,3124.222 L2978.345,3124.629 L2978.169,3125.026 L2977.998,3125.412 L2977.828,3125.799 L2977.653,3126.198 L2977.474,3126.607 L2977.305,3126.996 L2977.137,3127.385 L2976.96,3127.796 L2976.787,3128.198 L2976.62,3128.589 L2976.463,3128.958 L2976.288,3129.372 L2976.109,3129.795 L2975.948,3130.178 L2975.783,3130.572 L2975.619,3130.966 L2975.446,3131.382 L2975.279,3131.786 L2975.129,3132.151 L2974.958,3132.57 L2974.792,3132.976 L2974.631,3133.373 L2974.47,3133.771 L2974.306,3134.179 L2974.146,3134.578 L2973.987,3134.978 L2973.828,3135.379 L2973.678,3135.758 L2973.508,3136.191 L2973.347,3136.602 L2973.198,3136.983 L2973.042,3137.386 L2972.873,3137.821 L2972.726,3138.204 L2972.576,3138.596 L2972.421,3139.002 L2972.267,3139.409 L2972.107,3139.833 L2971.962,3140.219 L2971.809,3140.628 L2971.65,3141.054 L2971.507,3141.442 L2971.364,3141.83 L2971.207,3142.258 L2971.056,3142.67 L2970.911,3143.068 L2970.767,3143.467 L2970.618,3143.881 L2970.464,3144.312 L2970.324,3144.704 L2970.181,3145.106 L2970.036,3145.516 L2969.898,3145.911 L2969.749,3146.337 L2969.6,3146.763 L2969.468,3147.145 L2969.329,3147.55 L2969.182,3147.979 L2969.04,3148.393 L2968.902,3148.8 L2968.767,3149.2 L2968.628,3149.616 L2968.491,3150.025 L2968.347,3150.458 L2968.209,3150.876 L2968.081,3151.264 L2967.946,3151.676 L2967.812,3152.088 L2967.676,3152.509 L2967.543,3152.922 L2967.41,3153.337 L2967.283,3153.736 L2967.149,3154.159 L2967.01,3154.598 L2966.887,3154.992 L2966.761,3155.394 L2966.629,3155.82 L2966.5,3156.239 L2966.371,3156.659 L2966.248,3157.064 L2966.118,3157.492 L2965.988,3157.921 L2965.866,3158.327 L2965.747,3158.727 L2965.621,3159.151 L2965.492,3159.59 L2965.372,3159.999 L2965.254,3160.402 L2965.129,3160.836 L2965.01,3161.247 L2964.892,3161.659 L2964.77,3162.088 L2964.653,3162.501 L2964.528,3162.945 L2964.412,3163.359 L2964.297,3163.774 L2964.182,3164.19 L2964.069,3164.6 L2963.949,3165.041 L2963.833,3165.466 L2963.725,3165.867 L2963.606,3166.31 L2963.496,3166.724 L2963.391,3167.121 L2963.272,3167.573 L2963.16,3168.001 L2963.052,3168.418 L2962.942,3168.842 L2962.83,3169.278 L2962.722,3169.703 L2962.62,3170.106 L2962.513,3170.533 L2962.406,3170.96 L2962.297,3171.4 L2962.191,3171.829 L2962.092,3172.235 L2961.986,3172.671 L2961.882,3173.102 L2961.777,3173.54 L2961.678,3173.955 L2961.581,3174.364 L2961.473,3174.822 L2961.376,3175.239 L2961.278,3175.662 L2961.178,3176.099 L2961.083,3176.512 L2960.981,3176.961 L2960.881,3177.406 L2960.788,3177.821 L2960.695,3178.243 L2960.602,3178.666 L2960.504,3179.113 L2960.412,3179.538 L2960.322,3179.958 L2960.225,3180.407 L2960.134,3180.839 L2960.044,3181.266 L2959.955,3181.694 L2959.861,3182.147 L2959.773,3182.576 L2959.685,3183.007 L2959.598,3183.438 L2959.515,3183.851 L2959.424,3184.307 L2959.334,3184.765 L2959.254,3185.175 L2959.169,3185.61 L2959.085,3186.051 L2959.006,3186.464 L2958.918,3186.925 L2958.835,3187.368 L2958.758,3187.783 L2958.676,3188.227 L2958.596,3188.668 L2958.516,3189.11 L2958.435,3189.561 L2958.356,3190.004 L2958.282,3190.424 L2958.209,3190.845 L2958.131,3191.295 L2958.054,3191.746 L2957.977,3192.197 L2957.905,3192.625 L2957.83,3193.074 L2957.756,3193.524 L2957.69,3193.931 L2957.615,3194.391 L2957.543,3194.843 L2957.474,3195.276 L2957.402,3195.734 L2957.336,3196.165 L2957.269,3196.601 L2957.202,3197.041 L2957.132,3197.502 L2957.064,3197.961 L2957.003,3198.376 L2956.939,3198.816 L2956.872,3199.284 L2956.809,3199.726 L2956.747,3200.165 L2956.685,3200.608 L2956.624,3201.055 L2956.56,3201.524 L2956.5,3201.97 L2956.44,3202.42 L2956.382,3202.868 L2956.327,3203.292 L2956.269,3203.741 L2956.209,3204.216 L2956.156,3204.646 L2956.1,3205.101 L2956.042,3205.578 L2955.99,3206.007 L2955.939,3206.438 L2955.886,3206.896 L2955.83,3207.38 L2955.781,3207.813 L2955.732,3208.247 L2955.679,3208.733 L2955.631,3209.172 L2955.584,3209.609 L2955.533,3210.097 L2955.487,3210.539 L2955.442,3210.978 L2955.395,3211.446 L2955.348,3211.914 L2955.305,3212.356 L2955.262,3212.802 L2955.218,3213.273 L2955.174,3213.745 L2955.133,3214.193 L2955.093,3214.643 L2955.053,3215.093 L2955.015,3215.542 L2954.974,3216.019 L2954.934,3216.498 L2954.897,3216.952 L2954.863,3217.383 L2954.825,3217.863 L2954.79,3218.318 L2954.756,3218.776 L2954.72,3219.26 L2954.686,3219.722 L2954.656,3220.158 L2954.624,3220.618 L2954.591,3221.105 L2954.561,3221.57 L2954.532,3222.012 L2954.503,3222.478 L2954.473,3222.968 L2954.447,3223.412 L2954.42,3223.88 L2954.393,3224.351 L2954.367,3224.823 L2954.342,3225.294 L2954.319,3225.742 L2954.296,3226.217 L2954.273,3226.693 L2954.251,3227.168 L2954.23,3227.62 L2954.209,3228.099 L2954.189,3228.578 L2954.171,3229.035 L2954.153,3229.491 L2954.135,3229.974 L2954.118,3230.457 L2954.102,3230.916 L2954.086,3231.402 L2954.072,3231.864 L2954.059,3232.327 L2954.045,3232.816 L2954.032,3233.305 L2954.021,3233.771 L2954.01,3234.239 L2954,3234.707 L2953.991,3235.176 L2953.982,3235.671 L2953.974,3236.166 L2953.966,3236.639 L2953.96,3237.089 L2953.955,3237.563 L2953.95,3238.063 L2953.945,3238.54 L2953.942,3239.017 L2953.939,3239.496 L2953.937,3239.976 L2953.936,3240.457 L2953.936,3240.939 L2953.936,3241.421 L2953.937,3241.902 L2953.939,3242.382 L2953.942,3242.86 L2953.945,3243.338 L2953.95,3243.815 L2953.955,3244.315 L2953.96,3244.789 L2953.966,3245.239 L2953.974,3245.711 L2953.982,3246.206 L2953.991,3246.701 L2954,3247.171 L2954.01,3247.639 L2954.021,3248.107 L2954.032,3248.573 L2954.045,3249.062 L2954.059,3249.55 L2954.072,3250.013 L2954.086,3250.476 L2954.102,3250.961 L2954.118,3251.421 L2954.135,3251.904 L2954.153,3252.387 L2954.171,3252.843 L2954.189,3253.299 L2954.209,3253.779 L2954.23,3254.257 L2954.251,3254.71 L2954.273,3255.185 L2954.296,3255.661 L2954.319,3256.135 L2954.342,3256.583 L2954.367,3257.055 L2954.393,3257.527 L2954.42,3257.997 L2954.447,3258.466 L2954.473,3258.909 L2954.503,3259.4 L2954.532,3259.865 L2954.561,3260.307 L2954.591,3260.773 L2954.624,3261.259 L2954.656,3261.719 L2954.686,3262.156 L2954.72,3262.617 L2954.756,3263.102 L2954.79,3263.56 L2954.825,3264.015 L2954.863,3264.495 L2954.897,3264.926 L2954.934,3265.38 L2954.974,3265.859 L2955.015,3266.336 L2955.053,3266.785 L2955.093,3267.235 L2955.133,3267.684 L2955.174,3268.133 L2955.218,3268.605 L2955.262,3269.076 L2955.305,3269.521 L2955.348,3269.964 L2955.395,3270.432 L2955.442,3270.899 L2955.487,3271.339 L2955.533,3271.78 L2955.584,3272.269 L2955.631,3272.706 L2955.679,3273.144 L2955.732,3273.631 L2955.781,3274.065 L2955.83,3274.498 L2955.886,3274.981 L2955.939,3275.44 L2955.99,3275.87 L2956.042,3276.3 L2956.1,3276.777 L2956.156,3277.232 L2956.209,3277.662 L2956.269,3278.136 L2956.327,3278.586 L2956.382,3279.01 L2956.44,3279.457 L2956.5,3279.907 L2956.56,3280.353 L2956.624,3280.822 L2956.685,3281.27 L2956.747,3281.713 L2956.809,3282.152 L2956.872,3282.594 L2956.939,3283.062 L2957.003,3283.502 L2957.064,3283.917 L2957.132,3284.375 L2957.202,3284.837 L2957.269,3285.277 L2957.336,3285.712 L2957.402,3286.143 L2957.474,3286.601 L2957.543,3287.035 L2957.615,3287.487 L2957.69,3287.947 L2957.756,3288.353 L2957.83,3288.803 L2957.905,3289.252 L2957.977,3289.68 L2958.054,3290.132 L2958.131,3290.583 L2958.209,3291.033 L2958.282,3291.454 L2958.356,3291.874 L2958.435,3292.317 L2958.516,3292.768 L2958.596,3293.209 L2958.676,3293.65 L2958.758,3294.095 L2958.835,3294.51 L2958.918,3294.953 L2959.006,3295.414 L2959.085,3295.827 L2959.169,3296.267 L2959.254,3296.703 L2959.334,3297.113 L2959.424,3297.57 L2959.515,3298.027 L2959.598,3298.44 L2959.685,3298.871 L2959.773,3299.301 L2959.861,3299.731 L2959.955,3300.184 L2960.044,3300.612 L2960.134,3301.039 L2960.225,3301.47 L2960.322,3301.92 L2960.412,3302.34 L2960.504,3302.764 L2960.602,3303.211 L2960.695,3303.634 L2960.788,3304.056 L2960.881,3304.472 L2960.981,3304.916 L2961.083,3305.365 L2961.178,3305.779 L2961.278,3306.215 L2961.376,3306.638 L2961.473,3307.055 L2961.581,3307.513 L2961.678,3307.923 L2961.777,3308.338 L2961.882,3308.775 L2961.986,3309.207 L2962.092,3309.643 L2962.191,3310.049 L2962.297,3310.478 L2962.406,3310.918 L2962.513,3311.345 L2962.62,3311.772 L2962.722,3312.174 L2962.83,3312.599 L2962.942,3313.036 L2963.052,3313.46 L2963.16,3313.877 L2963.272,3314.305 L2963.391,3314.756 L2963.496,3315.154 L2963.606,3315.568 L2963.725,3316.01 L2963.833,3316.412 L2963.949,3316.836 L2964.069,3317.277 L2964.182,3317.687 L2964.297,3318.103 L2964.412,3318.519 L2964.528,3318.933 L2964.653,3319.377 L2964.77,3319.79 L2964.892,3320.219 L2965.01,3320.631 L2965.129,3321.042 L2965.254,3321.476 L2965.372,3321.879 L2965.492,3322.288 L2965.621,3322.726 L2965.747,3323.15 L2965.866,3323.55 L2965.988,3323.957 L2966.118,3324.386 L2966.248,3324.814 L2966.371,3325.219 L2966.5,3325.638 L2966.629,3326.058 L2966.761,3326.483 L2966.887,3326.885 L2967.01,3327.279 L2967.149,3327.719 L2967.283,3328.142 L2967.41,3328.541 L2967.543,3328.955 L2967.676,3329.369 L2967.812,3329.79 L2967.946,3330.202 L2968.081,3330.614 L2968.209,3331.002 L2968.347,3331.42 L2968.491,3331.852 L2968.628,3332.261 L2968.767,3332.677 L2968.902,3333.077 L2969.04,3333.485 L2969.182,3333.899 L2969.329,3334.327 L2969.468,3334.732 L2969.6,3335.114 L2969.749,3335.541 L2969.898,3335.967 L2970.036,3336.362 L2970.181,3336.772 L2970.324,3337.173 L2970.464,3337.566 L2970.618,3337.997 L2970.767,3338.411 L2970.911,3338.81 L2971.056,3339.208 L2971.207,3339.62 L2971.364,3340.048 L2971.507,3340.436 L2971.65,3340.824 L2971.809,3341.25 L2971.962,3341.659 L2972.107,3342.044 L2972.267,3342.469 L2972.421,3342.875 L2972.576,3343.282 L2972.726,3343.674 L2972.873,3344.056 L2973.042,3344.491 L2973.198,3344.895 L2973.347,3345.276 L2973.508,3345.687 L2973.678,3346.119 L2973.828,3346.499 L2973.987,3346.899 L2974.146,3347.299 L2974.306,3347.699 L2974.47,3348.106 L2974.631,3348.504 L2974.792,3348.902 L2974.958,3349.308 L2975.129,3349.726 L2975.279,3350.091 L2975.446,3350.495 L2975.619,3350.912 L2975.783,3351.306 L2975.948,3351.699 L2976.109,3352.083 L2976.288,3352.506 L2976.463,3352.919 L2976.62,3353.289 L2976.787,3353.68 L2976.96,3354.082 L2977.137,3354.493 L2977.305,3354.882 L2977.474,3355.27 L2977.653,3355.679 L2977.828,3356.079 L2977.998,3356.465 L2978.169,3356.851 L2978.345,3357.249 L2978.526,3357.655 L2978.698,3358.04 L2978.881,3358.445 L2979.059,3358.84 L2979.228,3359.213 L2979.411,3359.617 L2979.596,3360.02 L2979.776,3360.412 L2979.946,3360.784 L2980.132,3361.185 L2980.318,3361.586 L2980.5,3361.976 L2980.682,3362.366 L2980.865,3362.755 L2981.048,3363.144 L2981.227,3363.521 L2981.421,3363.929 L2981.606,3364.316 L2981.786,3364.692 L2981.981,3365.099 L2982.167,3365.484 L2982.354,3365.869 L2982.551,3366.274 L2982.728,3366.637 L2982.916,3367.02 L2983.12,3367.434 L2983.303,3367.805 L2983.503,3368.208 L2983.698,3368.599 L2983.883,3368.969 L2984.073,3369.349 L2984.264,3369.728 L2984.461,3370.117 L2984.663,3370.516 L2984.861,3370.904 L2985.054,3371.282 L2985.252,3371.669 L2985.451,3372.055 L2985.646,3372.43 L2985.84,3372.806 L2986.046,3373.201 L2986.252,3373.595 L2986.453,3373.978 L2986.644,3374.341 L2986.852,3374.734 L2987.06,3375.126 L2987.252,3375.487 L2987.462,3375.878 L2987.665,3376.258 L2987.859,3376.618 L2988.069,3377.008 L2988.285,3377.406 L2988.486,3377.775 L2988.698,3378.163 L2988.91,3378.549 L2989.106,3378.905 L2989.319,3379.292 L2989.527,3379.667 L2989.735,3380.042 L2989.95,3380.427 L2990.159,3380.8 L2990.369,3381.174 L2990.579,3381.546 L2990.801,3381.938 L2991.012,3382.309 L2991.224,3382.68 L2991.447,3383.07 L2991.659,3383.44 L2991.861,3383.79 L2992.085,3384.179 L2992.31,3384.567 L2992.524,3384.935 L2992.739,3385.302 L2992.948,3385.658 L2993.181,3386.055 L2993.408,3386.44 L2993.611,3386.783 L2993.828,3387.148 L2994.064,3387.543 L2994.286,3387.915 L2994.505,3388.278 L2994.735,3388.661 L2994.959,3389.031 L2995.171,3389.381 L2995.403,3389.762 L2995.624,3390.123 L2995.849,3390.491 L2996.082,3390.87 L2996.309,3391.237 L2996.535,3391.604 L2996.758,3391.963 L2996.993,3392.34 L2997.221,3392.705 L2997.45,3393.069 L2997.687,3393.444 L2997.916,3393.808 L2998.146,3394.171 L2998.376,3394.533 L2998.607,3394.895 L2998.846,3395.268 L2999.078,3395.629 L2999.31,3395.989 L2999.543,3396.349 L2999.788,3396.727 L3000.029,3397.098 L3000.263,3397.456 L3000.49,3397.802 L3000.724,3398.16 L3000.979,3398.547 L3001.215,3398.903 L3001.444,3399.247 L3001.68,3399.603 L3001.93,3399.976 L3002.179,3400.348 L3002.417,3400.702 L3002.648,3401.044 L3002.887,3401.397 L3003.138,3401.768 L3003.39,3402.137 L3003.63,3402.489 L3003.875,3402.846 L3004.128,3403.214 L3004.37,3403.565 L3004.604,3403.903 L3004.85,3404.258 L3005.118,3404.641 L3005.361,3404.99 L3005.597,3405.326 L3005.853,3405.691 L3006.111,3406.055 L3006.36,3406.407 L3006.609,3406.759 L3006.859,3407.109 L3007.097,3407.443 L3007.357,3407.805 L3007.629,3408.183 L3007.88,3408.532 L3008.12,3408.864 L3008.373,3409.212 L3008.638,3409.576 L3008.901,3409.935 L3009.142,3410.265 L3009.396,3410.611 L3009.664,3410.973 L3009.919,3411.318 L3010.175,3411.663 L3010.443,3412.023 L3010.7,3412.367 L3010.944,3412.694 L3011.223,3413.065 L3011.484,3413.412 L3011.743,3413.753 L3012.002,3414.095 L3012.252,3414.423 L3012.533,3414.792 L3012.806,3415.148 L3013.057,3415.475 L3013.318,3415.814 L3013.583,3416.157 L3013.857,3416.511 L3014.129,3416.861 L3014.383,3417.186 L3014.649,3417.526 L3014.925,3417.878 L3015.202,3418.23 L3015.457,3418.553 L3015.712,3418.876 L3016.003,3419.242 L3016.282,3419.592 L3016.549,3419.925 L3016.819,3420.262 L3017.089,3420.598 L3017.347,3420.917 L3017.618,3421.252 L3017.912,3421.615 L3018.194,3421.962 L3018.454,3422.28 L3018.726,3422.613 L3019.012,3422.961 L3019.284,3423.29 L3019.558,3423.622 L3019.835,3423.955 L3020.12,3424.299 L3020.406,3424.642 L3020.682,3424.972 L3020.948,3425.288 L3021.224,3425.617 L3021.502,3425.945 L3021.792,3426.288 L3022.081,3426.628 L3022.36,3426.956 L3022.641,3427.284 L3022.92,3427.61 L3023.2,3427.936 L3023.493,3428.276 L3023.774,3428.601 L3024.045,3428.912 L3024.352,3429.266 L3024.634,3429.589 L3024.917,3429.912 L3025.213,3430.249 L3025.485,3430.558 L3025.771,3430.882 L3026.068,3431.217 L3026.353,3431.538 L3026.639,3431.859 L3026.938,3432.193 L3027.227,3432.515 L3027.514,3432.834 L3027.801,3433.153 L3028.103,3433.487 L3028.405,3433.819 L3028.682,3434.123 L3028.972,3434.441 L3029.263,3434.759 L3029.566,3435.089 L3029.87,3435.419 L3030.162,3435.735 L3030.455,3436.051 L3030.748,3436.366 L3031.041,3436.681 L3031.335,3436.995 L3031.63,3437.309 L3031.937,3437.636 L3032.232,3437.949 L3032.528,3438.261 L3032.837,3438.587 L3033.134,3438.899 L3033.431,3439.21 L3033.742,3439.534 L3034.04,3439.844 L3034.338,3440.154 L3034.637,3440.464 L3034.95,3440.786 L3035.263,3441.108 L3035.537,3441.39 L3035.851,3441.711 L3036.165,3442.031 L3036.454,3442.325 L3036.77,3442.644 L3037.072,3442.95 L3037.376,3443.256 L3037.705,3443.587 L3037.996,3443.878 L3038.288,3444.17 L3038.619,3444.499 L3038.924,3444.802 L3039.23,3445.105 L3039.55,3445.42 L3039.844,3445.709 L3040.164,3446.023 L3040.485,3446.337 L3040.767,3446.612 L3041.089,3446.925 L3041.411,3447.237 L3041.72,3447.536 L3042.03,3447.835 L3042.341,3448.133 L3042.665,3448.443 L3042.976,3448.741 L3043.288,3449.037 L3043.613,3449.347 L3043.926,3449.642 L3044.239,3449.938 L3044.566,3450.245 L3044.879,3450.539 L3045.194,3450.833 L3045.509,3451.127 L3045.824,3451.42 L3046.14,3451.713 L3046.456,3452.005 L3046.786,3452.308 L3047.116,3452.612 L3047.433,3452.902 L3047.751,3453.193 L3048.056,3453.47 L3048.388,3453.771 L3048.722,3454.073 L3049.04,3454.361 L3049.359,3454.648 L3049.682,3454.937 L3050.016,3455.236 L3050.336,3455.521 L3050.657,3455.806 L3050.993,3456.104 L3051.316,3456.389 L3051.625,3456.662 L3051.963,3456.958 L3052.286,3457.24 L3052.609,3457.523 L3052.962,3457.83 L3053.274,3458.1 L3053.599,3458.381 L3053.939,3458.674 L3054.264,3458.954 L3054.59,3459.234 L3054.919,3459.515 L3055.246,3459.793 L3055.586,3460.082 L3055.929,3460.373 L3056.258,3460.65 L3056.586,3460.927 L3056.903,3461.193 L3057.233,3461.469 L3057.576,3461.755 L3057.919,3462.04 L3058.253,3462.317 L3058.585,3462.591 L3058.914,3462.862 L3059.262,3463.148 L3059.595,3463.421 L3059.913,3463.681 L3060.26,3463.963 L3060.622,3464.257 L3060.957,3464.528 L3061.277,3464.786 L3061.613,3465.056 L3061.949,3465.326 L3062.283,3465.592 L3062.633,3465.871 L3062.999,3466.162 L3063.321,3466.418 L3063.644,3466.672 L3063.996,3466.949 L3064.349,3467.226 L3064.689,3467.492 L3065.014,3467.745 L3065.364,3468.017 L3065.718,3468.292 L3066.06,3468.556 L3066.399,3468.818 L3066.726,3469.069 L3067.082,3469.341 L3067.452,3469.623 L3067.78,3469.873 L3068.121,3470.132 L3068.463,3470.39 L3068.809,3470.651 L3069.181,3470.93 L3069.508,3471.175 L3069.851,3471.432 L3070.212,3471.7 L3070.557,3471.956 L3070.902,3472.211 L3071.264,3472.478 L3071.61,3472.733 L3071.94,3472.974 L3072.299,3473.236 L3072.663,3473.502 L3073.011,3473.754 L3073.342,3473.994 L3073.691,3474.246 L3074.07,3474.518 L3074.432,3474.778 L3074.765,3475.016 L3075.116,3475.266 L3075.467,3475.515 L3075.819,3475.764 L3076.184,3476.021 L3076.549,3476.278 L3076.885,3476.513 L3077.233,3476.757 L3077.617,3477.024 L3077.972,3477.271 L3078.31,3477.505 L3078.66,3477.746 L3079.029,3478 L3079.385,3478.244 L3079.737,3478.485 L3080.107,3478.737 L3080.477,3478.988 L3080.831,3479.227 L3081.172,3479.457 L3081.526,3479.696 L3081.899,3479.945 L3082.272,3480.194 L3082.627,3480.431 L3082.971,3480.659 L3083.328,3480.895 L3083.715,3481.15 L3084.072,3481.385 L3084.418,3481.612 L3084.777,3481.846 L3085.148,3482.087 L3085.525,3482.332 L3085.885,3482.565 L3086.246,3482.797 L3086.606,3483.029 L3086.98,3483.267 L3087.341,3483.498 L3087.704,3483.729 L3088.067,3483.959 L3088.43,3484.188 L3088.806,3484.425 L3089.17,3484.653 L3089.535,3484.881 L3089.912,3485.116 L3090.271,3485.339 L3090.637,3485.566 L3091.004,3485.792 L3091.383,3486.025 L3091.751,3486.251 L3092.113,3486.472 L3092.493,3486.703 L3092.844,3486.916 L3093.214,3487.14 L3093.596,3487.37 L3093.96,3487.588 L3094.332,3487.811 L3094.726,3488.046 L3095.091,3488.263 L3095.435,3488.466 L3095.82,3488.694 L3096.217,3488.927 L3096.572,3489.136 L3096.94,3489.35 L3097.308,3489.565 L3097.696,3489.789 L3098.084,3490.014 L3098.434,3490.216 L3098.804,3490.428 L3099.194,3490.651 L3099.565,3490.863 L3099.937,3491.074 L3100.328,3491.295 L3100.701,3491.505 L3101.074,3491.715 L3101.448,3491.924 L3101.833,3492.139 L3102.188,3492.337 L3102.583,3492.555 L3102.989,3492.78 L3103.346,3492.976 L3103.692,3493.166 L3104.1,3493.388 L3104.508,3493.611 L3104.827,3493.784 L3105.237,3494.005 L3105.636,3494.22 L3105.996,3494.413 L3106.367,3494.612 L3106.769,3494.825 L3107.141,3495.023 L3107.514,3495.22 L3107.916,3495.432 L3108.28,3495.622 L3108.694,3495.839 L3109.069,3496.034 L3109.444,3496.229 L3109.82,3496.423 L3110.186,3496.612 L3110.593,3496.821 L3110.97,3497.014 L3111.358,3497.211 L3111.778,3497.424 L3112.146,3497.61 L3112.485,3497.781 L3112.906,3497.992 L3113.317,3498.197 L3113.667,3498.372 L3114.049,3498.561 L3114.462,3498.765 L3114.855,3498.959 L3115.196,3499.126 L3115.621,3499.334 L3116.006,3499.521 L3116.39,3499.707 L3116.817,3499.913 L3117.162,3500.079 L3117.558,3500.269 L3117.945,3500.454 L3118.333,3500.638 L3118.731,3500.826 L3119.119,3501.009 L3119.509,3501.192 L3119.899,3501.375 L3120.289,3501.557 L3120.69,3501.743 L3121.091,3501.928 L3121.441,3502.089 L3121.876,3502.289 L3122.279,3502.473 L3122.64,3502.637 L3123.035,3502.816 L3123.43,3502.994 L3123.835,3503.176 L3124.241,3503.358 L3124.604,3503.52 L3125.002,3503.696 L3125.409,3503.876 L3125.817,3504.056 L3126.217,3504.231 L3126.583,3504.391 L3126.993,3504.569 L3127.403,3504.747 L3127.814,3504.924 L3128.173,3505.078 L3128.542,3505.236 L3128.955,3505.412 L3129.369,3505.587 L3129.792,3505.765 L3130.197,3505.936 L3130.569,3506.091 L3130.985,3506.265 L3131.358,3506.419 L3131.74,3506.577 L3132.192,3506.763 L3132.567,3506.917 L3132.951,3507.073 L3133.37,3507.243 L3133.79,3507.413 L3134.176,3507.568 L3134.553,3507.72 L3134.975,3507.888 L3135.398,3508.056 L3135.777,3508.205 L3136.166,3508.358 L3136.599,3508.528 L3136.98,3508.676 L3137.405,3508.842 L3137.796,3508.993 L3138.179,3509.14 L3138.615,3509.307 L3138.999,3509.453 L3139.428,3509.616 L3139.83,3509.768 L3140.216,3509.913 L3140.603,3510.057 L3141.006,3510.208 L3141.439,3510.368 L3141.872,3510.527 L3142.277,3510.676 L3142.622,3510.802 L3143.065,3510.963 L3143.509,3511.124 L3143.9,3511.265 L3144.264,3511.395 L3144.656,3511.535 L3145.103,3511.693 L3145.558,3511.854 L3145.953,3511.993 L3146.311,3512.118 L3146.715,3512.259 L3147.165,3512.414 L3147.57,3512.554 L3147.976,3512.693 L3148.39,3512.834 L3148.797,3512.972 L3149.197,3513.107 L3149.613,3513.247 L3150.022,3513.384 L3150.432,3513.52 L3150.85,3513.658 L3151.261,3513.793 L3151.673,3513.928 L3152.085,3514.062 L3152.506,3514.198 L3152.919,3514.332 L3153.334,3514.465 L3153.756,3514.599 L3154.179,3514.733 L3154.549,3514.85 L3154.967,3514.981 L3155.437,3515.128 L3155.863,3515.26 L3156.236,3515.375 L3156.61,3515.489 L3157.037,3515.62 L3157.512,3515.764 L3157.895,3515.879 L3158.324,3516.008 L3158.747,3516.134 L3159.125,3516.246 L3159.564,3516.376 L3159.996,3516.503 L3160.422,3516.627 L3160.856,3516.753 L3161.244,3516.864 L3161.679,3516.989 L3162.108,3517.111 L3162.498,3517.222 L3162.895,3517.333 L3163.333,3517.456 L3163.771,3517.578 L3164.211,3517.699 L3164.644,3517.819 L3164.991,3517.913 L3165.439,3518.035 L3165.888,3518.156 L3166.284,3518.262 L3166.721,3518.379 L3167.165,3518.496 L3167.57,3518.603 L3167.975,3518.708 L3168.415,3518.823 L3168.862,3518.938 L3169.275,3519.044 L3169.677,3519.147 L3170.126,3519.26 L3170.53,3519.362 L3170.933,3519.463 L3171.397,3519.578 L3171.802,3519.678 L3172.255,3519.789 L3172.715,3519.9 L3173.076,3519.987 L3173.49,3520.087 L3173.952,3520.197 L3174.409,3520.305 L3174.819,3520.402 L3175.236,3520.499 L3175.659,3520.597 L3176.072,3520.692 L3176.533,3520.797 L3176.958,3520.893 L3177.379,3520.988 L3177.795,3521.081 L3178.217,3521.175 L3178.687,3521.278 L3179.11,3521.371 L3179.535,3521.463 L3180.002,3521.563 L3180.428,3521.654 L3180.812,3521.736 L3181.239,3521.826 L3181.715,3521.925 L3182.144,3522.014 L3182.573,3522.102 L3183.004,3522.19 L3183.387,3522.267 L3183.872,3522.364 L3184.304,3522.45 L3184.738,3522.536 L3185.22,3522.63 L3185.607,3522.705 L3186,3522.781 L3186.484,3522.873 L3186.922,3522.956 L3187.365,3523.039 L3187.804,3523.121 L3188.2,3523.194 L3188.689,3523.283 L3189.131,3523.363 L3189.534,3523.435 L3189.977,3523.514 L3190.421,3523.593 L3190.866,3523.67 L3191.316,3523.748 L3191.719,3523.817 L3192.17,3523.894 L3192.622,3523.97 L3193.071,3524.044 L3193.521,3524.119 L3193.928,3524.185 L3194.388,3524.259 L3194.84,3524.332 L3195.249,3524.397 L3195.707,3524.468 L3196.162,3524.539 L3196.622,3524.61 L3197.086,3524.68 L3197.499,3524.742 L3197.91,3524.803 L3198.373,3524.871 L3198.837,3524.939 L3199.257,3525 L3199.723,3525.066 L3200.186,3525.131 L3200.605,3525.189 L3201.076,3525.254 L3201.497,3525.311 L3201.967,3525.374 L3202.441,3525.437 L3202.816,3525.487 L3203.289,3525.548 L3203.762,3525.608 L3204.189,3525.662 L3204.667,3525.722 L3205.098,3525.775 L3205.526,3525.827 L3206.004,3525.884 L3206.483,3525.941 L3206.917,3525.992 L3207.352,3526.042 L3207.834,3526.096 L3208.268,3526.145 L3208.706,3526.193 L3209.145,3526.241 L3209.63,3526.293 L3210.07,3526.339 L3210.511,3526.385 L3211,3526.435 L3211.443,3526.48 L3211.887,3526.524 L3212.377,3526.572 L3212.823,3526.615 L3213.27,3526.657 L3213.718,3526.698 L3214.166,3526.739 L3214.664,3526.784 L3215.114,3526.823 L3215.563,3526.862 L3216.016,3526.901 L3216.471,3526.939 L3216.925,3526.976 L3217.38,3527.012 L3217.835,3527.048 L3218.339,3527.086 L3218.797,3527.121 L3219.209,3527.151 L3219.719,3527.188 L3220.179,3527.221 L3220.639,3527.252 L3221.102,3527.284 L3221.519,3527.311 L3222.033,3527.344 L3222.499,3527.373 L3222.917,3527.399 L3223.433,3527.429 L3223.901,3527.456 L3224.324,3527.48 L3224.796,3527.506 L3225.315,3527.533 L3225.788,3527.558 L3226.214,3527.579 L3226.69,3527.602 L3227.117,3527.622 L3227.593,3527.643 L3228.12,3527.666 L3228.551,3527.685 L3229.032,3527.704 L3229.512,3527.723 L3229.946,3527.739 L3230.478,3527.758 L3230.962,3527.774 L3231.351,3527.787 L3231.837,3527.802 L3232.373,3527.817 L3232.813,3527.83 L3233.253,3527.841 L3233.792,3527.854 L3234.236,3527.865 L3234.68,3527.874 L3235.221,3527.885 L3235.668,3527.893 L3236.115,3527.9 L3236.612,3527.908 L3237.11,3527.914 L3237.608,3527.92 L3238.06,3527.925 L3238.513,3527.929 L3239.014,3527.933 L3239.469,3527.935 L3239.973,3527.937 L3240.478,3527.938 L3240.936,3527.939 L3241.394,3527.938 L3241.899,3527.937 L3242.403,3527.935 L3242.857,3527.933 L3243.359,3527.929 L3243.812,3527.925 L3244.264,3527.92 L3244.762,3527.914 L3245.26,3527.908 L3245.756,3527.9 L3246.203,3527.893 L3246.65,3527.885 L3247.192,3527.874 L3247.636,3527.865 L3248.08,3527.854 L3248.618,3527.841 L3249.059,3527.83 L3249.499,3527.817 L3250.035,3527.802 L3250.521,3527.787 L3250.91,3527.774 L3251.394,3527.758 L3251.925,3527.739 L3252.359,3527.723 L3252.84,3527.704 L3253.32,3527.685 L3253.752,3527.666 L3254.278,3527.643 L3254.755,3527.622 L3255.182,3527.602 L3255.658,3527.579 L3256.084,3527.558 L3256.556,3527.533 L3257.076,3527.506 L3257.548,3527.48 L3257.97,3527.456 L3258.439,3527.429 L3258.955,3527.399 L3259.373,3527.373 L3259.838,3527.344 L3260.353,3527.311 L3260.77,3527.284 L3261.232,3527.252 L3261.692,3527.221 L3262.155,3527.188 L3262.663,3527.151 L3263.071,3527.121 L3263.531,3527.087 L3264.038,3527.048 L3264.496,3527.012 L3264.949,3526.975 L3265.401,3526.939 L3265.852,3526.901 L3266.306,3526.862 L3266.76,3526.823 L3267.208,3526.784 L3267.708,3526.739 L3268.154,3526.698 L3268.599,3526.657 L3269.048,3526.615 L3269.492,3526.572 L3269.987,3526.524 L3270.429,3526.48 L3270.87,3526.435 L3271.363,3526.385 L3271.801,3526.339 L3272.239,3526.293 L3272.73,3526.241 L3273.166,3526.193 L3273.601,3526.145 L3274.04,3526.096 L3274.522,3526.041 L3274.954,3525.992 L3275.386,3525.941 L3275.864,3525.885 L3276.342,3525.827 L3276.777,3525.775 L3277.211,3525.721 L3277.68,3525.663 L3278.106,3525.609 L3278.586,3525.547 L3279.059,3525.486 L3279.434,3525.437 L3279.898,3525.375 L3280.374,3525.311 L3280.802,3525.253 L3281.264,3525.19 L3281.683,3525.131 L3282.149,3525.066 L3282.615,3525 L3283.031,3524.94 L3283.495,3524.872 L3283.965,3524.803 L3284.379,3524.741 L3284.785,3524.68 L3285.246,3524.61 L3285.706,3524.54 L3286.164,3524.468 L3286.622,3524.397 L3287.031,3524.332 L3287.488,3524.259 L3287.944,3524.185 L3288.35,3524.119 L3288.796,3524.045 L3289.249,3523.97 L3289.71,3523.892 L3290.153,3523.817 L3290.547,3523.749 L3291.006,3523.67 L3291.455,3523.592 L3291.895,3523.514 L3292.342,3523.435 L3292.741,3523.363 L3293.178,3523.284 L3293.671,3523.194 L3294.068,3523.121 L3294.511,3523.038 L3294.945,3522.957 L3295.387,3522.873 L3295.876,3522.78 L3296.26,3522.706 L3296.652,3522.63 L3297.129,3522.537 L3297.567,3522.45 L3298.005,3522.363 L3298.48,3522.268 L3298.868,3522.19 L3299.303,3522.101 L3299.728,3522.014 L3300.162,3521.924 L3300.633,3521.826 L3301.055,3521.737 L3301.438,3521.655 L3301.869,3521.563 L3302.347,3521.46 L3302.756,3521.372 L3303.185,3521.278 L3303.66,3521.173 L3304.066,3521.083 L3304.493,3520.988 L3304.919,3520.892 L3305.333,3520.798 L3305.805,3520.69 L3306.218,3520.596 L3306.63,3520.5 L3307.052,3520.402 L3307.463,3520.305 L3307.92,3520.197 L3308.376,3520.088 L3308.796,3519.987 L3309.168,3519.898 L3309.61,3519.79 L3310.064,3519.679 L3310.481,3519.576 L3310.932,3519.464 L3311.336,3519.363 L3311.751,3519.259 L3312.201,3519.145 L3312.602,3519.043 L3313.003,3518.94 L3313.451,3518.824 L3313.909,3518.705 L3314.308,3518.601 L3314.694,3518.499 L3315.138,3518.382 L3315.594,3518.26 L3315.99,3518.154 L3316.432,3518.035 L3316.874,3517.915 L3317.221,3517.82 L3317.661,3517.699 L3318.113,3517.574 L3318.552,3517.452 L3318.977,3517.333 L3319.367,3517.224 L3319.757,3517.113 L3320.193,3516.989 L3320.628,3516.864 L3321.016,3516.753 L3321.449,3516.627 L3321.882,3516.501 L3322.315,3516.374 L3322.733,3516.251 L3323.117,3516.136 L3323.561,3516.004 L3323.977,3515.879 L3324.36,3515.764 L3324.834,3515.62 L3325.248,3515.494 L3325.643,3515.373 L3326.023,3515.255 L3326.434,3515.128 L3326.891,3514.985 L3327.315,3514.852 L3327.707,3514.729 L3328.116,3514.599 L3328.523,3514.469 L3328.96,3514.329 L3329.366,3514.198 L3329.772,3514.067 L3330.206,3513.926 L3330.611,3513.793 L3331.029,3513.656 L3331.447,3513.517 L3331.849,3513.384 L3332.251,3513.25 L3332.667,3513.11 L3333.082,3512.97 L3333.482,3512.834 L3333.896,3512.693 L3334.309,3512.551 L3334.707,3512.414 L3335.149,3512.261 L3335.561,3512.118 L3335.911,3511.996 L3336.321,3511.851 L3336.777,3511.691 L3337.215,3511.535 L3337.608,3511.395 L3337.955,3511.271 L3338.363,3511.124 L3338.815,3510.96 L3339.25,3510.802 L3339.595,3510.676 L3340,3510.527 L3340.433,3510.368 L3340.865,3510.208 L3341.269,3510.057 L3341.656,3509.913 L3342.041,3509.768 L3342.443,3509.616 L3342.872,3509.453 L3343.256,3509.307 L3343.684,3509.143 L3344.084,3508.989 L3344.466,3508.842 L3344.892,3508.676 L3345.29,3508.521 L3345.697,3508.362 L3346.077,3508.212 L3346.474,3508.056 L3346.896,3507.888 L3347.318,3507.72 L3347.713,3507.561 L3348.09,3507.41 L3348.493,3507.247 L3348.912,3507.077 L3349.305,3506.917 L3349.68,3506.763 L3350.141,3506.574 L3350.514,3506.419 L3350.887,3506.265 L3351.303,3506.091 L3351.675,3505.936 L3352.089,3505.762 L3352.485,3505.595 L3352.916,3505.412 L3353.329,3505.236 L3353.68,3505.086 L3354.067,3504.92 L3354.478,3504.743 L3354.888,3504.565 L3355.298,3504.387 L3355.646,3504.235 L3356.054,3504.056 L3356.462,3503.876 L3356.87,3503.696 L3357.277,3503.516 L3357.621,3503.362 L3358.027,3503.18 L3358.432,3502.998 L3358.837,3502.816 L3359.241,3502.633 L3359.602,3502.468 L3359.986,3502.293 L3360.431,3502.089 L3360.79,3501.924 L3361.172,3501.747 L3361.573,3501.561 L3361.973,3501.375 L3362.373,3501.188 L3362.752,3501.009 L3363.151,3500.822 L3363.529,3500.642 L3363.926,3500.454 L3364.323,3500.264 L3364.7,3500.084 L3365.054,3499.913 L3365.471,3499.712 L3365.866,3499.521 L3366.26,3499.329 L3366.675,3499.126 L3367.027,3498.954 L3367.4,3498.77 L3367.813,3498.566 L3368.204,3498.372 L3368.555,3498.197 L3368.966,3497.992 L3369.377,3497.786 L3369.725,3497.61 L3370.115,3497.413 L3370.524,3497.206 L3370.891,3497.019 L3371.279,3496.821 L3371.686,3496.612 L3372.052,3496.423 L3372.438,3496.224 L3372.803,3496.034 L3373.167,3495.845 L3373.592,3495.622 L3373.955,3495.432 L3374.358,3495.22 L3374.741,3495.017 L3375.103,3494.825 L3375.504,3494.612 L3375.865,3494.419 L3376.225,3494.226 L3376.646,3493.999 L3377.044,3493.784 L3377.363,3493.611 L3377.761,3493.394 L3378.18,3493.166 L3378.537,3492.97 L3378.893,3492.774 L3379.289,3492.555 L3379.684,3492.337 L3380.039,3492.139 L3380.413,3491.931 L3380.808,3491.709 L3381.16,3491.512 L3381.532,3491.301 L3381.946,3491.067 L3382.317,3490.856 L3382.666,3490.657 L3383.056,3490.434 L3383.448,3490.209 L3383.799,3490.008 L3384.165,3489.796 L3384.552,3489.571 L3384.943,3489.344 L3385.31,3489.129 L3385.655,3488.927 L3386.041,3488.7 L3386.426,3488.473 L3386.791,3488.256 L3387.157,3488.039 L3387.517,3487.824 L3387.923,3487.581 L3388.287,3487.363 L3388.646,3487.147 L3389.028,3486.916 L3389.39,3486.696 L3389.748,3486.479 L3390.109,3486.258 L3390.511,3486.011 L3390.867,3485.792 L3391.223,3485.573 L3391.601,3485.339 L3391.96,3485.116 L3392.337,3484.881 L3392.713,3484.646 L3393.066,3484.425 L3393.418,3484.203 L3393.793,3483.966 L3394.168,3483.729 L3394.542,3483.491 L3394.915,3483.252 L3395.265,3483.029 L3395.614,3482.804 L3395.986,3482.565 L3396.358,3482.324 L3396.724,3482.087 L3397.071,3481.861 L3397.441,3481.619 L3397.811,3481.377 L3398.18,3481.135 L3398.544,3480.895 L3398.888,3480.667 L3399.232,3480.439 L3399.6,3480.194 L3399.985,3479.937 L3400.345,3479.696 L3400.687,3479.465 L3401.053,3479.219 L3401.418,3478.972 L3401.753,3478.745 L3402.11,3478.501 L3402.474,3478.252 L3402.855,3477.991 L3403.211,3477.746 L3403.55,3477.513 L3403.912,3477.262 L3404.267,3477.016 L3404.638,3476.757 L3404.999,3476.505 L3405.335,3476.269 L3405.664,3476.038 L3406.04,3475.773 L3406.416,3475.506 L3406.743,3475.274 L3407.094,3475.024 L3407.452,3474.769 L3407.826,3474.501 L3408.168,3474.255 L3408.517,3474.003 L3408.873,3473.745 L3409.221,3473.493 L3409.585,3473.228 L3409.908,3472.992 L3410.262,3472.733 L3410.608,3472.478 L3410.97,3472.211 L3411.315,3471.956 L3411.66,3471.7 L3412.02,3471.432 L3412.364,3471.175 L3412.691,3470.93 L3413.05,3470.66 L3413.433,3470.371 L3413.75,3470.132 L3414.067,3469.892 L3414.432,3469.614 L3414.789,3469.341 L3415.12,3469.088 L3415.485,3468.808 L3415.824,3468.547 L3416.154,3468.292 L3416.508,3468.017 L3416.846,3467.755 L3417.183,3467.492 L3417.536,3467.216 L3417.863,3466.959 L3418.215,3466.682 L3418.575,3466.398 L3418.885,3466.152 L3419.226,3465.881 L3419.601,3465.582 L3419.91,3465.336 L3420.233,3465.076 L3420.607,3464.776 L3420.94,3464.508 L3421.262,3464.247 L3421.599,3463.973 L3421.946,3463.691 L3422.277,3463.421 L3422.622,3463.138 L3422.958,3462.862 L3423.262,3462.612 L3423.631,3462.306 L3423.965,3462.03 L3424.283,3461.765 L3424.626,3461.479 L3424.968,3461.193 L3425.285,3460.927 L3425.601,3460.661 L3425.968,3460.351 L3426.298,3460.072 L3426.613,3459.804 L3426.953,3459.515 L3427.281,3459.234 L3427.595,3458.965 L3427.933,3458.674 L3428.286,3458.37 L3428.598,3458.1 L3428.909,3457.83 L3429.25,3457.534 L3429.586,3457.24 L3429.922,3456.946 L3430.246,3456.662 L3430.555,3456.389 L3430.879,3456.104 L3431.227,3455.795 L3431.535,3455.521 L3431.843,3455.247 L3432.19,3454.937 L3432.525,3454.636 L3432.831,3454.361 L3433.137,3454.085 L3433.471,3453.783 L3433.816,3453.47 L3434.12,3453.193 L3434.438,3452.902 L3434.782,3452.588 L3435.099,3452.297 L3435.39,3452.029 L3435.706,3451.736 L3436.048,3451.42 L3436.363,3451.127 L3436.678,3450.833 L3437.018,3450.515 L3437.332,3450.221 L3437.62,3449.95 L3437.933,3449.655 L3438.245,3449.359 L3438.597,3449.025 L3438.909,3448.728 L3439.194,3448.456 L3439.518,3448.145 L3439.854,3447.822 L3440.164,3447.524 L3440.448,3447.25 L3440.77,3446.937 L3441.092,3446.625 L3441.387,3446.337 L3441.733,3445.998 L3442.054,3445.684 L3442.296,3445.446 L3442.615,3445.131 L3442.96,3444.789 L3443.279,3444.473 L3443.571,3444.182 L3443.862,3443.891 L3444.179,3443.574 L3444.509,3443.243 L3444.812,3442.937 L3445.089,3442.657 L3445.404,3442.338 L3445.719,3442.018 L3446.008,3441.724 L3446.321,3441.403 L3446.622,3441.095 L3446.909,3440.799 L3447.221,3440.477 L3447.533,3440.154 L3447.845,3439.831 L3448.156,3439.507 L3448.441,3439.21 L3448.725,3438.912 L3449.034,3438.587 L3449.344,3438.261 L3449.652,3437.935 L3449.935,3437.636 L3450.229,3437.323 L3450.536,3436.995 L3450.817,3436.695 L3451.124,3436.366 L3451.43,3436.037 L3451.71,3435.735 L3452.015,3435.405 L3452.305,3435.089 L3452.596,3434.773 L3452.899,3434.441 L3453.177,3434.137 L3453.48,3433.805 L3453.794,3433.458 L3454.045,3433.181 L3454.358,3432.834 L3454.67,3432.487 L3454.908,3432.222 L3455.22,3431.873 L3455.531,3431.524 L3455.816,3431.203 L3456.101,3430.882 L3456.373,3430.573 L3456.646,3430.264 L3456.955,3429.912 L3457.263,3429.56 L3457.52,3429.266 L3457.801,3428.942 L3458.097,3428.601 L3458.378,3428.276 L3458.659,3427.951 L3458.964,3427.596 L3459.244,3427.269 L3459.512,3426.956 L3459.79,3426.628 L3460.079,3426.288 L3460.357,3425.96 L3460.634,3425.632 L3460.937,3425.273 L3461.202,3424.956 L3461.453,3424.657 L3461.764,3424.284 L3462.05,3423.94 L3462.288,3423.652 L3462.588,3423.29 L3462.872,3422.945 L3463.145,3422.613 L3463.418,3422.28 L3463.69,3421.946 L3463.972,3421.599 L3464.229,3421.284 L3464.5,3420.949 L3464.795,3420.582 L3465.066,3420.246 L3465.31,3419.941 L3465.589,3419.592 L3465.893,3419.21 L3466.147,3418.891 L3466.389,3418.585 L3466.682,3418.214 L3466.959,3417.862 L3467.21,3417.542 L3467.476,3417.202 L3467.742,3416.861 L3468.027,3416.495 L3468.301,3416.141 L3468.541,3415.831 L3468.814,3415.475 L3469.078,3415.132 L3469.351,3414.776 L3469.608,3414.439 L3469.845,3414.127 L3470.141,3413.737 L3470.412,3413.379 L3470.648,3413.065 L3470.903,3412.727 L3471.172,3412.367 L3471.441,3412.007 L3471.685,3411.679 L3471.953,3411.318 L3472.22,3410.956 L3472.463,3410.628 L3472.729,3410.265 L3472.996,3409.901 L3473.246,3409.559 L3473.487,3409.228 L3473.727,3408.898 L3473.991,3408.532 L3474.255,3408.166 L3474.503,3407.822 L3474.775,3407.443 L3475.037,3407.075 L3475.275,3406.742 L3475.512,3406.407 L3475.749,3406.073 L3476.018,3405.691 L3476.263,3405.343 L3476.498,3405.007 L3476.766,3404.624 L3477.009,3404.275 L3477.268,3403.903 L3477.502,3403.565 L3477.743,3403.214 L3478.009,3402.829 L3478.241,3402.489 L3478.482,3402.137 L3478.722,3401.785 L3478.985,3401.397 L3479.224,3401.044 L3479.454,3400.702 L3479.716,3400.313 L3479.93,3399.994 L3480.167,3399.639 L3480.428,3399.247 L3480.656,3398.903 L3480.916,3398.511 L3481.159,3398.142 L3481.37,3397.82 L3481.597,3397.474 L3481.855,3397.08 L3482.096,3396.709 L3482.329,3396.349 L3482.562,3395.989 L3482.794,3395.629 L3483.026,3395.268 L3483.264,3394.895 L3483.495,3394.533 L3483.726,3394.171 L3483.956,3393.808 L3484.185,3393.444 L3484.422,3393.069 L3484.65,3392.705 L3484.878,3392.34 L3485.09,3392 L3485.348,3391.585 L3485.575,3391.219 L3485.778,3390.889 L3486.011,3390.51 L3486.237,3390.142 L3486.469,3389.762 L3486.7,3389.381 L3486.924,3389.012 L3487.148,3388.642 L3487.378,3388.26 L3487.585,3387.915 L3487.808,3387.543 L3488.043,3387.148 L3488.249,3386.802 L3488.463,3386.44 L3488.691,3386.055 L3488.924,3385.658 L3489.121,3385.321 L3489.347,3384.935 L3489.573,3384.547 L3489.775,3384.198 L3490,3383.81 L3490.224,3383.421 L3490.447,3383.032 L3490.648,3382.68 L3490.849,3382.329 L3491.071,3381.938 L3491.292,3381.546 L3491.491,3381.193 L3491.712,3380.8 L3491.932,3380.407 L3492.136,3380.042 L3492.334,3379.687 L3492.552,3379.292 L3492.777,3378.885 L3492.973,3378.529 L3493.163,3378.183 L3493.385,3377.775 L3493.608,3377.366 L3493.781,3377.047 L3494.002,3376.638 L3494.217,3376.239 L3494.41,3375.878 L3494.609,3375.507 L3494.822,3375.106 L3495.02,3374.734 L3495.217,3374.361 L3495.429,3373.958 L3495.619,3373.595 L3495.836,3373.18 L3496.031,3372.806 L3496.226,3372.43 L3496.42,3372.055 L3496.609,3371.689 L3496.818,3371.282 L3497.011,3370.904 L3497.208,3370.516 L3497.421,3370.097 L3497.607,3369.728 L3497.778,3369.39 L3497.989,3368.969 L3498.194,3368.558 L3498.369,3368.208 L3498.558,3367.826 L3498.762,3367.413 L3498.956,3367.02 L3499.123,3366.678 L3499.331,3366.253 L3499.518,3365.869 L3499.704,3365.484 L3499.91,3365.057 L3500.076,3364.713 L3500.266,3364.316 L3500.451,3363.929 L3500.635,3363.542 L3500.823,3363.144 L3501.006,3362.755 L3501.189,3362.366 L3501.372,3361.976 L3501.554,3361.586 L3501.74,3361.185 L3501.925,3360.784 L3502.086,3360.434 L3502.286,3359.999 L3502.47,3359.596 L3502.634,3359.234 L3502.813,3358.84 L3502.991,3358.445 L3503.173,3358.04 L3503.355,3357.634 L3503.517,3357.27 L3503.693,3356.873 L3503.873,3356.465 L3504.053,3356.057 L3504.228,3355.658 L3504.388,3355.292 L3504.566,3354.882 L3504.744,3354.471 L3504.921,3354.061 L3505.075,3353.701 L3505.233,3353.332 L3505.409,3352.919 L3505.584,3352.506 L3505.762,3352.083 L3505.933,3351.678 L3506.088,3351.306 L3506.262,3350.89 L3506.416,3350.517 L3506.574,3350.135 L3506.76,3349.683 L3506.914,3349.308 L3507.07,3348.924 L3507.24,3348.504 L3507.41,3348.084 L3507.565,3347.699 L3507.717,3347.321 L3507.885,3346.899 L3508.053,3346.477 L3508.202,3346.097 L3508.355,3345.709 L3508.525,3345.276 L3508.673,3344.895 L3508.839,3344.469 L3508.99,3344.078 L3509.137,3343.696 L3509.304,3343.259 L3509.45,3342.875 L3509.613,3342.446 L3509.765,3342.044 L3509.91,3341.659 L3510.054,3341.272 L3510.205,3340.868 L3510.365,3340.436 L3510.524,3340.003 L3510.673,3339.598 L3510.799,3339.253 L3510.96,3338.81 L3511.121,3338.366 L3511.262,3337.974 L3511.392,3337.611 L3511.532,3337.218 L3511.69,3336.772 L3511.851,3336.317 L3511.99,3335.922 L3512.115,3335.564 L3512.256,3335.16 L3512.411,3334.71 L3512.551,3334.305 L3512.69,3333.899 L3512.831,3333.485 L3512.969,3333.078 L3513.104,3332.677 L3513.244,3332.261 L3513.381,3331.852 L3513.517,3331.442 L3513.655,3331.025 L3513.79,3330.614 L3513.925,3330.202 L3514.059,3329.79 L3514.195,3329.369 L3514.329,3328.955 L3514.462,3328.541 L3514.596,3328.119 L3514.73,3327.696 L3514.847,3327.325 L3514.978,3326.908 L3515.125,3326.437 L3515.257,3326.012 L3515.372,3325.638 L3515.486,3325.265 L3515.617,3324.837 L3515.761,3324.363 L3515.876,3323.98 L3516.005,3323.55 L3516.131,3323.127 L3516.243,3322.749 L3516.373,3322.311 L3516.5,3321.879 L3516.624,3321.452 L3516.75,3321.019 L3516.861,3320.631 L3516.986,3320.196 L3517.108,3319.767 L3517.219,3319.377 L3517.33,3318.98 L3517.453,3318.542 L3517.575,3318.103 L3517.696,3317.664 L3517.816,3317.23 L3517.91,3316.883 L3518.032,3316.435 L3518.153,3315.987 L3518.259,3315.591 L3518.376,3315.154 L3518.493,3314.709 L3518.6,3314.305 L3518.705,3313.9 L3518.82,3313.46 L3518.935,3313.012 L3519.041,3312.599 L3519.144,3312.198 L3519.257,3311.748 L3519.359,3311.345 L3519.46,3310.941 L3519.575,3310.478 L3519.675,3310.072 L3519.786,3309.619 L3519.897,3309.159 L3519.984,3308.799 L3520.084,3308.385 L3520.194,3307.923 L3520.302,3307.466 L3520.399,3307.055 L3520.496,3306.638 L3520.594,3306.215 L3520.689,3305.803 L3520.794,3305.341 L3520.89,3304.916 L3520.985,3304.496 L3521.078,3304.08 L3521.172,3303.658 L3521.275,3303.188 L3521.368,3302.764 L3521.46,3302.34 L3521.56,3301.872 L3521.651,3301.447 L3521.733,3301.063 L3521.823,3300.635 L3521.922,3300.16 L3522.011,3299.731 L3522.099,3299.301 L3522.187,3298.871 L3522.264,3298.488 L3522.361,3298.003 L3522.447,3297.57 L3522.533,3297.137 L3522.627,3296.655 L3522.702,3296.267 L3522.778,3295.875 L3522.87,3295.39 L3522.953,3294.953 L3523.036,3294.51 L3523.118,3294.071 L3523.191,3293.674 L3523.28,3293.185 L3523.36,3292.744 L3523.432,3292.341 L3523.511,3291.898 L3523.59,3291.454 L3523.667,3291.009 L3523.745,3290.559 L3523.814,3290.156 L3523.891,3289.705 L3523.967,3289.252 L3524.041,3288.803 L3524.116,3288.353 L3524.182,3287.947 L3524.256,3287.487 L3524.329,3287.035 L3524.394,3286.626 L3524.465,3286.168 L3524.536,3285.712 L3524.607,3285.253 L3524.677,3284.788 L3524.739,3284.375 L3524.8,3283.965 L3524.868,3283.502 L3524.936,3283.038 L3524.997,3282.618 L3525.063,3282.152 L3525.128,3281.689 L3525.186,3281.27 L3525.251,3280.798 L3525.308,3280.377 L3525.371,3279.907 L3525.434,3279.433 L3525.484,3279.058 L3525.545,3278.586 L3525.605,3278.112 L3525.659,3277.686 L3525.719,3277.208 L3525.772,3276.777 L3525.824,3276.348 L3525.881,3275.87 L3525.938,3275.391 L3525.989,3274.957 L3526.039,3274.522 L3526.093,3274.04 L3526.142,3273.606 L3526.19,3273.169 L3526.238,3272.73 L3526.29,3272.245 L3526.336,3271.804 L3526.382,3271.363 L3526.432,3270.875 L3526.477,3270.432 L3526.521,3269.988 L3526.569,3269.497 L3526.612,3269.051 L3526.654,3268.605 L3526.695,3268.157 L3526.736,3267.709 L3526.781,3267.211 L3526.82,3266.761 L3526.859,3266.311 L3526.898,3265.859 L3526.936,3265.404 L3526.973,3264.95 L3527.009,3264.495 L3527.045,3264.039 L3527.083,3263.536 L3527.118,3263.078 L3527.148,3262.666 L3527.185,3262.156 L3527.218,3261.695 L3527.249,3261.235 L3527.281,3260.773 L3527.308,3260.356 L3527.341,3259.841 L3527.37,3259.376 L3527.396,3258.958 L3527.426,3258.442 L3527.453,3257.973 L3527.477,3257.551 L3527.503,3257.079 L3527.53,3256.559 L3527.555,3256.087 L3527.576,3255.661 L3527.599,3255.185 L3527.619,3254.758 L3527.64,3254.281 L3527.663,3253.755 L3527.682,3253.323 L3527.701,3252.843 L3527.72,3252.362 L3527.736,3251.928 L3527.755,3251.397 L3527.771,3250.913 L3527.784,3250.524 L3527.799,3250.038 L3527.814,3249.502 L3527.827,3249.062 L3527.838,3248.621 L3527.851,3248.083 L3527.862,3247.639 L3527.871,3247.195 L3527.882,3246.653 L3527.89,3246.206 L3527.897,3245.759 L3527.905,3245.263 L3527.911,3244.765 L3527.917,3244.267 L3527.922,3243.815 L3527.926,3243.362 L3527.93,3242.86 L3527.932,3242.406 L3527.934,3241.902 L3527.935,3241.397 L3527.936,3240.939 L3527.935,3240.481 L3527.934,3239.976 L3527.932,3239.472 L3527.93,3239.017 L3527.926,3238.516 L3527.922,3238.063 L3527.917,3237.611 L3527.911,3237.113 L3527.905,3236.615 L3527.897,3236.118 L3527.89,3235.671 L3527.882,3235.224 L3527.871,3234.683 L3527.862,3234.239 L3527.851,3233.795 L3527.838,3233.256 L3527.827,3232.816 L3527.814,3232.376 L3527.799,3231.84 L3527.784,3231.354 L3527.771,3230.965 L3527.755,3230.481 L3527.736,3229.949 L3527.72,3229.515 L3527.701,3229.035 L3527.682,3228.554 L3527.663,3228.123 L3527.64,3227.596 L3527.619,3227.12 L3527.599,3226.693 L3527.576,3226.217 L3527.555,3225.791 L3527.53,3225.318 L3527.503,3224.799 L3527.477,3224.327 L3527.453,3223.904 L3527.426,3223.436 L3527.396,3222.92 L3527.37,3222.502 L3527.341,3222.036 L3527.308,3221.522 L3527.281,3221.105 L3527.249,3220.642 L3527.218,3220.182 L3527.185,3219.722 L3527.148,3219.212 L3527.118,3218.8 L3527.083,3218.342 L3527.045,3217.838 L3527.009,3217.383 L3526.973,3216.928 L3526.936,3216.474 L3526.898,3216.019 L3526.859,3215.566 L3526.82,3215.117 L3526.781,3214.667 L3526.736,3214.169 L3526.695,3213.721 L3526.654,3213.273 L3526.612,3212.826 L3526.569,3212.38 L3526.521,3211.89 L3526.477,3211.446 L3526.432,3211.003 L3526.382,3210.514 L3526.336,3210.073 L3526.29,3209.633 L3526.238,3209.148 L3526.19,3208.709 L3526.142,3208.271 L3526.093,3207.837 L3526.039,3207.355 L3525.989,3206.92 L3525.938,3206.486 L3525.881,3206.007 L3525.824,3205.529 L3525.772,3205.101 L3525.719,3204.67 L3525.659,3204.192 L3525.605,3203.765 L3525.545,3203.292 L3525.484,3202.819 L3525.434,3202.444 L3525.371,3201.97 L3525.308,3201.5 L3525.251,3201.079 L3525.186,3200.608 L3525.128,3200.189 L3525.063,3199.726 L3524.997,3199.26 L3524.936,3198.84 L3524.868,3198.376 L3524.8,3197.913 L3524.739,3197.502 L3524.677,3197.089 L3524.607,3196.625 L3524.536,3196.165 L3524.465,3195.71 L3524.394,3195.252 L3524.329,3194.843 L3524.256,3194.391 L3524.182,3193.931 L3524.116,3193.524 L3524.041,3193.074 L3523.967,3192.625 L3523.891,3192.173 L3523.814,3191.722 L3523.745,3191.319 L3523.667,3190.869 L3523.59,3190.424 L3523.511,3189.98 L3523.432,3189.537 L3523.36,3189.134 L3523.28,3188.692 L3523.191,3188.203 L3523.118,3187.807 L3523.036,3187.368 L3522.953,3186.925 L3522.87,3186.487 L3522.778,3186.003 L3522.702,3185.61 L3522.627,3185.223 L3522.533,3184.741 L3522.447,3184.307 L3522.361,3183.875 L3522.264,3183.39 L3522.187,3183.007 L3522.099,3182.576 L3522.011,3182.147 L3521.922,3181.718 L3521.823,3181.242 L3521.733,3180.815 L3521.651,3180.431 L3521.56,3180.005 L3521.46,3179.538 L3521.368,3179.113 L3521.275,3178.69 L3521.172,3178.22 L3521.078,3177.798 L3520.985,3177.382 L3520.89,3176.961 L3520.794,3176.536 L3520.689,3176.075 L3520.594,3175.662 L3520.496,3175.239 L3520.399,3174.822 L3520.302,3174.412 L3520.194,3173.955 L3520.084,3173.493 L3519.984,3173.079 L3519.897,3172.718 L3519.786,3172.258 L3519.675,3171.805 L3519.575,3171.4 L3519.46,3170.936 L3519.359,3170.533 L3519.257,3170.129 L3519.144,3169.68 L3519.041,3169.278 L3518.935,3168.865 L3518.82,3168.418 L3518.705,3167.978 L3518.6,3167.573 L3518.493,3167.168 L3518.376,3166.724 L3518.259,3166.287 L3518.153,3165.891 L3518.032,3165.442 L3517.91,3164.994 L3517.816,3164.647 L3517.696,3164.214 L3517.575,3163.774 L3517.453,3163.336 L3517.33,3162.898 L3517.219,3162.501 L3517.108,3162.111 L3516.986,3161.682 L3516.861,3161.247 L3516.75,3160.859 L3516.624,3160.425 L3516.5,3159.999 L3516.373,3159.567 L3516.243,3159.128 L3516.131,3158.75 L3516.005,3158.327 L3515.876,3157.898 L3515.761,3157.515 L3515.617,3157.04 L3515.486,3156.613 L3515.372,3156.239 L3515.257,3155.866 L3515.125,3155.44 L3514.978,3154.97 L3514.847,3154.552 L3514.73,3154.182 L3514.596,3153.759 L3514.462,3153.337 L3514.329,3152.922 L3514.195,3152.509 L3514.059,3152.088 L3513.925,3151.676 L3513.79,3151.264 L3513.655,3150.853 L3513.517,3150.435 L3513.381,3150.025 L3513.244,3149.616 L3513.104,3149.2 L3512.969,3148.8 L3512.831,3148.393 L3512.69,3147.979 L3512.551,3147.573 L3512.411,3147.168 L3512.256,3146.718 L3512.115,3146.314 L3511.99,3145.956 L3511.851,3145.561 L3511.69,3145.106 L3511.532,3144.659 L3511.392,3144.267 L3511.262,3143.903 L3511.121,3143.512 L3510.96,3143.068 L3510.799,3142.625 L3510.673,3142.28 L3510.524,3141.875 L3510.365,3141.442 L3510.205,3141.009 L3510.054,3140.606 L3509.91,3140.219 L3509.765,3139.833 L3509.613,3139.431 L3509.45,3139.002 L3509.304,3138.618 L3509.137,3138.182 L3508.99,3137.799 L3508.839,3137.408 L3508.673,3136.983 L3508.525,3136.602 L3508.355,3136.169 L3508.202,3135.78 L3508.053,3135.401 L3507.885,3134.978 L3507.717,3134.556 L3507.565,3134.179 L3507.41,3133.793 L3507.24,3133.373 L3507.07,3132.954 L3506.914,3132.57 L3506.76,3132.195 L3506.574,3131.743 L3506.416,3131.361 L3506.262,3130.988 L3506.088,3130.572 L3505.933,3130.2 L3505.762,3129.795 L3505.584,3129.372 L3505.409,3128.958 L3505.233,3128.545 L3505.075,3128.176 L3504.921,3127.817 L3504.744,3127.406 L3504.566,3126.996 L3504.388,3126.586 L3504.228,3126.22 L3504.053,3125.82 L3503.873,3125.412 L3503.693,3125.005 L3503.517,3124.607 L3503.355,3124.244 L3503.173,3123.838 L3502.991,3123.433 L3502.813,3123.038 L3502.634,3122.643 L3502.47,3122.282 L3502.286,3121.879 L3502.086,3121.444 L3501.925,3121.094 L3501.74,3120.693 L3501.554,3120.292 L3501.372,3119.902 L3501.189,3119.512 L3501.006,3119.122 L3500.823,3118.734 L3500.635,3118.336 L3500.448,3117.943 L3500.264,3117.556 L3500.078,3117.17 L3499.913,3116.825 L3499.707,3116.398 L3499.518,3116.009 L3499.328,3115.619 L3499.123,3115.199 L3498.956,3114.858 L3498.765,3114.47 L3498.556,3114.047 L3498.366,3113.665 L3498.2,3113.33 L3497.989,3112.909 L3497.778,3112.488 L3497.607,3112.149 L3497.416,3111.77 L3497.206,3111.356 L3497.013,3110.978 L3496.823,3110.606 L3496.609,3110.189 L3496.415,3109.813 L3496.226,3109.447 L3496.031,3109.072 L3495.836,3108.697 L3495.622,3108.288 L3495.429,3107.919 L3495.214,3107.511 L3495.02,3107.144 L3494.825,3106.777 L3494.609,3106.37 L3494.413,3106.005 L3494.214,3105.634 L3493.999,3105.234 L3493.784,3104.836 L3493.605,3104.506 L3493.385,3104.103 L3493.169,3103.706 L3492.97,3103.343 L3492.774,3102.987 L3492.555,3102.591 L3492.331,3102.186 L3492.133,3101.831 L3491.935,3101.476 L3491.715,3101.083 L3491.495,3100.69 L3491.292,3100.331 L3491.071,3099.94 L3490.849,3099.549 L3490.645,3099.192 L3490.444,3098.841 L3490.224,3098.457 L3490,3098.068 L3489.775,3097.68 L3489.573,3097.33 L3489.347,3096.943 L3489.125,3096.562 L3488.921,3096.214 L3488.694,3095.828 L3488.47,3095.449 L3488.242,3095.064 L3488.04,3094.724 L3487.811,3094.34 L3487.582,3093.957 L3487.382,3093.624 L3487.155,3093.247 L3486.924,3092.866 L3486.693,3092.485 L3486.465,3092.11 L3486.24,3091.741 L3486.011,3091.368 L3485.782,3090.995 L3485.575,3090.659 L3485.341,3090.281 L3485.087,3089.872 L3484.882,3089.544 L3484.654,3089.179 L3484.422,3088.809 L3484.189,3088.439 L3483.956,3088.07 L3483.726,3087.707 L3483.495,3087.344 L3483.257,3086.971 L3483.026,3086.609 L3482.798,3086.254 L3482.562,3085.888 L3482.325,3085.522 L3482.092,3085.163 L3481.858,3084.804 L3481.605,3084.415 L3481.37,3084.057 L3481.155,3083.73 L3480.92,3083.373 L3480.66,3082.98 L3480.424,3082.624 L3480.163,3082.233 L3479.93,3081.884 L3479.72,3081.571 L3479.454,3081.175 L3479.216,3080.822 L3478.985,3080.48 L3478.722,3080.092 L3478.482,3079.74 L3478.245,3079.394 L3478.009,3079.049 L3477.743,3078.663 L3477.506,3078.319 L3477.268,3077.975 L3477.001,3077.591 L3476.766,3077.254 L3476.503,3076.876 L3476.259,3076.528 L3476.018,3076.187 L3475.758,3075.817 L3475.516,3075.476 L3475.275,3075.136 L3475.033,3074.796 L3474.766,3074.423 L3474.503,3074.056 L3474.259,3073.717 L3473.991,3073.345 L3473.727,3072.98 L3473.487,3072.649 L3473.241,3072.312 L3473,3071.982 L3472.734,3071.619 L3472.463,3071.25 L3472.22,3070.921 L3471.953,3070.56 L3471.685,3070.198 L3471.436,3069.865 L3471.167,3069.504 L3470.903,3069.151 L3470.658,3068.825 L3470.412,3068.499 L3470.141,3068.141 L3469.845,3067.75 L3469.598,3067.426 L3469.356,3067.108 L3469.088,3066.758 L3468.81,3066.396 L3468.541,3066.047 L3468.297,3065.731 L3468.022,3065.377 L3467.752,3065.029 L3467.476,3064.676 L3467.205,3064.329 L3466.959,3064.015 L3466.687,3063.67 L3466.389,3063.293 L3466.137,3062.974 L3465.888,3062.661 L3465.594,3062.292 L3465.32,3061.949 L3465.066,3061.632 L3464.795,3061.296 L3464.5,3060.929 L3464.219,3060.581 L3463.967,3060.272 L3463.695,3059.938 L3463.423,3059.604 L3463.145,3059.265 L3462.867,3058.926 L3462.593,3058.594 L3462.294,3058.232 L3462.039,3057.925 L3461.759,3057.588 L3461.463,3057.233 L3461.213,3056.934 L3460.931,3056.598 L3460.629,3056.239 L3460.352,3055.911 L3460.074,3055.583 L3459.801,3055.262 L3459.523,3054.935 L3459.238,3054.602 L3458.959,3054.276 L3458.659,3053.927 L3458.384,3053.608 L3458.103,3053.283 L3457.796,3052.929 L3457.514,3052.606 L3457.263,3052.318 L3456.96,3051.972 L3456.651,3051.62 L3456.368,3051.298 L3456.089,3050.983 L3455.816,3050.675 L3455.531,3050.354 L3455.22,3050.005 L3454.92,3049.669 L3454.665,3049.384 L3454.358,3049.043 L3454.05,3048.703 L3453.788,3048.413 L3453.486,3048.08 L3453.183,3047.747 L3452.894,3047.43 L3452.584,3047.092 L3452.305,3046.789 L3452.027,3046.486 L3451.716,3046.149 L3451.43,3045.841 L3451.124,3045.512 L3450.811,3045.177 L3450.53,3044.876 L3450.223,3044.548 L3449.935,3044.242 L3449.652,3043.943 L3449.344,3043.616 L3449.034,3043.291 L3448.725,3042.965 L3448.441,3042.668 L3448.156,3042.37 L3447.845,3042.047 L3447.533,3041.723 L3447.228,3041.407 L3446.915,3041.085 L3446.622,3040.783 L3446.315,3040.468 L3446.008,3040.154 L3445.719,3039.86 L3445.404,3039.54 L3445.096,3039.227 L3444.812,3038.94 L3444.496,3038.622 L3444.186,3038.31 L3443.875,3037.999 L3443.558,3037.682 L3443.272,3037.398 L3442.96,3037.088 L3442.622,3036.753 L3442.309,3036.445 L3442.047,3036.187 L3441.733,3035.88 L3441.393,3035.547 L3441.079,3035.24 L3440.763,3034.934 L3440.455,3034.634 L3440.164,3034.354 L3439.854,3034.055 L3439.511,3033.726 L3439.194,3033.422 L3438.909,3033.149 L3438.59,3032.846 L3438.252,3032.525 L3437.94,3032.229 L3437.627,3031.934 L3437.332,3031.657 L3437.018,3031.363 L3436.678,3031.044 L3436.356,3030.744 L3436.048,3030.458 L3435.706,3030.141 L3435.39,3029.849 L3435.099,3029.581 L3434.782,3029.29 L3434.438,3028.975 L3434.12,3028.685 L3433.808,3028.401 L3433.464,3028.088 L3433.151,3027.806 L3432.831,3027.517 L3432.511,3027.229 L3432.197,3026.947 L3431.857,3026.643 L3431.542,3026.363 L3431.22,3026.076 L3430.879,3025.774 L3430.563,3025.495 L3430.239,3025.21 L3429.922,3024.931 L3429.579,3024.631 L3429.235,3024.331 L3428.924,3024.06 L3428.605,3023.784 L3428.278,3023.501 L3427.933,3023.203 L3427.595,3022.912 L3427.281,3022.644 L3426.96,3022.369 L3426.613,3022.073 L3426.291,3021.8 L3425.975,3021.533 L3425.609,3021.223 L3425.285,3020.951 L3424.968,3020.685 L3424.618,3020.392 L3424.275,3020.106 L3423.958,3019.842 L3423.639,3019.578 L3423.269,3019.272 L3422.942,3019.003 L3422.63,3018.746 L3422.284,3018.463 L3421.938,3018.18 L3421.592,3017.898 L3421.27,3017.637 L3420.948,3017.376 L3420.599,3017.096 L3420.233,3016.801 L3419.918,3016.548 L3419.593,3016.289 L3419.218,3015.99 L3418.901,3015.738 L3418.575,3015.48 L3418.207,3015.189 L3417.863,3014.918 L3417.536,3014.662 L3417.191,3014.392 L3416.846,3014.123 L3416.5,3013.854 L3416.154,3013.586 L3415.832,3013.337 L3415.485,3013.07 L3415.104,3012.777 L3414.789,3012.536 L3414.449,3012.277 L3414.067,3011.986 L3413.742,3011.74 L3413.425,3011.5 L3413.058,3011.223 L3412.707,3010.96 L3412.356,3010.696 L3412.012,3010.44 L3411.66,3010.178 L3411.315,3009.922 L3410.97,3009.667 L3410.616,3009.406 L3410.27,3009.151 L3409.899,3008.879 L3409.577,3008.644 L3409.229,3008.391 L3408.873,3008.132 L3408.5,3007.862 L3408.16,3007.617 L3407.835,3007.383 L3407.46,3007.115 L3407.086,3006.847 L3406.743,3006.603 L3406.416,3006.371 L3406.04,3006.105 L3405.672,3005.845 L3405.344,3005.614 L3404.99,3005.367 L3404.621,3005.108 L3404.275,3004.868 L3403.921,3004.621 L3403.55,3004.365 L3403.203,3004.125 L3402.855,3003.886 L3402.483,3003.631 L3402.102,3003.371 L3401.753,3003.133 L3401.436,3002.918 L3401.062,3002.665 L3400.678,3002.406 L3400.327,3002.17 L3399.985,3001.94 L3399.609,3001.689 L3399.232,3001.439 L3398.888,3001.21 L3398.544,3000.982 L3398.189,3000.749 L3397.811,3000.5 L3397.432,3000.252 L3397.062,3000.011 L3396.715,2999.785 L3396.367,2999.559 L3395.996,2999.319 L3395.614,2999.073 L3395.265,2998.849 L3394.915,2998.625 L3394.542,2998.387 L3394.159,2998.143 L3393.784,2997.906 L3393.418,2997.675 L3393.075,2997.459 L3392.722,2997.238 L3392.337,2996.996 L3391.969,2996.767 L3391.591,2996.533 L3391.213,2996.299 L3390.867,2996.085 L3390.52,2995.872 L3390.118,2995.625 L3389.738,2995.393 L3389.39,2995.181 L3389.018,2994.956 L3388.646,2994.731 L3388.287,2994.514 L3387.914,2994.29 L3387.527,2994.059 L3387.166,2993.844 L3386.791,2993.621 L3386.416,2993.399 L3386.041,2993.177 L3385.674,2992.962 L3385.31,2992.749 L3384.933,2992.528 L3384.543,2992.301 L3384.174,2992.087 L3383.818,2991.881 L3383.439,2991.663 L3383.046,2991.438 L3382.666,2991.22 L3382.308,2991.016 L3381.936,2990.805 L3381.542,2990.582 L3381.169,2990.371 L3380.818,2990.174 L3380.413,2989.947 L3380.039,2989.738 L3379.664,2989.53 L3379.289,2989.322 L3378.923,2989.12 L3378.537,2988.908 L3378.16,2988.701 L3377.771,2988.489 L3377.383,2988.278 L3377.015,2988.078 L3376.646,2987.878 L3376.235,2987.657 L3375.865,2987.459 L3375.494,2987.261 L3375.113,2987.058 L3374.731,2986.855 L3374.338,2986.647 L3373.965,2986.451 L3373.592,2986.255 L3373.187,2986.044 L3372.813,2985.849 L3372.438,2985.654 L3372.041,2985.449 L3371.666,2985.255 L3371.279,2985.057 L3370.891,2984.859 L3370.513,2984.666 L3370.135,2984.474 L3369.746,2984.278 L3369.346,2984.076 L3368.966,2983.886 L3368.585,2983.696 L3368.194,2983.501 L3367.803,2983.306 L3367.41,2983.113 L3367.038,2982.929 L3366.644,2982.736 L3366.26,2982.549 L3365.866,2982.357 L3365.471,2982.166 L3365.096,2981.984 L3364.7,2981.794 L3364.313,2981.609 L3363.916,2981.419 L3363.529,2981.235 L3363.151,2981.056 L3362.742,2980.863 L3362.362,2980.685 L3361.973,2980.503 L3361.583,2980.321 L3361.183,2980.135 L3360.79,2979.954 L3360.399,2979.774 L3360.007,2979.594 L3359.623,2979.419 L3359.23,2979.24 L3358.826,2979.057 L3358.432,2978.879 L3358.038,2978.702 L3357.632,2978.52 L3357.255,2978.353 L3356.859,2978.177 L3356.462,2978.001 L3356.065,2977.826 L3355.667,2977.652 L3355.277,2977.481 L3354.888,2977.313 L3354.488,2977.14 L3354.088,2976.967 L3353.68,2976.792 L3353.297,2976.628 L3352.895,2976.457 L3352.474,2976.278 L3352.1,2976.121 L3351.696,2975.951 L3351.303,2975.786 L3350.909,2975.622 L3350.503,2975.454 L3350.108,2975.291 L3349.701,2975.123 L3349.305,2974.961 L3348.901,2974.796 L3348.493,2974.631 L3348.101,2974.472 L3347.713,2974.316 L3347.296,2974.149 L3346.896,2973.99 L3346.496,2973.831 L3346.077,2973.665 L3345.686,2973.512 L3345.301,2973.361 L3344.881,2973.197 L3344.477,2973.04 L3344.084,2972.888 L3343.673,2972.73 L3343.268,2972.575 L3342.861,2972.42 L3342.466,2972.27 L3342.052,2972.114 L3341.644,2971.961 L3341.247,2971.812 L3340.832,2971.658 L3340.433,2971.51 L3340.034,2971.362 L3339.617,2971.21 L3339.216,2971.063 L3338.815,2970.917 L3338.396,2970.766 L3337.978,2970.615 L3337.574,2970.471 L3337.181,2970.331 L3336.777,2970.187 L3336.355,2970.038 L3335.945,2969.894 L3335.538,2969.752 L3335.126,2969.608 L3334.718,2969.467 L3334.321,2969.33 L3333.907,2969.189 L3333.482,2969.043 L3333.082,2968.908 L3332.667,2968.768 L3332.239,2968.624 L3331.838,2968.49 L3331.447,2968.36 L3331.029,2968.222 L3330.599,2968.081 L3330.195,2967.948 L3329.772,2967.81 L3329.366,2967.679 L3328.96,2967.548 L3328.535,2967.412 L3328.127,2967.282 L3327.719,2967.153 L3327.292,2967.018 L3326.868,2966.885 L3326.469,2966.761 L3326.069,2966.637 L3325.643,2966.505 L3325.201,2966.37 L3324.8,2966.247 L3324.394,2966.124 L3323.966,2965.995 L3323.561,2965.874 L3323.129,2965.745 L3322.698,2965.617 L3322.303,2965.5 L3321.894,2965.38 L3321.461,2965.254 L3321.039,2965.132 L3320.628,2965.013 L3320.204,2964.892 L3319.78,2964.771 L3319.356,2964.651 L3318.942,2964.534 L3318.54,2964.422 L3318.113,2964.303 L3317.684,2964.185 L3317.268,2964.07 L3316.839,2963.953 L3316.421,2963.84 L3315.99,2963.723 L3315.571,2963.611 L3315.138,2963.496 L3314.717,2963.384 L3314.32,2963.28 L3313.886,2963.166 L3313.451,2963.053 L3313.039,2962.947 L3312.602,2962.835 L3312.177,2962.727 L3311.775,2962.625 L3311.336,2962.514 L3310.897,2962.405 L3310.481,2962.301 L3310.052,2962.196 L3309.622,2962.09 L3309.215,2961.991 L3308.784,2961.887 L3308.341,2961.781 L3307.908,2961.678 L3307.487,2961.578 L3307.076,2961.482 L3306.642,2961.38 L3306.206,2961.279 L3305.781,2961.182 L3305.345,2961.082 L3304.919,2960.985 L3304.493,2960.89 L3304.055,2960.792 L3303.625,2960.696 L3303.197,2960.602 L3302.768,2960.508 L3302.335,2960.415 L3301.905,2960.322 L3301.474,2960.23 L3301.031,2960.136 L3300.609,2960.047 L3300.174,2959.956 L3299.74,2959.867 L3299.315,2959.779 L3298.868,2959.688 L3298.432,2959.6 L3298.005,2959.514 L3297.567,2959.427 L3297.129,2959.341 L3296.7,2959.257 L3296.26,2959.171 L3295.828,2959.088 L3295.387,2959.004 L3294.957,2958.923 L3294.523,2958.842 L3294.08,2958.759 L3293.635,2958.677 L3293.19,2958.596 L3292.777,2958.521 L3292.33,2958.441 L3291.883,2958.361 L3291.455,2958.286 L3291.018,2958.21 L3290.559,2958.13 L3290.129,2958.057 L3289.698,2957.983 L3289.237,2957.906 L3288.808,2957.835 L3288.374,2957.763 L3287.919,2957.689 L3287.476,2957.617 L3287.044,2957.548 L3286.598,2957.477 L3286.152,2957.407 L3285.706,2957.338 L3285.258,2957.269 L3284.822,2957.203 L3284.391,2957.138 L3283.941,2957.071 L3283.483,2957.004 L3283.043,2956.94 L3282.591,2956.875 L3282.149,2956.812 L3281.707,2956.75 L3281.251,2956.686 L3280.814,2956.626 L3280.362,2956.565 L3279.91,2956.504 L3279.47,2956.445 L3279.022,2956.387 L3278.574,2956.329 L3278.118,2956.27 L3277.668,2956.214 L3277.223,2956.158 L3276.765,2956.102 L3276.318,2956.047 L3275.877,2955.994 L3275.41,2955.939 L3274.954,2955.886 L3274.522,2955.836 L3274.064,2955.784 L3273.601,2955.732 L3273.166,2955.684 L3272.705,2955.634 L3272.239,2955.584 L3271.801,2955.538 L3271.338,2955.49 L3270.882,2955.443 L3270.429,2955.398 L3269.975,2955.353 L3269.516,2955.308 L3269.06,2955.264 L3268.612,2955.222 L3268.142,2955.178 L3267.684,2955.136 L3267.232,2955.096 L3266.772,2955.055 L3266.306,2955.015 L3265.852,2954.977 L3265.401,2954.939 L3264.937,2954.901 L3264.472,2954.864 L3264.014,2954.828 L3263.555,2954.793 L3263.095,2954.758 L3262.626,2954.724 L3262.167,2954.69 L3261.704,2954.658 L3261.244,2954.626 L3260.782,2954.595 L3260.316,2954.564 L3259.85,2954.534 L3259.385,2954.505 L3258.918,2954.477 L3258.451,2954.449 L3257.994,2954.423 L3257.524,2954.396 L3257.052,2954.37 L3256.593,2954.346 L3256.132,2954.322 L3255.658,2954.299 L3255.182,2954.276 L3254.707,2954.254 L3254.242,2954.233 L3253.788,2954.213 L3253.308,2954.193 L3252.84,2954.174 L3252.371,2954.156 L3251.889,2954.138 L3251.43,2954.121 L3250.958,2954.105 L3250.473,2954.089 L3249.998,2954.075 L3249.535,2954.061 L3249.059,2954.048 L3248.582,2954.036 L3248.116,2954.024 L3247.636,2954.013 L3247.156,2954.003 L3246.686,2953.994 L3246.216,2953.985 L3245.732,2953.977 L3245.248,2953.97 L3244.774,2953.963 L3244.3,2953.958 L3243.812,2953.953 L3243.335,2953.948 L3242.869,2953.945 L3242.379,2953.942 L3241.899,2953.94 L3241.418,2953.939 L3240.936,2953.939 L3240.454,2953.939 L3240.454,2953.939 Z" id="Shape"></path>
        </g>
    </g>
</svg>