<?xml version="1.0" encoding="UTF-8" standalone="no"?>
<svg width="344px" height="347px" viewBox="0 0 344 347" version="1.1" xmlns="http://www.w3.org/2000/svg" xmlns:xlink="http://www.w3.org/1999/xlink">
    <!-- Generator: Sketch 43.2 (39069) - http://www.bohemiancoding.com/sketch -->
    <title>boy</title>
    <desc>Created with Sketch.</desc>
    <defs>
        <rect id="path-1" x="0.155" y="0.225" width="374.444" height="381.297"></rect>
        <rect id="path-3" x="0.459" y="0.748" width="6.55" height="21.495"></rect>
        <path d="M0.24,0.771 C0.24,0.771 9.397,2.025 16.559,0.542 L16.559,5.197 C16.559,5.197 7.248,7.908 0.24,5.299 L0.24,0.771 Z" id="path-5"></path>
        <linearGradient x1="49.7455242%" y1="65.5987331%" x2="54.0040836%" y2="-196.600073%" id="linearGradient-7">
            <stop stop-color="#C79B74" offset="0%"></stop>
            <stop stop-color="#231F20" offset="100%"></stop>
        </linearGradient>
        <rect id="path-8" x="0.859" y="0.106" width="18.16" height="19.767"></rect>
    </defs>
    <g id="Page-1" stroke="none" stroke-width="1" fill="none" fill-rule="evenodd">
        <g id="boy" transform="translate(-12.000000, -37.000000)">
            <g id="Others">
                <g id="Clipped">
                    <mask id="mask-2" fill="white">
                        <use xlink:href="#path-1"></use>
                    </mask>
                    <g id="Rectangle-path"></g>
                    <g id="Group" mask="url(#mask-2)" fill-rule="nonzero" fill="#0F0E1E">
                        <g transform="translate(12.000000, 52.000000)" id="Shape">
                            <path d="M83.144,250.187 L83.144,244.814 C84.278,243.193 85.272,241.469 86.11,239.657 L86.11,247.848 C84.956,248.405 83.943,249.203 83.144,250.187 M25.111,247.848 L25.111,239.66 C25.921,241.413 26.876,243.083 27.964,244.658 L27.964,250.053 C27.184,249.13 26.211,248.379 25.111,247.848 M104.51,65.283 C104.444,63.073 104.256,60.896 103.938,58.764 C104.896,55.832 105.42,52.703 105.42,49.45 L105.42,33.092 C105.42,16.535 91.998,3.111 75.44,3.111 L34.979,3.111 C18.42,3.111 4.998,16.535 4.998,33.092 L4.998,49.45 C4.998,53.24 5.708,56.862 6.992,60.201 C6.787,61.871 6.657,63.565 6.605,65.282 C2.729,66.886 -3.55271368e-15,70.703 -3.55271368e-15,75.157 C-3.55271368e-15,80.789 4.358,85.394 9.883,85.807 C16.036,102.636 30.18,115.217 47.371,118.291 L47.371,122.981 C37.286,124.748 28.954,128.986 22.523,135.661 C11.757,146.83 9.958,161.414 9.685,167.165 L9.531,170.404 L12.734,170.404 L12.734,252.658 C12.734,253.122 12.79,253.572 12.886,254.006 C12.787,254.53 12.73,255.069 12.73,255.621 C12.73,260.392 16.595,264.26 21.367,264.26 C24.013,264.26 26.379,263.066 27.964,261.191 L27.964,370.494 L29.204,370.494 L29.204,372.091 C21.192,372.091 14.401,375.86 12.004,381.083 C11.992,381.109 11.979,381.135 11.967,381.162 C11.832,381.461 11.712,381.765 11.607,382.074 C11.594,382.112 11.582,382.151 11.57,382.19 C11.477,382.474 11.396,382.761 11.33,383.051 C11.322,383.086 11.311,383.122 11.303,383.157 C11.237,383.459 11.188,383.766 11.151,384.076 C11.142,384.143 11.136,384.21 11.129,384.278 C11.098,384.592 11.077,384.91 11.077,385.23 L47.333,385.23 C47.333,384.977 47.321,384.726 47.301,384.477 L47.301,370.494 L48.918,370.494 L48.918,258.503 C50.068,258.736 51.24,258.906 52.428,259.018 C52.496,259.024 52.563,259.027 52.629,259.033 C53.079,259.073 53.529,259.109 53.983,259.13 C54.522,259.158 55.063,259.171 55.609,259.171 C57.862,259.171 60.062,258.946 62.191,258.523 L62.191,370.494 L63.918,370.494 L63.918,384.478 C63.899,384.727 63.887,384.977 63.887,385.23 L100.144,385.23 C100.144,384.91 100.123,384.592 100.091,384.278 C100.084,384.21 100.079,384.143 100.07,384.076 C100.033,383.766 99.984,383.46 99.917,383.158 C99.91,383.122 99.899,383.085 99.891,383.05 C99.824,382.76 99.744,382.475 99.651,382.192 C99.638,382.152 99.626,382.112 99.613,382.073 C99.508,381.765 99.388,381.462 99.254,381.164 C99.242,381.135 99.228,381.108 99.215,381.08 C96.817,375.858 90.025,372.091 82.016,372.091 L82.016,370.494 L83.144,370.494 L83.144,261.057 C84.728,263.01 87.143,264.26 89.854,264.26 C94.624,264.26 98.49,260.392 98.49,255.621 C98.49,255.069 98.433,254.53 98.333,254.006 C98.431,253.572 98.486,253.122 98.486,252.658 L98.486,170.404 L101.69,170.404 L101.535,167.165 C101.261,161.414 99.462,146.83 88.698,135.661 C82.244,128.962 73.876,124.716 63.745,122.961 L63.745,118.291 C80.936,115.216 95.08,102.635 101.231,85.807 C106.754,85.393 111.113,80.789 111.113,75.157 C111.113,70.704 108.384,66.888 104.51,65.283"></path>
                            <path d="M199.428,250.187 L199.428,244.813 C200.562,243.194 201.555,241.47 202.393,239.66 L202.393,247.848 C201.24,248.405 200.227,249.203 199.428,250.187 M141.394,247.848 L141.394,239.66 C142.204,241.413 143.159,243.083 144.247,244.658 L144.247,250.054 C143.467,249.13 142.494,248.379 141.394,247.848 M220.793,65.282 C220.392,52.006 215.318,39.994 207.254,31.031 C203.366,13.566 187.789,0.505 169.154,0.505 C147.59,0.505 130.111,17.986 130.111,39.548 C130.111,39.599 130.115,39.648 130.115,39.698 C125.771,47.18 123.17,55.918 122.888,65.282 C119.012,66.886 116.283,70.703 116.283,75.157 C116.283,80.789 120.642,85.393 126.166,85.807 C132.318,102.636 146.462,115.216 163.654,118.291 L163.654,122.982 C153.57,124.749 145.238,128.987 138.806,135.661 C128.042,146.83 126.243,161.414 125.969,167.165 L125.814,170.404 L129.019,170.404 L129.019,252.658 C129.019,253.121 129.074,253.571 129.17,254.004 C129.071,254.529 129.013,255.068 129.013,255.621 C129.013,260.392 132.879,264.26 137.651,264.26 C140.297,264.26 142.663,263.066 144.247,261.191 L144.247,370.494 L145.487,370.494 L145.487,372.091 C137.476,372.091 130.684,375.86 128.287,381.083 C128.275,381.109 128.262,381.135 128.25,381.162 C128.115,381.461 127.994,381.765 127.89,382.074 C127.876,382.112 127.865,382.151 127.853,382.189 C127.76,382.473 127.679,382.76 127.613,383.051 C127.604,383.086 127.594,383.122 127.586,383.157 C127.52,383.459 127.47,383.767 127.433,384.076 C127.425,384.143 127.418,384.21 127.412,384.278 C127.381,384.592 127.36,384.91 127.36,385.23 L163.615,385.23 C163.615,384.98 163.604,384.732 163.585,384.486 L163.585,370.494 L165.201,370.494 L165.201,258.503 C166.351,258.736 167.523,258.906 168.712,259.018 C168.777,259.024 168.841,259.027 168.905,259.033 C169.357,259.072 169.809,259.109 170.266,259.13 C170.805,259.158 171.346,259.171 171.892,259.171 C174.145,259.171 176.345,258.946 178.475,258.523 L178.475,370.494 L180.201,370.494 L180.201,384.486 C180.182,384.733 180.17,384.98 180.17,385.23 L216.427,385.23 C216.427,384.91 216.406,384.592 216.374,384.278 C216.367,384.21 216.361,384.143 216.353,384.076 C216.316,383.766 216.266,383.46 216.2,383.158 C216.193,383.122 216.182,383.085 216.173,383.05 C216.107,382.76 216.027,382.475 215.934,382.192 C215.921,382.152 215.909,382.112 215.896,382.073 C215.791,381.765 215.671,381.462 215.537,381.164 C215.525,381.135 215.51,381.107 215.497,381.079 C213.099,375.858 206.307,372.091 198.298,372.091 L198.298,370.494 L199.428,370.494 L199.428,261.058 C201.012,263.01 203.428,264.26 206.137,264.26 C210.907,264.26 214.775,260.392 214.775,255.621 C214.775,255.068 214.717,254.529 214.617,254.004 C214.714,253.57 214.77,253.121 214.77,252.658 L214.77,170.404 L217.973,170.404 L217.82,167.165 C217.544,161.414 215.745,146.83 204.982,135.661 C198.528,128.962 190.16,124.716 180.027,122.961 L180.027,118.291 C197.218,115.216 211.363,102.636 217.514,85.807 C223.038,85.393 227.395,80.789 227.395,75.157 C227.395,70.703 224.667,66.887 220.793,65.282"></path>
                            <path d="M315.818,250.187 L315.818,244.813 C316.952,243.194 317.945,241.47 318.783,239.66 L318.783,247.848 C317.63,248.405 316.617,249.203 315.818,250.187 M257.785,247.848 L257.785,239.66 C258.595,241.413 259.549,243.083 260.637,244.658 L260.637,250.054 C259.857,249.13 258.885,248.379 257.785,247.848 M333.904,85.807 C339.428,85.393 343.786,80.789 343.786,75.157 C343.786,70.703 341.057,66.887 337.183,65.282 C336.339,37.321 314.753,14.926 288.23,14.926 C287.927,14.926 287.629,14.945 287.327,14.951 C282.985,8.625 275.704,4.473 267.452,4.473 C254.147,4.473 243.362,15.258 243.362,28.564 C243.362,32.732 244.422,36.653 246.284,40.072 C242.071,47.47 239.555,56.075 239.277,65.282 C235.402,66.886 232.673,70.703 232.673,75.157 C232.673,80.789 237.032,85.393 242.556,85.807 C248.709,102.636 262.852,115.216 280.044,118.291 L280.044,122.982 C269.96,124.749 261.628,128.986 255.196,135.661 C244.432,146.83 242.633,161.414 242.359,167.165 L242.204,170.404 L245.409,170.404 L245.409,252.658 C245.409,253.121 245.464,253.57 245.56,254.004 C245.461,254.529 245.403,255.068 245.403,255.621 C245.403,260.392 249.269,264.26 254.039,264.26 C256.687,264.26 259.053,263.066 260.637,261.191 L260.637,370.494 L261.877,370.494 L261.877,372.091 C253.865,372.091 247.073,375.86 244.676,381.083 C244.665,381.109 244.652,381.135 244.64,381.162 C244.505,381.461 244.385,381.765 244.28,382.074 C244.267,382.112 244.255,382.151 244.243,382.189 C244.15,382.473 244.069,382.76 244.003,383.051 C243.994,383.086 243.984,383.122 243.976,383.157 C243.91,383.459 243.86,383.767 243.823,384.076 C243.815,384.143 243.809,384.21 243.802,384.278 C243.771,384.592 243.75,384.91 243.75,385.23 L280.005,385.23 C280.005,384.98 279.994,384.732 279.975,384.486 L279.975,370.494 L281.591,370.494 L281.591,258.503 C282.742,258.736 283.915,258.906 285.104,259.018 C285.164,259.024 285.224,259.026 285.284,259.032 C285.74,259.072 286.196,259.109 286.656,259.13 C287.195,259.158 287.737,259.171 288.282,259.171 C290.535,259.171 292.735,258.946 294.865,258.523 L294.865,370.494 L296.591,370.494 L296.591,384.486 C296.572,384.732 296.56,384.98 296.56,385.23 L332.817,385.23 C332.817,384.91 332.796,384.592 332.764,384.278 C332.757,384.21 332.751,384.143 332.743,384.076 C332.706,383.767 332.657,383.46 332.59,383.158 C332.583,383.122 332.572,383.085 332.563,383.05 C332.497,382.76 332.417,382.475 332.324,382.192 C332.311,382.152 332.299,382.112 332.286,382.073 C332.181,381.765 332.061,381.462 331.927,381.164 C331.915,381.135 331.9,381.107 331.887,381.079 C329.489,375.858 322.698,372.091 314.688,372.091 L314.688,370.494 L315.818,370.494 L315.818,261.058 C317.402,263.01 319.818,264.26 322.527,264.26 C327.298,264.26 331.163,260.392 331.163,255.621 C331.163,255.069 331.106,254.532 331.007,254.008 C331.104,253.573 331.16,253.122 331.16,252.658 L331.16,170.404 L334.363,170.404 L334.21,167.165 C333.934,161.414 332.136,146.83 321.372,135.661 C314.918,128.962 306.55,124.716 296.417,122.961 L296.417,118.291 C313.608,115.216 327.753,102.636 333.904,85.807"></path>
                            <path d="M54.507,329.856 L23.81,329.856 L23.81,325.768 C23.81,319.252 29.092,313.971 35.608,313.971 L42.71,313.971 C49.226,313.971 54.507,319.252 54.507,325.768 L54.507,329.856 L54.507,329.856 Z"></path>
                            <path d="M88.717,329.856 L58.021,329.856 L58.021,325.768 C58.021,319.252 63.302,313.971 69.818,313.971 L76.92,313.971 C83.436,313.971 88.717,319.252 88.717,325.768 L88.717,329.856 Z"></path>
                            <path d="M169.578,329.856 L138.881,329.856 L138.881,325.768 C138.881,319.252 144.163,313.971 150.678,313.971 L157.781,313.971 C164.296,313.971 169.578,319.252 169.578,325.768 L169.578,329.856 Z"></path>
                            <path d="M203.788,329.856 L173.091,329.856 L173.091,325.768 C173.091,319.252 178.373,313.971 184.888,313.971 L191.991,313.971 C198.506,313.971 203.788,319.252 203.788,325.768 L203.788,329.856 Z"></path>
                            <path d="M287.757,329.856 L257.061,329.856 L257.061,325.768 C257.061,319.252 262.342,313.971 268.858,313.971 L275.96,313.971 C282.476,313.971 287.757,319.252 287.757,325.768 L287.757,329.856 Z"></path>
                            <path d="M321.967,329.856 L291.271,329.856 L291.271,325.768 C291.271,319.252 296.552,313.971 303.068,313.971 L310.17,313.971 C316.686,313.971 321.967,319.252 321.967,325.768 L321.967,329.856 Z"></path>
                        </g>
                    </g>
                </g>
            </g>
            <g id="Boy" transform="translate(109.000000, 37.000000)">
                <polygon id="Shape" fill="#C19472" points="59.126 296.727 58.993 337.081 43.647 337.031 43.78 296.677"></polygon>
                <polygon id="Shape" fill="#C19472" points="97.557 336.643 82.211 336.668 82.146 296.714 97.492 296.689"></polygon>
                <path d="M28.317,252.174 C27.579,254.963 27.268,257.894 27.404,260.8 C27.453,261.846 27.749,263.138 28.662,263.337 C29.671,263.559 30.375,262.237 30.632,261.115 C30.698,263.027 31.183,264.917 32.032,266.573 C32.566,267.616 33.318,268.623 34.354,268.919 C35.389,269.215 36.689,268.458 36.726,267.255 C37.144,268.153 37.777,269.19 38.671,269.08 C39.669,268.959 40.035,267.562 40.165,266.442 C40.746,261.421 41.328,256.352 40.921,251.311 C40.89,250.922 40.842,250.505 40.609,250.216 C40.304,249.838 39.796,249.805 39.342,249.799 C37.492,249.776 35.64,249.752 33.79,249.728 C32.224,249.708 30.457,249.781 29.402,251.084" id="Shape" fill="#C19472" fill-rule="nonzero"></path>
                <path d="M115.375,252.174 C116.113,254.963 116.424,257.894 116.287,260.8 C116.238,261.846 115.942,263.138 115.03,263.337 C114.021,263.559 113.317,262.237 113.06,261.115 C112.994,263.027 112.509,264.917 111.66,266.573 C111.126,267.616 110.373,268.623 109.338,268.919 C108.302,269.215 107.002,268.458 106.965,267.255 C106.548,268.153 105.915,269.19 105.021,269.08 C104.022,268.959 103.657,267.562 103.527,266.442 C102.946,261.421 102.363,256.352 102.771,251.311 C102.802,250.922 102.85,250.505 103.083,250.216 C103.387,249.838 103.896,249.805 104.349,249.799 C106.2,249.776 108.052,249.752 109.902,249.728 C111.468,249.708 113.234,249.781 114.29,251.084" id="Shape" fill="#C19472" fill-rule="nonzero"></path>
                <path d="M92.382,251.551 C91.644,254.34 91.334,257.271 91.47,260.177 C91.519,261.223 91.815,262.515 92.728,262.715 C93.736,262.936 94.44,261.614 94.698,260.492 C94.764,262.404 95.248,264.295 96.098,265.95 C96.632,266.993 97.384,268 98.419,268.296 C99.455,268.592 100.755,267.835 100.792,266.632 C101.21,267.53 101.843,268.567 102.737,268.457 C103.735,268.336 104.1,266.939 104.23,265.819 C104.812,260.798 105.394,255.729 104.986,250.688 C104.955,250.299 104.907,249.882 104.675,249.593 C104.37,249.215 103.861,249.182 103.408,249.176 C101.557,249.153 99.706,249.129 97.855,249.105 C96.289,249.085 94.523,249.158 93.468,250.461" id="Shape" fill="#C19472" fill-rule="nonzero"></path>
                <polygon id="Shape" fill="#C19472" points="111.859 190.301 111.921 190.624 112.016 191.13 112.076 191.456 112.144 191.823 112.218 192.234 112.298 192.687 112.385 193.181 112.478 193.716 112.576 194.291 112.679 194.905 112.787 195.557 112.899 196.245 113.015 196.97 113.134 197.729 113.256 198.522 113.382 199.35 113.509 200.209 113.639 201.1 113.77 202.019 113.836 202.494 113.903 202.973 113.969 203.459 114.036 203.953 114.102 204.454 114.169 204.96 114.236 205.475 114.303 205.996 114.369 206.522 114.436 207.056 114.502 207.597 114.568 208.142 114.634 208.694 114.7 209.252 114.765 209.816 114.83 210.385 114.894 210.96 114.958 211.541 115.021 212.127 115.083 212.718 115.145 213.314 115.206 213.916 115.267 214.524 115.326 215.134 115.384 215.749 115.442 216.37 115.499 216.995 115.555 217.625 115.609 218.259 115.663 218.895 115.715 219.537 115.767 220.185 115.816 220.833 115.865 221.486 115.912 222.144 115.958 222.804 116.002 223.467 116.045 224.134 116.086 224.805 116.126 225.478 116.164 226.154 116.2 226.832 116.235 227.514 116.268 228.198 116.299 228.885 116.328 229.575 116.354 230.266 116.38 230.959 116.402 231.655 116.423 232.352 116.442 233.052 116.458 233.753 116.473 234.456 116.484 235.16 116.494 235.866 116.501 236.573 116.505 237.281 116.508 237.991 116.507 238.702 116.504 239.413 116.498 240.124 116.489 240.837 116.478 241.551 116.463 242.264 116.446 242.978 116.426 243.692 116.403 244.407 116.377 245.119 116.363 245.479 116.348 245.835 116.332 246.193 116.315 246.55 116.298 246.91 116.279 247.265 116.26 247.62 116.24 247.979 116.22 248.337 116.198 248.694 116.175 249.048 116.152 249.404 116.128 249.761 116.103 250.118 116.077 250.473 116.05 250.828 116.022 251.184 115.994 251.54 115.964 251.894 115.934 252.249 115.902 252.604 115.87 252.958 115.837 253.312 115.802 253.666 115.767 254.019 115.731 254.372 115.694 254.724 115.657 255.065 102.052 253.596 102.087 253.272 102.12 252.958 102.152 252.643 102.184 252.327 102.214 252.011 102.244 251.695 102.273 251.377 102.301 251.06 102.329 250.741 102.355 250.421 102.381 250.102 102.406 249.782 102.43 249.46 102.454 249.138 102.477 248.817 102.498 248.496 102.519 248.172 102.54 247.846 102.56 247.522 102.579 247.199 102.597 246.877 102.614 246.549 102.631 246.222 102.647 245.898 102.662 245.572 102.676 245.246 102.69 244.918 102.703 244.594 102.727 243.935 102.748 243.279 102.767 242.622 102.783 241.963 102.796 241.304 102.806 240.645 102.814 239.985 102.82 239.325 102.823 238.664 102.823 238.005 102.822 237.346 102.817 236.685 102.811 236.026 102.802 235.367 102.791 234.709 102.778 234.051 102.762 233.394 102.745 232.739 102.725 232.084 102.704 231.431 102.68 230.779 102.655 230.128 102.628 229.48 102.598 228.833 102.568 228.188 102.535 227.544 102.501 226.903 102.465 226.264 102.427 225.627 102.388 224.994 102.348 224.363 102.305 223.733 102.262 223.107 102.217 222.485 102.171 221.865 102.124 221.247 102.075 220.636 102.025 220.026 101.974 219.418 101.923 218.816 101.87 218.217 101.816 217.623 101.761 217.032 101.705 216.445 101.648 215.862 101.591 215.285 101.533 214.712 101.474 214.143 101.414 213.579 101.354 213.02 101.293 212.466 101.232 211.917 101.17 211.373 101.108 210.834 101.045 210.302 100.982 209.775 100.919 209.252 100.856 208.738 100.792 208.229 100.728 207.724 100.665 207.227 100.601 206.737 100.537 206.251 100.473 205.773 100.41 205.302 100.346 204.837 100.283 204.38 100.22 203.932 100.095 203.049 99.971 202.199 99.849 201.379 99.73 200.592 99.613 199.836 99.499 199.113 99.389 198.425 99.283 197.772 99.181 197.155 99.084 196.576 98.991 196.034 98.904 195.531 98.823 195.067 98.748 194.645 98.679 194.266 98.618 193.928 98.564 193.637 98.478 193.181 98.427 192.915 98.41 192.831 111.837 190.186 111.859 190.301"></polygon>
                <rect id="Rectangle-path" fill="#C89C76" fill-rule="nonzero" x="50.174" y="183.736" width="30.977" height="23.588"></rect>
                <rect id="Rectangle-path" fill="#C89C76" fill-rule="nonzero" x="63.232" y="141.962" width="16.343" height="26.295"></rect>
                <path d="M70.737,19.09 C38.254,19.09 11.922,48.059 11.922,83.794 C11.922,119.53 38.254,148.499 70.737,148.499 C103.219,148.499 129.551,119.53 129.551,83.794 C129.551,48.059 103.219,19.09 70.737,19.09" id="Shape" fill="#C89C76" fill-rule="nonzero"></path>
                <g id="Group" opacity="0.5" transform="translate(67.000000, 82.000000)">
                    <g id="Clipped">
                        <mask id="mask-4" fill="white">
                            <use xlink:href="#path-3"></use>
                        </mask>
                        <g id="Rectangle-path"></g>
                        <polygon id="Shape" fill="#AA3424" mask="url(#mask-4)" points="3.876 0.75 4.014 0.759 4.153 0.774 4.29 0.794 4.427 0.821 4.562 0.853 4.696 0.891 4.828 0.934 4.958 0.983 5.085 1.038 5.211 1.098 5.334 1.163 5.453 1.233 5.57 1.309 5.684 1.389 5.794 1.474 5.9 1.564 6.002 1.658 6.101 1.756 6.195 1.858 6.284 1.965 6.369 2.074 6.449 2.188 6.525 2.305 6.595 2.425 6.66 2.547 6.72 2.673 6.775 2.801 6.824 2.931 6.867 3.063 6.905 3.196 6.937 3.332 6.964 3.468 6.984 3.605 6.999 3.744 7.008 3.882 7.011 4.021 7.011 18.968 7.008 19.107 6.999 19.246 6.984 19.384 6.964 19.522 6.937 19.658 6.905 19.793 6.867 19.927 6.824 20.059 6.775 20.189 6.72 20.317 6.66 20.442 6.595 20.565 6.525 20.685 6.449 20.802 6.369 20.915 6.284 21.025 6.195 21.131 6.101 21.234 6.002 21.332 5.9 21.426 5.794 21.516 5.684 21.601 5.57 21.681 5.453 21.756 5.334 21.827 5.211 21.892 5.085 21.952 4.958 22.006 4.828 22.055 4.696 22.099 4.562 22.137 4.427 22.169 4.29 22.195 4.153 22.216 4.014 22.231 3.876 22.239 3.737 22.242 3.598 22.239 3.459 22.231 3.321 22.216 3.184 22.195 3.047 22.169 2.912 22.137 2.778 22.099 2.646 22.055 2.516 22.006 2.388 21.952 2.263 21.892 2.14 21.827 2.02 21.756 1.903 21.681 1.79 21.601 1.68 21.516 1.574 21.426 1.471 21.332 1.373 21.234 1.279 21.131 1.19 21.025 1.105 20.915 1.024 20.802 0.949 20.685 0.879 20.565 0.813 20.442 0.753 20.317 0.699 20.189 0.65 20.059 0.606 19.927 0.568 19.793 0.536 19.658 0.51 19.522 0.489 19.384 0.475 19.246 0.466 19.107 0.463 18.968 0.463 4.021 0.466 3.882 0.475 3.744 0.489 3.605 0.51 3.468 0.536 3.332 0.568 3.196 0.606 3.063 0.65 2.931 0.699 2.801 0.753 2.673 0.813 2.547 0.879 2.425 0.949 2.305 1.024 2.188 1.105 2.074 1.19 1.965 1.279 1.858 1.373 1.756 1.471 1.658 1.574 1.564 1.68 1.474 1.79 1.389 1.903 1.309 2.02 1.233 2.14 1.163 2.263 1.098 2.388 1.038 2.516 0.983 2.646 0.934 2.778 0.891 2.912 0.853 3.047 0.821 3.184 0.794 3.321 0.774 3.459 0.759 3.598 0.75 3.737 0.747"></polygon>
                    </g>
                </g>
                <path d="M139.343,94.095 C140.575,86.679 136.234,79.78 129.647,78.686 C123.06,77.591 116.721,82.716 115.489,90.132 C114.257,97.548 118.598,104.448 125.185,105.541 C131.773,106.636 138.112,101.511 139.343,94.095" id="Shape" fill="#C89C76" fill-rule="nonzero"></path>
                <path d="M26.036,90.838 C25.066,83.038 18.663,77.414 11.735,78.276 C4.807,79.139 -0.023,86.16 0.948,93.959 C1.919,101.759 8.322,107.383 15.25,106.521 C22.178,105.659 27.007,98.637 26.036,90.838" id="Shape" fill="#C89C76" fill-rule="nonzero"></path>
                <path d="M125.783,96.689 C125.783,96.689 125.249,86.367 133.169,86.991" id="Shape" stroke="#BB8B63" stroke-width="2.4"></path>
                <path d="M132.796,91.221 C132.796,91.221 128.067,89.573 126.034,93.025" id="Shape" stroke="#BB8B63" stroke-width="2.4"></path>
                <path d="M15.596,97.181 C15.596,97.181 16.154,86.389 7.873,87.042" id="Shape" stroke="#BB8B63" stroke-width="2.4"></path>
                <path d="M8.262,91.466 C8.262,91.466 13.207,89.742 15.331,93.352" id="Shape" stroke="#BB8B63" stroke-width="2.4"></path>
                <polygon id="Shape" fill="#272935" points="47.992 75.6 48.057 75.604 48.122 75.612 48.187 75.622 48.251 75.636 48.315 75.652 48.378 75.671 48.44 75.693 48.5 75.718 48.56 75.746 48.618 75.776 48.675 75.81 48.73 75.845 48.783 75.883 48.835 75.924 48.884 75.967 48.932 76.012 48.977 76.059 49.021 76.109 49.062 76.16 49.1 76.213 49.136 76.268 49.169 76.325 49.2 76.383 49.228 76.442 49.254 76.503 49.276 76.564 49.296 76.627 49.312 76.691 49.326 76.755 49.337 76.819 49.345 76.885 49.349 76.95 49.351 77.016 49.35 77.081 49.345 77.147 49.338 77.212 49.328 77.277 49.314 77.341 49.298 77.405 49.26 77.541 49.216 77.686 49.171 77.829 49.123 77.97 49.074 78.11 49.022 78.248 48.969 78.385 48.914 78.518 48.857 78.65 48.798 78.781 48.738 78.91 48.675 79.037 48.612 79.161 48.546 79.285 48.479 79.406 48.411 79.525 48.34 79.643 48.268 79.759 48.196 79.872 48.121 79.984 48.045 80.095 47.969 80.203 47.891 80.309 47.812 80.413 47.731 80.516 47.649 80.618 47.567 80.716 47.484 80.813 47.399 80.909 47.314 81.003 47.227 81.095 47.141 81.185 47.053 81.274 46.964 81.36 46.875 81.445 46.786 81.528 46.696 81.61 46.604 81.691 46.512 81.769 46.421 81.845 46.328 81.92 46.236 81.994 46.142 82.066 46.049 82.136 45.956 82.205 45.862 82.272 45.767 82.338 45.673 82.402 45.579 82.465 45.484 82.526 45.39 82.586 45.295 82.645 45.2 82.702 45.107 82.757 45.011 82.812 44.917 82.865 44.824 82.916 44.73 82.967 44.635 83.016 44.541 83.064 44.448 83.111 44.356 83.156 44.264 83.2 44.171 83.244 44.079 83.286 43.985 83.328 43.807 83.404 43.628 83.478 43.451 83.548 43.277 83.613 43.106 83.675 42.938 83.733 42.773 83.787 42.611 83.837 42.454 83.884 42.301 83.928 42.151 83.968 42.007 84.006 41.867 84.04 41.732 84.072 41.602 84.101 41.478 84.128 41.36 84.152 41.247 84.173 41.14 84.193 41.04 84.21 40.944 84.226 40.781 84.25 40.645 84.269 40.538 84.281 40.456 84.29 40.391 84.295 40.325 84.297 40.26 84.296 40.194 84.292 40.129 84.285 40.064 84.275 40 84.262 39.936 84.246 39.873 84.227 39.811 84.205 39.75 84.18 39.691 84.153 39.632 84.123 39.576 84.09 39.52 84.054 39.467 84.017 39.415 83.976 39.365 83.933 39.317 83.889 39.271 83.841 39.228 83.792 39.187 83.741 39.148 83.688 39.112 83.633 39.078 83.577 39.047 83.519 39.019 83.46 38.993 83.4 38.97 83.338 38.95 83.275 38.933 83.212 38.919 83.148 38.908 83.083 38.9 83.018 38.895 82.953 38.893 82.887 38.894 82.821 38.898 82.756 38.905 82.691 38.915 82.626 38.928 82.561 38.944 82.498 38.963 82.435 38.985 82.373 39.01 82.312 39.037 82.253 39.067 82.194 39.1 82.137 39.135 82.082 39.173 82.028 39.214 81.977 39.256 81.927 39.301 81.879 39.348 81.833 39.398 81.79 39.449 81.749 39.502 81.71 39.556 81.674 39.613 81.64 39.671 81.609 39.73 81.58 39.79 81.555 39.852 81.532 39.914 81.512 39.978 81.495 40.042 81.481 40.106 81.47 40.172 81.462 40.229 81.456 40.289 81.449 40.381 81.437 40.503 81.418 40.568 81.408 40.643 81.395 40.723 81.38 40.809 81.364 40.9 81.345 40.995 81.325 41.096 81.302 41.2 81.278 41.309 81.251 41.422 81.222 41.538 81.19 41.658 81.156 41.781 81.119 41.906 81.08 42.034 81.038 42.164 80.993 42.296 80.946 42.431 80.895 42.566 80.842 42.702 80.786 42.844 80.725 42.91 80.695 42.979 80.664 43.049 80.631 43.118 80.598 43.188 80.564 43.258 80.529 43.328 80.493 43.397 80.457 43.466 80.42 43.536 80.381 43.606 80.342 43.674 80.302 43.744 80.261 43.813 80.22 43.881 80.177 43.95 80.134 44.018 80.09 44.086 80.045 44.153 79.999 44.22 79.952 44.287 79.904 44.354 79.855 44.419 79.805 44.484 79.755 44.55 79.704 44.614 79.651 44.678 79.598 44.742 79.543 44.804 79.489 44.866 79.432 44.928 79.375 44.989 79.317 45.05 79.258 45.109 79.198 45.168 79.136 45.227 79.074 45.284 79.011 45.34 78.947 45.396 78.882 45.452 78.815 45.506 78.748 45.559 78.68 45.612 78.61 45.665 78.539 45.716 78.467 45.766 78.394 45.815 78.32 45.864 78.243 45.911 78.167 45.957 78.09 46.004 78.009 46.048 77.929 46.091 77.847 46.135 77.763 46.176 77.679 46.216 77.593 46.256 77.506 46.294 77.416 46.332 77.325 46.368 77.233 46.403 77.14 46.436 77.045 46.469 76.947 46.5 76.848 46.53 76.748 46.562 76.635 46.581 76.572 46.603 76.51 46.628 76.45 46.656 76.39 46.687 76.332 46.72 76.275 46.755 76.22 46.794 76.167 46.834 76.115 46.877 76.065 46.922 76.018 46.97 75.972 47.019 75.929 47.07 75.888 47.124 75.85 47.178 75.814 47.235 75.78 47.293 75.75 47.352 75.722 47.413 75.696 47.475 75.674 47.537 75.654 47.601 75.637 47.665 75.624 47.73 75.613 47.795 75.605 47.86 75.6 47.926 75.599 47.992 75.6"></polygon>
                <polygon id="Shape" fill="#272935" points="94.097 75.601 94.162 75.605 94.227 75.613 94.292 75.624 94.356 75.637 94.42 75.654 94.483 75.674 94.544 75.696 94.605 75.722 94.664 75.75 94.722 75.78 94.779 75.814 94.834 75.85 94.887 75.888 94.938 75.929 94.987 75.972 95.035 76.018 95.08 76.066 95.123 76.115 95.164 76.167 95.202 76.22 95.237 76.275 95.27 76.332 95.301 76.39 95.329 76.45 95.354 76.51 95.376 76.572 95.395 76.635 95.427 76.748 95.457 76.849 95.488 76.948 95.52 77.044 95.554 77.139 95.59 77.234 95.626 77.326 95.662 77.415 95.701 77.505 95.741 77.593 95.781 77.679 95.823 77.764 95.865 77.847 95.909 77.929 95.954 78.01 95.999 78.089 96.045 78.166 96.093 78.244 96.142 78.32 96.19 78.393 96.241 78.467 96.293 78.54 96.344 78.61 96.397 78.679 96.451 78.748 96.505 78.815 96.561 78.882 96.616 78.947 96.673 79.011 96.731 79.075 96.789 79.136 96.848 79.197 96.907 79.258 96.968 79.317 97.029 79.376 97.091 79.433 97.152 79.488 97.215 79.543 97.279 79.598 97.343 79.651 97.407 79.704 97.472 79.755 97.538 79.806 97.603 79.855 97.67 79.904 97.736 79.952 97.803 79.998 97.871 80.045 97.939 80.09 98.007 80.134 98.076 80.178 98.145 80.22 98.213 80.261 98.281 80.302 98.351 80.342 98.42 80.381 98.49 80.42 98.56 80.457 98.629 80.493 98.699 80.529 98.769 80.564 98.839 80.598 98.908 80.631 98.977 80.664 99.047 80.695 99.113 80.725 99.254 80.786 99.39 80.842 99.526 80.895 99.66 80.946 99.792 80.993 99.922 81.038 100.051 81.08 100.176 81.119 100.298 81.156 100.418 81.19 100.534 81.222 100.647 81.251 100.756 81.278 100.86 81.302 100.961 81.325 101.056 81.345 101.147 81.364 101.233 81.38 101.313 81.395 101.388 81.408 101.453 81.418 101.575 81.437 101.667 81.449 101.727 81.456 101.784 81.462 101.85 81.47 101.914 81.481 101.978 81.495 102.042 81.512 102.104 81.532 102.166 81.555 102.226 81.58 102.286 81.609 102.343 81.64 102.4 81.674 102.454 81.71 102.507 81.749 102.558 81.79 102.608 81.833 102.655 81.879 102.7 81.927 102.742 81.977 102.783 82.028 102.821 82.082 102.856 82.137 102.889 82.194 102.919 82.253 102.946 82.312 102.971 82.373 102.993 82.435 103.012 82.498 103.028 82.561 103.041 82.626 103.051 82.691 103.058 82.756 103.062 82.821 103.063 82.887 103.061 82.953 103.056 83.018 103.048 83.083 103.037 83.148 103.023 83.212 103.006 83.275 102.986 83.338 102.963 83.4 102.937 83.46 102.909 83.519 102.878 83.577 102.844 83.633 102.808 83.688 102.769 83.741 102.728 83.792 102.685 83.841 102.639 83.889 102.591 83.933 102.541 83.976 102.489 84.017 102.436 84.054 102.38 84.09 102.324 84.123 102.265 84.153 102.206 84.18 102.145 84.205 102.083 84.227 102.02 84.246 101.956 84.262 101.892 84.275 101.827 84.285 101.762 84.292 101.696 84.296 101.631 84.297 101.565 84.295 101.5 84.29 101.418 84.281 101.311 84.269 101.174 84.25 101.012 84.226 100.915 84.21 100.815 84.193 100.709 84.173 100.597 84.152 100.478 84.128 100.354 84.101 100.224 84.072 100.089 84.04 99.95 84.006 99.805 83.968 99.656 83.928 99.502 83.884 99.345 83.837 99.183 83.787 99.019 83.733 98.851 83.675 98.679 83.613 98.505 83.548 98.329 83.478 98.149 83.404 97.971 83.327 97.877 83.286 97.785 83.244 97.693 83.201 97.6 83.156 97.507 83.111 97.415 83.064 97.321 83.016 97.227 82.967 97.133 82.916 97.039 82.865 96.945 82.812 96.851 82.758 96.756 82.702 96.661 82.644 96.566 82.586 96.472 82.526 96.378 82.465 96.284 82.402 96.19 82.338 96.095 82.272 96.001 82.205 95.908 82.136 95.814 82.065 95.721 81.994 95.628 81.92 95.536 81.845 95.444 81.768 95.353 81.691 95.262 81.611 95.171 81.528 95.081 81.445 94.992 81.36 94.904 81.274 94.816 81.185 94.729 81.095 94.643 81.003 94.558 80.909 94.473 80.813 94.39 80.716 94.307 80.617 94.226 80.516 94.145 80.414 94.066 80.309 93.987 80.202 93.911 80.094 93.836 79.985 93.761 79.872 93.688 79.758 93.617 79.644 93.547 79.526 93.478 79.406 93.411 79.285 93.345 79.161 93.281 79.036 93.219 78.91 93.159 78.781 93.1 78.651 93.043 78.519 92.987 78.383 92.934 78.247 92.883 78.111 92.834 77.971 92.786 77.828 92.741 77.685 92.697 77.541 92.659 77.405 92.643 77.341 92.629 77.277 92.619 77.212 92.612 77.147 92.607 77.081 92.606 77.016 92.608 76.95 92.612 76.885 92.62 76.819 92.631 76.755 92.645 76.69 92.661 76.627 92.681 76.564 92.704 76.503 92.729 76.442 92.757 76.383 92.788 76.325 92.821 76.268 92.857 76.213 92.896 76.16 92.936 76.109 92.98 76.059 93.025 76.012 93.073 75.967 93.122 75.924 93.174 75.883 93.227 75.845 93.283 75.809 93.339 75.776 93.397 75.746 93.457 75.718 93.518 75.693 93.579 75.671 93.642 75.652 93.706 75.636 93.77 75.622 93.835 75.612 93.9 75.604 93.966 75.6 94.031 75.599 94.097 75.601"></polygon>
                <path d="M50.051,86.197 C50.051,82.788 47.863,80.025 45.163,80.025 C42.464,80.025 40.276,82.788 40.276,86.197 C40.276,89.605 42.464,92.369 45.163,92.369 C47.863,92.369 50.051,89.605 50.051,86.197" id="Shape" fill="#272935" fill-rule="nonzero"></path>
                <path d="M101.251,86.197 C101.251,82.788 99.063,80.025 96.364,80.025 C93.665,80.025 91.477,82.788 91.477,86.197 C91.477,89.605 93.665,92.369 96.364,92.369 C99.063,92.369 101.251,89.605 101.251,86.197" id="Shape" fill="#272935" fill-rule="nonzero"></path>
                <g id="Group" opacity="0.600006" transform="translate(63.000000, 148.000000)">
                    <g id="Clipped">
                        <g>
                            <mask id="mask-6" fill="white">
                                <use xlink:href="#path-5"></use>
                            </mask>
                            <g id="Shape"></g>
                            <polygon id="Shape" fill="url(#linearGradient-7)" fill-rule="nonzero" mask="url(#mask-6)" points="0.012 7.669 0.265 0.003 16.713 0.547 16.459 8.212"></polygon>
                        </g>
                    </g>
                </g>
                <polygon id="Shape" fill="#16102A" points="15.706 35.39 15.773 35.395 15.84 35.404 15.906 35.416 15.971 35.431 16.035 35.45 16.098 35.472 16.16 35.497 16.221 35.526 16.28 35.557 16.337 35.592 16.392 35.63 16.446 35.67 16.497 35.714 16.546 35.759 16.592 35.808 16.636 35.858 16.677 35.911 16.715 35.966 16.75 36.023 16.782 36.082 16.811 36.142 16.837 36.204 16.86 36.267 16.879 36.331 16.895 36.396 16.907 36.462 16.916 36.528 16.922 36.595 16.924 36.662 16.923 36.729 16.918 36.796 16.909 36.862 16.897 36.928 16.882 36.993 16.863 37.058 16.841 37.121 16.816 37.183 16.767 37.292 16.706 37.428 16.624 37.606 16.52 37.825 16.397 38.08 16.326 38.224 16.251 38.374 16.171 38.53 16.086 38.695 15.996 38.867 15.902 39.045 15.803 39.229 15.699 39.418 15.59 39.613 15.477 39.812 15.36 40.016 15.238 40.224 15.111 40.435 14.98 40.649 14.845 40.867 14.706 41.086 14.562 41.307 14.414 41.529 14.263 41.751 14.185 41.865 14.106 41.977 14.027 42.089 13.946 42.202 13.864 42.314 13.782 42.425 13.698 42.537 13.614 42.649 13.527 42.761 13.441 42.872 13.353 42.983 13.264 43.093 13.174 43.203 13.084 43.312 12.992 43.421 12.899 43.529 12.805 43.637 12.71 43.744 12.614 43.85 12.517 43.955 12.419 44.059 12.32 44.163 12.219 44.266 12.118 44.367 12.017 44.467 11.913 44.567 11.808 44.665 11.703 44.762 11.596 44.857 11.488 44.951 11.378 45.044 11.269 45.135 11.157 45.225 11.045 45.313 10.931 45.4 10.816 45.484 10.699 45.567 10.582 45.648 10.463 45.727 10.343 45.804 10.221 45.88 10.098 45.953 9.974 46.023 9.849 46.091 9.722 46.157 9.593 46.221 9.463 46.281 9.332 46.339 9.199 46.395 9.065 46.447 8.93 46.496 8.792 46.542 8.654 46.585 8.514 46.624 8.372 46.66 8.234 46.692 8.158 46.707 8.086 46.721 8.014 46.734 7.941 46.746 7.868 46.757 7.794 46.767 7.721 46.776 7.647 46.783 7.573 46.79 7.498 46.796 7.424 46.8 7.349 46.804 7.274 46.806 7.199 46.808 7.123 46.808 7.047 46.807 6.972 46.805 6.895 46.802 6.82 46.797 6.754 46.792 6.687 46.786 6.621 46.776 6.555 46.762 6.49 46.745 6.427 46.725 6.364 46.701 6.303 46.674 6.243 46.644 6.185 46.611 6.128 46.575 6.074 46.536 6.022 46.494 5.972 46.449 5.924 46.402 5.879 46.353 5.836 46.301 5.797 46.247 5.76 46.191 5.726 46.133 5.696 46.074 5.668 46.013 5.644 45.95 5.623 45.887 5.605 45.822 5.591 45.757 5.58 45.691 5.572 45.624 5.569 45.557 5.568 45.49 5.571 45.423 5.578 45.357 5.588 45.29 5.602 45.225 5.619 45.16 5.639 45.096 5.663 45.034 5.69 44.972 5.72 44.913 5.753 44.854 5.789 44.798 5.828 44.744 5.87 44.691 5.914 44.641 5.962 44.594 6.011 44.549 6.063 44.506 6.117 44.467 6.173 44.43 6.231 44.396 6.29 44.365 6.351 44.338 6.413 44.313 6.477 44.292 6.542 44.275 6.607 44.26 6.673 44.25 6.74 44.242 6.807 44.238 6.873 44.238 6.94 44.241 6.988 44.245 7.025 44.247 7.062 44.248 7.099 44.249 7.136 44.25 7.173 44.25 7.21 44.249 7.247 44.248 7.284 44.246 7.322 44.244 7.359 44.241 7.396 44.238 7.433 44.234 7.471 44.229 7.509 44.224 7.546 44.219 7.583 44.212 7.621 44.206 7.659 44.198 7.694 44.191 7.774 44.173 7.851 44.154 7.928 44.132 8.007 44.108 8.085 44.081 8.164 44.052 8.244 44.021 8.324 43.988 8.404 43.953 8.486 43.915 8.567 43.874 8.649 43.832 8.731 43.787 8.814 43.74 8.897 43.691 8.98 43.64 9.063 43.586 9.147 43.531 9.231 43.473 9.315 43.413 9.399 43.351 9.482 43.287 9.566 43.222 9.65 43.154 9.735 43.084 9.818 43.013 9.902 42.94 9.985 42.866 10.069 42.789 10.152 42.711 10.234 42.632 10.317 42.55 10.4 42.468 10.481 42.385 10.563 42.299 10.644 42.213 10.725 42.125 10.805 42.036 10.885 41.946 10.965 41.855 11.044 41.763 11.122 41.67 11.2 41.577 11.277 41.482 11.354 41.386 11.43 41.291 11.506 41.194 11.58 41.097 11.654 40.999 11.728 40.9 11.801 40.801 11.874 40.702 11.945 40.603 12.016 40.503 12.086 40.403 12.154 40.304 12.291 40.103 12.424 39.903 12.554 39.702 12.68 39.504 12.803 39.307 12.922 39.112 13.037 38.919 13.149 38.729 13.256 38.543 13.36 38.359 13.46 38.181 13.555 38.006 13.647 37.838 13.733 37.674 13.816 37.516 13.894 37.365 13.967 37.22 14.036 37.083 14.099 36.956 14.213 36.72 14.307 36.522 14.38 36.364 14.431 36.25 14.474 36.153 14.503 36.092 14.535 36.033 14.569 35.976 14.607 35.92 14.648 35.867 14.691 35.816 14.737 35.767 14.785 35.721 14.836 35.677 14.889 35.636 14.944 35.598 15.001 35.563 15.059 35.531 15.12 35.502 15.182 35.476 15.245 35.453 15.309 35.434 15.374 35.418 15.44 35.405 15.506 35.396 15.573 35.391 15.64 35.389 15.706 35.39"></polygon>
                <polygon id="Shape" fill="#C19472" points="45.282 192.831 45.265 192.915 45.214 193.181 45.128 193.637 45.075 193.928 45.013 194.266 44.944 194.647 44.869 195.069 44.788 195.53 44.701 196.033 44.609 196.576 44.511 197.155 44.409 197.772 44.303 198.425 44.193 199.113 44.079 199.836 43.962 200.592 43.843 201.379 43.721 202.199 43.598 203.049 43.472 203.932 43.409 204.38 43.346 204.837 43.283 205.302 43.219 205.773 43.155 206.251 43.091 206.737 43.028 207.227 42.964 207.724 42.9 208.229 42.836 208.738 42.773 209.252 42.71 209.775 42.647 210.302 42.585 210.836 42.522 211.374 42.461 211.916 42.4 212.465 42.339 213.02 42.278 213.579 42.219 214.143 42.16 214.712 42.102 215.285 42.044 215.863 41.987 216.445 41.932 217.031 41.877 217.623 41.823 218.217 41.77 218.817 41.718 219.419 41.667 220.025 41.617 220.635 41.568 221.248 41.521 221.865 41.475 222.484 41.43 223.107 41.387 223.733 41.345 224.363 41.304 224.994 41.265 225.627 41.228 226.264 41.192 226.903 41.157 227.544 41.125 228.188 41.094 228.833 41.065 229.48 41.038 230.129 41.012 230.779 40.989 231.43 40.967 232.084 40.948 232.739 40.93 233.394 40.915 234.051 40.901 234.709 40.89 235.367 40.882 236.026 40.875 236.685 40.871 237.346 40.869 238.005 40.869 238.664 40.872 239.326 40.878 239.985 40.886 240.644 40.896 241.305 40.909 241.964 40.925 242.621 40.944 243.278 40.965 243.935 40.989 244.596 41.002 244.918 41.016 245.244 41.03 245.572 41.046 245.898 41.062 246.224 41.078 246.549 41.096 246.875 41.114 247.199 41.133 247.524 41.152 247.846 41.173 248.17 41.194 248.496 41.216 248.817 41.238 249.138 41.262 249.46 41.286 249.782 41.311 250.102 41.337 250.421 41.364 250.741 41.391 251.06 41.419 251.377 41.448 251.695 41.478 252.011 41.508 252.327 41.54 252.643 41.572 252.958 41.605 253.272 41.64 253.596 28.035 255.065 27.999 254.724 27.961 254.372 27.925 254.019 27.89 253.666 27.856 253.312 27.822 252.958 27.79 252.604 27.759 252.249 27.728 251.894 27.699 251.54 27.67 251.184 27.642 250.828 27.615 250.473 27.59 250.118 27.564 249.761 27.54 249.404 27.517 249.05 27.494 248.694 27.473 248.335 27.452 247.979 27.432 247.622 27.413 247.265 27.395 246.908 27.377 246.55 27.36 246.193 27.345 245.837 27.33 245.479 27.315 245.117 27.289 244.407 27.266 243.693 27.246 242.979 27.229 242.263 27.215 241.55 27.203 240.838 27.194 240.124 27.189 239.412 27.185 238.702 27.185 237.991 27.187 237.281 27.192 236.573 27.198 235.866 27.208 235.16 27.22 234.456 27.234 233.753 27.25 233.052 27.269 232.352 27.29 231.655 27.313 230.96 27.338 230.266 27.365 229.574 27.394 228.885 27.425 228.198 27.457 227.514 27.492 226.832 27.528 226.154 27.566 225.478 27.606 224.805 27.647 224.134 27.69 223.467 27.734 222.804 27.78 222.144 27.827 221.487 27.876 220.833 27.926 220.183 27.977 219.538 28.029 218.896 28.083 218.258 28.138 217.624 28.193 216.995 28.25 216.37 28.308 215.75 28.366 215.134 28.426 214.523 28.486 213.916 28.547 213.314 28.609 212.718 28.672 212.127 28.735 211.541 28.798 210.961 28.862 210.386 28.927 209.815 28.993 209.251 29.058 208.694 29.124 208.142 29.19 207.597 29.256 207.056 29.323 206.522 29.389 205.996 29.456 205.475 29.523 204.96 29.59 204.454 29.657 203.953 29.723 203.459 29.79 202.973 29.856 202.494 29.923 202.019 30.053 201.1 30.183 200.209 30.31 199.35 30.436 198.522 30.558 197.729 30.678 196.97 30.794 196.245 30.906 195.557 31.014 194.905 31.117 194.291 31.215 193.717 31.307 193.182 31.394 192.686 31.475 192.233 31.549 191.823 31.616 191.456 31.676 191.13 31.771 190.624 31.833 190.301 31.856 190.186 45.282 192.831"></polygon>
                <path d="M37.812,251.244 L40.445,276.837 L42.375,277.434 C42.775,277.557 43.187,277.688 43.504,277.961 C43.981,278.37 44.159,279.02 44.312,279.631 C44.637,280.916 45.017,282.285 46.024,283.149 C47.102,284.074 48.819,284.343 48.877,286.165 C48.894,286.655 48.771,287.14 48.561,287.584 C47.773,289.244 46.497,290.665 44.937,291.634 C43.965,292.237 42.85,292.698 42.175,293.627 C42.175,293.627 42.174,293.632 42.173,293.635 L42.871,300.405 L60.804,300.405 C60.804,300.405 61.438,280.584 64.02,270.857 C64.715,268.24 67.073,266.411 69.781,266.411 C72.454,266.411 74.799,268.189 75.515,270.765 C76.929,275.848 79.122,285.507 80.577,300.405 L98.51,300.405 L104.029,248.106 L37.812,251.244 L37.812,251.244 Z" id="Shape" fill="#39373A" fill-rule="nonzero"></path>
                <path d="M37.588,275.953 C37.621,275.963 37.654,275.974 37.688,275.983 C37.576,275.812 37.458,275.643 37.323,275.483 L37.588,275.953 L37.588,275.953 Z" id="Shape" fill="#2F2E30" fill-rule="nonzero"></path>
                <path d="M44.937,291.634 C46.3,290.787 47.447,289.595 48.24,288.2 C48.764,287.278 49.129,286.114 48.63,285.178 C48.106,284.196 46.869,283.874 46.024,283.15 C45.017,282.285 44.637,280.916 44.312,279.631 C44.159,279.021 43.981,278.37 43.504,277.961 C43.187,277.689 42.775,277.558 42.375,277.435 L40.445,276.837 L42.173,293.635 C42.185,293.618 42.194,293.602 42.206,293.586 C42.883,292.685 43.98,292.229 44.937,291.634" id="Shape" fill="#2F2E30" fill-rule="nonzero"></path>
                <path d="M70.727,187.908 C70.584,188.097 70.373,188.225 70.157,188.323 C69.246,188.732 68.001,188.567 67.491,187.71 C66.98,186.852 67.779,185.472 68.743,185.735 L69.946,185.599 C70.585,186.221 71.264,187.194 70.727,187.908 L70.727,187.908 Z M60.564,204.45 C60.082,205.095 59.246,205.616 58.498,205.32 C57.76,205.029 57.444,204.081 56.702,203.804 C56.195,203.614 55.634,203.791 55.096,203.848 C54.557,203.907 53.893,203.756 53.727,203.24 C53.658,203.023 53.696,202.788 53.734,202.562 C53.91,201.543 54.085,200.522 54.261,199.503 L54.816,197.978 C57.381,196.837 60.873,198.51 61.327,201.28 C61.507,202.382 61.232,203.555 60.564,204.45 L60.564,204.45 Z M102.841,220.377 C102.665,221.554 102.466,222.728 102.233,223.896 C102.039,224.859 101.805,225.863 101.155,226.599 C100.388,227.467 99.121,227.805 97.988,227.572 C96.854,227.34 95.867,226.587 95.211,225.633 C94.199,224.157 93.964,222.179 94.603,220.507 C95.493,218.177 97.946,216.373 97.823,213.881 C97.778,212.97 97.375,212.116 97.215,211.218 C96.738,208.526 98.454,205.986 100.081,203.791 L100.252,203.436 C100.506,202.907 101.158,202.679 101.669,202.967 L101.679,202.972 L99.553,171.154 C99.553,171.154 82.099,157.959 81.323,158.594 C81.323,158.594 80.064,159.092 78.406,159.695 L78.167,160.291 L77.599,160.291 L76.462,161.996 L75.815,160.54 C72.751,161.323 69.529,161.274 66.485,160.4 L65.663,161.428 L65.663,160.142 C65.601,160.122 65.539,160.103 65.477,160.082 C63.317,159.319 61.481,158.594 61.481,158.594 C60.705,157.959 43.251,171.154 43.251,171.154 L37.811,252.588 L104.994,252.588 L102.841,220.377 L102.841,220.377 Z" id="Shape" fill="#72655C" fill-rule="nonzero"></path>
                <path d="M100.082,203.791 C98.454,205.986 96.738,208.526 97.216,211.218 C97.376,212.116 97.778,212.97 97.823,213.881 C97.946,216.373 95.493,218.177 94.603,220.507 C93.965,222.179 94.199,224.157 95.212,225.633 C95.867,226.587 96.854,227.34 97.988,227.572 C99.121,227.806 100.389,227.467 101.155,226.6 C101.806,225.863 102.04,224.859 102.233,223.896 C102.467,222.728 102.666,221.555 102.842,220.377 L101.68,202.973 L101.67,202.967 C101.158,202.68 100.507,202.907 100.253,203.437 L100.082,203.791 L100.082,203.791 Z" id="Shape" fill="#65564F" fill-rule="nonzero"></path>
                <path d="M29.566,194.891 C29.196,196.868 34.195,197.746 38.604,198.138 L39.801,195.53 L39.801,197.519 C42.67,197.726 45.02,198.451 45.02,198.451 C45.02,198.451 48.319,179.53 61.4,158.585 C61.4,158.585 34.824,166.757 29.566,194.891" id="Shape" fill="#72655C" fill-rule="nonzero"></path>
                <path d="M117.179,194.037 C100.766,163.113 81.449,158.62 81.449,158.62 C94.53,179.565 98.371,198.485 98.371,198.485 C98.371,198.485 102.977,198.19 107.642,197.546 C107.723,196.911 107.878,196.134 107.878,196.134 L108.731,196.702 L109.583,194.144 L110.436,194.997 L111.004,194.997 L111.857,195.849 C111.857,195.849 112.355,196.348 112.609,196.684 C115.627,196.012 117.763,195.137 117.179,194.037" id="Shape" fill="#72655C" fill-rule="nonzero"></path>
                <polygon id="Shape" fill="#FFFFFF" points="70.78 117.441 70.914 117.443 71.047 117.447 71.178 117.453 71.308 117.46 71.435 117.468 71.561 117.478 71.685 117.49 71.807 117.502 71.926 117.516 72.044 117.53 72.159 117.546 72.272 117.562 72.382 117.579 72.489 117.597 72.595 117.615 72.698 117.634 72.798 117.653 72.897 117.673 73.081 117.712 73.254 117.752 73.416 117.791 73.564 117.83 73.698 117.866 73.818 117.901 73.923 117.932 74.014 117.961 74.138 118.002 74.184 118.018 74.235 118.037 74.284 118.057 74.332 118.08 74.38 118.105 74.426 118.132 74.471 118.161 74.515 118.191 74.558 118.224 74.599 118.258 74.639 118.294 74.677 118.331 74.714 118.37 74.749 118.411 74.782 118.453 74.814 118.496 74.843 118.541 74.871 118.587 74.897 118.634 74.92 118.682 74.942 118.731 74.962 118.781 74.979 118.831 74.995 118.882 75.008 118.934 75.019 118.987 75.028 119.04 75.035 119.093 75.039 119.146 75.041 119.2 75.041 119.253 75.039 119.307 75.035 119.36 75.028 119.413 75.019 119.466 75.008 119.519 74.994 119.57 74.979 119.622 74.961 119.672 74.941 119.722 74.919 119.771 74.896 119.819 74.87 119.866 74.842 119.912 74.812 119.956 74.781 120 74.747 120.041 74.712 120.082 74.676 120.121 74.637 120.158 74.598 120.194 74.556 120.228 74.514 120.261 74.47 120.291 74.424 120.32 74.378 120.347 74.33 120.371 74.282 120.394 74.232 120.415 74.182 120.434 74.131 120.45 74.08 120.464 74.028 120.477 73.975 120.487 73.922 120.494 73.869 120.5 73.815 120.503 73.762 120.504 73.708 120.503 73.655 120.5 73.601 120.494 73.548 120.486 73.496 120.476 73.444 120.464 73.392 120.449 73.341 120.433 73.316 120.424 73.232 120.396 73.173 120.378 73.096 120.355 73.007 120.329 72.905 120.301 72.79 120.271 72.665 120.241 72.528 120.21 72.38 120.178 72.306 120.163 72.227 120.148 72.147 120.133 72.064 120.119 71.98 120.105 71.893 120.092 71.806 120.079 71.716 120.067 71.625 120.056 71.533 120.045 71.439 120.036 71.344 120.027 71.249 120.02 71.151 120.013 71.054 120.008 70.955 120.003 70.856 120.001 70.756 119.999 70.656 119.999 70.555 120 70.454 120.003 70.353 120.007 70.252 120.013 70.15 120.02 70.049 120.029 69.948 120.04 69.847 120.053 69.747 120.067 69.647 120.083 69.547 120.102 69.449 120.122 69.351 120.144 69.253 120.168 69.157 120.194 69.061 120.222 68.963 120.253 68.92 120.268 68.873 120.284 68.826 120.301 68.78 120.319 68.734 120.337 68.689 120.355 68.644 120.374 68.592 120.397 68.542 120.417 68.492 120.436 68.441 120.452 68.389 120.466 68.337 120.478 68.284 120.488 68.231 120.495 68.178 120.501 68.124 120.504 68.071 120.504 68.017 120.503 67.964 120.499 67.91 120.493 67.858 120.485 67.805 120.475 67.753 120.462 67.701 120.447 67.651 120.431 67.6 120.412 67.551 120.391 67.503 120.367 67.456 120.342 67.409 120.315 67.364 120.286 67.32 120.255 67.278 120.223 67.237 120.188 67.197 120.152 67.159 120.115 67.123 120.075 67.088 120.034 67.055 119.992 67.024 119.949 66.995 119.904 66.967 119.858 66.942 119.811 66.918 119.763 66.897 119.714 66.877 119.664 66.86 119.613 66.845 119.562 66.832 119.51 66.821 119.457 66.812 119.404 66.806 119.351 66.802 119.298 66.8 119.244 66.8 119.191 66.803 119.137 66.808 119.084 66.815 119.031 66.824 118.978 66.835 118.926 66.849 118.874 66.865 118.823 66.883 118.772 66.903 118.722 66.925 118.674 66.949 118.626 66.975 118.579 67.003 118.533 67.033 118.489 67.065 118.446 67.098 118.404 67.134 118.364 67.17 118.325 67.209 118.288 67.249 118.252 67.29 118.218 67.333 118.186 67.378 118.156 67.423 118.127 67.469 118.101 67.517 118.076 67.566 118.054 67.633 118.024 67.709 117.992 67.784 117.961 67.86 117.932 67.935 117.903 68.011 117.876 68.086 117.849 68.164 117.823 68.312 117.776 68.463 117.731 68.614 117.691 68.764 117.654 68.914 117.62 69.063 117.59 69.212 117.563 69.359 117.539 69.506 117.517 69.652 117.499 69.798 117.483 69.942 117.47 70.084 117.46 70.226 117.452 70.367 117.446 70.506 117.442 70.643 117.441 70.78 117.441"></polygon>
                <polygon id="Shape" fill="#16102A" points="131.092 54.715 131.162 54.72 131.232 54.73 131.301 54.743 131.369 54.76 131.437 54.78 131.503 54.805 131.568 54.833 131.631 54.864 131.692 54.899 131.751 54.938 131.808 54.979 131.863 55.024 131.915 55.071 131.964 55.122 132.01 55.175 132.054 55.23 132.094 55.288 132.132 55.348 132.165 55.409 132.196 55.473 132.223 55.538 132.246 55.605 132.265 55.673 132.281 55.741 132.293 55.811 132.301 55.881 132.305 55.951 132.306 55.984 132.31 56.082 132.319 56.246 132.325 56.347 132.333 56.463 132.343 56.594 132.355 56.738 132.37 56.892 132.387 57.059 132.406 57.236 132.429 57.423 132.454 57.618 132.483 57.822 132.515 58.034 132.551 58.253 132.57 58.363 132.591 58.477 132.612 58.589 132.634 58.705 132.657 58.821 132.682 58.939 132.707 59.058 132.733 59.176 132.761 59.296 132.789 59.416 132.819 59.537 132.85 59.659 132.882 59.78 132.915 59.902 132.949 60.025 132.984 60.146 133.021 60.268 133.059 60.391 133.099 60.513 133.139 60.633 133.18 60.753 133.224 60.874 133.268 60.994 133.313 61.112 133.36 61.231 133.408 61.348 133.457 61.464 133.508 61.579 133.56 61.691 133.613 61.805 133.667 61.915 133.723 62.025 133.78 62.132 133.838 62.238 133.898 62.343 133.959 62.445 134.021 62.545 134.084 62.644 134.148 62.739 134.213 62.834 134.28 62.926 134.348 63.015 134.418 63.103 134.451 63.144 134.488 63.188 134.522 63.228 134.557 63.268 134.594 63.309 134.63 63.349 134.666 63.387 134.702 63.424 134.74 63.462 134.778 63.5 134.815 63.535 134.852 63.57 134.89 63.606 134.928 63.64 134.967 63.673 135.006 63.706 135.045 63.738 135.084 63.769 135.124 63.801 135.164 63.83 135.203 63.859 135.244 63.888 135.286 63.917 135.325 63.944 135.366 63.97 135.408 63.996 135.45 64.021 135.493 64.047 135.536 64.071 135.578 64.094 135.621 64.116 135.664 64.138 135.709 64.16 135.753 64.18 135.797 64.2 135.843 64.219 135.889 64.238 135.935 64.256 135.982 64.273 136.028 64.29 136.076 64.306 136.124 64.321 136.172 64.335 136.222 64.349 136.271 64.362 136.321 64.375 136.373 64.387 136.424 64.397 136.477 64.408 136.53 64.417 136.583 64.426 136.637 64.434 136.692 64.441 136.748 64.447 136.805 64.453 136.862 64.457 136.92 64.461 136.979 64.464 137.039 64.466 137.1 64.467 137.161 64.468 137.224 64.467 137.287 64.465 137.352 64.463 137.417 64.459 137.483 64.454 137.55 64.449 137.618 64.442 137.687 64.434 137.757 64.425 137.828 64.415 137.899 64.404 137.972 64.392 138.046 64.378 138.121 64.364 138.197 64.348 138.274 64.331 138.352 64.312 138.431 64.293 138.511 64.272 138.592 64.25 138.675 64.226 138.758 64.201 138.842 64.175 138.927 64.147 139.013 64.118 139.101 64.087 139.189 64.055 139.278 64.022 139.369 63.987 139.461 63.95 139.554 63.912 139.647 63.873 139.742 63.832 139.837 63.789 139.934 63.745 140.032 63.699 140.136 63.65 140.201 63.621 140.267 63.596 140.334 63.574 140.402 63.557 140.471 63.543 140.541 63.533 140.611 63.526 140.681 63.524 140.752 63.526 140.822 63.531 140.892 63.54 140.961 63.553 141.03 63.57 141.097 63.591 141.163 63.615 141.228 63.643 141.291 63.675 141.352 63.709 141.412 63.748 141.469 63.789 141.523 63.834 141.575 63.881 141.625 63.931 141.671 63.984 141.715 64.039 141.756 64.097 141.793 64.157 141.827 64.219 141.857 64.282 141.884 64.347 141.907 64.414 141.927 64.482 141.943 64.55 141.955 64.62 141.963 64.69 141.967 64.76 141.968 64.831 141.964 64.901 141.957 64.971 141.946 65.041 141.931 65.11 141.912 65.178 141.889 65.244 141.863 65.31 141.833 65.374 141.8 65.436 141.764 65.496 141.724 65.554 141.681 65.61 141.635 65.664 141.586 65.714 141.535 65.763 141.48 65.808 141.424 65.85 141.365 65.889 141.304 65.924 141.242 65.956 141.126 66.012 141.007 66.067 140.888 66.122 140.77 66.174 140.653 66.225 140.535 66.275 140.418 66.322 140.303 66.369 140.188 66.413 140.073 66.456 139.958 66.497 139.845 66.537 139.731 66.575 139.619 66.612 139.507 66.647 139.395 66.68 139.284 66.712 139.174 66.743 139.064 66.771 138.954 66.799 138.845 66.824 138.736 66.848 138.629 66.871 138.521 66.892 138.414 66.912 138.308 66.929 138.202 66.946 138.096 66.961 137.991 66.974 137.887 66.986 137.783 66.996 137.679 67.005 137.577 67.012 137.474 67.018 137.372 67.022 137.271 67.024 137.17 67.026 137.07 67.025 136.97 67.023 136.871 67.02 136.773 67.015 136.675 67.008 136.578 67.001 136.481 66.991 136.385 66.98 136.289 66.968 136.194 66.954 136.1 66.939 136.007 66.922 135.913 66.904 135.821 66.884 135.731 66.864 135.639 66.841 135.549 66.817 135.46 66.792 135.371 66.766 135.284 66.738 135.197 66.709 135.111 66.679 135.026 66.647 134.941 66.614 134.858 66.58 134.775 66.545 134.692 66.508 134.611 66.47 134.531 66.432 134.452 66.391 134.373 66.35 134.295 66.308 134.218 66.264 134.143 66.221 134.068 66.175 133.994 66.129 133.921 66.081 133.847 66.032 133.777 65.984 133.707 65.934 133.637 65.883 133.568 65.83 133.501 65.778 133.434 65.725 133.367 65.67 133.303 65.616 133.238 65.56 133.175 65.503 133.113 65.446 133.051 65.388 132.99 65.329 132.93 65.27 132.872 65.211 132.813 65.15 132.755 65.088 132.699 65.027 132.644 64.966 132.588 64.902 132.533 64.838 132.482 64.776 132.427 64.71 132.325 64.581 132.226 64.45 132.129 64.317 132.035 64.182 131.944 64.045 131.856 63.908 131.77 63.769 131.687 63.629 131.607 63.489 131.528 63.346 131.453 63.204 131.38 63.06 131.309 62.916 131.241 62.772 131.174 62.626 131.11 62.48 131.048 62.334 130.988 62.187 130.93 62.042 130.873 61.895 130.819 61.748 130.767 61.602 130.716 61.455 130.667 61.308 130.621 61.162 130.576 61.018 130.532 60.872 130.49 60.727 130.449 60.584 130.41 60.441 130.373 60.298 130.337 60.157 130.302 60.016 130.269 59.877 130.238 59.739 130.207 59.6 130.178 59.465 130.15 59.331 130.124 59.198 130.098 59.066 130.074 58.935 130.051 58.807 130.029 58.679 129.989 58.433 129.952 58.194 129.92 57.963 129.891 57.742 129.865 57.53 129.843 57.33 129.824 57.141 129.807 56.965 129.793 56.801 129.782 56.651 129.772 56.514 129.765 56.391 129.755 56.2 129.75 56.076 129.748 56.033 129.748 55.962 129.752 55.892 129.759 55.822 129.77 55.752 129.786 55.683 129.804 55.616 129.827 55.549 129.853 55.483 129.883 55.419 129.916 55.357 129.953 55.297 129.993 55.239 130.036 55.183 130.082 55.13 130.131 55.079 130.183 55.031 130.237 54.986 130.293 54.944 130.352 54.905 130.413 54.87 130.476 54.838 130.54 54.809 130.606 54.784 130.673 54.763 130.742 54.745 130.811 54.731 130.88 54.721 130.951 54.715 131.021 54.713 131.092 54.715"></polygon>
                <g id="Group" opacity="0.0500031" transform="translate(24.000000, 107.000000)">
                    <g id="Clipped">
                        <mask id="mask-9" fill="white">
                            <use xlink:href="#path-8"></use>
                        </mask>
                        <g id="Rectangle-path"></g>
                        <path d="M18.445,13.267 C17.721,11.992 16.998,10.715 16.274,9.44 C15.461,8.005 14.764,6.454 13.28,5.58 C12.756,5.272 12.223,5.079 11.692,4.987 C11.884,3.29 11.208,1.507 9.598,0.658 C7.569,-0.415 4.713,0.058 3.572,2.238 C1.919,5.395 -0.404,10.657 1.691,14.094 C3.344,16.81 6.466,17.244 9.189,15.911 C9.364,15.826 9.533,15.732 9.701,15.637 C10.077,16.335 10.451,17.033 10.838,17.713 C12.01,19.782 14.831,20.484 16.864,19.294 C18.945,18.077 19.623,15.344 18.445,13.267" id="Shape" fill="#3D3631" fill-rule="nonzero" mask="url(#mask-9)"></path>
                    </g>
                </g>
                <path d="M11.951,78.159 C11.951,78.159 21.045,77.875 20.761,88.39 L21.613,61.108 L11.951,65.655 L11.951,78.159 Z" id="Shape" fill="#494F5E" fill-rule="nonzero"></path>
                <path d="M129.606,78.727 C129.606,78.727 120.511,78.443 120.795,88.958 L119.943,61.676 L129.606,66.223 L129.606,78.727 Z" id="Shape" fill="#494F5E" fill-rule="nonzero"></path>
                <path d="M10.246,77.022 C10.246,77.022 28.437,63.315 45.023,60.898 C45.023,60.898 41.514,49.609 49.05,44.527 C49.05,44.527 47.767,59.933 54.583,64.451 C54.583,64.451 86.132,53.595 129.057,73.752 L130.576,74.665 C130.576,74.665 143.983,37.632 103.978,9.755 C101.688,8.159 99.021,7.159 96.237,7.02 C93.843,6.9 91.058,7.366 88.616,9.349 C88.616,9.349 40.322,-11.52 13.291,38.44 C13.291,38.44 8.328,54.523 10.246,77.022" id="Shape" fill="#16102A" fill-rule="nonzero"></path>
                <polygon id="Shape" fill="#16102A" points="92.567 0.576 92.634 0.58 92.701 0.588 92.767 0.599 92.832 0.614 92.896 0.632 92.96 0.653 93.022 0.678 93.083 0.706 93.142 0.737 93.2 0.771 93.256 0.808 93.309 0.848 93.361 0.891 93.41 0.937 93.457 0.984 93.501 1.035 93.543 1.087 93.581 1.142 93.617 1.198 93.65 1.257 93.68 1.317 93.706 1.378 93.729 1.441 93.749 1.505 93.766 1.57 93.779 1.636 93.789 1.702 93.795 1.769 93.798 1.835 93.797 1.902 93.793 1.969 93.785 2.036 93.773 2.102 93.759 2.167 93.741 2.232 93.719 2.295 93.695 2.357 93.667 2.418 93.635 2.477 93.601 2.535 93.564 2.591 93.524 2.644 93.481 2.696 93.436 2.745 93.388 2.792 93.338 2.836 93.285 2.878 93.231 2.916 93.174 2.952 93.116 2.985 93.056 3.015 92.994 3.041 92.818 3.112 92.653 3.18 92.494 3.249 92.339 3.318 92.189 3.388 92.044 3.458 91.903 3.528 91.767 3.599 91.635 3.67 91.507 3.741 91.384 3.812 91.265 3.884 91.15 3.956 91.039 4.028 90.933 4.099 90.83 4.171 90.732 4.243 90.637 4.315 90.546 4.386 90.459 4.457 90.375 4.528 90.295 4.599 90.218 4.67 90.145 4.74 90.075 4.81 90.008 4.881 89.945 4.95 89.884 5.019 89.826 5.088 89.772 5.155 89.719 5.224 89.67 5.291 89.624 5.358 89.58 5.425 89.538 5.492 89.499 5.557 89.462 5.623 89.426 5.689 89.394 5.753 89.364 5.817 89.335 5.882 89.307 5.947 89.283 6.01 89.259 6.074 89.238 6.138 89.218 6.201 89.2 6.265 89.183 6.326 89.168 6.389 89.154 6.454 89.142 6.516 89.132 6.578 89.122 6.641 89.115 6.704 89.108 6.768 89.103 6.829 89.099 6.892 89.096 6.955 89.094 7.017 89.094 7.08 89.095 7.143 89.097 7.206 89.1 7.268 89.105 7.332 89.11 7.394 89.117 7.456 89.124 7.518 89.133 7.58 89.142 7.642 89.153 7.704 89.164 7.764 89.177 7.827 89.19 7.889 89.204 7.948 89.219 8.007 89.235 8.069 89.252 8.128 89.269 8.186 89.287 8.246 89.306 8.305 89.325 8.362 89.344 8.418 89.365 8.475 89.386 8.531 89.406 8.585 89.427 8.636 89.473 8.747 89.518 8.85 89.564 8.95 89.611 9.045 89.658 9.137 89.704 9.225 89.75 9.309 89.795 9.387 89.838 9.46 89.879 9.528 89.919 9.591 89.956 9.649 89.99 9.699 90.02 9.744 90.045 9.779 90.088 9.839 90.111 9.87 90.118 9.878 90.158 9.932 90.195 9.988 90.229 10.046 90.259 10.105 90.287 10.166 90.311 10.228 90.333 10.292 90.35 10.357 90.365 10.422 90.376 10.488 90.383 10.555 90.387 10.621 90.388 10.688 90.385 10.755 90.378 10.822 90.368 10.888 90.355 10.954 90.338 11.018 90.317 11.082 90.294 11.145 90.267 11.206 90.237 11.266 90.204 11.324 90.168 11.381 90.129 11.435 90.087 11.488 90.043 11.538 89.996 11.585 89.946 11.631 89.895 11.673 89.841 11.713 89.785 11.75 89.727 11.784 89.668 11.814 89.607 11.842 89.544 11.866 89.481 11.888 89.416 11.905 89.351 11.92 89.285 11.931 89.218 11.938 89.151 11.942 89.084 11.943 89.017 11.94 88.951 11.933 88.885 11.923 88.819 11.91 88.754 11.893 88.69 11.872 88.628 11.849 88.566 11.822 88.506 11.792 88.448 11.759 88.392 11.723 88.337 11.684 88.285 11.642 88.235 11.598 88.187 11.551 88.142 11.501 88.1 11.45 88.081 11.425 88.031 11.359 87.961 11.262 87.915 11.197 87.868 11.128 87.817 11.05 87.762 10.966 87.705 10.876 87.645 10.777 87.583 10.671 87.519 10.56 87.454 10.441 87.387 10.316 87.321 10.185 87.253 10.047 87.187 9.903 87.121 9.753 87.058 9.602 87.025 9.519 86.993 9.436 86.962 9.354 86.932 9.27 86.902 9.183 86.873 9.096 86.845 9.009 86.818 8.92 86.791 8.828 86.766 8.735 86.741 8.643 86.718 8.548 86.695 8.45 86.674 8.353 86.654 8.256 86.635 8.155 86.618 8.054 86.602 7.952 86.587 7.848 86.575 7.744 86.564 7.637 86.554 7.53 86.547 7.423 86.541 7.314 86.538 7.205 86.536 7.094 86.537 6.982 86.539 6.869 86.544 6.755 86.551 6.642 86.561 6.525 86.573 6.41 86.588 6.293 86.605 6.177 86.625 6.059 86.648 5.939 86.674 5.823 86.702 5.705 86.734 5.583 86.768 5.464 86.806 5.345 86.846 5.225 86.89 5.105 86.937 4.985 86.987 4.866 87.04 4.748 87.097 4.627 87.157 4.508 87.22 4.391 87.286 4.273 87.357 4.155 87.43 4.038 87.506 3.923 87.587 3.807 87.671 3.692 87.757 3.579 87.848 3.466 87.942 3.353 88.039 3.243 88.141 3.132 88.245 3.023 88.353 2.915 88.465 2.807 88.58 2.702 88.698 2.597 88.82 2.493 88.946 2.39 89.075 2.288 89.208 2.188 89.345 2.089 89.485 1.99 89.629 1.894 89.776 1.798 89.928 1.703 90.083 1.61 90.242 1.518 90.405 1.427 90.571 1.337 90.742 1.248 90.917 1.161 91.095 1.075 91.278 0.99 91.465 0.907 91.657 0.824 91.852 0.743 92.043 0.666 92.106 0.643 92.17 0.623 92.235 0.607 92.301 0.594 92.367 0.584 92.433 0.578 92.5 0.575 92.567 0.576"></polygon>
                <path d="M63.449,345.217 L38.569,345.217 L38.569,341.904 C38.569,336.623 42.85,332.343 48.131,332.343 L53.887,332.343 C59.169,332.343 63.449,336.623 63.449,341.904 L63.449,345.217 L63.449,345.217 Z" id="Shape" fill="#C89C76" fill-rule="nonzero"></path>
                <path d="M62.672,336.785 C62.534,335.631 62.133,334.501 61.385,333.557 C60.784,332.8 60.057,332.238 59.208,331.883 C57.526,331.18 55.93,331.536 55.497,331.657 C54.826,331.76 52.43,332.438 51.171,336.863 C49.913,332.439 47.518,331.76 46.846,331.657 C46.413,331.537 44.816,331.18 43.135,331.883 C41.684,332.491 40.435,333.427 39.869,335.461 C39.834,335.59 39.209,338.607 39.209,338.607 C39.108,339.065 39.436,339.51 39.941,339.6 C40.002,339.612 40.065,339.617 40.125,339.617 C40.561,339.617 40.949,339.34 41.038,338.938 L41.66,336.125 C41.676,336.057 41.678,335.991 41.675,335.925 C43.172,332.404 45.998,333.176 46.313,333.275 C46.313,333.275 50.356,334.03 50.075,344.661 C50.07,344.874 50.319,345.072 50.599,345.225 C51.097,345.5 51.765,345.431 52.127,345.013 C52.214,344.912 52.271,344.802 52.268,344.686 C51.982,334.032 55.915,333.313 55.915,333.313 C55.915,333.313 57.213,332.908 58.424,333.415 C59.41,333.828 60.183,334.712 60.722,336.041 C60.758,336.133 60.814,336.212 60.877,336.283 L61.064,339.379 C61.091,339.845 61.531,340.202 62.045,340.177 C62.56,340.151 62.954,339.753 62.927,339.288 C62.927,339.288 62.807,337.914 62.672,336.785" id="Shape" fill="#D3D3D3" fill-rule="nonzero"></path>
                <path d="M43.877,333.402 C43.877,333.402 39.701,335.388 38.824,339.452 L39.813,340.071 L42.301,338.923 L43.877,333.402 Z" id="Shape" fill="#C89C76" fill-rule="nonzero"></path>
                <path d="M58.107,333.402 C58.107,333.402 62.205,334.904 63.16,339.452 L62.205,340.645 L59.683,338.923 L58.107,333.402 Z" id="Shape" fill="#C89C76" fill-rule="nonzero"></path>
                <path d="M102.635,345.217 L77.755,345.217 L77.755,341.904 C77.755,336.623 82.035,332.343 87.317,332.343 L93.073,332.343 C98.354,332.343 102.635,336.623 102.635,341.904 L102.635,345.217 L102.635,345.217 Z" id="Shape" fill="#C89C76" fill-rule="nonzero"></path>
                <path d="M101.858,336.785 C101.721,335.631 101.319,334.501 100.572,333.557 C99.971,332.8 99.244,332.238 98.394,331.883 C96.713,331.18 95.116,331.536 94.683,331.657 C94.012,331.76 91.616,332.438 90.358,336.863 C89.1,332.439 86.704,331.76 86.033,331.657 C85.599,331.537 84.002,331.18 82.322,331.883 C80.87,332.491 79.621,333.427 79.056,335.461 C79.02,335.59 78.395,338.607 78.395,338.607 C78.294,339.065 78.622,339.51 79.128,339.6 C79.189,339.612 79.251,339.617 79.311,339.617 C79.747,339.617 80.136,339.34 80.225,338.938 L80.847,336.125 C80.862,336.057 80.865,335.991 80.862,335.925 C82.359,332.404 85.185,333.176 85.5,333.275 C85.5,333.275 89.543,334.03 89.262,344.661 C89.256,344.874 89.506,345.072 89.785,345.225 C90.283,345.5 90.952,345.431 91.314,345.013 C91.401,344.912 91.458,344.802 91.455,344.686 C91.168,334.032 95.101,333.313 95.101,333.313 C95.101,333.313 96.399,332.908 97.611,333.415 C98.596,333.828 99.369,334.712 99.908,336.041 C99.945,336.133 100,336.212 100.064,336.283 L100.25,339.379 C100.278,339.845 100.717,340.202 101.232,340.177 C101.747,340.151 102.14,339.753 102.113,339.288 C102.113,339.288 101.993,337.914 101.858,336.785" id="Shape" fill="#D3D3D3" fill-rule="nonzero"></path>
                <path d="M83.063,333.402 C83.063,333.402 78.888,335.388 78.01,339.452 L79,340.071 L81.487,338.923 L83.063,333.402 Z" id="Shape" fill="#C89C76" fill-rule="nonzero"></path>
                <path d="M97.292,333.402 C97.292,333.402 101.391,334.904 102.345,339.452 L101.391,340.645 L98.868,338.923 L97.292,333.402 Z" id="Shape" fill="#C89C76" fill-rule="nonzero"></path>
                <path d="M62.291,346.387 L39.728,346.387 C38.744,346.387 37.947,345.589 37.947,344.607 L37.947,343.277 L64.071,343.277 L64.071,344.607 C64.071,345.589 63.274,346.387 62.291,346.387" id="Shape" fill="#2F2E30" fill-rule="nonzero"></path>
                <path d="M101.477,346.387 L78.914,346.387 C77.93,346.387 77.133,345.589 77.133,344.607 L77.133,343.277 L103.257,343.277 L103.257,344.607 C103.257,345.589 102.46,346.387 101.477,346.387" id="Shape" fill="#2F2E30" fill-rule="nonzero"></path>
            </g>
        </g>
    </g>
</svg>