<?xml version="1.0" encoding="UTF-8" standalone="no"?>
<svg width="400px" height="59px" viewBox="0 0 400 59" version="1.1" xmlns="http://www.w3.org/2000/svg" xmlns:xlink="http://www.w3.org/1999/xlink">
    <!-- Generator: Sketch 43.2 (39069) - http://www.bohemiancoding.com/sketch -->
    <title>cage-stand</title>
    <desc>Created with Sketch.</desc>
    <defs></defs>
    <g id="Page-1" stroke="none" stroke-width="1" fill="none" fill-rule="evenodd">
        <g id="cage-stand" fill-rule="nonzero">
            <path d="M388.304,15.249 L385.276,15.249 L385.276,6.392 L388.304,6.392 C390.429,6.392 392.152,8.114 392.152,10.239 L392.152,11.401 C392.152,13.526 390.429,15.249 388.304,15.249" id="Shape" fill="#7A7A7A"></path>
            <path d="M395.774,43.695 L392.745,43.695 L392.745,34.838 L395.774,34.838 C397.899,34.838 399.622,36.56 399.622,38.685 L399.622,39.847 C399.622,41.972 397.899,43.695 395.774,43.695" id="Shape" fill="#7A7A7A"></path>
            <path d="M12.317,15.249 L15.346,15.249 L15.346,6.392 L12.317,6.392 C10.192,6.392 8.469,8.114 8.469,10.239 L8.469,11.401 C8.469,13.526 10.192,15.249 12.317,15.249" id="Shape" fill="#7A7A7A"></path>
            <path d="M3.848,43.695 L6.876,43.695 L6.876,34.838 L3.848,34.838 C1.723,34.838 -4.4408921e-16,36.56 -4.4408921e-16,38.685 L-4.4408921e-16,39.847 C-4.4408921e-16,41.972 1.723,43.695 3.848,43.695" id="Shape" fill="#7A7A7A"></path>
            <path d="M385.312,20.521 L14.949,20.521 L14.949,4.815 C14.949,2.155 17.104,0 19.763,0 L380.497,0 C383.156,0 385.312,2.155 385.312,4.815 L385.312,20.521 Z" id="Shape" fill="#9B9B9B"></path>
            <path d="M393.781,58.469 L5.177,58.469 L5.177,28.218 C5.177,23.697 8.842,20.032 13.362,20.032 L385.595,20.032 C390.116,20.032 393.781,23.697 393.781,28.218 L393.781,58.469 Z" id="Shape" fill="#8C8C8C"></path>
            <path d="M42.768,7.165 C40.917,7.165 39.416,8.666 39.416,10.518 C39.416,12.368 40.917,13.869 42.768,13.869 C44.62,13.869 46.121,12.368 46.121,10.518 C46.121,8.666 44.62,7.165 42.768,7.165" id="Shape" fill="#939393"></path>
            <path d="M71.534,7.165 C69.682,7.165 68.182,8.666 68.182,10.518 C68.182,12.368 69.682,13.869 71.534,13.869 C73.385,13.869 74.887,12.368 74.887,10.518 C74.887,8.666 73.385,7.165 71.534,7.165" id="Shape" fill="#939393"></path>
            <path d="M100.299,7.165 C98.448,7.165 96.947,8.666 96.947,10.518 C96.947,12.368 98.448,13.869 100.299,13.869 C102.151,13.869 103.651,12.368 103.651,10.518 C103.651,8.666 102.151,7.165 100.299,7.165" id="Shape" fill="#939393"></path>
            <path d="M129.065,7.165 C127.214,7.165 125.713,8.666 125.713,10.518 C125.713,12.368 127.214,13.869 129.065,13.869 C130.917,13.869 132.417,12.368 132.417,10.518 C132.417,8.666 130.917,7.165 129.065,7.165" id="Shape" fill="#939393"></path>
            <path d="M157.83,7.165 C155.979,7.165 154.478,8.666 154.478,10.518 C154.478,12.368 155.979,13.869 157.83,13.869 C159.682,13.869 161.182,12.368 161.182,10.518 C161.182,8.666 159.682,7.165 157.83,7.165" id="Shape" fill="#939393"></path>
            <path d="M186.596,7.165 C184.745,7.165 183.244,8.666 183.244,10.518 C183.244,12.368 184.745,13.869 186.596,13.869 C188.448,13.869 189.948,12.368 189.948,10.518 C189.948,8.666 188.448,7.165 186.596,7.165" id="Shape" fill="#939393"></path>
            <path d="M215.362,7.165 C213.511,7.165 212.01,8.666 212.01,10.518 C212.01,12.368 213.511,13.869 215.362,13.869 C217.214,13.869 218.714,12.368 218.714,10.518 C218.714,8.666 217.214,7.165 215.362,7.165" id="Shape" fill="#939393"></path>
            <path d="M330.424,7.165 C328.573,7.165 327.072,8.666 327.072,10.518 C327.072,12.368 328.573,13.869 330.424,13.869 C332.276,13.869 333.776,12.368 333.776,10.518 C333.776,8.666 332.276,7.165 330.424,7.165" id="Shape" fill="#939393"></path>
            <path d="M359.19,7.165 C357.338,7.165 355.838,8.666 355.838,10.518 C355.838,12.368 357.338,13.869 359.19,13.869 C361.041,13.869 362.542,12.368 362.542,10.518 C362.542,8.666 361.041,7.165 359.19,7.165" id="Shape" fill="#939393"></path>
            <path d="M244.127,7.165 C242.276,7.165 240.775,8.666 240.775,10.518 C240.775,12.368 242.276,13.869 244.127,13.869 C245.979,13.869 247.479,12.368 247.479,10.518 C247.479,8.666 245.979,7.165 244.127,7.165" id="Shape" fill="#939393"></path>
            <path d="M272.893,7.165 C271.042,7.165 269.541,8.666 269.541,10.518 C269.541,12.368 271.042,13.869 272.893,13.869 C274.745,13.869 276.245,12.368 276.245,10.518 C276.245,8.666 274.745,7.165 272.893,7.165" id="Shape" fill="#939393"></path>
            <path d="M301.658,7.165 C299.807,7.165 298.306,8.666 298.306,10.518 C298.306,12.368 299.807,13.869 301.658,13.869 C303.51,13.869 305.01,12.368 305.01,10.518 C305.01,8.666 303.51,7.165 301.658,7.165" id="Shape" fill="#939393"></path>
        </g>
    </g>
</svg>