<?xml version="1.0" encoding="UTF-8" standalone="no"?>
<svg width="680px" height="768px" viewBox="0 0 680 768" version="1.1" xmlns="http://www.w3.org/2000/svg" xmlns:xlink="http://www.w3.org/1999/xlink">
    <!-- Generator: Sketch 43.2 (39069) - http://www.bohemiancoding.com/sketch -->
    <title>Part1-3</title>
    <desc>Created with Sketch.</desc>
    <defs>
        <rect id="path-1" x="0.693" y="0.884" width="39.009" height="46.959"></rect>
        <rect id="path-3" x="0.413" y="0.407" width="45.271" height="43.623"></rect>
        <rect id="path-5" x="0.216" y="0.811" width="41.189" height="37.457"></rect>
        <rect id="path-7" x="0.221" y="0.067" width="41.765" height="46.35"></rect>
        <rect id="path-9" x="0.259" y="0.529" width="32.496" height="45.089"></rect>
    </defs>
    <g id="Page-1" stroke="none" stroke-width="1" fill="none" fill-rule="evenodd">
        <g id="Part1-3" transform="translate(-367.000000, 0.000000)">
            <g id="Layer-9" transform="translate(827.000000, 78.000000)">
                <polygon id="Shape" fill="#76CB4B" points="187.8 0.355 188.299 0.451 188.787 0.594 189.259 0.783 189.711 1.016 190.138 1.291 190.538 1.605 190.906 1.956 191.239 2.34 191.534 2.754 191.788 3.194 191.999 3.657 192.165 4.137 192.285 4.631 192.357 5.134 192.382 5.642 192.382 132.065 192.357 132.573 192.285 133.076 192.165 133.57 191.999 134.05 191.788 134.513 191.534 134.953 191.239 135.367 190.906 135.751 190.538 136.102 190.138 136.416 189.711 136.691 189.259 136.924 188.787 137.113 188.299 137.256 187.8 137.352 187.294 137.4 186.786 137.4 186.28 137.352 185.781 137.256 185.293 137.113 184.821 136.924 184.369 136.691 183.942 136.416 183.542 136.102 183.174 135.751 182.841 135.367 182.547 134.953 182.292 134.513 182.081 134.05 181.915 133.57 181.795 133.076 181.723 132.573 181.699 132.065 181.699 5.642 181.723 5.134 181.795 4.631 181.915 4.137 182.081 3.657 182.292 3.194 182.547 2.754 182.841 2.34 183.174 1.956 183.542 1.605 183.942 1.291 184.369 1.016 184.821 0.783 185.293 0.594 185.781 0.451 186.28 0.355 186.786 0.306 187.294 0.306"></polygon>
                <path d="M177.66,151.104 C177.66,151.104 157.151,255.137 47.434,207.104 L0.161,348.225 C0.161,348.225 104.957,361.244 152.109,306.416 C181.425,272.33 188.003,183.234 177.66,151.104" id="Shape" fill="#76CB4B" fill-rule="nonzero"></path>
                <path d="M50.579,216.432 C50.579,216.432 128.445,254.9 177.377,178.092 C177.377,178.092 176.67,270.163 164.796,285.532 C152.922,300.901 120.772,347.065 9.148,340.109 C9.148,340.109 45.417,227.086 50.579,216.432" id="Shape" fill="#71B748" fill-rule="nonzero"></path>
                <path d="M179.85,190.751 C179.85,190.75 143.67,243.878 75.527,231.529 C75.527,231.529 71.255,251.438 49.681,246.968 L27.434,313.379 C27.434,313.379 50.843,308.607 49.275,331.449 C49.275,331.449 138.878,332.851 169.466,269.878 L179.85,190.75 L179.85,190.751 Z" id="Shape" fill="#76CB4B" fill-rule="nonzero"></path>
                <path d="M117.501,29.519 C117.501,29.519 90.855,143.641 68.785,173.842 C68.785,173.842 200.513,242.171 146.409,312.629 C146.409,312.629 196.845,272.18 212.187,133.016 C212.187,133.016 209.318,57.707 117.501,29.519" id="Shape" fill="#76CB4B" fill-rule="nonzero"></path>
                <path d="M122.724,38.6 C122.724,38.6 104.992,139.06 82.922,169.262 C82.922,169.262 199.773,235.779 159.077,299.933 C159.077,299.933 199.139,257.726 211.278,140.799 C211.278,140.799 214.54,66.788 122.724,38.6" id="Shape" fill="#71B748" fill-rule="nonzero"></path>
                <path d="M164.996,291.969 C164.996,291.969 203.752,243.955 116.569,176.612 C116.569,176.612 129.013,155.373 104.938,144.05 C104.938,144.05 125.506,99.013 130.015,68.862 C130.015,68.862 143.45,80.653 154.032,60.995 C154.032,60.995 209.67,87.565 210.485,146.983 C210.485,146.983 202.555,239.318 164.996,291.969" id="Shape" fill="#76CB4B" fill-rule="nonzero"></path>
                <path d="M208.76,161.521 C208.76,161.521 197.407,163.243 189.89,186.657 C182.372,210.071 178.615,252.664 180.04,266.541 C180.04,266.541 201.502,224.952 208.76,161.521" id="Shape" fill="#629B3D" fill-rule="nonzero"></path>
                <polygon id="Shape" fill="#71B748" points="16.194 234.522 16.632 234.577 17.064 234.668 17.487 234.794 17.899 234.954 18.295 235.148 18.674 235.374 19.034 235.63 19.371 235.916 19.683 236.228 19.968 236.565 20.225 236.924 20.451 237.303 20.645 237.7 20.805 238.111 20.931 238.534 21.022 238.966 21.076 239.405 21.094 239.846 21.094 334.809 21.076 335.25 21.022 335.688 20.931 336.12 20.805 336.543 20.645 336.954 20.451 337.351 20.225 337.73 19.968 338.089 19.683 338.426 19.371 338.738 19.034 339.024 18.674 339.28 18.295 339.506 17.899 339.7 17.487 339.861 17.064 339.987 16.632 340.077 16.194 340.132 15.753 340.15 15.312 340.132 14.874 340.077 14.442 339.987 14.019 339.861 13.607 339.7 13.211 339.506 12.831 339.28 12.472 339.024 12.135 338.738 11.823 338.426 11.538 338.089 11.281 337.73 11.055 337.351 10.861 336.954 10.701 336.543 10.575 336.12 10.484 335.688 10.43 335.25 10.411 334.809 10.411 239.846 10.43 239.405 10.484 238.966 10.575 238.534 10.701 238.111 10.861 237.7 11.055 237.303 11.281 236.924 11.538 236.565 11.823 236.228 12.135 235.916 12.472 235.63 12.831 235.374 13.211 235.148 13.607 234.954 14.019 234.794 14.442 234.668 14.874 234.577 15.312 234.522 15.753 234.504"></polygon>
                <polygon id="Shape" fill="#71B748" points="140.855 17.795 141.138 17.825 141.418 17.87 141.696 17.93 141.971 18.005 142.241 18.095 142.506 18.198 142.765 18.316 143.017 18.447 143.262 18.591 143.499 18.748 143.727 18.918 143.946 19.099 144.155 19.292 144.354 19.496 144.541 19.71 144.716 19.934 144.88 20.167 145.031 20.408 145.169 20.656 145.293 20.912 145.403 21.174 145.5 21.442 145.582 21.714 145.65 21.99 145.702 22.27 145.74 22.552 145.763 22.835 145.77 23.119 145.77 62.153 145.763 62.438 145.74 62.721 145.702 63.003 145.65 63.282 145.582 63.559 145.5 63.831 145.403 64.098 145.293 64.36 145.169 64.616 145.031 64.865 144.88 65.106 144.716 65.339 144.541 65.562 144.354 65.777 144.155 65.98 143.946 66.173 143.727 66.355 143.499 66.524 143.262 66.681 143.017 66.826 142.765 66.957 142.506 67.074 142.241 67.178 141.971 67.267 141.696 67.342 141.418 67.402 141.138 67.448 140.855 67.478 140.571 67.493 140.287 67.493 140.003 67.478 139.72 67.448 139.439 67.402 139.161 67.342 138.887 67.267 138.617 67.178 138.352 67.074 138.093 66.957 137.84 66.826 137.595 66.681 137.358 66.524 137.13 66.355 136.911 66.173 136.702 65.98 136.504 65.777 136.317 65.562 136.141 65.339 135.978 65.106 135.827 64.865 135.689 64.616 135.565 64.36 135.454 64.098 135.358 63.831 135.275 63.559 135.208 63.282 135.155 63.003 135.117 62.721 135.095 62.438 135.087 62.153 135.087 23.119 135.095 22.835 135.117 22.552 135.155 22.27 135.208 21.99 135.275 21.714 135.358 21.442 135.454 21.174 135.565 20.912 135.689 20.656 135.827 20.408 135.978 20.167 136.141 19.934 136.317 19.71 136.504 19.496 136.702 19.292 136.911 19.099 137.13 18.918 137.358 18.748 137.595 18.591 137.84 18.447 138.093 18.316 138.352 18.198 138.617 18.095 138.887 18.005 139.161 17.93 139.439 17.87 139.72 17.825 140.003 17.795 140.287 17.78 140.571 17.78 140.855 17.795"></polygon>
                <polygon id="Shape" fill="#11132D" points="176.88 51.591 177.206 51.632 177.53 51.692 177.849 51.773 178.162 51.872 178.469 51.991 178.768 52.129 179.058 52.284 179.337 52.458 179.606 52.648 179.862 52.854 180.105 53.075 180.334 53.312 180.548 53.561 180.747 53.824 180.928 54.098 181.093 54.383 181.239 54.678 181.368 54.981 181.477 55.291 181.567 55.607 181.637 55.929 181.688 56.254 181.718 56.581 181.728 56.91 181.728 108.178 181.718 108.507 181.688 108.835 181.637 109.16 181.567 109.481 181.477 109.797 181.368 110.108 181.239 110.411 181.093 110.705 180.928 110.99 180.747 111.264 180.548 111.527 180.334 111.777 180.105 112.013 179.862 112.235 179.606 112.441 179.337 112.631 179.058 112.804 178.768 112.96 178.469 113.097 178.162 113.216 177.849 113.316 177.53 113.396 177.206 113.456 176.88 113.497 176.551 113.517 176.222 113.517 175.894 113.497 175.567 113.456 175.244 113.396 174.925 113.316 174.612 113.216 174.305 113.097 174.006 112.96 173.716 112.804 173.436 112.631 173.168 112.441 172.912 112.235 172.668 112.013 172.439 111.777 172.225 111.527 172.027 111.264 171.845 110.99 171.681 110.705 171.534 110.411 171.406 110.108 171.297 109.797 171.207 109.481 171.136 109.16 171.086 108.835 171.055 108.507 171.045 108.178 171.045 56.91 171.055 56.581 171.086 56.254 171.136 55.929 171.207 55.607 171.297 55.291 171.406 54.981 171.534 54.678 171.681 54.383 171.845 54.098 172.027 53.824 172.225 53.561 172.439 53.312 172.668 53.075 172.912 52.854 173.168 52.648 173.436 52.458 173.716 52.284 174.006 52.129 174.305 51.991 174.612 51.872 174.925 51.773 175.244 51.692 175.567 51.632 175.894 51.591 176.222 51.571 176.551 51.571"></polygon>
            </g>
            <g id="Layer-5" transform="translate(415.000000, 308.000000)">
                <path d="M359.714,213.203 C359.714,213.203 282.198,310.351 265.383,324.522 C265.383,324.522 117.833,268.267 0.956,124.397 C0.956,124.397 47.471,52.36 112.225,0.952 C112.225,0.952 179.056,115.326 359.714,213.203" id="Shape" fill="#76CB4B" fill-rule="nonzero"></path>
                <path d="M346.493,214.227 C346.493,214.227 279.333,304.039 263.503,317.378 C263.503,317.378 118.679,257.55 8.651,122.11 C8.651,122.11 50.08,59.617 111.04,11.221 C111.04,11.221 176.42,122.086 346.493,214.228" id="Shape" fill="#71B748" fill-rule="nonzero"></path>
                <path d="M235.798,292.668 C235.798,292.668 252.795,270.68 277.396,286.594 L317.883,230.647 C317.883,230.647 300.36,222.621 308.989,203.42 C308.989,203.42 196.931,131.957 122.28,40.452 C122.28,40.452 107.954,51.07 94.193,34.806 C94.193,34.806 43.585,81.705 28.772,105.489 C28.772,105.489 49.555,117.403 36.804,140.513 C36.804,140.513 112.025,228.181 235.798,292.668" id="Shape" fill="#76CB4B" fill-rule="nonzero"></path>
                <path d="M197.365,152.124 C182.479,132.039 154.13,127.825 134.046,142.711 C113.961,157.597 109.747,185.946 124.633,206.03 C139.519,226.115 167.868,230.329 187.952,215.443 C208.037,200.558 212.251,172.208 197.365,152.124" id="Shape" fill="#629B3D" fill-rule="nonzero"></path>
                <polygon id="Shape" fill="#71B748" points="323.449 107.869 323.921 107.954 324.383 108.082 324.832 108.25 325.264 108.458 325.675 108.704 326.063 108.986 326.424 109.301 326.755 109.647 327.054 110.022 327.318 110.422 327.545 110.844 327.733 111.285 327.881 111.741 327.988 112.208 328.052 112.683 328.074 113.162 328.074 223.888 328.052 224.367 327.988 224.841 327.881 225.309 327.733 225.765 327.545 226.205 327.318 226.627 327.054 227.027 326.755 227.402 326.424 227.749 326.063 228.064 325.675 228.346 325.264 228.591 324.832 228.799 324.383 228.968 323.921 229.095 323.449 229.181 322.972 229.224 322.493 229.224 322.015 229.181 321.544 229.095 321.082 228.968 320.633 228.799 320.201 228.591 319.79 228.346 319.402 228.064 319.041 227.749 318.71 227.402 318.411 227.027 318.147 226.627 317.92 226.205 317.731 225.765 317.583 225.309 317.477 224.841 317.412 224.367 317.391 223.888 317.391 113.162 317.412 112.683 317.477 112.208 317.583 111.741 317.731 111.285 317.92 110.844 318.147 110.422 318.411 110.022 318.71 109.647 319.041 109.301 319.402 108.986 319.79 108.704 320.201 108.458 320.633 108.25 321.082 108.082 321.544 107.954 322.015 107.869 322.493 107.826 322.972 107.826 323.449 107.869"></polygon>
                <polygon id="Shape" fill="#11132D" points="301.172 158.522 301.486 158.56 301.798 158.616 302.105 158.69 302.408 158.783 302.705 158.893 302.995 159.021 303.276 159.165 303.549 159.326 303.811 159.503 304.063 159.695 304.303 159.902 304.53 160.122 304.744 160.356 304.943 160.602 305.128 160.859 305.297 161.126 305.449 161.404 305.586 161.69 305.705 161.983 305.806 162.283 305.889 162.588 305.955 162.898 306.001 163.211 306.029 163.526 306.039 163.843 306.039 212.32 306.029 212.636 306.001 212.952 305.955 213.265 305.889 213.574 305.806 213.88 305.705 214.18 305.586 214.473 305.449 214.759 305.297 215.036 305.128 215.304 304.943 215.561 304.744 215.807 304.53 216.04 304.303 216.261 304.063 216.468 303.811 216.66 303.549 216.837 303.276 216.998 302.995 217.142 302.705 217.27 302.408 217.38 302.105 217.472 301.798 217.547 301.486 217.603 301.172 217.64 300.856 217.659 300.539 217.659 300.223 217.64 299.909 217.603 299.597 217.547 299.289 217.472 298.987 217.38 298.69 217.27 298.4 217.142 298.118 216.998 297.846 216.837 297.583 216.66 297.332 216.468 297.092 216.261 296.865 216.04 296.651 215.807 296.452 215.561 296.267 215.304 296.098 215.036 295.945 214.759 295.809 214.473 295.69 214.18 295.589 213.88 295.505 213.574 295.44 213.265 295.393 212.952 295.365 212.636 295.356 212.32 295.356 163.843 295.365 163.526 295.393 163.211 295.44 162.898 295.505 162.588 295.589 162.283 295.69 161.983 295.809 161.69 295.945 161.404 296.098 161.126 296.267 160.859 296.452 160.602 296.651 160.356 296.865 160.122 297.092 159.902 297.332 159.695 297.583 159.503 297.846 159.326 298.118 159.165 298.4 159.021 298.69 158.893 298.987 158.783 299.289 158.69 299.597 158.616 299.909 158.56 300.223 158.522 300.539 158.504 300.856 158.504"></polygon>
            </g>
            <g id="Layer-8" transform="translate(500.000000, 31.000000)">
                <path d="M31.749,164.708 C4.261,151.654 -7.51,118.593 5.544,91.104 C18.598,63.616 51.659,51.845 79.147,64.899 C106.635,77.953 118.406,111.014 105.353,138.502 C92.298,165.991 59.237,177.762 31.749,164.708" id="Shape" fill="#DBAB56" fill-rule="nonzero"></path>
                <path d="M79.069,65.063 C104.914,77.336 115.915,108.236 103.642,134.081 C91.369,159.925 60.468,170.927 34.624,158.654 C8.779,146.381 -2.223,115.48 10.051,89.636 C22.324,63.791 53.225,52.79 79.069,65.063" id="Shape" fill="#EFB30C" fill-rule="nonzero"></path>
                <path d="M12.973,97.841 C25.25,71.989 56.139,60.991 81.991,73.268 C93.444,78.707 102.137,87.848 106.891,98.528 C103.123,84.506 93.468,71.901 79.07,65.063 C53.218,52.786 22.328,63.784 10.052,89.636 C3.214,104.034 3.535,119.827 9.639,133.153 C6.737,121.95 7.534,109.294 12.973,97.841" id="Shape" fill="#E5A300" fill-rule="nonzero"></path>
                <path d="M105.594,94.502 C115.217,121.53 101.153,151.146 74.203,160.605 C47.175,170.228 17.723,156.242 8.1,129.213" id="Shape" fill="#E5A300" fill-rule="nonzero"></path>
                <g id="Group" opacity="0.720001" transform="translate(37.000000, 89.000000)">
                    <g id="Clipped">
                        <mask id="mask-2" fill="white">
                            <use xlink:href="#path-1"></use>
                        </mask>
                        <g id="Rectangle-path"></g>
                        <path d="M4.697,38.064 L13.996,42.481 C19.999,45.652 24.011,42.598 26.03,40.187 C27.355,38.605 28.233,36.626 28.047,34.543 C27.535,28.796 21.174,25.806 21.174,25.806 C30.425,28.958 34.291,23.537 34.291,23.537 C34.368,23.41 34.442,23.283 34.514,23.158 C37.341,18.217 34.91,11.753 29.331,9.104 L20.452,4.887 L4.697,38.064 L4.697,38.064 Z" id="Shape" stroke="#F9E310" stroke-width="8.01" mask="url(#mask-2)"></path>
                    </g>
                </g>
                <g id="Group" opacity="0.720001" transform="translate(44.000000, 89.000000)" fill-rule="nonzero" fill="#F9E310">
                    <g id="Shape">
                        <path d="M24.395,7.861 L25.823,4.853 C26.535,3.354 26.021,1.62 24.674,0.981 C23.328,0.341 21.66,1.038 20.948,2.538 L19.52,5.546 L24.395,7.861 Z"></path>
                        <path d="M1.99,42.46 L0.432,45.741 C-0.207,47.087 0.365,48.696 1.712,49.335 C3.058,49.975 4.668,49.402 5.307,48.056 L6.865,44.775 L1.99,42.46 Z"></path>
                    </g>
                </g>
                <path d="M77.515,68.335 C53.463,56.913 24.504,67.223 13.082,91.275 C1.66,115.328 11.971,144.286 36.023,155.708 C60.075,167.13 89.034,156.82 100.455,132.768 C111.955,108.552 101.567,79.757 77.515,68.335 M33.148,161.762 C5.66,148.709 -6.111,115.647 6.942,88.159 C19.996,60.67 53.057,48.9 80.546,61.954 C108.034,75.007 119.805,108.068 106.751,135.557 C93.697,163.045 60.636,174.816 33.148,161.762" id="Shape" fill="#F7D27F" fill-rule="nonzero"></path>
                <path d="M78.62,66.855 C78.542,67.019 78.301,67.105 78.137,67.027 C77.974,66.949 77.888,66.708 77.966,66.544 L79.519,63.272 C79.597,63.108 79.839,63.022 80.002,63.1 C80.166,63.178 80.252,63.419 80.174,63.583 L78.62,66.855 Z" id="Shape" fill="#FFE0A1" fill-rule="nonzero"></path>
                <path d="M34.097,160.609 C34.019,160.773 33.778,160.859 33.614,160.781 C33.451,160.703 33.365,160.462 33.442,160.298 L34.996,157.026 C35.074,156.862 35.316,156.776 35.479,156.854 C35.643,156.932 35.729,157.173 35.651,157.337 L34.097,160.609 Z" id="Shape" fill="#FFE0A1" fill-rule="nonzero"></path>
                <path d="M104.154,95.423 C103.912,95.509 103.585,95.353 103.663,95.19 C103.577,94.948 103.655,94.785 103.896,94.699 L107.275,93.496 C107.516,93.41 107.843,93.566 107.765,93.729 C107.851,93.97 107.696,94.298 107.532,94.22 L104.154,95.423 Z" id="Shape" fill="#FFE0A1" fill-rule="nonzero"></path>
                <path d="M6.418,130.22 C6.177,130.306 5.85,130.151 5.927,129.987 C5.841,129.746 5.997,129.419 6.16,129.496 L9.539,128.293 C9.78,128.207 10.107,128.363 10.03,128.527 C10.116,128.768 9.96,129.095 9.796,129.017 L6.418,130.22 L6.418,130.22 Z" id="Shape" fill="#FFE0A1" fill-rule="nonzero"></path>
                <path d="M101.936,133.873 C101.772,133.795 101.686,133.554 101.764,133.39 C101.842,133.227 102.083,133.141 102.247,133.219 L105.519,134.772 C105.683,134.85 105.769,135.092 105.691,135.255 C105.613,135.419 105.372,135.505 105.208,135.427 L101.936,133.873 Z" id="Shape" fill="#FFE0A1" fill-rule="nonzero"></path>
                <path d="M8.182,89.35 C8.018,89.272 7.932,89.031 8.01,88.867 C8.088,88.704 8.329,88.618 8.493,88.695 L11.765,90.249 C11.929,90.327 12.015,90.568 11.937,90.732 C11.859,90.896 11.618,90.982 11.454,90.904 L8.182,89.35 Z" id="Shape" fill="#FFE0A1" fill-rule="nonzero"></path>
                <path d="M73.204,159.329 C73.118,159.088 73.196,158.924 73.437,158.838 C73.679,158.752 73.842,158.83 73.928,159.072 L75.131,162.45 C75.217,162.691 75.061,163.018 74.898,162.941 C74.657,163.027 74.329,162.871 74.407,162.708 L73.204,159.329 Z" id="Shape" fill="#FFE0A1" fill-rule="nonzero"></path>
                <path d="M38.485,61.43 C38.399,61.189 38.477,61.025 38.718,60.939 C38.959,60.853 39.286,61.009 39.209,61.172 L40.412,64.551 C40.498,64.792 40.342,65.119 40.178,65.042 C39.937,65.128 39.61,64.972 39.688,64.808 L38.485,61.43 L38.485,61.43 Z" id="Shape" fill="#FFE0A1" fill-rule="nonzero"></path>
                <path d="M53.32,61.858 C53.406,62.099 53.087,62.349 52.924,62.271 C52.682,62.357 52.432,62.038 52.51,61.875 L52.195,58.316 C52.109,58.074 52.428,57.825 52.591,57.902 C52.833,57.816 53.083,58.136 53.005,58.299 L53.32,61.858 Z" id="Shape" fill="#FFE0A1" fill-rule="nonzero"></path>
                <path d="M61.498,165.4 C61.584,165.641 61.265,165.891 61.102,165.813 C60.86,165.899 60.611,165.58 60.688,165.417 L60.373,161.858 C60.287,161.617 60.606,161.367 60.77,161.445 C61.011,161.359 61.261,161.678 61.183,161.841 L61.498,165.4 L61.498,165.4 Z" id="Shape" fill="#FFE0A1" fill-rule="nonzero"></path>
                <path d="M89.623,74.085 C89.545,74.249 89.141,74.257 88.977,74.179 C88.813,74.102 88.805,73.697 88.883,73.533 L91.177,70.813 C91.255,70.649 91.66,70.641 91.824,70.719 C91.987,70.796 91.996,71.201 91.917,71.365 L89.623,74.085 Z" id="Shape" fill="#FFE0A1" fill-rule="nonzero"></path>
                <path d="M22.438,153.067 C22.361,153.231 21.956,153.239 21.793,153.161 C21.629,153.084 21.62,152.679 21.698,152.515 L23.992,149.795 C24.07,149.631 24.476,149.623 24.639,149.701 C24.802,149.778 24.81,150.183 24.732,150.347 L22.439,153.067 L22.438,153.067 Z" id="Shape" fill="#FFE0A1" fill-rule="nonzero"></path>
                <path d="M106.847,108.332 C106.606,108.418 106.356,108.099 106.434,107.935 C106.348,107.694 106.667,107.444 106.83,107.522 L110.389,107.207 C110.631,107.121 110.88,107.44 110.803,107.603 C110.889,107.845 110.569,108.094 110.406,108.017 L106.847,108.332 L106.847,108.332 Z" id="Shape" fill="#FFE0A1" fill-rule="nonzero"></path>
                <path d="M3.391,116.751 C3.15,116.837 2.9,116.518 2.978,116.355 C2.892,116.113 3.211,115.864 3.374,115.941 L6.933,115.626 C7.174,115.54 7.424,115.859 7.346,116.023 C7.432,116.264 7.113,116.514 6.95,116.436 L3.391,116.751 L3.391,116.751 Z" id="Shape" fill="#FFE0A1" fill-rule="nonzero"></path>
                <path d="M94.784,144.712 C94.62,144.634 94.612,144.23 94.69,144.066 C94.767,143.902 95.172,143.894 95.336,143.972 L98.056,146.266 C98.22,146.344 98.228,146.749 98.15,146.913 C98.073,147.076 97.668,147.084 97.504,147.006 L94.784,144.712 Z" id="Shape" fill="#FFE0A1" fill-rule="nonzero"></path>
                <path d="M15.638,77.45 C15.474,77.372 15.466,76.967 15.544,76.804 C15.621,76.64 16.026,76.632 16.19,76.709 L18.91,79.004 C19.074,79.082 19.082,79.487 19.004,79.65 C18.927,79.814 18.522,79.822 18.358,79.744 L15.638,77.45 Z" id="Shape" fill="#FFE0A1" fill-rule="nonzero"></path>
                <path d="M28.783,70.459 C28.869,70.7 28.955,70.941 28.714,71.027 C28.472,71.113 28.231,71.199 28.145,70.958 L26.14,68.001 C26.054,67.76 25.969,67.518 26.21,67.432 C26.451,67.346 26.693,67.261 26.779,67.502 L28.783,70.459 L28.783,70.459 Z" id="Shape" fill="#FFE0A1" fill-rule="nonzero"></path>
                <path d="M87.716,155.794 C87.802,156.035 87.888,156.276 87.647,156.362 C87.405,156.448 87.164,156.534 87.078,156.293 L85.073,153.336 C84.987,153.095 84.902,152.853 85.143,152.768 C85.384,152.682 85.626,152.596 85.712,152.837 L87.716,155.794 L87.716,155.794 Z" id="Shape" fill="#FFE0A1" fill-rule="nonzero"></path>
                <path d="M66.381,62.647 C66.303,62.811 66.148,63.138 65.821,62.982 C65.657,62.905 65.33,62.75 65.485,62.422 L66.144,58.925 C66.221,58.761 66.377,58.434 66.704,58.589 C66.867,58.667 67.194,58.823 67.039,59.15 L66.381,62.647 Z" id="Shape" fill="#FFE0A1" fill-rule="nonzero"></path>
                <path d="M47.55,164.793 C47.472,164.956 47.317,165.284 46.989,165.128 C46.826,165.05 46.499,164.895 46.654,164.568 L47.312,161.07 C47.39,160.907 47.546,160.58 47.873,160.735 C48.036,160.813 48.363,160.968 48.208,161.295 L47.55,164.793 Z" id="Shape" fill="#FFE0A1" fill-rule="nonzero"></path>
                <path d="M98.247,83.795 C98.006,83.881 97.765,83.967 97.679,83.725 C97.593,83.484 97.507,83.243 97.748,83.157 L100.705,81.152 C100.946,81.066 101.188,80.981 101.274,81.222 C101.36,81.463 101.445,81.705 101.204,81.79 L98.247,83.795 L98.247,83.795 Z" id="Shape" fill="#FFE0A1" fill-rule="nonzero"></path>
                <path d="M12.911,142.728 C12.67,142.814 12.428,142.9 12.343,142.659 C12.257,142.417 12.171,142.176 12.412,142.09 L15.369,140.085 C15.61,139.999 15.852,139.914 15.937,140.155 C16.023,140.396 16.109,140.638 15.868,140.724 L12.911,142.728 Z" id="Shape" fill="#FFE0A1" fill-rule="nonzero"></path>
                <path d="M106.059,121.393 C105.895,121.315 105.568,121.16 105.724,120.832 C105.801,120.669 105.956,120.342 106.284,120.497 L109.781,121.155 C109.945,121.233 110.272,121.389 110.117,121.716 C110.039,121.879 109.883,122.206 109.556,122.051 L106.059,121.393 L106.059,121.393 Z" id="Shape" fill="#FFE0A1" fill-rule="nonzero"></path>
                <path d="M3.913,102.562 C3.749,102.484 3.422,102.329 3.578,102.002 C3.655,101.838 3.811,101.511 4.138,101.666 L7.635,102.325 C7.799,102.402 8.126,102.558 7.971,102.885 C7.893,103.049 7.738,103.376 7.411,103.22 L3.913,102.562 L3.913,102.562 Z" id="Shape" fill="#FFE0A1" fill-rule="nonzero"></path>
                <polygon id="Shape" fill="#F7D27F" points="60.044 0.384 60.357 0.414 60.667 0.466 60.974 0.537 61.275 0.628 61.569 0.739 61.856 0.869 62.133 1.017 62.4 1.183 62.656 1.367 62.899 1.566 63.129 1.781 63.344 2.011 63.543 2.254 63.726 2.51 63.892 2.777 64.041 3.054 64.171 3.341 64.281 3.635 64.373 3.936 64.444 4.243 64.495 4.553 64.526 4.866 64.537 5.18 64.537 58.655 64.526 58.97 64.495 59.283 64.444 59.593 64.373 59.899 64.281 60.2 64.171 60.495 64.041 60.781 63.892 61.059 63.726 61.326 63.543 61.582 63.344 61.825 63.129 62.054 62.899 62.269 62.656 62.469 62.4 62.652 62.133 62.818 61.856 62.967 61.569 63.096 61.275 63.207 60.974 63.299 60.667 63.37 60.357 63.421 60.044 63.452 59.73 63.462 59.415 63.452 59.102 63.421 58.792 63.37 58.485 63.299 58.184 63.207 57.89 63.096 57.603 62.967 57.326 62.818 57.059 62.652 56.803 62.469 56.56 62.269 56.33 62.054 56.115 61.825 55.916 61.582 55.733 61.326 55.567 61.059 55.418 60.781 55.288 60.495 55.178 60.2 55.086 59.899 55.015 59.593 54.964 59.283 54.933 58.97 54.923 58.655 54.923 5.18 54.933 4.866 54.964 4.553 55.015 4.243 55.086 3.936 55.178 3.635 55.288 3.341 55.418 3.054 55.567 2.777 55.733 2.51 55.916 2.254 56.115 2.011 56.33 1.781 56.56 1.566 56.803 1.367 57.059 1.183 57.326 1.017 57.603 0.869 57.89 0.739 58.184 0.628 58.485 0.537 58.792 0.466 59.102 0.414 59.415 0.384 59.73 0.373 60.044 0.384"></polygon>
                <polygon id="Shape" fill="#F7D27F" points="25.314 32.264 25.56 32.29 25.805 32.328 26.047 32.378 26.286 32.441 26.522 32.517 26.754 32.604 26.981 32.703 27.202 32.814 27.418 32.936 27.626 33.069 27.828 33.212 28.022 33.366 28.208 33.529 28.385 33.702 28.554 33.884 28.712 34.074 28.861 34.272 28.999 34.477 29.126 34.689 29.243 34.908 29.348 35.132 29.441 35.361 29.522 35.595 29.591 35.833 29.648 36.074 29.693 36.317 29.724 36.563 29.744 36.809 29.75 37.057 29.75 69.524 29.744 69.771 29.724 70.018 29.693 70.264 29.648 70.507 29.591 70.748 29.522 70.986 29.441 71.22 29.348 71.449 29.243 71.673 29.126 71.892 28.999 72.104 28.861 72.309 28.712 72.507 28.554 72.697 28.385 72.879 28.208 73.052 28.022 73.215 27.828 73.369 27.626 73.512 27.418 73.645 27.202 73.767 26.981 73.878 26.754 73.977 26.522 74.064 26.286 74.139 26.047 74.202 25.805 74.253 25.56 74.291 25.314 74.317 25.067 74.329 24.819 74.329 24.572 74.317 24.326 74.291 24.081 74.253 23.839 74.202 23.599 74.139 23.364 74.064 23.132 73.977 22.905 73.878 22.684 73.767 22.468 73.645 22.259 73.512 22.058 73.369 21.864 73.215 21.678 73.052 21.5 72.879 21.332 72.697 21.174 72.507 21.025 72.309 20.887 72.104 20.759 71.892 20.643 71.673 20.538 71.449 20.445 71.22 20.364 70.986 20.294 70.748 20.238 70.507 20.193 70.264 20.161 70.018 20.142 69.771 20.136 69.524 20.136 37.057 20.142 36.809 20.161 36.563 20.193 36.317 20.238 36.074 20.294 35.833 20.364 35.595 20.445 35.361 20.538 35.132 20.643 34.908 20.759 34.689 20.887 34.477 21.025 34.272 21.174 34.074 21.332 33.884 21.5 33.702 21.678 33.529 21.864 33.366 22.058 33.212 22.259 33.069 22.468 32.936 22.684 32.814 22.905 32.703 23.132 32.604 23.364 32.517 23.599 32.441 23.839 32.378 24.081 32.328 24.326 32.29 24.572 32.264 24.819 32.251 25.067 32.251"></polygon>
                <polygon id="Shape" fill="#F7D27F" points="93.361 46.214 93.57 46.228 93.779 46.251 93.986 46.283 94.192 46.324 94.396 46.373 94.597 46.432 94.795 46.5 94.991 46.576 95.183 46.66 95.371 46.753 95.555 46.854 95.734 46.962 95.909 47.079 96.078 47.203 96.241 47.334 96.399 47.473 96.55 47.618 96.695 47.769 96.834 47.927 96.965 48.09 97.089 48.259 97.206 48.434 97.314 48.613 97.415 48.797 97.508 48.985 97.592 49.177 97.669 49.373 97.736 49.571 97.795 49.772 97.844 49.976 97.885 50.182 97.917 50.389 97.94 50.598 97.954 50.807 97.958 51.017 97.958 73.934 97.954 74.143 97.94 74.353 97.917 74.561 97.885 74.768 97.844 74.974 97.795 75.178 97.736 75.379 97.669 75.578 97.592 75.773 97.508 75.965 97.415 76.153 97.314 76.337 97.206 76.516 97.089 76.691 96.965 76.86 96.834 77.023 96.695 77.181 96.55 77.333 96.399 77.478 96.241 77.616 96.078 77.747 95.909 77.871 95.734 77.988 95.555 78.097 95.371 78.197 95.183 78.29 94.991 78.375 94.795 78.451 94.597 78.518 94.396 78.577 94.192 78.627 93.986 78.668 93.779 78.699 93.57 78.722 93.361 78.736 93.151 78.741 92.942 78.736 92.732 78.722 92.524 78.699 92.317 78.668 92.111 78.627 91.907 78.577 91.706 78.518 91.507 78.451 91.312 78.375 91.12 78.29 90.932 78.197 90.748 78.097 90.569 77.988 90.394 77.871 90.225 77.747 90.062 77.616 89.904 77.478 89.752 77.333 89.607 77.181 89.469 77.023 89.338 76.86 89.214 76.691 89.097 76.516 88.988 76.337 88.888 76.153 88.795 75.965 88.71 75.773 88.634 75.578 88.567 75.379 88.508 75.178 88.458 74.974 88.417 74.768 88.386 74.561 88.363 74.353 88.349 74.143 88.344 73.934 88.344 51.017 88.349 50.807 88.363 50.598 88.386 50.389 88.417 50.182 88.458 49.976 88.508 49.772 88.567 49.571 88.634 49.373 88.71 49.177 88.795 48.985 88.888 48.797 88.988 48.613 89.097 48.434 89.214 48.259 89.338 48.09 89.469 47.927 89.607 47.769 89.752 47.618 89.904 47.473 90.062 47.334 90.225 47.203 90.394 47.079 90.569 46.962 90.748 46.854 90.932 46.753 91.12 46.66 91.312 46.576 91.507 46.5 91.706 46.432 91.907 46.373 92.111 46.324 92.317 46.283 92.524 46.251 92.732 46.228 92.942 46.214 93.151 46.21"></polygon>
                <polygon id="Shape" fill="#11132D" points="50.357 46.214 50.579 46.23 50.799 46.255 51.019 46.291 51.236 46.337 51.451 46.393 51.663 46.458 51.872 46.534 52.077 46.619 52.278 46.713 52.474 46.817 52.666 46.929 52.852 47.05 53.032 47.18 53.206 47.318 53.374 47.464 53.534 47.617 53.688 47.778 53.833 47.945 53.971 48.119 54.101 48.299 54.222 48.486 54.335 48.677 54.438 48.873 54.533 49.074 54.618 49.28 54.693 49.488 54.759 49.701 54.815 49.916 54.86 50.133 54.896 50.352 54.922 50.573 54.937 50.794 54.942 51.016 54.942 76.798 54.937 77.02 54.922 77.242 54.896 77.462 54.86 77.681 54.815 77.899 54.759 78.114 54.693 78.326 54.618 78.535 54.533 78.74 54.438 78.941 54.335 79.137 54.222 79.329 54.101 79.515 53.971 79.695 53.833 79.869 53.688 80.037 53.534 80.197 53.374 80.351 53.206 80.496 53.032 80.634 52.852 80.764 52.666 80.885 52.474 80.998 52.278 81.101 52.077 81.196 51.872 81.28 51.663 81.356 51.451 81.422 51.236 81.477 51.019 81.523 50.799 81.559 50.579 81.585 50.357 81.6 50.135 81.605 49.913 81.6 49.692 81.585 49.471 81.559 49.252 81.523 49.035 81.477 48.82 81.422 48.608 81.356 48.399 81.28 48.194 81.196 47.993 81.101 47.796 80.998 47.605 80.885 47.419 80.764 47.238 80.634 47.064 80.496 46.897 80.351 46.736 80.197 46.583 80.037 46.437 79.869 46.299 79.695 46.17 79.515 46.048 79.329 45.936 79.137 45.832 78.941 45.738 78.74 45.653 78.535 45.578 78.326 45.512 78.114 45.456 77.899 45.41 77.681 45.374 77.462 45.349 77.242 45.333 77.02 45.328 76.798 45.328 51.016 45.333 50.794 45.349 50.573 45.374 50.352 45.41 50.133 45.456 49.916 45.512 49.701 45.578 49.488 45.653 49.28 45.738 49.074 45.832 48.873 45.936 48.677 46.048 48.486 46.17 48.299 46.299 48.119 46.437 47.945 46.583 47.778 46.736 47.617 46.897 47.464 47.064 47.318 47.238 47.18 47.419 47.05 47.605 46.929 47.796 46.817 47.993 46.713 48.194 46.619 48.399 46.534 48.608 46.458 48.82 46.393 49.035 46.337 49.252 46.291 49.471 46.255 49.692 46.23 49.913 46.214 50.135 46.209"></polygon>
                <polygon id="Shape" fill="#11132D" points="83.827 52.901 84.095 52.923 84.362 52.961 84.627 53.014 84.888 53.081 85.145 53.163 85.397 53.259 85.643 53.369 85.882 53.493 86.115 53.63 86.339 53.78 86.554 53.942 86.76 54.116 86.956 54.301 87.141 54.497 87.315 54.703 87.477 54.919 87.627 55.143 87.764 55.375 87.888 55.615 87.998 55.861 88.094 56.113 88.176 56.369 88.244 56.631 88.296 56.895 88.334 57.162 88.357 57.431 88.364 57.7 88.364 96.851 88.357 97.121 88.334 97.389 88.296 97.656 88.244 97.921 88.176 98.182 88.094 98.439 87.998 98.691 87.888 98.937 87.764 99.176 87.627 99.409 87.477 99.633 87.315 99.848 87.141 100.054 86.956 100.25 86.76 100.436 86.554 100.609 86.339 100.772 86.115 100.921 85.882 101.058 85.643 101.182 85.397 101.292 85.145 101.388 84.888 101.47 84.627 101.538 84.362 101.59 84.095 101.628 83.827 101.651 83.557 101.658 83.288 101.651 83.019 101.628 82.752 101.59 82.487 101.538 82.226 101.47 81.969 101.388 81.718 101.292 81.471 101.182 81.232 101.058 81 100.921 80.775 100.772 80.56 100.609 80.354 100.436 80.158 100.25 79.973 100.054 79.799 99.848 79.637 99.633 79.487 99.409 79.35 99.176 79.226 98.937 79.116 98.691 79.02 98.439 78.938 98.182 78.871 97.921 78.818 97.656 78.78 97.389 78.758 97.121 78.75 96.851 78.75 57.7 78.758 57.431 78.78 57.162 78.818 56.895 78.871 56.631 78.938 56.369 79.02 56.113 79.116 55.861 79.226 55.615 79.35 55.375 79.487 55.143 79.637 54.919 79.799 54.703 79.973 54.497 80.158 54.301 80.354 54.116 80.56 53.942 80.775 53.78 81 53.63 81.232 53.493 81.471 53.369 81.718 53.259 81.969 53.163 82.226 53.081 82.487 53.014 82.752 52.961 83.019 52.923 83.288 52.901 83.557 52.893 83.827 52.901"></polygon>
            </g>
            <g id="Layer-7" transform="translate(382.000000, 244.000000)">
                <path d="M99.049,151.234 C78.74,173.896 43.698,175.814 21.037,155.505 C-1.625,135.196 -3.543,100.154 16.766,77.493 C37.075,54.831 72.116,52.913 94.778,73.222 C117.44,93.531 119.358,128.573 99.049,151.234" id="Shape" fill="#DBAB56" fill-rule="nonzero"></path>
                <path d="M16.901,77.614 C35.995,56.307 68.747,54.514 90.053,73.609 C111.36,92.704 113.153,125.455 94.058,146.761 C74.964,168.068 42.212,169.861 20.906,150.766 C-0.401,131.672 -2.194,98.921 16.901,77.614" id="Shape" fill="#EFB30C" fill-rule="nonzero"></path>
                <path d="M29.602,150.291 C8.289,131.19 6.497,98.451 25.597,77.138 C34.059,67.696 45.289,61.95 56.878,60.417 C42.364,60.058 27.539,65.744 16.901,77.614 C-2.2,98.927 -0.407,131.666 20.906,150.767 C32.776,161.405 48.012,165.573 62.521,163.496 C50.955,163.104 39.044,158.753 29.602,150.291" id="Shape" fill="#E5A300" fill-rule="nonzero"></path>
                <path d="M52.651,60.521 C81.298,58.953 105.713,80.833 107.147,109.359 C108.715,138.006 86.955,162.287 58.308,163.855" id="Shape" fill="#E5A300" fill-rule="nonzero"></path>
                <g id="Group" opacity="0.720001" transform="translate(34.000000, 91.000000)">
                    <g id="Clipped">
                        <mask id="mask-4" fill="white">
                            <use xlink:href="#path-3"></use>
                        </mask>
                        <g id="Rectangle-path"></g>
                        <path d="M31.768,40.026 L38.639,32.359 C43.382,27.502 41.59,22.788 39.85,20.169 C38.708,18.45 37.059,17.047 35.008,16.635 C29.352,15.498 24.682,20.751 24.682,20.751 C30.327,12.772 26.224,7.528 26.224,7.528 C26.123,7.419 26.023,7.311 25.923,7.207 C21.986,3.095 15.099,3.595 10.976,8.194 L4.416,15.514 L31.768,40.026 L31.768,40.026 Z" id="Shape" stroke="#F9E310" stroke-width="8.01" mask="url(#mask-4)"></path>
                    </g>
                </g>
                <g id="Group" opacity="0.720001" transform="translate(37.000000, 93.000000)">
                    <g id="Clipped">
                        <g>
                            <mask id="mask-6" fill="white">
                                <use xlink:href="#path-5"></use>
                            </mask>
                            <g id="Rectangle-path"></g>
                            <g id="Group" mask="url(#mask-6)" fill-rule="nonzero" fill="#F9E310">
                                <path d="M7.37,3.863 L4.89,1.64 C3.654,0.532 1.846,0.534 0.851,1.644 C-0.144,2.754 0.052,4.551 1.288,5.659 L3.768,7.882 L7.37,3.863 Z" id="Shape"></path>
                                <path d="M34.201,35.155 L36.906,37.579 C38.015,38.573 39.722,38.48 40.716,37.37 C41.711,36.26 41.618,34.554 40.508,33.56 L37.803,31.136 L34.201,35.155 Z" id="Shape"></path>
                            </g>
                        </g>
                    </g>
                </g>
                <path d="M19.599,80.032 C1.828,99.861 3.509,130.554 23.338,148.325 C43.166,166.095 73.86,164.415 91.63,144.586 C109.401,124.757 107.721,94.063 87.891,76.293 C67.928,58.402 37.37,60.203 19.599,80.032 M96.621,149.058 C76.312,171.72 41.271,173.638 18.609,153.33 C-4.052,133.02 -5.971,97.979 14.338,75.317 C34.647,52.656 69.689,50.737 92.35,71.046 C115.012,91.355 116.931,126.397 96.621,149.058" id="Shape" fill="#F7D27F" fill-rule="nonzero"></path>
                <path d="M18.491,78.553 C18.626,78.674 18.64,78.93 18.519,79.065 C18.398,79.199 18.142,79.214 18.008,79.093 L15.31,76.675 C15.175,76.554 15.161,76.298 15.282,76.163 C15.403,76.029 15.658,76.014 15.793,76.136 L18.491,78.553 Z" id="Shape" fill="#FFE0A1" fill-rule="nonzero"></path>
                <path d="M95.784,147.822 C95.919,147.942 95.933,148.198 95.812,148.333 C95.691,148.468 95.435,148.482 95.301,148.361 L92.603,145.943 C92.468,145.823 92.454,145.567 92.575,145.431 C92.696,145.297 92.951,145.283 93.086,145.404 L95.784,147.822 L95.784,147.822 Z" id="Shape" fill="#FFE0A1" fill-rule="nonzero"></path>
                <path d="M53.126,62.163 C53.139,62.418 52.897,62.688 52.762,62.567 C52.506,62.581 52.372,62.461 52.357,62.205 L52.162,58.624 C52.147,58.368 52.389,58.099 52.524,58.219 C52.78,58.205 53.05,58.447 52.929,58.582 L53.125,62.163 L53.126,62.163 Z" id="Shape" fill="#FFE0A1" fill-rule="nonzero"></path>
                <path d="M58.797,165.753 C58.811,166.009 58.569,166.278 58.434,166.157 C58.178,166.171 57.909,165.93 58.029,165.795 L57.834,162.214 C57.819,161.958 58.061,161.689 58.196,161.809 C58.452,161.795 58.722,162.037 58.601,162.172 L58.797,165.753 L58.797,165.753 Z" id="Shape" fill="#FFE0A1" fill-rule="nonzero"></path>
                <path d="M89.37,75.186 C89.249,75.321 88.994,75.335 88.859,75.214 C88.724,75.093 88.71,74.837 88.83,74.703 L91.248,72.005 C91.37,71.87 91.625,71.856 91.76,71.977 C91.895,72.098 91.909,72.353 91.788,72.488 L89.37,75.186 Z" id="Shape" fill="#FFE0A1" fill-rule="nonzero"></path>
                <path d="M20.102,152.479 C19.981,152.614 19.725,152.627 19.59,152.507 C19.456,152.386 19.441,152.13 19.562,151.996 L21.98,149.297 C22.101,149.163 22.356,149.149 22.492,149.269 C22.626,149.39 22.641,149.646 22.519,149.781 L20.102,152.479 L20.102,152.479 Z" id="Shape" fill="#FFE0A1" fill-rule="nonzero"></path>
                <path d="M105.64,109.955 C105.385,109.969 105.249,109.848 105.236,109.592 C105.222,109.336 105.343,109.202 105.598,109.187 L109.179,108.992 C109.435,108.977 109.704,109.219 109.584,109.354 C109.598,109.61 109.356,109.88 109.221,109.759 L105.64,109.955 L105.64,109.955 Z" id="Shape" fill="#FFE0A1" fill-rule="nonzero"></path>
                <path d="M1.915,115.505 C1.659,115.519 1.524,115.398 1.51,115.142 C1.496,114.886 1.738,114.617 1.873,114.738 L5.454,114.542 C5.709,114.527 5.979,114.77 5.858,114.904 C5.873,115.16 5.631,115.43 5.496,115.309 L1.915,115.505 Z" id="Shape" fill="#FFE0A1" fill-rule="nonzero"></path>
                <path d="M6.53,101.399 C6.786,101.385 6.935,101.762 6.814,101.897 C6.828,102.152 6.451,102.301 6.317,102.18 L2.815,101.474 C2.559,101.488 2.41,101.111 2.53,100.977 C2.517,100.721 2.893,100.572 3.028,100.693 L6.53,101.399 L6.53,101.399 Z" id="Shape" fill="#FFE0A1" fill-rule="nonzero"></path>
                <path d="M108.145,122.902 C108.401,122.888 108.55,123.264 108.429,123.4 C108.443,123.655 108.066,123.804 107.931,123.683 L104.429,122.977 C104.173,122.991 104.024,122.614 104.145,122.48 C104.131,122.224 104.508,122.075 104.643,122.195 L108.145,122.902 L108.145,122.902 Z" id="Shape" fill="#FFE0A1" fill-rule="nonzero"></path>
                <path d="M28.544,70.05 C28.679,70.171 28.572,70.561 28.451,70.696 C28.331,70.831 27.94,70.724 27.805,70.603 L25.846,67.632 C25.711,67.511 25.818,67.12 25.939,66.986 C26.06,66.851 26.451,66.958 26.586,67.078 L28.544,70.05 L28.544,70.05 Z" id="Shape" fill="#FFE0A1" fill-rule="nonzero"></path>
                <path d="M85.247,156.864 C85.382,156.985 85.275,157.376 85.154,157.51 C85.034,157.646 84.643,157.539 84.508,157.418 L82.549,154.447 C82.414,154.326 82.521,153.935 82.643,153.801 C82.763,153.666 83.154,153.772 83.289,153.893 L85.247,156.864 Z" id="Shape" fill="#FFE0A1" fill-rule="nonzero"></path>
                <path d="M66.268,63.239 C66.282,63.495 65.905,63.644 65.77,63.523 C65.515,63.537 65.366,63.16 65.487,63.025 L66.193,59.523 C66.179,59.267 66.556,59.118 66.69,59.239 C66.946,59.225 67.095,59.602 66.974,59.737 L66.268,63.239 Z" id="Shape" fill="#FFE0A1" fill-rule="nonzero"></path>
                <path d="M45.021,164.839 C45.035,165.095 44.658,165.244 44.523,165.123 C44.268,165.137 44.119,164.761 44.24,164.625 L44.946,161.123 C44.932,160.867 45.309,160.719 45.443,160.84 C45.699,160.825 45.848,161.202 45.727,161.337 L45.021,164.839 Z" id="Shape" fill="#FFE0A1" fill-rule="nonzero"></path>
                <path d="M97.738,85.118 C97.617,85.253 97.226,85.146 97.092,85.025 C96.957,84.904 97.064,84.514 97.184,84.378 L100.155,82.42 C100.277,82.285 100.667,82.392 100.802,82.513 C100.937,82.634 100.83,83.024 100.709,83.16 L97.738,85.118 L97.738,85.118 Z" id="Shape" fill="#FFE0A1" fill-rule="nonzero"></path>
                <path d="M10.803,141.956 C10.682,142.091 10.291,141.984 10.157,141.863 C10.022,141.742 10.129,141.352 10.249,141.217 L13.221,139.258 C13.342,139.123 13.732,139.23 13.867,139.351 C14.002,139.472 13.895,139.863 13.774,139.998 L10.803,141.956 L10.803,141.956 Z" id="Shape" fill="#FFE0A1" fill-rule="nonzero"></path>
                <path d="M7.823,127.368 C8.079,127.354 8.335,127.34 8.349,127.596 C8.363,127.852 8.377,128.107 8.121,128.121 L4.717,129.206 C4.461,129.22 4.205,129.234 4.192,128.978 C4.177,128.722 4.163,128.466 4.419,128.452 L7.823,127.368 L7.823,127.368 Z" id="Shape" fill="#FFE0A1" fill-rule="nonzero"></path>
                <path d="M106.362,95.036 C106.618,95.022 106.874,95.008 106.887,95.264 C106.902,95.52 106.916,95.776 106.66,95.789 L103.256,96.874 C103,96.888 102.744,96.902 102.73,96.646 C102.716,96.39 102.702,96.135 102.958,96.12 L106.362,95.036 L106.362,95.036 Z" id="Shape" fill="#FFE0A1" fill-rule="nonzero"></path>
                <path d="M10.987,89.098 C11.122,89.219 11.392,89.461 11.15,89.73 C11.029,89.866 10.787,90.135 10.518,89.893 L7.35,88.271 C7.216,88.15 6.945,87.908 7.187,87.639 C7.308,87.504 7.55,87.234 7.82,87.475 L10.987,89.098 L10.987,89.098 Z" id="Shape" fill="#FFE0A1" fill-rule="nonzero"></path>
                <path d="M103.608,136.106 C103.743,136.226 104.012,136.469 103.771,136.738 C103.65,136.873 103.408,137.142 103.138,136.901 L99.971,135.278 C99.836,135.158 99.566,134.916 99.808,134.646 C99.929,134.511 100.17,134.242 100.441,134.483 L103.608,136.106 Z" id="Shape" fill="#FFE0A1" fill-rule="nonzero"></path>
                <path d="M40.3,64.532 C40.314,64.788 40.328,65.044 40.072,65.057 C39.816,65.072 39.561,65.086 39.547,64.83 L38.462,61.426 C38.448,61.17 38.434,60.914 38.69,60.9 C38.946,60.886 39.201,60.872 39.216,61.128 L40.3,64.532 L40.3,64.532 Z" id="Shape" fill="#FFE0A1" fill-rule="nonzero"></path>
                <path d="M72.631,163.071 C72.645,163.327 72.659,163.583 72.403,163.596 C72.148,163.61 71.892,163.625 71.878,163.369 L70.794,159.965 C70.779,159.709 70.766,159.453 71.022,159.439 C71.277,159.425 71.533,159.411 71.547,159.667 L72.631,163.071 Z" id="Shape" fill="#FFE0A1" fill-rule="nonzero"></path>
                <path d="M78.57,67.696 C78.449,67.831 78.207,68.1 77.938,67.859 C77.802,67.738 77.533,67.496 77.775,67.226 L79.397,64.059 C79.518,63.924 79.759,63.654 80.029,63.896 C80.164,64.017 80.434,64.258 80.193,64.529 L78.57,67.696 Z" id="Shape" fill="#FFE0A1" fill-rule="nonzero"></path>
                <path d="M31.562,160.317 C31.441,160.452 31.199,160.721 30.93,160.479 C30.794,160.359 30.525,160.117 30.767,159.847 L32.389,156.679 C32.51,156.545 32.751,156.275 33.021,156.517 C33.156,156.637 33.426,156.879 33.184,157.149 L31.562,160.317 Z" id="Shape" fill="#FFE0A1" fill-rule="nonzero"></path>
                <polygon id="Shape" fill="#F7D27F" points="55.815 0.328 56.128 0.359 56.438 0.41 56.745 0.482 57.046 0.573 57.34 0.684 57.627 0.814 57.904 0.962 58.171 1.128 58.427 1.311 58.67 1.511 58.9 1.726 59.115 1.956 59.314 2.199 59.497 2.454 59.663 2.722 59.812 2.999 59.942 3.286 60.052 3.58 60.144 3.881 60.215 4.187 60.266 4.498 60.297 4.811 60.307 5.125 60.307 58.6 60.297 58.914 60.266 59.228 60.215 59.538 60.144 59.844 60.052 60.145 59.942 60.44 59.812 60.726 59.663 61.004 59.497 61.271 59.314 61.526 59.115 61.77 58.9 61.999 58.67 62.214 58.427 62.414 58.171 62.597 57.904 62.763 57.627 62.911 57.34 63.041 57.046 63.152 56.745 63.243 56.438 63.315 56.128 63.366 55.815 63.397 55.5 63.407 55.186 63.397 54.873 63.366 54.563 63.315 54.256 63.243 53.955 63.152 53.661 63.041 53.374 62.911 53.097 62.763 52.83 62.597 52.574 62.414 52.331 62.214 52.101 61.999 51.886 61.77 51.687 61.526 51.504 61.271 51.338 61.004 51.189 60.726 51.059 60.44 50.949 60.145 50.857 59.844 50.786 59.538 50.735 59.228 50.704 58.914 50.693 58.6 50.693 5.125 50.704 4.811 50.735 4.498 50.786 4.187 50.857 3.881 50.949 3.58 51.059 3.286 51.189 2.999 51.338 2.722 51.504 2.454 51.687 2.199 51.886 1.956 52.101 1.726 52.331 1.511 52.574 1.311 52.83 1.128 53.097 0.962 53.374 0.814 53.661 0.684 53.955 0.573 54.256 0.482 54.563 0.41 54.873 0.359 55.186 0.328 55.5 0.318 55.815 0.328"></polygon>
                <polygon id="Shape" fill="#EFB30C" points="24.36 48.078 24.606 48.104 24.851 48.142 25.093 48.192 25.332 48.255 25.568 48.331 25.8 48.418 26.027 48.517 26.248 48.628 26.463 48.75 26.672 48.883 26.874 49.026 27.068 49.18 27.254 49.343 27.431 49.516 27.599 49.698 27.758 49.888 27.907 50.086 28.045 50.291 28.172 50.503 28.289 50.722 28.394 50.946 28.487 51.175 28.568 51.409 28.637 51.647 28.694 51.888 28.739 52.131 28.77 52.377 28.789 52.623 28.796 52.871 28.796 85.338 28.789 85.585 28.77 85.832 28.739 86.078 28.694 86.321 28.637 86.562 28.568 86.8 28.487 87.034 28.394 87.263 28.289 87.487 28.172 87.706 28.045 87.918 27.907 88.123 27.758 88.321 27.599 88.511 27.431 88.693 27.254 88.866 27.068 89.029 26.874 89.183 26.672 89.326 26.463 89.459 26.248 89.581 26.027 89.692 25.8 89.791 25.568 89.878 25.332 89.953 25.093 90.016 24.851 90.067 24.606 90.105 24.36 90.131 24.113 90.143 23.865 90.143 23.618 90.131 23.372 90.105 23.127 90.067 22.885 90.016 22.645 89.953 22.409 89.878 22.178 89.791 21.951 89.692 21.73 89.581 21.514 89.459 21.305 89.326 21.104 89.183 20.909 89.029 20.724 88.866 20.546 88.693 20.378 88.511 20.22 88.321 20.071 88.123 19.933 87.918 19.805 87.706 19.689 87.487 19.584 87.263 19.491 87.034 19.409 86.8 19.34 86.562 19.283 86.321 19.239 86.078 19.207 85.832 19.188 85.585 19.182 85.338 19.182 52.871 19.188 52.623 19.207 52.377 19.239 52.131 19.283 51.888 19.34 51.647 19.409 51.409 19.491 51.175 19.584 50.946 19.689 50.722 19.805 50.503 19.933 50.291 20.071 50.086 20.22 49.888 20.378 49.698 20.546 49.516 20.724 49.343 20.909 49.18 21.104 49.026 21.305 48.883 21.514 48.75 21.73 48.628 21.951 48.517 22.178 48.418 22.409 48.331 22.645 48.255 22.885 48.192 23.127 48.142 23.372 48.104 23.618 48.078 23.865 48.065 24.113 48.065"></polygon>
                <polygon id="Shape" fill="#F7D27F" points="83.403 39.475 83.612 39.489 83.821 39.511 84.028 39.543 84.234 39.584 84.438 39.634 84.639 39.693 84.837 39.76 85.033 39.836 85.225 39.921 85.413 40.013 85.597 40.114 85.776 40.223 85.951 40.34 86.12 40.464 86.283 40.595 86.441 40.733 86.592 40.878 86.737 41.03 86.876 41.187 87.007 41.351 87.131 41.52 87.248 41.694 87.356 41.874 87.457 42.058 87.55 42.246 87.634 42.438 87.711 42.633 87.778 42.832 87.837 43.033 87.886 43.237 87.927 43.443 87.959 43.65 87.982 43.858 87.996 44.068 88 44.277 88 67.194 87.996 67.404 87.982 67.613 87.959 67.822 87.927 68.029 87.886 68.235 87.837 68.438 87.778 68.64 87.711 68.838 87.634 69.034 87.55 69.226 87.457 69.414 87.356 69.598 87.248 69.777 87.131 69.951 87.007 70.121 86.876 70.284 86.737 70.442 86.592 70.593 86.441 70.738 86.283 70.877 86.12 71.008 85.951 71.132 85.776 71.248 85.597 71.357 85.413 71.458 85.225 71.551 85.033 71.635 84.837 71.711 84.639 71.779 84.438 71.838 84.234 71.887 84.028 71.928 83.821 71.96 83.612 71.983 83.403 71.997 83.193 72.001 82.984 71.997 82.774 71.983 82.566 71.96 82.359 71.928 82.153 71.887 81.949 71.838 81.748 71.779 81.549 71.711 81.354 71.635 81.162 71.551 80.974 71.458 80.79 71.357 80.611 71.248 80.436 71.132 80.267 71.008 80.104 70.877 79.946 70.738 79.794 70.593 79.649 70.442 79.511 70.284 79.38 70.121 79.256 69.951 79.139 69.777 79.03 69.598 78.93 69.414 78.837 69.226 78.752 69.034 78.676 68.838 78.609 68.64 78.55 68.438 78.5 68.235 78.459 68.029 78.428 67.822 78.405 67.613 78.391 67.404 78.386 67.194 78.386 44.277 78.391 44.068 78.405 43.858 78.428 43.65 78.459 43.443 78.5 43.237 78.55 43.033 78.609 42.832 78.676 42.633 78.752 42.438 78.837 42.246 78.93 42.058 79.03 41.874 79.139 41.694 79.256 41.52 79.38 41.351 79.511 41.187 79.649 41.03 79.794 40.878 79.946 40.733 80.104 40.595 80.267 40.464 80.436 40.34 80.611 40.223 80.79 40.114 80.974 40.013 81.162 39.921 81.354 39.836 81.549 39.76 81.748 39.693 81.949 39.634 82.153 39.584 82.359 39.543 82.566 39.511 82.774 39.489 82.984 39.475 83.193 39.47 83.403 39.475"></polygon>
                <polygon id="Shape" fill="#11132D" points="33.931 54.761 34.162 54.783 34.392 54.817 34.62 54.861 34.846 54.917 35.068 54.983 35.288 55.061 35.503 55.148 35.713 55.246 35.919 55.354 36.119 55.472 36.314 55.599 36.502 55.736 36.683 55.881 36.857 56.035 37.023 56.197 37.181 56.368 37.331 56.545 37.472 56.73 37.604 56.921 37.727 57.118 37.839 57.321 37.942 57.53 38.035 57.743 38.118 57.96 38.189 58.181 38.25 58.405 38.3 58.632 38.34 58.861 38.368 59.091 38.384 59.323 38.39 59.555 38.39 88.202 38.384 88.434 38.368 88.666 38.34 88.897 38.3 89.126 38.25 89.353 38.189 89.577 38.118 89.798 38.035 90.015 37.942 90.228 37.839 90.436 37.727 90.639 37.604 90.837 37.472 91.028 37.331 91.212 37.181 91.39 37.023 91.56 36.857 91.722 36.683 91.876 36.502 92.022 36.314 92.158 36.119 92.286 35.919 92.403 35.713 92.511 35.503 92.609 35.288 92.697 35.068 92.774 34.846 92.84 34.62 92.896 34.392 92.941 34.162 92.974 33.931 92.997 33.699 93.008 33.467 93.008 33.235 92.997 33.004 92.974 32.774 92.941 32.546 92.896 32.32 92.84 32.098 92.774 31.878 92.697 31.663 92.609 31.453 92.511 31.247 92.403 31.047 92.286 30.852 92.158 30.664 92.022 30.483 91.876 30.309 91.722 30.143 91.56 29.985 91.39 29.835 91.212 29.694 91.028 29.562 90.837 29.44 90.639 29.327 90.436 29.224 90.228 29.131 90.015 29.049 89.798 28.977 89.577 28.916 89.353 28.866 89.126 28.826 88.897 28.798 88.666 28.782 88.434 28.776 88.202 28.776 59.555 28.782 59.323 28.798 59.091 28.826 58.861 28.866 58.632 28.916 58.405 28.977 58.181 29.049 57.96 29.131 57.743 29.224 57.53 29.327 57.321 29.44 57.118 29.562 56.921 29.694 56.73 29.835 56.545 29.985 56.368 30.143 56.197 30.309 56.035 30.483 55.881 30.664 55.736 30.852 55.599 31.047 55.472 31.247 55.354 31.453 55.246 31.663 55.148 31.878 55.061 32.098 54.983 32.32 54.917 32.546 54.861 32.774 54.817 33.004 54.783 33.235 54.761 33.467 54.75 33.699 54.75"></polygon>
                <polygon id="Shape" fill="#11132D" points="73.869 52.846 74.137 52.869 74.404 52.906 74.669 52.959 74.93 53.026 75.187 53.108 75.439 53.204 75.685 53.315 75.924 53.438 76.157 53.575 76.381 53.725 76.596 53.887 76.802 54.061 76.998 54.246 77.183 54.442 77.357 54.648 77.519 54.864 77.669 55.088 77.806 55.32 77.93 55.56 78.04 55.806 78.136 56.058 78.218 56.315 78.286 56.576 78.338 56.84 78.376 57.107 78.399 57.376 78.406 57.645 78.406 96.796 78.399 97.066 78.376 97.335 78.338 97.602 78.286 97.866 78.218 98.127 78.136 98.384 78.04 98.636 77.93 98.882 77.806 99.122 77.669 99.354 77.519 99.578 77.357 99.794 77.183 100 76.998 100.196 76.802 100.381 76.596 100.555 76.381 100.717 76.157 100.867 75.924 101.004 75.685 101.127 75.439 101.238 75.187 101.334 74.93 101.416 74.669 101.483 74.404 101.536 74.137 101.573 73.869 101.596 73.599 101.603 73.33 101.596 73.061 101.573 72.794 101.536 72.529 101.483 72.268 101.416 72.011 101.334 71.76 101.238 71.513 101.127 71.274 101.004 71.042 100.867 70.817 100.717 70.602 100.555 70.396 100.381 70.2 100.196 70.015 100 69.841 99.794 69.679 99.578 69.529 99.354 69.392 99.122 69.268 98.882 69.158 98.636 69.062 98.384 68.98 98.127 68.913 97.866 68.86 97.602 68.822 97.335 68.8 97.066 68.792 96.796 68.792 57.645 68.8 57.376 68.822 57.107 68.86 56.84 68.913 56.576 68.98 56.315 69.062 56.058 69.158 55.806 69.268 55.56 69.392 55.32 69.529 55.088 69.679 54.864 69.841 54.648 70.015 54.442 70.2 54.246 70.396 54.061 70.602 53.887 70.817 53.725 71.042 53.575 71.274 53.438 71.513 53.315 71.76 53.204 72.011 53.108 72.268 53.026 72.529 52.959 72.794 52.906 73.061 52.869 73.33 52.846 73.599 52.838"></polygon>
                <polygon id="Shape" fill="#EFB30C" points="50.839 138.777 51.128 138.8 51.414 138.839 51.699 138.894 51.979 138.964 52.256 139.049 52.527 139.148 52.793 139.263 53.052 139.391 53.304 139.533 53.548 139.689 53.783 139.858 54.008 140.039 54.224 140.232 54.428 140.437 54.621 140.652 54.803 140.878 54.971 141.113 55.127 141.357 55.27 141.608 55.398 141.868 55.512 142.133 55.612 142.405 55.697 142.681 55.767 142.962 55.821 143.246 55.86 143.533 55.884 143.821 55.892 144.11 55.892 183.772 55.884 184.062 55.86 184.35 55.821 184.637 55.767 184.921 55.697 185.201 55.612 185.478 55.512 185.749 55.398 186.015 55.27 186.274 55.127 186.526 54.971 186.77 54.803 187.005 54.621 187.23 54.428 187.446 54.224 187.65 54.008 187.843 53.783 188.025 53.548 188.193 53.304 188.349 53.052 188.492 52.793 188.62 52.527 188.735 52.256 188.834 51.979 188.919 51.699 188.989 51.414 189.044 51.128 189.083 50.839 189.106 50.55 189.114 50.261 189.106 49.973 189.083 49.686 189.044 49.402 188.989 49.121 188.919 48.845 188.834 48.573 188.735 48.307 188.62 48.048 188.492 47.796 188.349 47.553 188.193 47.318 188.025 47.092 187.843 46.877 187.65 46.672 187.446 46.479 187.23 46.298 187.005 46.129 186.77 45.973 186.526 45.831 186.274 45.702 186.015 45.588 185.749 45.488 185.478 45.403 185.201 45.334 184.921 45.279 184.637 45.24 184.35 45.217 184.062 45.209 183.772 45.209 144.11 45.217 143.821 45.24 143.533 45.279 143.246 45.334 142.962 45.403 142.681 45.488 142.405 45.588 142.133 45.702 141.868 45.831 141.608 45.973 141.357 46.129 141.113 46.298 140.878 46.479 140.652 46.672 140.437 46.877 140.232 47.092 140.039 47.318 139.858 47.553 139.689 47.796 139.533 48.048 139.391 48.307 139.263 48.573 139.148 48.845 139.049 49.121 138.964 49.402 138.894 49.686 138.839 49.973 138.8 50.261 138.777 50.55 138.769"></polygon>
            </g>
            <g id="Layer-4" transform="translate(595.000000, 545.000000)">
                <path d="M24.533,160.021 C-0.585,142.843 -7.061,108.352 10.116,83.233 C27.294,58.114 61.785,51.639 86.904,68.816 C112.023,85.995 118.498,120.486 101.321,145.604 C84.143,170.723 49.652,177.199 24.533,160.021" id="Shape" fill="#DBAB56" fill-rule="nonzero"></path>
                <path d="M86.801,68.966 C110.418,85.116 116.47,117.354 100.32,140.97 C84.17,164.587 51.932,170.639 28.316,154.488 C4.699,138.339 -1.353,106.102 14.797,82.485 C30.947,58.868 63.185,52.816 86.801,68.966" id="Shape" fill="#EFB30C" fill-rule="nonzero"></path>
                <path d="M16.404,91.045 C32.559,67.421 64.785,61.371 88.408,77.526 C98.875,84.684 106.037,95.067 109.068,106.357 C107.531,91.92 99.959,77.964 86.801,68.966 C63.177,52.811 30.952,58.861 14.797,82.484 C5.8,95.642 3.655,111.292 7.608,125.406 C6.488,113.888 9.247,101.511 16.404,91.045" id="Shape" fill="#E5A300" fill-rule="nonzero"></path>
                <path d="M108.415,102.179 C113.709,130.377 95.202,157.439 67.107,162.583 C38.91,167.877 11.997,149.473 6.703,121.276" id="Shape" fill="#E5A300" fill-rule="nonzero"></path>
                <g id="Group" opacity="0.720001" transform="translate(36.000000, 90.000000)">
                    <g id="Clipped">
                        <mask id="mask-8" fill="white">
                            <use xlink:href="#path-7"></use>
                        </mask>
                        <g id="Rectangle-path"></g>
                        <path d="M4.224,34.387 L12.722,40.199 C18.157,44.267 22.597,41.875 24.967,39.808 C26.521,38.451 27.697,36.634 27.838,34.546 C28.227,28.79 22.41,24.846 22.41,24.846 C31.057,29.401 35.72,24.649 35.72,24.649 C35.816,24.534 35.91,24.421 36,24.309 C39.562,19.868 38.168,13.105 33.07,9.618 L24.956,4.071 L4.224,34.387 Z" id="Shape" stroke="#F9E310" stroke-width="8.01" mask="url(#mask-8)"></path>
                    </g>
                </g>
                <g id="Group" opacity="0.720001" transform="translate(41.000000, 91.000000)">
                    <g id="Clipped">
                        <g>
                            <mask id="mask-10" fill="white">
                                <use xlink:href="#path-9"></use>
                            </mask>
                            <g id="Rectangle-path"></g>
                            <g id="Group" mask="url(#mask-10)" fill-rule="nonzero" fill="#F9E310">
                                <path d="M30.302,7.713 L32.182,4.964 C33.119,3.594 32.881,1.801 31.651,0.96 C30.421,0.119 28.664,0.548 27.727,1.918 L25.847,4.667 L30.302,7.713 L30.302,7.713 Z" id="Shape"></path>
                                <path d="M2.78,38.398 L0.73,41.396 C-0.111,42.626 0.204,44.305 1.434,45.146 C2.664,45.988 4.343,45.672 5.185,44.442 L7.235,41.444 L2.78,38.398 L2.78,38.398 Z" id="Shape"></path>
                            </g>
                        </g>
                    </g>
                </g>
                <path d="M84.756,71.956 C62.777,56.926 32.566,62.599 17.536,84.577 C2.505,106.556 8.177,136.768 30.156,151.798 C52.135,166.828 82.346,161.155 97.377,139.177 C112.509,117.049 106.735,86.986 84.756,71.956 M26.373,157.329 C1.255,140.152 -5.221,105.66 11.956,80.542 C29.134,55.424 63.625,48.947 88.744,66.125 C113.862,83.303 120.339,117.794 103.161,142.913 C85.983,168.031 51.491,174.507 26.373,157.329" id="Shape" fill="#F7D27F" fill-rule="nonzero"></path>
                <path d="M86.078,70.666 C85.975,70.815 85.724,70.862 85.574,70.76 C85.425,70.658 85.377,70.406 85.48,70.257 L87.525,67.267 C87.627,67.117 87.879,67.069 88.028,67.172 C88.178,67.274 88.225,67.525 88.123,67.676 L86.078,70.666 Z" id="Shape" fill="#FFE0A1" fill-rule="nonzero"></path>
                <path d="M27.49,156.338 C27.388,156.487 27.136,156.534 26.987,156.433 C26.837,156.33 26.79,156.078 26.892,155.929 L28.937,152.939 C29.039,152.789 29.291,152.742 29.441,152.844 C29.59,152.946 29.637,153.198 29.535,153.348 L27.49,156.338 Z" id="Shape" fill="#FFE0A1" fill-rule="nonzero"></path>
                <path d="M106.85,102.864 C106.598,102.911 106.299,102.707 106.401,102.557 C106.354,102.305 106.456,102.156 106.707,102.108 L110.233,101.447 C110.484,101.399 110.784,101.604 110.681,101.754 C110.728,102.006 110.524,102.304 110.374,102.202 L106.85,102.864 L106.85,102.864 Z" id="Shape" fill="#FFE0A1" fill-rule="nonzero"></path>
                <path d="M4.885,122.008 C4.634,122.055 4.334,121.851 4.437,121.701 C4.389,121.449 4.594,121.151 4.743,121.252 L8.268,120.591 C8.52,120.543 8.819,120.748 8.717,120.898 C8.764,121.15 8.559,121.448 8.41,121.346 L4.885,122.008 L4.885,122.008 Z" id="Shape" fill="#FFE0A1" fill-rule="nonzero"></path>
                <path d="M98.668,140.498 C98.519,140.396 98.471,140.144 98.573,139.995 C98.676,139.846 98.927,139.798 99.077,139.9 L102.067,141.945 C102.217,142.048 102.264,142.299 102.161,142.448 C102.06,142.599 101.808,142.645 101.658,142.543 L98.668,140.498 Z" id="Shape" fill="#FFE0A1" fill-rule="nonzero"></path>
                <path d="M12.996,81.911 C12.847,81.808 12.799,81.557 12.901,81.407 C13.004,81.258 13.255,81.21 13.405,81.312 L16.395,83.357 C16.545,83.46 16.592,83.712 16.49,83.861 C16.388,84.011 16.136,84.057 15.986,83.956 L12.996,81.911 Z" id="Shape" fill="#FFE0A1" fill-rule="nonzero"></path>
                <path d="M66.32,161.167 C66.273,160.915 66.375,160.766 66.627,160.719 C66.879,160.672 67.028,160.773 67.075,161.025 L67.737,164.55 C67.784,164.802 67.58,165.101 67.43,164.999 C67.178,165.046 66.88,164.842 66.982,164.692 L66.32,161.167 Z" id="Shape" fill="#FFE0A1" fill-rule="nonzero"></path>
                <path d="M47.278,59.054 C47.231,58.803 47.333,58.653 47.585,58.606 C47.837,58.559 48.135,58.763 48.033,58.912 L48.695,62.437 C48.742,62.689 48.538,62.988 48.388,62.886 C48.136,62.933 47.838,62.729 47.94,62.579 L47.278,59.054 Z" id="Shape" fill="#FFE0A1" fill-rule="nonzero"></path>
                <path d="M61.866,61.788 C61.913,62.04 61.559,62.237 61.41,62.135 C61.158,62.182 60.961,61.828 61.063,61.679 L61.306,58.114 C61.259,57.862 61.613,57.666 61.762,57.768 C62.014,57.721 62.211,58.075 62.109,58.225 L61.866,61.788 L61.866,61.788 Z" id="Shape" fill="#FFE0A1" fill-rule="nonzero"></path>
                <path d="M53.81,165.34 C53.857,165.592 53.503,165.789 53.354,165.687 C53.102,165.734 52.905,165.38 53.008,165.231 L53.251,161.666 C53.204,161.414 53.558,161.218 53.707,161.319 C53.959,161.273 54.156,161.627 54.053,161.777 L53.81,165.34 L53.81,165.34 Z" id="Shape" fill="#FFE0A1" fill-rule="nonzero"></path>
                <path d="M95.82,79.523 C95.718,79.672 95.317,79.618 95.168,79.514 C95.017,79.413 95.073,79.012 95.174,78.862 L97.865,76.533 C97.967,76.383 98.369,76.437 98.518,76.541 C98.668,76.642 98.613,77.043 98.51,77.194 L95.82,79.522 L95.82,79.523 Z" id="Shape" fill="#FFE0A1" fill-rule="nonzero"></path>
                <path d="M17.15,147.072 C17.047,147.221 16.646,147.166 16.497,147.064 C16.347,146.962 16.402,146.56 16.504,146.411 L19.195,144.082 C19.297,143.931 19.698,143.987 19.848,144.089 C19.997,144.191 19.942,144.593 19.84,144.742 L17.15,147.072 L17.15,147.072 Z" id="Shape" fill="#FFE0A1" fill-rule="nonzero"></path>
                <path d="M107.497,116.035 C107.246,116.082 107.049,115.728 107.151,115.578 C107.103,115.327 107.458,115.13 107.607,115.232 L111.172,115.475 C111.424,115.428 111.62,115.782 111.518,115.931 C111.565,116.183 111.211,116.38 111.061,116.278 L107.497,116.035 L107.497,116.035 Z" id="Shape" fill="#FFE0A1" fill-rule="nonzero"></path>
                <path d="M3.993,108.231 C3.741,108.278 3.544,107.924 3.647,107.774 C3.599,107.523 3.953,107.326 4.103,107.428 L7.667,107.671 C7.919,107.624 8.116,107.978 8.014,108.127 C8.06,108.379 7.706,108.576 7.557,108.474 L3.993,108.231 Z" id="Shape" fill="#FFE0A1" fill-rule="nonzero"></path>
                <path d="M89.913,150.092 C89.764,149.989 89.818,149.588 89.921,149.439 C90.023,149.289 90.424,149.344 90.574,149.446 L92.903,152.137 C93.053,152.238 92.998,152.64 92.895,152.789 C92.793,152.939 92.392,152.884 92.242,152.781 L89.913,150.092 Z" id="Shape" fill="#FFE0A1" fill-rule="nonzero"></path>
                <path d="M22.214,71.318 C22.064,71.215 22.119,70.814 22.221,70.665 C22.324,70.515 22.725,70.57 22.875,70.672 L25.204,73.363 C25.354,73.465 25.298,73.867 25.196,74.016 C25.094,74.166 24.693,74.11 24.543,74.008 L22.214,71.318 L22.214,71.318 Z" id="Shape" fill="#FFE0A1" fill-rule="nonzero"></path>
                <path d="M36.289,66.46 C36.336,66.712 36.384,66.964 36.132,67.011 C35.88,67.059 35.628,67.106 35.581,66.854 L34.062,63.621 C34.015,63.369 33.967,63.117 34.219,63.069 C34.471,63.022 34.723,62.976 34.77,63.227 L36.289,66.46 Z" id="Shape" fill="#FFE0A1" fill-rule="nonzero"></path>
                <path d="M81.206,159.937 C81.253,160.188 81.301,160.44 81.049,160.488 C80.797,160.534 80.545,160.582 80.498,160.33 L78.979,157.096 C78.932,156.845 78.884,156.592 79.136,156.546 C79.388,156.498 79.64,156.451 79.687,156.704 L81.206,159.936 L81.206,159.937 Z" id="Shape" fill="#FFE0A1" fill-rule="nonzero"></path>
                <path d="M74.645,64.603 C74.542,64.751 74.337,65.05 74.039,64.846 C73.89,64.744 73.59,64.539 73.794,64.24 L74.99,60.888 C75.091,60.739 75.297,60.439 75.596,60.644 C75.745,60.747 76.043,60.951 75.84,61.249 L74.644,64.602 L74.645,64.603 Z" id="Shape" fill="#FFE0A1" fill-rule="nonzero"></path>
                <path d="M40.128,162.566 C40.025,162.715 39.821,163.014 39.522,162.81 C39.373,162.708 39.073,162.504 39.278,162.204 L40.473,158.852 C40.575,158.703 40.78,158.404 41.079,158.608 C41.229,158.711 41.527,158.915 41.323,159.213 L40.128,162.566 Z" id="Shape" fill="#FFE0A1" fill-rule="nonzero"></path>
                <path d="M102.825,90.457 C102.574,90.505 102.322,90.552 102.274,90.3 C102.227,90.048 102.18,89.797 102.431,89.749 L105.665,88.23 C105.917,88.183 106.169,88.136 106.216,88.388 C106.263,88.639 106.31,88.891 106.058,88.938 L102.825,90.457 L102.825,90.457 Z" id="Shape" fill="#FFE0A1" fill-rule="nonzero"></path>
                <path d="M9.35,135.374 C9.099,135.422 8.847,135.469 8.799,135.217 C8.752,134.965 8.705,134.714 8.956,134.666 L12.19,133.146 C12.442,133.1 12.693,133.053 12.741,133.304 C12.788,133.556 12.835,133.808 12.583,133.854 L9.35,135.374 L9.35,135.374 Z" id="Shape" fill="#FFE0A1" fill-rule="nonzero"></path>
                <path d="M104.684,128.814 C104.535,128.711 104.236,128.506 104.44,128.208 C104.542,128.058 104.746,127.759 105.046,127.963 L108.398,129.159 C108.547,129.26 108.846,129.464 108.642,129.764 C108.539,129.914 108.335,130.212 108.037,130.007 L104.684,128.813 L104.684,128.814 Z" id="Shape" fill="#FFE0A1" fill-rule="nonzero"></path>
                <path d="M6.72,94.297 C6.571,94.194 6.272,93.989 6.476,93.691 C6.578,93.541 6.783,93.242 7.082,93.446 L10.434,94.642 C10.583,94.744 10.883,94.948 10.678,95.247 C10.575,95.397 10.371,95.696 10.072,95.491 L6.72,94.297 L6.72,94.297 Z" id="Shape" fill="#FFE0A1" fill-rule="nonzero"></path>
                <polygon id="Shape" fill="#F7D27F" points="60.535 0.125 60.848 0.156 61.158 0.207 61.464 0.278 61.765 0.37 62.06 0.48 62.346 0.61 62.624 0.759 62.891 0.925 63.147 1.108 63.39 1.307 63.619 1.522 63.834 1.752 64.034 1.995 64.217 2.251 64.383 2.518 64.531 2.795 64.661 3.082 64.772 3.376 64.863 3.677 64.935 3.984 64.986 4.294 65.017 4.607 65.027 4.921 65.027 58.397 65.017 58.712 64.986 59.025 64.935 59.335 64.863 59.642 64.772 59.943 64.661 60.237 64.531 60.524 64.383 60.801 64.217 61.068 64.034 61.324 63.834 61.567 63.619 61.797 63.39 62.012 63.147 62.211 62.891 62.394 62.624 62.56 62.346 62.709 62.06 62.839 61.765 62.949 61.464 63.041 61.158 63.112 60.848 63.163 60.535 63.194 60.22 63.204 59.906 63.194 59.593 63.163 59.282 63.112 58.976 63.041 58.675 62.949 58.381 62.839 58.094 62.709 57.817 62.56 57.55 62.394 57.294 62.211 57.051 62.012 56.821 61.797 56.606 61.567 56.407 61.324 56.223 61.068 56.057 60.801 55.909 60.524 55.779 60.237 55.668 59.943 55.577 59.642 55.506 59.335 55.454 59.025 55.423 58.712 55.413 58.397 55.413 4.921 55.423 4.607 55.454 4.294 55.506 3.984 55.577 3.677 55.668 3.376 55.779 3.082 55.909 2.795 56.057 2.518 56.223 2.251 56.407 1.995 56.606 1.752 56.821 1.522 57.051 1.307 57.294 1.108 57.55 0.925 57.817 0.759 58.094 0.61 58.381 0.48 58.675 0.37 58.976 0.278 59.282 0.207 59.593 0.156 59.906 0.125 60.22 0.114"></polygon>
                <polygon id="Shape" fill="#F7D27F" points="25.805 32.006 26.051 32.031 26.295 32.069 26.538 32.12 26.777 32.183 27.013 32.258 27.245 32.346 27.471 32.445 27.693 32.556 27.908 32.677 28.117 32.81 28.319 32.954 28.513 33.107 28.699 33.271 28.876 33.444 29.044 33.625 29.203 33.815 29.351 34.013 29.49 34.219 29.617 34.431 29.733 34.649 29.838 34.874 29.932 35.103 30.013 35.337 30.082 35.574 30.139 35.815 30.183 36.059 30.215 36.304 30.234 36.551 30.241 36.799 30.241 69.266 30.234 69.513 30.215 69.76 30.183 70.005 30.139 70.249 30.082 70.49 30.013 70.727 29.932 70.961 29.838 71.191 29.733 71.415 29.617 71.633 29.49 71.845 29.351 72.051 29.203 72.249 29.044 72.439 28.876 72.621 28.699 72.793 28.513 72.957 28.319 73.11 28.117 73.254 27.908 73.387 27.693 73.509 27.471 73.619 27.245 73.718 27.013 73.806 26.777 73.881 26.538 73.944 26.295 73.995 26.051 74.033 25.805 74.058 25.557 74.071 25.31 74.071 25.063 74.058 24.816 74.033 24.572 73.995 24.33 73.944 24.09 73.881 23.854 73.806 23.623 73.718 23.396 73.619 23.174 73.509 22.959 73.387 22.75 73.254 22.548 73.11 22.354 72.957 22.168 72.793 21.991 72.621 21.823 72.439 21.664 72.249 21.516 72.051 21.378 71.845 21.25 71.633 21.134 71.415 21.029 71.191 20.936 70.961 20.854 70.727 20.785 70.49 20.728 70.249 20.684 70.005 20.652 69.76 20.633 69.513 20.627 69.266 20.627 36.799 20.633 36.551 20.652 36.304 20.684 36.059 20.728 35.815 20.785 35.574 20.854 35.337 20.936 35.103 21.029 34.874 21.134 34.649 21.25 34.431 21.378 34.219 21.516 34.013 21.664 33.815 21.823 33.625 21.991 33.444 22.168 33.271 22.354 33.107 22.548 32.954 22.75 32.81 22.959 32.677 23.174 32.556 23.396 32.445 23.623 32.346 23.854 32.258 24.09 32.183 24.33 32.12 24.572 32.069 24.816 32.031 25.063 32.006 25.31 31.993 25.557 31.993"></polygon>
                <polygon id="Shape" fill="#F7D27F" points="93.852 45.955 94.062 45.969 94.27 45.992 94.477 46.024 94.683 46.065 94.887 46.115 95.088 46.173 95.287 46.241 95.482 46.317 95.674 46.401 95.862 46.494 96.046 46.595 96.225 46.704 96.4 46.82 96.569 46.944 96.732 47.075 96.89 47.214 97.042 47.359 97.187 47.51 97.325 47.668 97.456 47.831 97.58 48.001 97.697 48.175 97.806 48.354 97.906 48.538 97.999 48.726 98.084 48.918 98.16 49.114 98.227 49.312 98.286 49.514 98.336 49.717 98.377 49.923 98.408 50.13 98.431 50.339 98.445 50.548 98.45 50.758 98.45 73.676 98.445 73.885 98.431 74.095 98.408 74.303 98.377 74.511 98.336 74.716 98.286 74.92 98.227 75.121 98.16 75.32 98.084 75.515 97.999 75.707 97.906 75.895 97.806 76.079 97.697 76.259 97.58 76.433 97.456 76.602 97.325 76.766 97.187 76.923 97.042 77.075 96.89 77.22 96.732 77.358 96.569 77.489 96.4 77.613 96.225 77.73 96.046 77.839 95.862 77.94 95.674 78.032 95.482 78.117 95.287 78.193 95.088 78.26 94.887 78.319 94.683 78.369 94.477 78.41 94.27 78.442 94.062 78.464 93.852 78.478 93.643 78.483 93.433 78.478 93.224 78.464 93.015 78.442 92.808 78.41 92.602 78.369 92.398 78.319 92.197 78.26 91.998 78.193 91.803 78.117 91.611 78.032 91.423 77.94 91.239 77.839 91.06 77.73 90.885 77.613 90.716 77.489 90.553 77.358 90.395 77.22 90.244 77.075 90.098 76.923 89.96 76.766 89.829 76.602 89.705 76.433 89.588 76.259 89.48 76.079 89.379 75.895 89.286 75.707 89.201 75.515 89.125 75.32 89.058 75.121 88.999 74.92 88.95 74.716 88.909 74.511 88.877 74.303 88.854 74.095 88.84 73.885 88.836 73.676 88.836 50.758 88.84 50.548 88.854 50.339 88.877 50.13 88.909 49.923 88.95 49.717 88.999 49.514 89.058 49.312 89.125 49.114 89.201 48.918 89.286 48.726 89.379 48.538 89.48 48.354 89.588 48.175 89.705 48.001 89.829 47.831 89.96 47.668 90.098 47.51 90.244 47.359 90.395 47.214 90.553 47.075 90.716 46.944 90.885 46.82 91.06 46.704 91.239 46.595 91.423 46.494 91.611 46.401 91.803 46.317 91.998 46.241 92.197 46.173 92.398 46.115 92.602 46.065 92.808 46.024 93.015 45.992 93.224 45.969 93.433 45.955 93.643 45.951"></polygon>
                <polygon id="Shape" fill="#11132D" points="50.859 45.421 51.092 45.437 51.323 45.462 51.554 45.497 51.782 45.543 52.009 45.598 52.232 45.664 52.453 45.738 52.67 45.823 52.883 45.917 53.092 46.02 53.297 46.132 53.496 46.253 53.69 46.382 53.878 46.52 54.059 46.666 54.235 46.82 54.403 46.981 54.564 47.149 54.718 47.324 54.864 47.506 55.002 47.694 55.131 47.888 55.252 48.087 55.364 48.291 55.467 48.5 55.561 48.714 55.645 48.931 55.72 49.152 55.786 49.375 55.841 49.602 55.886 49.83 55.922 50.061 55.947 50.292 55.962 50.525 55.968 50.758 55.968 76.541 55.962 76.774 55.947 77.006 55.922 77.238 55.886 77.468 55.841 77.697 55.786 77.923 55.72 78.147 55.645 78.368 55.561 78.585 55.467 78.798 55.364 79.007 55.252 79.212 55.131 79.411 55.002 79.605 54.864 79.792 54.718 79.974 54.564 80.149 54.403 80.318 54.235 80.479 54.059 80.633 53.878 80.778 53.69 80.916 53.496 81.046 53.297 81.167 53.092 81.279 52.883 81.382 52.67 81.476 52.453 81.56 52.232 81.635 52.009 81.7 51.782 81.756 51.554 81.801 51.323 81.837 51.092 81.862 50.859 81.877 50.626 81.882 50.393 81.877 50.16 81.862 49.929 81.837 49.698 81.801 49.47 81.756 49.244 81.7 49.02 81.635 48.799 81.56 48.582 81.476 48.369 81.382 48.16 81.279 47.955 81.167 47.756 81.046 47.562 80.916 47.374 80.778 47.193 80.633 47.017 80.479 46.849 80.318 46.688 80.149 46.534 79.974 46.388 79.792 46.251 79.605 46.121 79.411 46 79.212 45.888 79.007 45.785 78.798 45.691 78.585 45.607 78.368 45.532 78.147 45.467 77.923 45.411 77.697 45.366 77.468 45.33 77.238 45.305 77.006 45.29 76.774 45.285 76.541 45.285 50.758 45.29 50.525 45.305 50.292 45.33 50.061 45.366 49.83 45.411 49.602 45.467 49.375 45.532 49.152 45.607 48.931 45.691 48.714 45.785 48.5 45.888 48.291 46 48.087 46.121 47.888 46.251 47.694 46.388 47.506 46.534 47.324 46.688 47.149 46.849 46.981 47.017 46.82 47.193 46.666 47.374 46.52 47.562 46.382 47.756 46.253 47.955 46.132 48.16 46.02 48.369 45.917 48.582 45.823 48.799 45.738 49.02 45.664 49.244 45.598 49.47 45.543 49.698 45.497 49.929 45.462 50.16 45.437 50.393 45.421 50.626 45.416"></polygon>
                <polygon id="Shape" fill="#11132D" points="84.474 52.118 84.757 52.148 85.038 52.193 85.316 52.253 85.59 52.328 85.86 52.418 86.125 52.521 86.384 52.639 86.636 52.77 86.881 52.914 87.118 53.071 87.346 53.241 87.565 53.423 87.774 53.615 87.973 53.819 88.16 54.033 88.336 54.257 88.499 54.49 88.65 54.731 88.788 54.979 88.912 55.235 89.023 55.497 89.119 55.765 89.201 56.037 89.269 56.313 89.321 56.593 89.359 56.875 89.382 57.158 89.389 57.442 89.389 96.593 89.382 96.878 89.359 97.161 89.321 97.443 89.269 97.722 89.201 97.999 89.119 98.271 89.023 98.539 88.912 98.801 88.788 99.056 88.65 99.305 88.499 99.546 88.336 99.779 88.16 100.003 87.973 100.217 87.774 100.42 87.565 100.613 87.346 100.795 87.118 100.964 86.881 101.122 86.636 101.266 86.384 101.397 86.125 101.515 85.86 101.618 85.59 101.707 85.316 101.782 85.038 101.842 84.757 101.888 84.474 101.918 84.19 101.933 83.906 101.933 83.622 101.918 83.339 101.888 83.058 101.842 82.78 101.782 82.506 101.707 82.236 101.618 81.971 101.515 81.712 101.397 81.46 101.266 81.215 101.122 80.978 100.964 80.749 100.795 80.53 100.613 80.322 100.42 80.123 100.217 79.936 100.003 79.76 99.779 79.597 99.546 79.446 99.305 79.308 99.056 79.184 98.801 79.073 98.539 78.977 98.271 78.895 97.999 78.827 97.722 78.774 97.443 78.737 97.161 78.714 96.878 78.706 96.593 78.706 57.442 78.714 57.158 78.737 56.875 78.774 56.593 78.827 56.313 78.895 56.037 78.977 55.765 79.073 55.497 79.184 55.235 79.308 54.979 79.446 54.731 79.597 54.49 79.76 54.257 79.936 54.033 80.123 53.819 80.322 53.615 80.53 53.423 80.749 53.241 80.978 53.071 81.215 52.914 81.46 52.77 81.712 52.639 81.971 52.521 82.236 52.418 82.506 52.328 82.78 52.253 83.058 52.193 83.339 52.148 83.622 52.118 83.906 52.103 84.19 52.103"></polygon>
            </g>
        </g>
    </g>
</svg>