<?xml version="1.0" encoding="UTF-8" standalone="no"?>
<svg width="7354px" height="2546px" viewBox="0 0 7354 2546" version="1.1" xmlns="http://www.w3.org/2000/svg" xmlns:xlink="http://www.w3.org/1999/xlink">
    <!-- Generator: Sketch 43.2 (39069) - http://www.bohemiancoding.com/sketch -->
    <title>city2</title>
    <desc>Created with Sketch.</desc>
    <defs>
        <linearGradient x1="0.000128889711%" y1="49.9998821%" x2="100.000129%" y2="49.9998821%" id="linearGradient-1">
            <stop stop-color="#161333" offset="0%"></stop>
            <stop stop-color="#231F20" offset="100%"></stop>
        </linearGradient>
    </defs>
    <g id="Page-1" stroke="none" stroke-width="1" fill="none" fill-rule="evenodd" opacity="0.0500031">
        <g id="city2" fill-rule="nonzero" fill="url(#linearGradient-1)">
            <g id="Group">
                <path d="M7190.44,899.654 L6540.06,899.654 L6540.06,796.7 L7190.44,796.7 L7190.44,899.654 Z M3381.19,152.842 L3025.252,152.842 L3025.252,76.421 L3381.19,76.421 L3381.19,152.842 Z M2597.223,1826.492 L2597.223,1678.675 C2629.444,1677.321 2660.748,1674.917 2691.065,1671.433 C2723.086,1667.75 2754.052,1662.875 2783.923,1656.842 L2783.923,1826.492 L2597.223,1826.492 L2597.223,1826.492 Z M2604.023,1490.742 C2601.748,1490.837 2599.486,1490.921 2597.223,1491.004 L2597.223,1487.412 C2599.486,1488.521 2601.702,1489.629 2604.023,1490.742 L2604.023,1490.742 Z M2783.923,1482.771 L2783.923,1540.617 C2782.815,1540.696 2781.711,1540.758 2780.598,1540.833 C2740.469,1528.483 2704.694,1515.658 2672.923,1502.808 C2713.781,1498.45 2750.815,1491.775 2783.923,1482.771 L2783.923,1482.771 Z M2597.223,1619.417 C2637.977,1622.846 2683.79,1625.108 2734.106,1625.108 C2750.256,1625.108 2766.886,1624.858 2783.923,1624.362 L2783.923,1639.279 C2729.315,1650.454 2667.336,1658.417 2597.223,1661.487 L2597.223,1619.417 Z M2783.923,1559.342 L2783.923,1607.567 C2713.727,1609.633 2650.898,1607.162 2597.223,1602.6 L2597.223,1550.621 C2637.752,1556.196 2680.144,1559.517 2724.119,1559.517 C2742.144,1559.517 2760.427,1558.971 2778.94,1557.825 C2780.594,1558.333 2782.252,1558.837 2783.923,1559.342 L2783.923,1559.342 Z M2637.219,1505.942 C2665.244,1518.208 2696.656,1530.571 2731.911,1542.646 C2685.144,1543.058 2640.086,1539.721 2597.223,1533.721 L2597.223,1508.071 C2602.456,1507.887 2607.719,1507.671 2613.006,1507.408 C2621.223,1507.012 2629.265,1506.504 2637.219,1505.942 Z M7243.379,899.658 L7243.379,796.704 L7298.775,796.704 L7298.775,776.471 L6434.696,776.471 L6434.696,796.704 L6487.113,796.704 L6487.113,899.658 L6376.642,899.658 L6376.642,2000.348 L6208.159,2000.348 L6208.159,1483.989 L5518.196,1483.989 L5518.196,1371.306 L5465.259,1371.306 L5465.259,1483.989 L5366.654,1483.989 L5366.654,2335.544 L5179.559,2335.544 L5179.559,1826.494 L5058.038,1826.494 L5058.038,604.394 L4633.225,410.744 L4208.413,604.394 L4208.413,1194.748 L4063.079,1194.748 L4063.079,1044.331 L3922.021,1044.331 L3922.021,1194.748 L3805.929,1194.748 L3805.929,1136.094 L3708.279,1136.094 L3708.279,1194.748 L3622.513,1194.748 L3622.513,152.848 L3452.575,152.848 L3452.575,76.427 L3571.6,76.427 L3571.6,25.131 L2834.834,25.131 L2834.834,76.427 L2953.854,76.427 L2953.854,152.848 L2783.921,152.848 L2783.921,1464.948 C2738.113,1477.839 2688.275,1485.073 2639.567,1488.697 C2624.4,1481.977 2610.321,1475.298 2597.221,1468.727 L2597.221,152.847 L2512.775,152.847 L2512.775,0.005 L2253.763,0.005 L2253.763,152.847 L2102.092,152.847 L2102.092,0.005 L1843.079,0.005 L1843.079,152.847 L1758.629,152.847 L1758.629,1043.872 L1374.409,1042.042 L1374.409,900.626 L1205.146,900.626 L1205.146,1042.042 L1149.321,1042.042 L1149.321,1356.638 L743.109,1356.638 L743.109,885.309 L0.992,585.651 L0.992,2545.161 L7353.852,2545.161 L7353.852,899.661 L7243.377,899.661 L7243.379,899.658 Z" id="Shape"></path>
            </g>
        </g>
    </g>
</svg>