<?xml version="1.0" encoding="UTF-8" standalone="no"?>
<svg width="163px" height="165px" viewBox="0 0 163 165" version="1.1" xmlns="http://www.w3.org/2000/svg" xmlns:xlink="http://www.w3.org/1999/xlink">
    <!-- Generator: Sketch 43.2 (39069) - http://www.bohemiancoding.com/sketch -->
    <title>coin</title>
    <desc>Created with Sketch.</desc>
    <defs>
        <rect id="path-1" x="0.511" y="0.38" width="52.531" height="64.083"></rect>
        <rect id="path-3" x="0.851" y="0.108" width="37.733" height="70.971"></rect>
    </defs>
    <g id="Page-1" stroke="none" stroke-width="1" fill="none" fill-rule="evenodd">
        <g id="coin">
            <path d="M45.808,157.01 C5.875,138.047 -11.225,90.018 7.739,50.086 C26.703,10.154 74.731,-6.947 114.663,12.017 C154.596,30.981 171.696,79.009 152.732,118.941 C133.769,158.874 85.741,175.974 45.808,157.01" id="Shape" fill="#DBAB56" fill-rule="nonzero"></path>
            <path d="M114.55,12.254 C152.095,30.084 168.076,74.973 150.247,112.518 C132.418,150.062 87.529,166.045 49.984,148.215 C12.44,130.385 -3.543,85.496 14.287,47.951 C32.116,10.407 77.005,-5.575 114.55,12.254" id="Shape" fill="#EFB30C" fill-rule="nonzero"></path>
            <path d="M18.53,59.871 C36.365,22.315 81.238,6.339 118.794,24.174 C135.432,32.075 148.06,45.355 154.967,60.869 C149.492,40.5 135.467,22.188 114.55,12.254 C76.994,-5.58 32.121,10.396 14.286,47.952 C4.353,68.869 4.819,91.811 13.686,111.17 C9.471,94.894 10.629,76.51 18.53,59.871" id="Shape" fill="#E5A300" fill-rule="nonzero"></path>
            <path d="M153.082,55.022 C167.061,94.286 146.631,137.309 107.479,151.05 C68.216,165.03 25.431,144.712 11.451,105.448" id="Shape" fill="#E5A300" fill-rule="nonzero"></path>
            <g id="Group" opacity="0.720001" transform="translate(56.000000, 50.000000)">
                <g id="Clipped">
                    <mask id="mask-2" fill="white">
                        <use xlink:href="#path-1"></use>
                    </mask>
                    <g id="Rectangle-path"></g>
                    <path d="M4.258,52.324 L17.768,58.74 C26.487,63.348 32.317,58.911 35.25,55.408 C37.174,53.11 38.449,50.235 38.179,47.208 C37.435,38.861 28.195,34.516 28.195,34.516 C41.634,39.095 47.25,31.221 47.25,31.221 C47.362,31.036 47.47,30.852 47.574,30.67 C51.681,23.491 48.15,14.102 40.045,10.253 L27.146,4.128 L4.258,52.324 L4.258,52.324 Z" id="Shape" stroke="#F9E310" stroke-width="7.5" mask="url(#mask-2)"></path>
                </g>
            </g>
            <g id="Group" opacity="0.720001" transform="translate(63.000000, 48.000000)">
                <g id="Clipped">
                    <g>
                        <mask id="mask-4" fill="white">
                            <use xlink:href="#path-3"></use>
                        </mask>
                        <g id="Rectangle-path"></g>
                        <g id="Group" mask="url(#mask-4)" fill-rule="nonzero" fill="#F9E310">
                            <path d="M36.043,10.449 L38.118,6.079 C39.152,3.901 38.405,1.382 36.45,0.453 C34.494,-0.475 32.07,0.537 31.036,2.716 L28.961,7.086 L36.043,10.449 L36.043,10.449 Z" id="Shape"></path>
                            <path d="M3.495,60.711 L1.231,65.477 C0.303,67.433 1.135,69.771 3.091,70.7 C5.047,71.628 7.385,70.796 8.313,68.84 L10.577,64.074 L3.495,60.711 Z" id="Shape"></path>
                        </g>
                    </g>
                </g>
            </g>
            <path d="M112.292,17.008 C77.352,0.415 35.283,15.393 18.69,50.334 C2.097,85.275 17.075,127.343 52.016,143.937 C86.956,160.529 129.025,145.551 145.618,110.611 C162.324,75.432 147.233,33.601 112.292,17.008 M47.839,152.731 C7.907,133.768 -9.193,85.739 9.771,45.807 C28.734,5.874 76.762,-11.225 116.694,7.738 C156.627,26.701 173.727,74.73 154.764,114.662 C135.8,154.595 87.771,171.695 47.839,152.731" id="Shape" fill="#F7D27F" fill-rule="nonzero"></path>
            <path d="M113.897,14.857 C113.784,15.094 113.433,15.219 113.196,15.107 C112.959,14.994 112.834,14.643 112.946,14.405 L115.204,9.651 C115.317,9.414 115.668,9.289 115.905,9.402 C116.143,9.515 116.267,9.865 116.155,10.103 L113.897,14.857 Z" id="Shape" fill="#FFE0A1" fill-rule="nonzero"></path>
            <path d="M49.218,151.056 C49.105,151.294 48.754,151.418 48.517,151.306 C48.279,151.193 48.155,150.842 48.267,150.604 L50.525,145.85 C50.637,145.613 50.988,145.488 51.226,145.601 C51.463,145.714 51.588,146.064 51.475,146.302 L49.218,151.056 L49.218,151.056 Z" id="Shape" fill="#FFE0A1" fill-rule="nonzero"></path>
            <path d="M150.991,56.359 C150.64,56.484 150.165,56.258 150.277,56.02 C150.153,55.67 150.265,55.432 150.616,55.307 L155.524,53.56 C155.875,53.435 156.35,53.661 156.237,53.899 C156.362,54.249 156.137,54.724 155.898,54.611 L150.991,56.359 L150.991,56.359 Z" id="Shape" fill="#FFE0A1" fill-rule="nonzero"></path>
            <path d="M9.009,106.91 C8.658,107.035 8.183,106.809 8.296,106.571 C8.171,106.221 8.397,105.745 8.634,105.858 L13.543,104.111 C13.893,103.986 14.368,104.212 14.256,104.45 C14.381,104.8 14.155,105.275 13.917,105.162 L9.009,106.91 L9.009,106.91 Z" id="Shape" fill="#FFE0A1" fill-rule="nonzero"></path>
            <path d="M147.77,112.215 C147.532,112.102 147.408,111.751 147.52,111.514 C147.633,111.276 147.984,111.151 148.221,111.264 L152.975,113.522 C153.213,113.634 153.337,113.985 153.225,114.223 C153.112,114.461 152.761,114.585 152.524,114.472 L147.77,112.215 L147.77,112.215 Z" id="Shape" fill="#FFE0A1" fill-rule="nonzero"></path>
            <path d="M11.571,47.536 C11.333,47.423 11.209,47.073 11.321,46.835 C11.434,46.597 11.785,46.473 12.023,46.585 L16.777,48.843 C17.014,48.955 17.139,49.306 17.026,49.544 C16.913,49.782 16.563,49.907 16.325,49.793 L11.571,47.536 L11.571,47.536 Z" id="Shape" fill="#FFE0A1" fill-rule="nonzero"></path>
            <path d="M106.029,149.197 C105.904,148.846 106.017,148.609 106.368,148.484 C106.718,148.359 106.956,148.472 107.081,148.822 L108.829,153.73 C108.953,154.081 108.727,154.556 108.49,154.444 C108.139,154.568 107.664,154.343 107.777,154.105 L106.029,149.197 Z" id="Shape" fill="#FFE0A1" fill-rule="nonzero"></path>
            <path d="M55.592,6.978 C55.467,6.627 55.58,6.39 55.931,6.265 C56.281,6.14 56.757,6.366 56.644,6.603 L58.392,11.511 C58.516,11.862 58.29,12.337 58.053,12.225 C57.702,12.349 57.227,12.124 57.34,11.886 L55.592,6.978 L55.592,6.978 Z" id="Shape" fill="#FFE0A1" fill-rule="nonzero"></path>
            <path d="M77.145,7.599 C77.269,7.95 76.806,8.312 76.568,8.2 C76.217,8.324 75.855,7.861 75.968,7.623 L75.51,2.453 C75.385,2.103 75.849,1.741 76.086,1.853 C76.437,1.728 76.799,2.192 76.687,2.43 L77.145,7.599 L77.145,7.599 Z" id="Shape" fill="#FFE0A1" fill-rule="nonzero"></path>
            <path d="M89.025,158.016 C89.15,158.367 88.686,158.729 88.449,158.616 C88.098,158.741 87.735,158.278 87.848,158.04 L87.39,152.87 C87.265,152.52 87.729,152.157 87.966,152.27 C88.317,152.145 88.679,152.609 88.567,152.847 L89.025,158.016 L89.025,158.016 Z" id="Shape" fill="#FFE0A1" fill-rule="nonzero"></path>
            <path d="M129.882,25.361 C129.769,25.599 129.181,25.611 128.943,25.498 C128.705,25.385 128.694,24.797 128.806,24.559 L132.14,20.607 C132.252,20.369 132.841,20.358 133.078,20.47 C133.316,20.583 133.328,21.172 133.215,21.409 L129.882,25.361 L129.882,25.361 Z" id="Shape" fill="#FFE0A1" fill-rule="nonzero"></path>
            <path d="M32.282,140.1 C32.169,140.338 31.581,140.35 31.343,140.237 C31.105,140.124 31.094,139.536 31.206,139.298 L34.539,135.346 C34.653,135.108 35.24,135.097 35.478,135.209 C35.716,135.322 35.728,135.911 35.615,136.148 L32.282,140.1 Z" id="Shape" fill="#FFE0A1" fill-rule="nonzero"></path>
            <path d="M154.903,75.112 C154.552,75.237 154.19,74.773 154.302,74.535 C154.178,74.185 154.641,73.822 154.88,73.935 L160.049,73.477 C160.399,73.352 160.761,73.816 160.649,74.053 C160.774,74.404 160.31,74.767 160.073,74.654 L154.903,75.112 L154.903,75.112 Z" id="Shape" fill="#FFE0A1" fill-rule="nonzero"></path>
            <path d="M4.611,87.343 C4.26,87.468 3.898,87.004 4.011,86.767 C3.886,86.416 4.349,86.053 4.587,86.166 L9.757,85.708 C10.107,85.584 10.47,86.047 10.357,86.285 C10.482,86.635 10.018,86.998 9.78,86.885 L4.611,87.343 Z" id="Shape" fill="#FFE0A1" fill-rule="nonzero"></path>
            <path d="M137.378,127.962 C137.141,127.849 137.129,127.261 137.241,127.024 C137.355,126.786 137.942,126.774 138.18,126.887 L142.132,130.22 C142.369,130.333 142.382,130.921 142.269,131.159 C142.156,131.396 141.567,131.408 141.33,131.295 L137.378,127.962 L137.378,127.962 Z" id="Shape" fill="#FFE0A1" fill-rule="nonzero"></path>
            <path d="M22.402,30.25 C22.164,30.137 22.152,29.549 22.265,29.311 C22.378,29.074 22.966,29.062 23.204,29.174 L27.156,32.508 C27.393,32.621 27.405,33.209 27.293,33.446 C27.18,33.684 26.591,33.696 26.354,33.583 L22.402,30.25 L22.402,30.25 Z" id="Shape" fill="#FFE0A1" fill-rule="nonzero"></path>
            <path d="M41.499,20.093 C41.623,20.444 41.748,20.794 41.397,20.919 C41.047,21.044 40.696,21.169 40.571,20.818 L37.66,16.522 C37.535,16.172 37.41,15.821 37.761,15.697 C38.111,15.572 38.462,15.447 38.587,15.797 L41.499,20.093 L41.499,20.093 Z" id="Shape" fill="#FFE0A1" fill-rule="nonzero"></path>
            <path d="M127.112,144.061 C127.237,144.412 127.362,144.762 127.011,144.887 C126.661,145.012 126.31,145.137 126.185,144.786 L123.273,140.49 C123.148,140.14 123.024,139.789 123.375,139.665 C123.725,139.54 124.076,139.415 124.2,139.765 L127.112,144.061 L127.112,144.061 Z" id="Shape" fill="#FFE0A1" fill-rule="nonzero"></path>
            <path d="M96.117,8.745 C96.004,8.982 95.778,9.458 95.303,9.232 C95.065,9.119 94.59,8.893 94.815,8.418 L95.772,3.338 C95.885,3.1 96.11,2.624 96.586,2.85 C96.824,2.963 97.299,3.189 97.073,3.664 L96.117,8.745 L96.117,8.745 Z" id="Shape" fill="#FFE0A1" fill-rule="nonzero"></path>
            <path d="M68.762,157.133 C68.649,157.37 68.423,157.846 67.948,157.62 C67.71,157.507 67.235,157.281 67.46,156.806 L68.416,151.726 C68.53,151.488 68.755,151.012 69.231,151.238 C69.468,151.351 69.944,151.577 69.718,152.052 L68.762,157.133 L68.762,157.133 Z" id="Shape" fill="#FFE0A1" fill-rule="nonzero"></path>
            <path d="M142.409,39.467 C142.058,39.592 141.708,39.717 141.583,39.366 C141.458,39.015 141.333,38.665 141.683,38.54 L145.979,35.628 C146.33,35.503 146.68,35.379 146.805,35.729 C146.93,36.079 147.055,36.43 146.705,36.555 L142.409,39.467 Z" id="Shape" fill="#FFE0A1" fill-rule="nonzero"></path>
            <path d="M18.441,125.08 C18.09,125.205 17.74,125.33 17.615,124.979 C17.49,124.628 17.365,124.278 17.716,124.153 L22.012,121.241 C22.362,121.116 22.713,120.992 22.838,121.342 C22.963,121.693 23.087,122.043 22.737,122.168 L18.441,125.08 Z" id="Shape" fill="#FFE0A1" fill-rule="nonzero"></path>
            <path d="M153.757,94.085 C153.52,93.972 153.044,93.746 153.27,93.271 C153.383,93.033 153.609,92.558 154.084,92.784 L159.165,93.74 C159.403,93.853 159.878,94.078 159.653,94.554 C159.539,94.792 159.314,95.267 158.838,95.041 L153.757,94.085 Z" id="Shape" fill="#FFE0A1" fill-rule="nonzero"></path>
            <path d="M5.369,66.73 C5.131,66.617 4.656,66.392 4.882,65.916 C4.994,65.678 5.22,65.203 5.696,65.429 L10.776,66.385 C11.014,66.498 11.489,66.724 11.264,67.199 C11.151,67.437 10.925,67.912 10.45,67.687 L5.369,66.73 L5.369,66.73 Z" id="Shape" fill="#FFE0A1" fill-rule="nonzero"></path>
        </g>
    </g>
</svg>