<?xml version="1.0" encoding="UTF-8" standalone="no"?>
<svg width="2026px" height="1421px" viewBox="0 0 2026 1421" version="1.1" xmlns="http://www.w3.org/2000/svg" xmlns:xlink="http://www.w3.org/1999/xlink">
    <!-- Generator: Sketch 43.2 (39069) - http://www.bohemiancoding.com/sketch -->
    <title>h</title>
    <desc>Created with Sketch.</desc>
    <defs>
        <rect id="path-1" x="0.2" y="0.498" width="391.44" height="326.445"></rect>
        <path d="M25.24,4.549 C3.494,14.682 -5.92,40.524 4.213,62.269 C14.346,84.014 40.188,93.429 61.933,83.296 C83.678,73.163 93.092,47.321 82.96,25.576 C75.593,9.765 59.922,0.474 43.558,0.474 C37.416,0.474 31.175,1.783 25.24,4.549 L25.24,4.549 Z" id="path-3"></path>
        <rect id="path-5" x="0.13" y="0.478" width="86.9" height="86.89"></rect>
        <rect id="path-7" x="0.79" y="0.288" width="48.91" height="102.93"></rect>
        <rect id="path-9" x="0.68" y="0.708" width="12.37" height="98.16"></rect>
    </defs>
    <g id="Page-1" stroke="none" stroke-width="1" fill="none" fill-rule="evenodd">
        <g id="h">
            <path d="M521.81,141.919 L265.663,143.228 C265.663,143.228 190.96,185.006 123.463,329.066 C123.463,329.066 -24.187,601.921 3.446,1420.126 L936.162,1412.879 C936.162,1412.879 1003.602,232.999 521.81,141.919" id="Shape" fill="#F4F4F4" fill-rule="nonzero"></path>
            <path d="M524.332,141.148 C524.332,141.148 621.146,158.877 702.771,233.497 L534.479,284.002 L354.508,143.324 L524.332,141.148 L524.332,141.148 Z" id="Shape" fill="#D3D3D3" fill-rule="nonzero"></path>
            <path d="M1870.12,277.709 C1819.581,234.934 1776.207,213.273 1776.207,213.273 C1776.207,213.273 1735.722,239.972 1690.643,288.491 C1661.648,319.7 1630.817,360.012 1607.562,408.003 C1652.426,378.742 1757.531,314.805 1870.599,278.127 C1870.44,277.992 1870.278,277.843 1870.12,277.709" id="Shape" fill="#E6E6E6" fill-rule="nonzero"></path>
            <path d="M1734.66,216.039 C1734.66,216.039 1648.838,157.489 1602.819,157.485 C1592.647,157.484 1582.567,153.909 1575.942,146.19 C1570.18,139.475 1567.005,130.324 1575.054,119.481 C1581.041,111.415 1590.699,106.811 1600.74,106.496 C1618.061,105.951 1653.193,101.593 1687.055,77.769 C1696.405,71.189 1704.7,63.264 1712.349,54.766 C1720.795,45.383 1738.309,28.32 1757.039,24.364 C1757.039,24.364 1795.445,14.954 1802.875,9.032 C1802.875,9.032 1828.272,-8.925 1838.609,6.808 C1838.609,6.808 1845.452,23.746 1828.007,43.568 C1813.645,59.886 1801.647,78.2 1794.488,98.725 C1784.728,126.707 1776.629,163.898 1786.696,194.863 C1805.584,252.955 1734.66,216.039 1734.66,216.039" id="Shape" fill="#F7F7F7" fill-rule="nonzero"></path>
            <path d="M1830.96,96.16 C1820.356,74.849 1792.297,98.619 1792.289,98.484 C1722.085,149 1649.234,194.598 1575.968,234.112 C1598.077,279.588 1620.319,327.205 1642.695,376.962 C1748.027,332.208 1815.334,291.939 1836.496,282.61 C1836.501,282.698 1870.425,267.151 1865.982,249.745 C1861.4,234.618 1848.108,233.321 1837.596,236.455 C1836.042,236.917 1834.548,237.466 1833.153,238.092 C1834.547,237.465 1836.043,236.916 1837.596,236.455 C1847.958,232.191 1858.869,217.014 1854.693,197.933 C1849.161,172.701 1824.38,183.63 1815.06,186.15 C1815.037,186.064 1815.016,185.979 1814.994,185.893 C1823.507,182.29 1845.747,170.358 1840.838,149.32 C1835.977,128.526 1812.198,136.233 1803.119,139.877 C1812.834,135.402 1841.768,118.136 1830.96,96.16" id="Shape" fill="#FDDCBE" fill-rule="nonzero"></path>
            <path d="M2004.06,460.494 C1974.592,380.394 1919.326,319.46 1870.597,278.127 C1757.531,314.805 1652.425,378.742 1607.562,408.003 C1582.852,458.998 1566.704,518.673 1570.708,585.634 C1574.702,652.408 1587.948,711.453 1634.206,748.049 C1720.131,747.993 1987.112,726.318 2004.06,460.494" id="Shape" fill="#F7F7F7" fill-rule="nonzero"></path>
            <path d="M2024.61,558.37 C2022.5,523.077 2015.08,490.45 2004.06,460.497 C1987.112,726.321 1720.131,747.996 1634.207,748.052 C1669.8,776.21 1724.937,791.078 1810.453,785.941 C2007.105,774.127 2031.675,676.522 2024.61,558.37" id="Shape" fill="#F7F7F7" fill-rule="nonzero"></path>
            <g id="Group" opacity="0.130005" transform="translate(1634.000000, 460.000000)">
                <g id="Clipped">
                    <mask id="mask-2" fill="white">
                        <use xlink:href="#path-1"></use>
                    </mask>
                    <g id="Rectangle-path"></g>
                    <path d="M390.61,98.37 C388.5,63.077 381.08,30.45 370.06,0.497 C353.112,266.321 86.131,287.996 0.207,288.052 C35.8,316.21 90.937,331.078 176.453,325.941 C373.105,314.127 397.675,216.522 390.61,98.37" id="Shape" fill="#232323" fill-rule="nonzero" mask="url(#mask-2)"></path>
                </g>
            </g>
            <path d="M1829.6,623.34 C1824.973,641.583 1813.326,650.127 1794.267,649.382 C1794.088,649.376 1793.916,649.371 1793.731,649.374 L1756.138,649.579 L1755.307,495.923 L1790.64,495.733 C1802.507,495.59 1813.781,500.331 1821.456,508.525 C1827.917,515.424 1831.125,524.124 1830.493,533.044 C1830.466,533.398 1830.441,533.753 1830.408,534.111 C1829.564,537.307 1822.966,557.116 1788.572,561.277 C1782.026,562.068 1777.256,567.821 1777.659,574.402 C1778.058,580.978 1783.533,586.106 1790.121,586.106 L1790.133,586.106 C1790.449,586.106 1817.466,586.295 1827.905,603.805 C1831.966,610.611 1830.71,618.964 1829.6,623.34 M1849.308,591.042 C1844.367,582.751 1837.727,576.76 1830.681,572.433 C1851.224,558.464 1854.825,539.315 1855.026,538.157 C1855.079,537.844 1855.121,537.529 1855.15,537.214 C1855.228,536.388 1855.295,535.574 1855.351,534.792 C1856.481,518.892 1850.903,503.514 1839.646,491.491 C1828.677,479.778 1813.393,472.567 1796.98,471.119 L1796.905,457.285 C1796.861,449.215 1790.952,442.704 1783.706,442.743 C1776.46,442.782 1770.621,449.356 1770.664,457.426 L1770.738,470.92 L1742.712,471.071 C1735.831,471.109 1730.283,476.717 1730.322,483.598 L1731.287,662.172 C1731.302,665.477 1732.633,668.64 1734.981,670.963 C1737.316,673.271 1740.465,674.565 1743.745,674.565 L1743.813,674.565 L1771.835,674.414 L1771.919,689.966 C1771.958,697.212 1777.865,703.054 1785.111,703.015 C1792.358,702.976 1798.199,697.07 1798.16,689.824 L1798.076,674.29 C1826.469,673.66 1846.638,657.561 1853.756,629.467 C1857.312,615.455 1855.731,601.807 1849.308,591.042" id="Shape" fill="#76CB4B" fill-rule="nonzero"></path>
            <polygon id="Shape" fill="#FDDCBE" points="1718.38 335.508 1718.043 335.717 1717.553 336.019 1716.978 336.371 1716.297 336.783 1715.514 337.256 1714.65 337.772 1714.142 338.074 1713.628 338.379 1713.093 338.695 1712.534 339.024 1711.946 339.369 1711.333 339.727 1710.693 340.099 1710.027 340.485 1709.336 340.884 1708.621 341.295 1707.877 341.721 1707.107 342.161 1706.315 342.611 1705.496 343.075 1704.65 343.552 1703.777 344.043 1702.882 344.544 1701.961 345.057 1701.011 345.585 1700.038 346.122 1699.04 346.672 1698.015 347.234 1696.965 347.808 1695.89 348.393 1694.79 348.989 1693.663 349.596 1692.512 350.215 1691.335 350.844 1690.132 351.486 1688.905 352.136 1687.653 352.798 1686.375 353.47 1685.072 354.152 1683.742 354.846 1682.388 355.549 1681.011 356.261 1679.607 356.983 1678.178 357.715 1676.723 358.457 1675.244 359.209 1673.741 359.968 1672.211 360.738 1670.656 361.517 1669.094 362.296 1668.278 362.702 1667.473 363.101 1666.662 363.502 1665.843 363.906 1665.021 364.311 1664.19 364.719 1663.355 365.128 1662.511 365.541 1661.662 365.955 1660.807 366.371 1659.947 366.789 1659.079 367.209 1658.204 367.632 1657.327 368.055 1656.441 368.481 1655.547 368.91 1654.649 369.339 1653.745 369.771 1652.835 370.204 1651.919 370.639 1650.996 371.077 1650.064 371.518 1649.129 371.959 1648.189 372.401 1647.241 372.845 1646.287 373.292 1645.326 373.741 1644.362 374.19 1643.389 374.642 1642.409 375.096 1641.426 375.551 1640.435 376.008 1639.438 376.467 1638.433 376.928 1637.427 377.388 1636.412 377.852 1635.388 378.318 1634.361 378.784 1633.328 379.252 1632.288 379.722 1631.242 380.193 1630.19 380.666 1629.133 381.14 1628.068 381.617 1626.998 382.094 1625.923 382.572 1624.837 383.054 1623.749 383.535 1622.657 384.017 1621.556 384.502 1620.448 384.988 1619.335 385.475 1618.216 385.964 1617.091 386.454 1615.961 386.945 1614.823 387.438 1613.679 387.931 1612.53 388.427 1611.374 388.923 1610.214 389.42 1609.046 389.919 1607.872 390.419 1606.692 390.92 1605.506 391.423 1604.316 391.926 1603.118 392.43 1601.914 392.936 1600.704 393.443 1599.488 393.951 1598.267 394.46 1597.038 394.97 1595.805 395.48 1594.564 395.993 1593.318 396.506 1592.068 397.02 1590.808 397.535 1589.544 398.051 1588.276 398.567 1587.001 399.085 1585.716 399.605 1584.429 400.124 1583.135 400.644 1581.836 401.165 1580.53 401.688 1579.217 402.211 1577.901 402.734 1576.577 403.259 1575.246 403.785 1573.911 404.311 1572.57 404.837 1571.222 405.365 1569.867 405.894 1568.509 406.422 1567.143 406.952 1565.772 407.482 1564.394 408.014 1563.01 408.545 1561.623 409.077 1560.226 409.61 1558.824 410.144 1557.418 410.677 1556.005 411.212 1554.587 411.747 1553.162 412.282 1551.731 412.818 1550.295 413.355 1548.851 413.892 1547.402 414.429 1545.949 414.967 1544.488 415.505 1543.023 416.044 1541.551 416.583 1540.071 417.123 1538.587 417.662 1537.098 418.202 1535.603 418.743 1534.101 419.283 1532.594 419.824 1531.081 420.366 1529.561 420.907 1528.038 421.448 1526.507 421.99 1524.968 422.533 1523.426 423.075 1521.879 423.618 1520.324 424.16 1518.764 424.703 1517.197 425.246 1515.625 425.789 1514.048 426.332 1512.466 426.875 1510.875 427.419 1509.281 427.962 1507.68 428.505 1506.072 429.048 1504.46 429.592 1502.842 430.135 1501.218 430.678 1499.588 431.221 1497.951 431.765 1496.31 432.307 1494.663 432.85 1493.009 433.393 1491.351 433.935 1489.686 434.478 1488.014 435.02 1486.338 435.562 1484.656 436.104 1482.969 436.646 1481.275 437.187 1479.575 437.728 1477.87 438.269 1476.159 438.81 1474.442 439.35 1472.72 439.89 1470.991 440.429 1469.258 440.969 1467.517 441.508 1465.772 442.046 1464.022 442.584 1462.263 443.122 1460.501 443.659 1458.733 444.195 1456.958 444.732 1455.178 445.268 1453.393 445.803 1451.601 446.338 1449.804 446.872 1448.002 447.406 1446.193 447.939 1444.378 448.472 1442.558 449.003 1440.733 449.535 1438.902 450.065 1437.065 450.595 1435.222 451.125 1433.374 451.653 1431.519 452.181 1429.66 452.709 1427.794 453.235 1425.923 453.761 1424.046 454.286 1422.164 454.81 1420.276 455.334 1418.382 455.856 1416.482 456.378 1414.577 456.899 1412.667 457.419 1410.75 457.938 1408.829 458.456 1406.901 458.974 1404.968 459.49 1403.028 460.006 1401.083 460.52 1399.134 461.034 1397.178 461.546 1395.216 462.058 1393.249 462.568 1391.277 463.078 1389.299 463.586 1387.314 464.094 1385.324 464.6 1383.33 465.105 1381.329 465.609 1379.323 466.112 1377.31 466.614 1375.293 467.114 1373.27 467.613 1371.242 468.111 1369.207 468.608 1367.167 469.104 1365.122 469.598 1363.071 470.091 1361.015 470.583 1358.952 471.074 1356.885 471.563 1354.812 472.051 1352.733 472.537 1350.648 473.022 1348.559 473.506 1346.464 473.988 1344.362 474.469 1342.257 474.948 1340.144 475.426 1338.026 475.903 1335.903 476.378 1333.775 476.852 1331.641 477.323 1329.501 477.794 1327.356 478.263 1325.206 478.73 1323.049 479.196 1320.887 479.66 1318.721 480.122 1316.548 480.583 1314.37 481.043 1312.187 481.5 1309.997 481.956 1307.802 482.41 1305.602 482.863 1303.398 483.313 1301.187 483.762 1298.97 484.209 1296.747 484.655 1294.521 485.098 1292.287 485.54 1290.049 485.98 1287.806 486.418 1285.556 486.854 1283.302 487.289 1281.042 487.721 1278.776 488.152 1276.505 488.58 1274.23 489.007 1271.947 489.431 1269.66 489.854 1267.367 490.275 1265.069 490.694 1262.766 491.11 1260.457 491.525 1258.143 491.937 1255.823 492.348 1253.498 492.756 1251.168 493.162 1248.831 493.566 1246.491 493.968 1244.144 494.368 1241.791 494.766 1239.434 495.161 1237.071 495.554 1234.703 495.945 1232.33 496.334 1229.951 496.72 1227.567 497.105 1225.178 497.486 1222.794 497.864 1221.581 498.055 1220.381 498.243 1219.18 498.431 1217.977 498.618 1216.773 498.804 1215.565 498.991 1214.358 499.176 1213.148 499.361 1211.939 499.545 1210.727 499.729 1209.514 499.912 1208.302 500.094 1207.084 500.276 1205.866 500.457 1204.651 500.637 1203.432 500.817 1202.209 500.997 1200.986 501.176 1199.763 501.354 1198.539 501.531 1197.314 501.708 1196.085 501.884 1194.855 502.06 1193.626 502.235 1192.395 502.409 1191.162 502.583 1189.929 502.755 1188.694 502.928 1187.455 503.1 1186.217 503.271 1184.978 503.442 1183.738 503.611 1182.496 503.78 1181.253 503.949 1180.007 504.117 1178.762 504.284 1177.515 504.451 1176.265 504.617 1175.014 504.782 1173.764 504.947 1172.512 505.11 1171.258 505.274 1170.003 505.436 1168.747 505.598 1167.486 505.76 1166.228 505.92 1164.969 506.08 1163.706 506.239 1162.442 506.398 1161.179 506.556 1159.912 506.713 1158.645 506.87 1157.377 507.025 1156.109 507.18 1154.837 507.335 1153.562 507.489 1152.29 507.642 1151.017 507.794 1149.739 507.946 1148.461 508.097 1147.182 508.247 1145.903 508.396 1144.621 508.545 1143.337 508.693 1142.053 508.841 1140.769 508.987 1139.481 509.133 1138.192 509.279 1136.904 509.423 1135.615 509.567 1134.322 509.71 1133.026 509.852 1131.732 509.994 1130.437 510.135 1129.14 510.275 1127.842 510.414 1126.542 510.553 1125.24 510.691 1123.938 510.828 1122.635 510.964 1121.331 511.1 1120.023 511.235 1118.714 511.369 1117.407 511.503 1116.096 511.635 1114.785 511.767 1113.472 511.899 1112.158 512.029 1110.842 512.159 1109.523 512.288 1108.208 512.416 1106.888 512.543 1105.566 512.67 1104.245 512.795 1102.922 512.92 1101.598 513.045 1100.272 513.168 1098.945 513.291 1097.616 513.413 1096.286 513.534 1094.956 513.654 1093.623 513.774 1092.289 513.893 1090.955 514.01 1089.618 514.128 1088.281 514.244 1086.942 514.36 1085.603 514.474 1084.261 514.588 1082.917 514.702 1081.574 514.814 1080.23 514.925 1078.883 515.036 1077.534 515.146 1076.184 515.255 1074.835 515.363 1073.485 515.471 1072.132 515.577 1070.776 515.683 1069.42 515.788 1068.065 515.892 1066.707 515.996 1065.346 516.098 1063.986 516.2 1062.625 516.301 1061.26 516.401 1059.897 516.5 1058.532 516.598 1057.164 516.696 1055.795 516.792 1054.427 516.888 1053.057 516.983 1051.683 517.077 1050.309 517.17 1048.936 517.263 1047.559 517.354 1046.181 517.445 1044.803 517.535 1043.423 517.623 1042.043 517.711 1040.66 517.799 1039.277 517.885 1037.893 517.97 1036.506 518.055 1035.117 518.139 1033.73 518.221 1032.339 518.303 1030.948 518.384 1029.557 518.464 1028.161 518.544 1026.766 518.622 1025.372 518.7 1023.972 518.776 1022.574 518.852 1021.174 518.927 1019.772 519.001 1018.369 519.074 1016.966 519.146 1015.56 519.217 1014.153 519.287 1012.746 519.356 1011.337 519.425 1009.926 519.492 1008.516 519.559 1007.103 519.625 1005.689 519.689 1004.274 519.753 1002.856 519.816 1001.438 519.878 1000.019 519.939 998.6 519.999 997.179 520.059 995.755 520.117 994.33 520.174 992.905 520.231 991.478 520.286 990.05 520.341 988.622 520.394 987.191 520.447 985.759 520.498 984.326 520.549 982.894 520.599 981.458 520.648 980.018 520.696 978.581 520.743 977.144 520.788 975.702 520.834 974.259 520.878 972.817 520.921 971.374 520.963 969.928 521.004 968.481 521.044 967.034 521.083 965.584 521.121 964.134 521.158 962.682 521.195 961.229 521.23 959.775 521.264 958.318 521.297 956.861 521.33 955.405 521.361 953.945 521.391 952.484 521.42 951.023 521.449 949.561 521.476 948.096 521.502 946.63 521.528 945.164 521.552 943.696 521.575 942.226 521.597 940.756 521.619 939.284 521.639 937.81 521.658 936.336 521.676 934.862 521.694 933.386 521.71 931.907 521.725 930.427 521.739 928.948 521.752 927.467 521.764 925.983 521.775 924.499 521.785 923.015 521.794 921.528 521.802 920.04 521.809 918.552 521.815 917.06 521.819 915.569 521.823 914.078 521.826 912.583 521.827 911.086 521.828 909.59 521.828 908.093 521.826 906.595 521.823 905.094 521.82 903.592 521.815 902.091 521.809 900.587 521.802 899.083 521.794 897.606 521.786 898.55 362.789 899.973 362.797 901.367 362.804 902.758 362.811 904.149 362.816 905.538 362.82 906.925 362.824 908.312 362.826 909.698 362.828 911.083 362.828 912.465 362.827 913.845 362.826 915.228 362.823 916.607 362.82 917.984 362.816 919.362 362.81 920.738 362.804 922.112 362.797 923.487 362.788 924.858 362.779 926.229 362.769 927.599 362.758 928.969 362.746 930.335 362.733 931.7 362.719 933.065 362.704 934.431 362.688 935.794 362.671 937.154 362.653 938.514 362.635 939.873 362.615 941.23 362.594 942.587 362.573 943.943 362.55 945.297 362.527 946.649 362.503 948.002 362.477 949.353 362.451 950.701 362.424 952.048 362.396 953.397 362.367 954.743 362.338 956.086 362.307 957.429 362.275 958.772 362.243 960.112 362.209 961.452 362.175 962.79 362.14 964.128 362.103 965.464 362.066 966.798 362.028 968.132 361.99 969.465 361.95 970.795 361.909 972.124 361.868 973.455 361.825 974.783 361.782 976.106 361.738 977.431 361.693 978.757 361.647 980.079 361.6 981.4 361.552 982.72 361.504 984.041 361.454 985.358 361.404 986.674 361.353 987.99 361.301 989.303 361.248 990.615 361.194 991.927 361.139 993.238 361.084 994.548 361.028 995.856 360.97 997.161 360.912 998.467 360.853 999.771 360.794 1001.074 360.733 1002.378 360.672 1003.678 360.609 1004.977 360.546 1006.276 360.482 1007.572 360.418 1008.867 360.352 1010.163 360.285 1011.457 360.218 1012.747 360.15 1014.039 360.081 1015.329 360.011 1016.615 359.941 1017.905 359.869 1019.191 359.797 1020.473 359.724 1021.758 359.65 1023.04 359.575 1024.321 359.5 1025.602 359.424 1026.88 359.347 1028.156 359.269 1029.433 359.19 1030.709 359.11 1031.981 359.03 1033.254 358.949 1034.526 358.867 1035.796 358.784 1037.065 358.701 1038.33 358.617 1039.599 358.531 1040.863 358.446 1042.125 358.359 1043.389 358.272 1044.652 358.183 1045.911 358.094 1047.169 358.005 1048.428 357.914 1049.685 357.823 1050.939 357.731 1052.193 357.638 1053.446 357.544 1054.696 357.45 1055.947 357.355 1057.198 357.259 1058.445 357.162 1059.689 357.065 1060.934 356.967 1062.18 356.868 1063.424 356.768 1064.665 356.668 1065.904 356.567 1067.142 356.465 1068.381 356.362 1069.619 356.259 1070.853 356.155 1072.087 356.05 1073.32 355.944 1074.553 355.838 1075.783 355.731 1077.012 355.623 1078.24 355.514 1079.466 355.405 1080.691 355.295 1081.916 355.185 1083.139 355.073 1084.36 354.961 1085.581 354.848 1086.799 354.735 1088.018 354.62 1089.235 354.505 1090.451 354.39 1091.664 354.274 1092.877 354.156 1094.091 354.038 1095.3 353.92 1096.509 353.801 1097.716 353.681 1098.923 353.561 1100.129 353.439 1101.333 353.317 1102.537 353.194 1103.738 353.071 1104.937 352.947 1106.137 352.823 1107.336 352.697 1108.533 352.571 1109.727 352.444 1110.922 352.317 1112.115 352.189 1113.307 352.06 1114.499 351.931 1115.688 351.801 1116.874 351.67 1118.06 351.539 1119.247 351.407 1120.432 351.274 1121.614 351.14 1122.795 351.006 1123.977 350.872 1125.156 350.736 1126.332 350.6 1127.51 350.464 1128.685 350.326 1129.86 350.188 1131.033 350.05 1132.202 349.911 1133.375 349.771 1134.545 349.63 1135.711 349.489 1136.877 349.348 1138.043 349.205 1139.208 349.062 1140.371 348.919 1141.531 348.774 1142.694 348.629 1143.851 348.484 1145.008 348.338 1146.167 348.191 1147.322 348.044 1148.474 347.896 1149.627 347.747 1150.778 347.598 1151.928 347.448 1153.079 347.298 1154.227 347.147 1155.373 346.995 1156.516 346.843 1157.661 346.691 1158.804 346.537 1159.944 346.383 1161.085 346.229 1162.224 346.073 1163.362 345.918 1164.499 345.761 1165.633 345.604 1166.765 345.447 1167.898 345.289 1169.031 345.13 1170.16 344.971 1171.289 344.811 1172.418 344.651 1173.543 344.49 1174.666 344.329 1175.791 344.167 1176.914 344.004 1178.035 343.841 1179.154 343.677 1180.271 343.513 1181.389 343.348 1182.507 343.182 1183.621 343.017 1184.732 342.85 1185.846 342.683 1186.957 342.515 1188.066 342.347 1189.175 342.179 1190.281 342.01 1191.387 341.84 1192.49 341.67 1193.594 341.499 1194.697 341.327 1195.798 341.155 1196.898 340.983 1197.982 340.812 1200.187 340.463 1202.374 340.113 1204.557 339.761 1206.733 339.408 1208.905 339.052 1211.072 338.694 1213.233 338.335 1215.39 337.973 1217.54 337.609 1219.687 337.244 1221.828 336.876 1223.963 336.507 1226.095 336.135 1228.22 335.762 1230.34 335.387 1232.456 335.01 1234.565 334.631 1236.671 334.25 1238.771 333.868 1240.865 333.483 1242.954 333.097 1245.038 332.709 1247.118 332.32 1249.192 331.928 1251.26 331.535 1253.323 331.14 1255.382 330.744 1257.434 330.346 1259.483 329.946 1261.526 329.544 1263.563 329.141 1265.596 328.736 1267.622 328.33 1269.643 327.922 1271.66 327.513 1273.672 327.102 1275.679 326.689 1277.679 326.275 1279.675 325.86 1281.665 325.442 1283.65 325.024 1285.63 324.604 1287.606 324.182 1289.575 323.759 1291.539 323.335 1293.499 322.909 1295.452 322.482 1297.4 322.054 1299.344 321.624 1301.283 321.193 1303.215 320.761 1305.142 320.327 1307.064 319.892 1308.982 319.455 1310.893 319.018 1312.799 318.579 1314.701 318.139 1316.597 317.698 1318.487 317.256 1320.372 316.812 1322.253 316.367 1324.127 315.921 1325.996 315.474 1327.861 315.026 1329.72 314.577 1331.573 314.126 1333.42 313.675 1335.264 313.222 1337.101 312.769 1338.934 312.314 1340.76 311.859 1342.582 311.402 1344.398 310.945 1346.209 310.486 1348.015 310.027 1349.815 309.567 1351.61 309.105 1353.4 308.643 1355.183 308.18 1356.962 307.716 1358.736 307.251 1360.504 306.786 1362.267 306.319 1364.024 305.852 1365.776 305.384 1367.522 304.915 1369.264 304.446 1371 303.976 1372.73 303.505 1374.456 303.033 1376.175 302.56 1377.889 302.087 1379.598 301.614 1381.302 301.139 1383.001 300.664 1384.693 300.188 1386.38 299.712 1388.062 299.235 1389.739 298.758 1391.41 298.28 1393.076 297.801 1394.736 297.323 1396.391 296.843 1398.041 296.363 1399.685 295.882 1401.323 295.401 1402.956 294.92 1404.584 294.438 1406.207 293.956 1407.823 293.473 1409.434 292.99 1411.041 292.507 1412.64 292.023 1414.236 291.539 1415.826 291.054 1417.409 290.57 1418.988 290.085 1420.561 289.599 1422.129 289.114 1423.691 288.628 1425.248 288.142 1426.799 287.655 1428.345 287.169 1429.885 286.683 1431.42 286.196 1432.949 285.709 1434.473 285.222 1435.992 284.734 1437.504 284.247 1439.012 283.76 1440.513 283.273 1442.009 282.785 1443.501 282.297 1444.985 281.81 1446.465 281.322 1447.94 280.834 1449.407 280.347 1450.87 279.86 1452.328 279.372 1453.78 278.885 1455.227 278.397 1456.668 277.91 1458.103 277.423 1459.533 276.936 1460.957 276.45 1462.376 275.963 1463.79 275.476 1465.197 274.99 1466.599 274.504 1467.995 274.018 1469.386 273.533 1470.771 273.047 1472.152 272.562 1473.524 272.078 1474.892 271.593 1476.257 271.108 1477.614 270.625 1478.966 270.141 1480.312 269.658 1481.653 269.175 1482.987 268.693 1484.317 268.211 1485.641 267.729 1486.958 267.249 1488.27 266.768 1489.578 266.288 1490.879 265.808 1492.175 265.329 1493.465 264.85 1494.748 264.373 1496.028 263.895 1497.3 263.418 1498.567 262.942 1499.83 262.466 1501.086 261.991 1502.337 261.516 1503.581 261.043 1504.819 260.57 1506.054 260.097 1507.282 259.625 1508.503 259.154 1509.72 258.684 1510.93 258.214 1512.136 257.745 1513.335 257.277 1514.528 256.81 1515.717 256.343 1516.9 255.877 1518.075 255.413 1519.245 254.949 1520.412 254.485 1521.571 254.023 1522.724 253.562 1523.873 253.101 1525.016 252.642 1526.153 252.183 1527.282 251.726 1528.407 251.269 1529.528 250.813 1530.642 250.358 1531.749 249.905 1532.852 249.452 1533.948 249.001 1535.038 248.551 1536.124 248.101 1537.203 247.653 1538.276 247.206 1539.344 246.76 1540.405 246.315 1541.462 245.871 1542.512 245.429 1543.558 244.987 1544.597 244.547 1545.629 244.108 1546.656 243.671 1547.677 243.235 1548.694 242.799 1549.704 242.365 1550.708 241.933 1551.706 241.502 1552.698 241.072 1553.685 240.643 1554.666 240.216 1555.641 239.79 1556.611 239.366 1557.573 238.944 1558.53 238.522 1559.484 238.101 1560.431 237.682 1561.368 237.267 1562.303 236.851 1563.232 236.436 1564.154 236.024 1565.071 235.613 1565.982 235.203 1566.888 234.795 1567.787 234.389 1568.68 233.984 1569.569 233.581 1570.448 233.18 1571.324 232.78 1572.196 232.381 1573.059 231.985 1573.916 231.591 1574.768 231.198 1575.616 230.806 1576.455 230.417 1577.289 230.029 1578.12 229.643 1578.941 229.259 1579.758 228.877 1580.569 228.496 1581.376 228.116 1582.175 227.74 1582.966 227.366 1583.753 226.993 1584.536 226.621 1585.311 226.251 1586.081 225.884 1586.845 225.518 1587.601 225.156 1588.352 224.794 1589.101 224.434 1589.839 224.077 1590.573 223.722 1591.301 223.368 1592.023 223.017 1592.739 222.667 1593.448 222.321 1594.153 221.975 1594.851 221.632 1595.544 221.291 1596.229 220.953 1596.91 220.616 1597.584 220.282 1598.235 219.959 1599.571 219.292 1600.864 218.645 1602.134 218.005 1603.382 217.375 1604.604 216.754 1605.802 216.143 1606.976 215.541 1608.125 214.95 1609.253 214.367 1610.355 213.795 1611.43 213.235 1612.484 212.683 1613.512 212.142 1614.517 211.611 1615.498 211.09 1616.452 210.582 1617.384 210.083 1618.291 209.596 1619.173 209.12 1620.032 208.655 1620.866 208.201 1621.675 207.76 1622.458 207.33 1623.219 206.911 1623.955 206.504 1624.663 206.111 1625.351 205.728 1626.013 205.357 1626.649 205 1627.26 204.655 1627.848 204.322 1628.412 204.001 1628.947 203.696 1629.459 203.403 1629.949 203.121 1630.411 202.854 1630.848 202.601 1631.261 202.36 1631.65 202.134 1632.012 201.921 1632.353 201.721 1632.666 201.535 1632.95 201.367 1633.189 201.225 1633.665 200.94 1634.016 200.729 1634.265 200.578 1634.413 200.487 1634.44 200.47 1634.518 200.422 1718.38 335.508"></polygon>
            <path d="M571.023,419.068 C575.398,365.005 622.329,324.464 676.456,327.963 C858.659,339.741 1036.35,333.222 1111.84,331.72 C1217.377,329.621 1283.346,321.042 1283.346,321.042 L1322.728,508.005 C1314.536,510.373 1033.835,545.712 664.866,526.277 C608.968,523.333 566.507,474.86 571.023,419.068" id="Shape" fill="#DDDDDD" fill-rule="nonzero"></path>
            <path d="M1530.64,242.06 L1585.511,216.492 C1585.511,216.492 1578.196,218.96 1581.077,225.143 L1596.928,260.297 L1555.968,279.383 L1540.628,245.328 C1538.906,241.631 1534.443,240.065 1530.83,241.959 C1530.767,241.992 1530.703,242.025 1530.64,242.06" id="Shape" fill="#946B5C" fill-rule="nonzero"></path>
            <path d="M1542.64,249.638 L1531.626,254.25 L1529.299,249.27 C1527.907,246.282 1529.201,242.731 1532.188,241.339 C1535.176,239.947 1538.727,241.241 1540.119,244.228 L1542.64,249.638 L1542.64,249.638 Z" id="Shape" fill="#7C594E" fill-rule="nonzero"></path>
            <path d="M1593.9,224.727 L1583.597,230.552 L1581.077,225.142 C1579.684,222.154 1580.978,218.603 1583.965,217.211 C1586.954,215.819 1590.504,217.113 1591.896,220.101 L1593.9,224.727 L1593.9,224.727 Z" id="Shape" fill="#7C594E" fill-rule="nonzero"></path>
            <path d="M1606.99,405.901 L1661.861,380.333 C1661.861,380.333 1655.265,384.347 1652.385,378.164 L1598.572,261.752 L1557.612,280.838 L1610.912,396.151 C1612.635,399.848 1610.964,404.273 1607.189,405.82 C1607.124,405.847 1607.057,405.874 1606.99,405.901" id="Shape" fill="#946B5C" fill-rule="nonzero"></path>
            <path d="M1608.88,390.491 L1597.558,395.859 L1600.597,402.292 C1601.989,405.28 1605.54,406.573 1608.527,405.181 C1611.516,403.789 1612.809,400.238 1611.417,397.25 L1608.88,390.491 L1608.88,390.491 Z" id="Shape" fill="#7C594E" fill-rule="nonzero"></path>
            <path d="M1661.14,368.586 L1649.858,372.754 L1652.378,378.164 C1653.771,381.152 1657.322,382.445 1660.309,381.053 C1663.297,379.661 1664.59,376.11 1663.198,373.122 L1661.14,368.586 Z" id="Shape" fill="#7C594E" fill-rule="nonzero"></path>
            <path d="M1611.91,362.721 L1625.821,356.239 L1626.302,357.271 C1627.514,359.87 1626.388,362.959 1623.789,364.17 L1619.29,366.266 C1616.691,367.477 1613.602,366.352 1612.39,363.753 L1611.91,362.721 Z" id="Shape" fill="#AFACAA" fill-rule="nonzero"></path>
            <path d="M1597.09,361.026 L1604.743,361.575 L1604.42,366.08 C1604.295,367.819 1602.784,369.128 1601.045,369.004 L1599.69,368.906 C1597.95,368.781 1596.642,367.27 1596.767,365.531 L1597.09,361.026 Z" id="Shape" fill="#AFACAA" fill-rule="nonzero"></path>
            <path d="M1632.44,344.884 L1628.71,351.59 L1632.657,353.785 C1634.18,354.633 1636.103,354.085 1636.951,352.561 L1637.611,351.373 C1638.459,349.85 1637.911,347.927 1636.387,347.079 L1632.44,344.884 L1632.44,344.884 Z" id="Shape" fill="#AFACAA" fill-rule="nonzero"></path>
            <path d="M1580.24,265.063 L1573.285,268.304 L1571.377,264.21 C1570.64,262.63 1571.325,260.751 1572.905,260.015 L1574.137,259.441 C1575.718,258.705 1577.596,259.389 1578.333,260.969 L1580.24,265.063 Z" id="Shape" fill="#AFACAA" fill-rule="nonzero"></path>
            <path d="M1644.71,290.498 C1632.325,263.92 1600.741,252.415 1574.163,264.799 C1547.586,277.183 1536.079,308.768 1548.464,335.346 C1560.849,361.923 1592.433,373.429 1619.011,361.045 C1645.588,348.661 1657.095,317.076 1644.71,290.498" id="Shape" fill="#BEB8B4" fill-rule="nonzero"></path>
            <g id="Clipped" transform="translate(1553.000000, 269.000000)">
                <mask id="mask-4" fill="white">
                    <use xlink:href="#path-3"></use>
                </mask>
                <g id="Shape"></g>
                <g id="Group" mask="url(#mask-4)">
                    <g transform="translate(0.000000, -11.000000)">
                        <g opacity="0.699997" transform="translate(0.000000, 11.000000)">
                            <g id="Clipped">
                                <mask id="mask-6" fill="white">
                                    <use xlink:href="#path-5"></use>
                                </mask>
                                <g id="Rectangle-path"></g>
                                <path d="M82.96,25.576 C72.828,3.83 46.985,-5.583 25.24,4.549 C3.495,14.682 -5.919,40.524 4.214,62.269 C14.346,84.014 40.189,93.429 61.934,83.296 C83.679,73.163 93.093,47.321 82.96,25.576" id="Shape" fill="#0B0B1E" fill-rule="nonzero" mask="url(#mask-6)"></path>
                            </g>
                        </g>
                        <g opacity="0.0599976" transform="translate(42.000000, 0.000000)">
                            <g id="Clipped">
                                <mask id="mask-8" fill="white">
                                    <use xlink:href="#path-7"></use>
                                </mask>
                                <g id="Rectangle-path"></g>
                                <polygon id="Shape" fill="#FFFFFF" fill-rule="nonzero" mask="url(#mask-8)" points="0.79 103.214 7.409 0.291 49.706 32.498 47.602 81.401"></polygon>
                            </g>
                        </g>
                        <g opacity="0.0599976" transform="translate(27.000000, 5.000000)">
                            <g id="Clipped">
                                <mask id="mask-10" fill="white">
                                    <use xlink:href="#path-9"></use>
                                </mask>
                                <g id="Rectangle-path"></g>
                                <polygon id="Shape" fill="#FFFFFF" mask="url(#mask-10)" points="13.05 1.089 6.032 98.873 0.684 98.489 7.702 0.705"></polygon>
                            </g>
                        </g>
                    </g>
                </g>
            </g>
            <path d="M1599.32,311.648 C1598.616,310.138 1596.822,309.484 1595.311,310.188 C1593.801,310.891 1593.148,312.686 1593.851,314.196 C1594.555,315.706 1596.349,316.36 1597.86,315.656 C1599.37,314.953 1600.023,313.158 1599.32,311.648" id="Shape" fill="#FCFCFC" fill-rule="nonzero"></path>
            <polygon id="Shape" fill="#FFFFFF" points="1598.63 288.546 1598.744 288.556 1598.856 288.575 1598.967 288.602 1599.076 288.637 1599.181 288.681 1599.283 288.733 1599.38 288.792 1599.473 288.858 1599.56 288.932 1599.642 289.012 1599.717 289.098 1599.785 289.189 1599.846 289.285 1599.9 289.386 1599.945 289.491 1599.983 289.599 1600.012 289.709 1600.033 289.821 1600.045 289.935 1600.048 290.049 1600.042 290.163 1598.061 313.051 1598.047 313.164 1598.024 313.276 1597.993 313.385 1597.954 313.492 1597.906 313.596 1597.85 313.696 1597.787 313.791 1597.717 313.881 1597.641 313.965 1597.558 314.044 1597.469 314.115 1597.375 314.18 1597.276 314.238 1597.174 314.287 1597.067 314.329 1596.958 314.362 1596.847 314.387 1596.734 314.403 1596.62 314.411 1596.506 314.41 1596.392 314.4 1596.28 314.382 1596.169 314.354 1596.06 314.319 1595.955 314.275 1595.853 314.224 1595.756 314.164 1595.663 314.098 1595.576 314.024 1595.494 313.945 1595.419 313.859 1595.351 313.767 1595.29 313.671 1595.236 313.57 1595.191 313.465 1595.153 313.358 1595.124 313.247 1595.103 313.135 1595.091 313.022 1595.088 312.908 1595.094 312.794 1597.075 289.906 1597.089 289.792 1597.112 289.681 1597.143 289.571 1597.182 289.464 1597.23 289.36 1597.286 289.261 1597.349 289.165 1597.419 289.075 1597.495 288.991 1597.578 288.913 1597.667 288.841 1597.761 288.776 1597.86 288.719 1597.962 288.669 1598.069 288.627 1598.178 288.594 1598.289 288.569 1598.402 288.553 1598.516 288.545 1598.63 288.546"></polygon>
            <path d="M1596.58,312.922 L1627.267,315.928" id="Shape" stroke="#FFFFFF" stroke-width="1.79"></path>
        </g>
    </g>
</svg>