<?xml version="1.0" encoding="UTF-8" standalone="no"?>
<svg width="664px" height="692px" viewBox="0 0 664 692" version="1.1" xmlns="http://www.w3.org/2000/svg" xmlns:xlink="http://www.w3.org/1999/xlink">
    <!-- Generator: Sketch 43.2 (39069) - http://www.bohemiancoding.com/sketch -->
    <title>Rectangle-path</title>
    <desc>Created with Sketch.</desc>
    <defs>
        <rect id="path-1" x="0" y="0" width="663.706" height="691.671"></rect>
    </defs>
    <g id="Page-1" stroke="none" stroke-width="1" fill="none" fill-rule="evenodd">
        <g id="Part2">
            <rect id="Artboard1" x="0" y="0" width="663.706" height="691.671"></rect>
            <g id="Clipped">
                <mask id="mask-2" fill="white">
                    <use xlink:href="#path-1"></use>
                </mask>
                <g id="Rectangle-path"></g>
                <g id="Group" mask="url(#mask-2)">
                    <g transform="translate(-674.000000, 25.000000)" id="Text">
                        <g transform="translate(690.000000, 0.000000)">
                            <g id="Group" transform="translate(125.000000, 73.000000)" fill-rule="nonzero" fill="#FFFFFF">
                                <path d="M34.748,93.666 C40.183,92.708 44.816,92.611 48.648,93.375 C52.479,94.14 55.659,95.414 58.186,97.196 C60.713,98.979 62.697,101.075 64.137,103.484 C65.578,105.893 66.665,108.297 67.398,110.695 C68.132,113.093 68.58,115.283 68.743,117.265 C68.907,119.247 68.988,120.673 68.988,121.542 L68.988,175.675 L55.944,177.975 L55.944,124.658 C55.944,121.94 55.645,119.602 55.047,117.642 C54.449,115.682 53.648,114.03 52.642,112.685 C51.637,111.341 50.495,110.251 49.218,109.416 C47.941,108.582 46.65,107.953 45.346,107.531 C42.248,106.501 38.715,106.228 34.748,106.71 C32.193,107.16 29.951,107.868 28.022,108.833 C26.092,109.798 24.394,110.927 22.927,112.218 C21.459,113.51 20.209,114.885 19.176,116.344 C18.144,117.804 17.274,119.275 16.568,120.758 C14.937,124.252 13.932,128.044 13.551,132.133 L13.551,141.019 C18.606,137.138 24.204,134.657 30.345,133.574 C33.226,133.066 35.862,132.927 38.253,133.158 L38.253,146.609 C37.166,146.257 35.957,146.158 34.625,146.311 C33.294,146.465 31.867,146.675 30.345,146.944 C26.323,147.653 22.818,149.249 19.829,151.733 C18.307,152.98 17.043,154.412 16.038,156.029 C15.032,157.647 14.203,159.41 13.551,161.318 L13.551,185.45 L0.507,187.75 L0.507,133.536 C0.507,128.155 1.214,123.452 2.627,119.425 C4.04,115.399 5.847,111.942 8.048,109.053 C10.249,106.165 12.668,103.769 15.304,101.864 C17.94,99.958 20.494,98.435 22.967,97.292 C25.44,96.149 27.669,95.322 29.652,94.809 C31.636,94.296 33.063,93.963 33.932,93.81 L34.748,93.666 L34.748,93.666 Z" id="Shape"></path>
                                <path d="M52.928,199.214 L46.732,200.306 L46.732,188.077 L58.797,185.95 C60.537,185.643 62.031,186.005 63.281,187.034 C64.531,188.01 65.156,189.367 65.156,191.106 L65.156,216.786 L52.928,218.942 L52.928,199.214 Z" id="Shape"></path>
                                <path d="M208.314,63.632 L208.314,151.026 L195.351,153.312 L195.351,141.164 C195.243,142.814 194.862,144.308 194.21,145.646 C193.558,146.984 192.743,148.201 191.764,149.297 C190.786,150.394 189.672,151.378 188.422,152.251 C187.172,153.123 185.922,153.887 184.672,154.542 C181.682,156.048 178.34,157.262 174.644,158.186 L171.628,158.718 C166.682,159.59 162.483,159.651 159.032,158.9 C155.581,158.15 152.7,156.905 150.391,155.166 C148.081,153.426 146.273,151.367 144.969,148.988 C143.665,146.61 142.673,144.257 141.993,141.931 C141.314,139.605 140.893,137.451 140.73,135.469 C140.567,133.487 140.485,132.007 140.485,131.028 C140.485,130.322 140.512,129.964 140.567,129.954 L140.567,108.84 C140.567,105.361 140.091,102.524 139.14,100.327 C138.189,98.131 136.966,96.39 135.471,95.104 C133.977,93.819 132.36,92.922 130.621,92.413 C128.882,91.905 127.21,91.588 125.607,91.463 C124.004,91.338 122.618,91.352 121.449,91.503 C120.281,91.655 119.533,91.76 119.207,91.817 C116.598,92.277 114.289,92.983 112.278,93.936 C110.267,94.888 108.514,95.985 107.019,97.227 C105.525,98.469 104.275,99.804 103.269,101.231 C102.264,102.658 101.435,104.082 100.783,105.501 C99.261,108.813 98.391,112.417 98.174,116.315 L98.174,143.218 C98.337,146.069 98.962,148.486 100.049,150.469 C100.538,151.306 101.136,152.111 101.843,152.884 C102.549,153.656 103.419,154.304 104.451,154.828 C105.484,155.353 106.707,155.708 108.12,155.894 C109.533,156.079 111.164,156.009 113.011,155.683 L122.55,154.001 L122.55,166.149 L105.022,169.239 C101.326,169.619 98.011,169.144 95.076,167.814 C93.826,167.219 92.603,166.415 91.407,165.403 C90.212,164.391 89.152,163.07 88.228,161.439 C87.304,159.809 86.557,157.848 85.986,155.557 C85.415,153.266 85.13,150.518 85.13,147.311 L85.13,145.518 L85.13,105.815 C86.869,102.193 88.812,99.025 90.959,96.309 C93.106,93.593 95.307,91.262 97.562,89.316 C99.818,87.369 102.046,85.74 104.247,84.427 C106.449,83.115 108.487,82.063 110.362,81.27 C112.237,80.478 113.881,79.903 115.294,79.545 C116.707,79.187 117.767,78.946 118.474,78.821 L119.207,78.692 C124.86,77.858 129.629,77.914 133.515,78.859 C137.401,79.804 140.621,81.234 143.176,83.148 C145.73,85.062 147.714,87.28 149.127,89.802 C150.54,92.325 151.573,94.752 152.225,97.082 C152.877,99.413 153.271,101.463 153.407,103.233 C153.543,105.003 153.611,106.105 153.611,106.539 L153.611,127.654 C153.611,131.35 154.086,134.378 155.037,136.737 C155.989,139.097 157.184,140.965 158.625,142.341 C160.065,143.718 161.641,144.69 163.353,145.258 C165.065,145.825 166.709,146.174 168.285,146.304 C169.861,146.434 171.234,146.436 172.402,146.312 C173.571,146.187 174.318,146.096 174.644,146.039 C178.014,145.444 180.867,144.425 183.204,142.98 C185.541,141.535 187.484,139.902 189.033,138.08 C190.582,136.258 191.778,134.349 192.62,132.352 C193.463,130.356 194.088,128.506 194.495,126.804 C194.903,125.102 195.148,123.645 195.229,122.435 C195.311,121.225 195.351,120.512 195.351,120.294 L195.351,65.918 L208.314,63.632 L208.314,63.632 Z" id="Shape"></path>
                                <path d="M231.059,147.097 L231.059,58.398 C231.059,56.333 231.29,54.377 231.752,52.529 C232.214,50.681 232.866,48.908 233.709,47.211 C234.551,45.513 235.557,43.855 236.725,42.236 C237.894,40.617 239.157,39.008 240.516,37.41 C241.875,35.811 242.962,34.397 243.777,33.166 C244.592,31.935 245.217,30.82 245.652,29.819 C246.087,28.818 246.372,27.871 246.508,26.978 C246.644,26.084 246.712,25.175 246.712,24.251 C246.712,22.023 246.345,20.145 245.611,18.617 C244.878,17.088 243.872,15.88 242.595,14.991 C241.318,14.102 239.837,13.534 238.152,13.288 C236.467,13.041 234.701,13.081 232.853,13.407 C229.374,14.02 226.698,14.818 224.823,15.801 C222.948,16.784 221.575,17.732 220.706,18.647 C219.727,19.743 219.157,20.849 218.994,21.965 L207.906,23.92 C207.852,23.875 207.825,23.798 207.825,23.69 L207.825,22.956 C207.825,22.358 207.906,21.488 208.069,20.345 C208.232,19.202 208.586,17.944 209.129,16.571 C209.673,15.198 210.488,13.75 211.575,12.226 C212.662,10.703 214.129,9.235 215.977,7.822 C217.825,6.41 220.121,5.121 222.866,3.958 C225.611,2.795 228.94,1.868 232.853,1.178 C236.929,0.459 240.394,0.297 243.247,0.69 C246.101,1.084 248.478,1.833 250.381,2.938 C252.283,4.043 253.791,5.394 254.905,6.991 C256.019,8.588 256.848,10.236 257.392,11.933 C257.935,13.631 258.275,15.256 258.411,16.808 C258.547,18.36 258.615,19.653 258.615,20.685 L258.615,22.234 C258.615,23.43 258.506,24.686 258.289,26.001 C258.071,27.317 257.663,28.761 257.066,30.334 C256.468,31.907 255.625,33.645 254.538,35.548 C253.451,37.452 252.065,39.585 250.381,41.948 C248.804,44.128 247.609,46.091 246.794,47.838 C245.978,49.585 245.353,51.068 244.918,52.286 C244.429,53.731 244.158,55.002 244.103,56.098 L244.103,144.797 L231.059,147.097 L231.059,147.097 Z" id="Shape"></path>
                                <path d="M265.3,53.421 L278.344,51.121 L278.344,73.54 L307.529,68.393 C309.051,67.908 310.492,67.11 311.85,66.001 C312.992,65.039 314.133,63.751 315.274,62.136 C316.416,60.522 317.285,58.385 317.883,55.725 L317.883,44.149 L330.927,41.849 L330.927,54.648 C330.927,55.409 330.764,56.47 330.438,57.832 C330.112,59.194 329.623,60.68 328.97,62.289 C328.318,63.899 327.517,65.562 326.565,67.279 C325.614,68.995 324.514,70.562 323.264,71.978 C324.949,73.203 326.47,74.755 327.829,76.635 C328.97,78.227 330.017,80.244 330.968,82.685 C331.919,85.126 332.395,88.004 332.395,91.32 L332.395,129.228 L319.351,131.528 L319.351,93.62 C319.351,93.62 319.296,93.249 319.188,92.507 C319.079,91.765 318.875,90.864 318.576,89.802 C318.277,88.741 317.856,87.606 317.312,86.397 C316.769,85.189 316.062,84.09 315.193,83.102 C314.323,82.114 313.263,81.364 312.013,80.85 C310.763,80.337 309.269,80.234 307.529,80.541 L278.344,85.687 L278.344,138.759 L265.3,141.059 L265.3,53.421 Z" id="Shape"></path>
                                <path d="M332.313,19.185 L332.313,31.414 L296.116,37.796 L296.116,21.41 L289.594,22.56 L289.594,10.331 L302.556,8.046 C303.589,7.972 304.54,8.076 305.41,8.358 C306.171,8.604 306.85,9.068 307.448,9.751 C308.046,10.434 308.345,11.454 308.345,12.813 L308.345,23.411 L332.313,19.185 Z" id="Shape"></path>
                            </g>
                            <path d="M69.701,533.72 L69.701,533.72 L48.364,537.482 L48.364,394.592 C48.364,391.265 48.741,388.113 49.496,385.133 C50.252,382.156 51.318,379.296 52.697,376.558 C54.075,373.82 55.719,371.145 57.632,368.53 C59.543,365.917 61.609,363.321 63.833,360.738 C66.054,358.16 67.833,355.875 69.167,353.888 C70.5,351.902 71.522,350.104 72.234,348.488 C72.945,346.875 73.412,345.347 73.635,343.907 C73.855,342.468 73.968,341.004 73.968,339.514 C73.968,335.925 73.368,332.901 72.167,330.441 C70.967,327.982 69.321,326.041 67.234,324.614 C65.144,323.188 62.72,322.28 59.965,321.89 C57.208,321.502 54.319,321.572 51.297,322.105 C45.606,323.108 41.229,324.405 38.162,325.997 C35.093,327.589 32.848,329.123 31.427,330.599 C29.827,332.371 28.892,334.155 28.626,335.951 L10.489,339.15 C10.401,339.079 10.356,338.956 10.356,338.78 L10.356,337.597 C10.356,336.635 10.489,335.233 10.756,333.389 C11.023,331.549 11.602,329.52 12.489,327.306 C13.38,325.092 14.713,322.757 16.49,320.296 C18.27,317.838 20.671,315.468 23.691,313.183 C26.714,310.9 30.47,308.814 34.961,306.926 C39.449,305.041 44.896,303.533 51.297,302.404 C57.965,301.228 63.633,300.952 68.3,301.573 C72.967,302.196 76.856,303.394 79.969,305.163 C83.08,306.936 85.547,309.105 87.37,311.672 C89.192,314.241 90.548,316.891 91.438,319.623 C92.327,322.356 92.882,324.973 93.106,327.472 C93.326,329.973 93.438,332.055 93.438,333.717 L93.438,336.212 C93.438,338.139 93.259,340.164 92.905,342.281 C92.548,344.403 91.881,346.731 90.904,349.267 C89.926,351.804 88.548,354.607 86.77,357.679 C84.991,360.752 82.725,364.194 79.969,368.006 C77.39,371.526 75.435,374.695 74.102,377.511 C72.767,380.33 71.745,382.72 71.034,384.685 C70.234,387.016 69.788,389.063 69.701,390.83 L69.701,533.72 Z M159.851,375.984 L159.851,375.984 C168.74,374.416 176.321,374.242 182.589,375.454 C188.857,376.671 194.057,378.709 198.193,381.569 C202.326,384.431 205.571,387.799 207.926,391.673 C210.282,395.548 212.062,399.415 213.261,403.274 C214.462,407.133 215.195,410.662 215.462,413.852 C215.728,417.045 215.862,419.342 215.862,420.742 L215.862,422.055 L215.862,507.947 L194.524,511.71 L194.524,425.818 C194.524,421.441 194.035,417.676 193.058,414.52 C192.079,411.365 190.768,408.707 189.124,406.545 C187.478,404.384 185.61,402.634 183.522,401.294 C181.432,399.955 179.322,398.949 177.188,398.275 C172.121,396.63 166.34,396.204 159.851,396.998 C155.671,397.735 152.004,398.886 148.849,400.448 C145.692,402.011 142.915,403.837 140.514,405.922 C138.114,408.011 136.068,410.232 134.38,412.586 C132.69,414.943 131.267,417.317 130.113,419.709 C127.445,425.346 125.799,431.458 125.178,438.046 L125.178,452.362 C133.446,446.089 142.602,442.065 152.65,440.294 C157.361,439.463 161.673,439.228 165.586,439.589 L165.586,461.259 C163.807,460.698 161.829,460.542 159.651,460.794 C157.472,461.048 155.138,461.394 152.65,461.833 C146.07,462.993 140.335,465.579 135.446,469.594 C132.956,471.609 130.89,473.923 129.245,476.531 C127.599,479.143 126.244,481.986 125.178,485.064 L125.178,523.938 L103.841,527.7 L103.841,440.364 C103.841,431.696 104.995,424.116 107.307,417.623 C109.619,411.131 112.575,405.553 116.176,400.89 C119.777,396.229 123.731,392.357 128.045,389.276 C132.356,386.196 136.534,383.73 140.581,381.878 C144.626,380.027 148.27,378.683 151.517,377.848 C154.761,377.013 157.095,376.47 158.518,376.219 L159.851,375.984 Z M334.952,364.678 L334.952,364.678 L323.082,384.37 L314.014,380.189 C311.79,379.182 309.301,378.285 306.546,377.501 C303.789,376.719 301.012,376.093 298.211,375.621 C295.411,375.153 292.765,374.875 290.277,374.787 C287.786,374.702 285.742,374.799 284.142,375.081 C280.763,375.677 277.562,376.526 274.54,377.628 C271.516,378.731 268.85,380.253 266.538,382.191 C264.226,384.131 262.382,386.558 261.004,389.471 C259.625,392.386 258.936,395.988 258.936,400.277 C258.936,404.567 260.114,407.709 262.471,409.7 C264.826,411.694 267.892,413.035 271.673,413.726 C275.451,414.418 279.695,414.696 284.409,414.566 C289.12,414.437 293.831,414.349 298.545,414.306 C303.256,414.263 307.79,415.019 312.148,416.569 C316.503,418.122 320.349,420.312 323.683,423.138 C327.016,425.965 329.683,429.391 331.684,433.415 C333.685,437.442 334.685,441.906 334.685,446.808 C334.685,454.077 333.352,460.615 330.684,466.425 C328.017,472.237 324.393,477.275 319.815,481.54 C315.235,485.808 309.858,489.317 303.679,492.069 C297.499,494.821 290.943,496.81 284.009,498.033 C274.228,499.757 265.892,500.154 259.003,499.224 C252.113,498.295 246.402,496.915 241.867,495.087 C236.62,493.038 232.265,490.347 228.798,487.017 L242.933,470.866 C244.621,472.233 246.889,473.54 249.735,474.789 C252.58,476.04 255.804,477.047 259.403,477.812 C263.004,478.578 266.872,479.036 271.005,479.182 C275.141,479.328 279.385,479.017 283.742,478.249 C288.186,477.465 292.21,476.21 295.811,474.478 C299.411,472.75 302.479,470.656 305.013,468.193 C307.547,465.734 309.481,463.028 310.813,460.079 C312.148,457.131 312.814,453.992 312.814,450.664 C312.814,447.249 312.235,444.574 311.081,442.63 C309.924,440.69 308.568,439.244 307.013,438.291 C305.457,437.341 303.879,436.765 302.279,436.565 C300.679,436.367 299.433,436.258 298.545,436.239 C298.188,436.215 296.744,436.228 294.21,436.28 C291.677,436.332 288.81,436.378 285.609,436.417 C282.408,436.457 279.208,436.495 276.007,436.536 C272.807,436.574 270.406,436.56 268.805,436.491 C267.739,436.506 266.226,436.4 264.271,436.175 C262.314,435.952 260.159,435.5 257.804,434.819 C255.447,434.141 253.046,433.12 250.603,431.755 C248.156,430.394 245.934,428.507 243.934,426.102 C241.934,423.697 240.31,420.7 239.067,417.11 C237.82,413.522 237.2,409.187 237.2,404.109 C237.2,396.492 238.578,389.793 241.333,384.009 C244.089,378.227 247.69,373.281 252.135,369.168 C256.581,365.058 261.604,361.764 267.205,359.288 C272.807,356.812 278.451,355.072 284.142,354.068 C290.009,353.034 295.366,352.746 300.212,353.205 C305.057,353.664 309.257,354.325 312.814,355.185 C316.992,356.201 320.726,357.555 324.017,359.252 L334.952,364.678 Z M355.756,248.326 L355.756,248.326 C360.29,248.051 364.268,248.335 367.691,249.177 C371.113,250.017 374.092,251.222 376.626,252.789 C379.16,254.356 381.294,256.168 383.027,258.226 C384.761,260.285 386.161,262.402 387.229,264.577 C389.806,269.727 391.272,275.684 391.63,282.45 L391.63,476.954 L370.292,480.717 L370.292,286.213 C370.292,284.374 369.802,282.601 368.826,280.889 C367.846,279.181 366.778,277.684 365.625,276.398 C364.201,274.899 362.645,273.423 360.957,271.968 L343.753,291.811 L323.082,268.271 L336.418,253.706 L345.354,265.132 L355.756,248.326 Z M529.522,452.64 L529.522,452.64 L508.184,456.403 L508.184,367.754 C507.738,361.878 506.138,356.819 503.383,352.577 C502.227,350.767 500.76,349.057 498.982,347.443 C497.204,345.832 495.026,344.486 492.448,343.407 C489.868,342.331 486.867,341.634 483.447,341.318 C480.023,341.002 476.045,341.244 471.511,342.043 C466.976,342.843 462.996,344.005 459.575,345.527 C456.152,347.05 453.174,348.802 450.64,350.779 C448.106,352.759 445.95,354.869 444.172,357.108 C442.392,359.349 440.926,361.576 439.771,363.794 C437.014,369.008 435.414,374.631 434.97,380.663 L434.97,426.891 C435.325,429.807 435.991,432.535 436.971,435.076 C437.77,437.299 438.858,439.517 440.238,441.723 C441.615,443.933 443.459,445.578 445.772,446.657 C448.706,448.155 451.594,448.652 454.441,448.15 C457.019,447.696 459.33,446.718 461.375,445.219 C463.42,443.722 465.063,442.25 466.309,440.803 L480.179,452.279 C478.045,454.756 475.645,457.018 472.977,459.065 C470.664,460.874 467.887,462.634 464.643,464.343 C461.396,466.052 457.775,467.261 453.774,467.967 C452.528,468.186 451.217,468.352 449.84,468.463 C448.46,468.576 447.06,468.58 445.639,468.482 C440.482,468.166 435.903,466.938 431.903,464.796 C427.902,462.659 424.545,459.879 421.834,456.46 C419.121,453.044 417.077,449.114 415.7,444.671 C414.32,440.231 413.633,435.559 413.633,430.654 L413.633,384.426 C414.433,375.879 416.167,368.415 418.833,362.036 C421.5,355.655 424.657,350.196 428.302,345.656 C431.947,341.118 435.858,337.344 440.038,334.328 C444.216,331.316 448.26,328.917 452.173,327.132 C456.085,325.348 459.596,324.03 462.709,323.173 C465.82,322.319 468.131,321.757 469.644,321.49 L471.511,321.161 L473.244,320.856 C474.755,320.589 477.065,320.336 480.179,320.093 C483.29,319.852 486.801,319.932 490.715,320.336 C494.625,320.741 498.693,321.71 502.917,323.24 C507.138,324.775 511.073,327.166 514.72,330.418 C518.363,333.673 521.521,338.019 524.187,343.459 C526.854,348.898 528.632,355.742 529.522,363.991 L529.522,452.64 Z M491.648,282.019 L530.856,275.106 L530.856,294.805 L471.645,305.246 L471.645,278.849 L460.975,280.73 L460.975,261.03 L482.179,257.291 C483.87,257.169 485.426,257.332 486.847,257.781 C488.093,258.174 489.204,258.921 490.181,260.016 C491.161,261.114 491.648,262.758 491.648,264.946 L491.648,282.019 Z M616.072,410.324 C619.183,412.666 620.739,416.113 620.739,420.664 C620.739,425.218 619.183,429.301 616.072,432.914 C613.049,436.424 609.314,438.571 604.87,439.355 C600.336,440.154 596.513,439.296 593.401,436.78 C590.377,434.337 588.867,430.838 588.867,426.284 C588.867,421.733 590.377,417.745 593.401,414.322 C596.601,410.607 600.422,408.356 604.87,407.572 C608.958,406.851 612.692,407.769 616.072,410.324 Z M615.272,395.361 L615.272,395.361 L593.934,399.124 L593.934,364.059 C593.934,360.733 594.312,357.579 595.068,354.6 C595.822,351.623 596.889,348.763 598.269,346.025 C599.645,343.286 601.29,340.612 603.204,337.996 C605.113,335.384 607.181,332.787 609.404,330.205 C611.625,327.626 613.405,325.343 614.739,323.354 C616.072,321.369 617.093,319.57 617.806,317.954 C618.515,316.341 618.983,314.815 619.207,313.374 C619.426,311.935 619.54,310.471 619.54,308.981 C619.54,305.392 618.939,302.369 617.738,299.908 C616.539,297.45 614.893,295.508 612.805,294.08 C610.715,292.655 608.292,291.746 605.537,291.356 C602.78,290.968 599.89,291.038 596.868,291.57 C591.178,292.574 586.8,293.872 583.732,295.464 C580.665,297.055 578.419,298.59 576.998,300.066 C575.397,301.837 574.464,303.621 574.197,305.419 L556.06,308.617 C555.971,308.546 555.928,308.422 555.928,308.245 C555.837,308.088 555.794,307.701 555.794,307.088 C555.794,306.125 555.928,304.722 556.194,302.881 C556.461,301.039 557.038,299.011 557.928,296.796 C558.815,294.583 560.149,292.247 561.928,289.786 C563.706,287.329 566.129,284.954 569.196,282.66 C572.264,280.369 576.041,278.281 580.531,276.394 C585.02,274.509 590.467,273 596.868,271.871 C603.536,270.696 609.204,270.418 613.872,271.04 C618.539,271.661 622.427,272.86 625.54,274.63 C628.651,276.402 631.118,278.571 632.942,281.139 C634.763,283.708 636.119,286.357 637.009,289.089 C637.896,291.823 638.454,294.44 638.676,296.938 C638.897,299.441 639.009,301.522 639.009,303.184 L639.009,305.679 C639.009,307.606 638.83,309.629 638.476,311.749 C638.12,313.87 637.453,316.198 636.476,318.733 C635.496,321.27 634.119,324.075 632.342,327.145 C630.563,330.217 628.295,333.66 625.54,337.472 C622.961,340.994 621.007,344.161 619.672,346.978 C618.339,349.797 617.316,352.187 616.606,354.151 C615.805,356.481 615.359,358.531 615.272,360.296 L615.272,395.361 Z" id="Combined-Shape" stroke="#444444" stroke-width="1.19" fill="#2A2A2A"></path>
                            <polygon id="Shape" fill="#FFFFFF" points="489.249 0.07 491.495 0.888 493.327 2.424 494.522 4.495 494.937 6.849 494.522 9.204 493.327 11.274 491.495 12.811 489.249 13.629 95.888 82.989 93.497 82.989 91.25 82.171 89.419 80.634 88.223 78.564 87.808 76.209 88.223 73.855 89.419 71.784 91.25 70.248 93.497 69.43 486.858 0.07 489.249 0.07"></polygon>
                            <polygon id="Shape" fill="#FFFFFF" points="489.249 546.457 491.495 547.274 493.327 548.811 494.522 550.881 494.937 553.236 494.522 555.59 493.327 557.661 491.495 559.198 489.249 560.015 95.888 629.375 93.497 629.375 91.25 628.558 89.419 627.021 88.223 624.95 87.808 622.596 88.223 620.241 89.419 618.171 91.25 616.634 93.497 615.817 486.858 546.457"></polygon>
                            <g id="Group" transform="translate(0.000000, 253.000000)" fill-rule="nonzero" fill="#FFFFFF">
                                <path d="M38.262,289.5 L38.262,146.61 C38.262,143.282 38.64,140.13 39.396,137.151 C40.152,134.172 41.218,131.313 42.597,128.575 C43.975,125.837 45.619,123.161 47.531,120.547 C49.442,117.934 51.509,115.337 53.732,112.756 C55.955,110.175 57.733,107.892 59.066,105.905 C60.4,103.919 61.422,102.119 62.134,100.505 C62.845,98.891 63.312,97.364 63.534,95.924 C63.756,94.484 63.867,93.02 63.867,91.532 C63.867,87.942 63.267,84.918 62.067,82.459 C60.867,80 59.222,78.057 57.133,76.631 C55.043,75.204 52.621,74.296 49.865,73.907 C47.109,73.517 44.219,73.589 41.196,74.122 C35.506,75.125 31.128,76.423 28.06,78.014 C24.993,79.606 22.748,81.14 21.326,82.616 C19.725,84.387 18.792,86.171 18.525,87.969 L0.388,91.167 C0.3,91.096 0.255,90.972 0.255,90.797 L0.255,89.615 C0.255,88.652 0.388,87.249 0.655,85.407 C0.922,83.565 1.5,81.537 2.389,79.323 C3.278,77.109 4.611,74.772 6.39,72.314 C8.168,69.855 10.568,67.484 13.591,65.2 C16.614,62.915 20.37,60.83 24.86,58.944 C29.35,57.058 34.795,55.551 41.196,54.422 C47.864,53.246 53.532,52.969 58.2,53.591 C62.867,54.212 66.757,55.409 69.868,57.181 C72.98,58.952 75.447,61.122 77.27,63.69 C79.092,66.258 80.448,68.908 81.337,71.641 C82.226,74.373 82.782,76.989 83.004,79.489 C83.227,81.989 83.338,84.071 83.338,85.734 L83.338,88.23 C83.338,90.156 83.16,92.179 82.804,94.299 C82.449,96.42 81.782,98.748 80.804,101.284 C79.826,103.821 78.448,106.625 76.67,109.696 C74.892,112.768 72.625,116.21 69.868,120.023 C67.29,123.542 65.334,126.711 64.001,129.529 C62.667,132.347 61.645,134.738 60.933,136.702 C60.133,139.032 59.689,141.08 59.6,142.847 L59.6,285.737 L38.262,289.5 L38.262,289.5 Z" id="Shape"></path>
                                <path d="M149.75,128.002 C158.641,126.434 166.22,126.258 172.488,127.473 C178.756,128.688 183.957,130.726 188.091,133.586 C192.225,136.447 195.47,139.815 197.826,143.69 C200.182,147.565 201.96,151.432 203.161,155.291 C204.361,159.151 205.094,162.677 205.361,165.87 C205.628,169.062 205.761,171.359 205.761,172.76 L205.761,259.965 L184.424,263.727 L184.424,177.836 C184.424,173.458 183.935,169.692 182.957,166.537 C181.979,163.382 180.667,160.724 179.023,158.563 C177.378,156.401 175.511,154.651 173.422,153.312 C171.332,151.973 169.221,150.966 167.087,150.292 C162.019,148.646 156.241,148.221 149.75,149.015 C145.572,149.752 141.904,150.902 138.748,152.465 C135.592,154.029 132.814,155.854 130.413,157.941 C128.013,160.027 125.968,162.249 124.279,164.604 C122.59,166.959 121.167,169.333 120.011,171.726 C117.344,177.362 115.699,183.475 115.077,190.063 L115.077,204.379 C123.345,198.105 132.503,194.083 142.549,192.311 C147.261,191.48 151.573,191.245 155.485,191.606 L155.485,213.276 C153.707,212.714 151.729,212.56 149.55,212.812 C147.372,213.065 145.038,213.411 142.549,213.85 C135.97,215.01 130.236,217.597 125.346,221.611 C122.856,223.626 120.789,225.939 119.145,228.549 C117.5,231.159 116.144,234.003 115.077,237.08 L115.077,275.955 L93.74,279.717 L93.74,192.381 C93.74,183.713 94.895,176.133 97.207,169.64 C99.519,163.147 102.475,157.57 106.075,152.907 C109.676,148.245 113.632,144.374 117.944,141.293 C122.256,138.212 126.435,135.746 130.48,133.895 C134.525,132.043 138.17,130.7 141.415,129.865 C144.661,129.031 146.994,128.488 148.417,128.237 L149.75,128.002 Z" id="Shape"></path>
                                <path d="M312.879,136.405 L303.81,132.225 C301.588,131.216 299.098,130.32 296.342,129.536 C293.586,128.753 290.808,128.126 288.007,127.657 C285.207,127.188 282.562,126.91 280.072,126.823 C277.583,126.737 275.538,126.835 273.938,127.117 C270.559,127.713 267.359,128.562 264.336,129.664 C261.313,130.766 258.646,132.287 256.334,134.227 C254.023,136.167 252.178,138.593 250.8,141.507 C249.422,144.42 248.733,148.022 248.733,152.312 C248.733,156.602 249.911,159.744 252.267,161.736 C254.623,163.728 257.69,165.07 261.469,165.761 C265.247,166.451 269.493,166.732 274.205,166.601 C278.917,166.471 283.629,166.384 288.341,166.341 C293.053,166.298 297.587,167.053 301.943,168.605 C306.3,170.157 310.145,172.347 313.479,175.173 C316.813,178 319.48,181.426 321.48,185.451 C323.481,189.476 324.481,193.94 324.481,198.843 C324.481,206.11 323.147,212.649 320.48,218.461 C317.813,224.272 314.19,229.31 309.611,233.576 C305.033,237.842 299.654,241.351 293.475,244.104 C287.296,246.857 280.739,248.845 273.804,250.068 C264.025,251.793 255.69,252.19 248.8,251.26 C241.909,250.329 236.197,248.951 231.663,247.124 C226.418,245.072 222.061,242.381 218.594,239.053 L232.73,222.902 C234.419,224.267 236.686,225.575 239.531,226.824 C242.376,228.074 245.599,229.081 249.2,229.847 C252.8,230.613 256.668,231.07 260.802,231.216 C264.936,231.363 269.181,231.052 273.538,230.284 C277.983,229.5 282.006,228.243 285.607,226.514 C289.207,224.785 292.275,222.69 294.809,220.229 C297.342,217.769 299.276,215.064 300.61,212.114 C301.943,209.165 302.61,206.027 302.61,202.7 C302.61,199.285 302.032,196.607 300.876,194.666 C299.721,192.724 298.365,191.278 296.809,190.327 C295.253,189.375 293.675,188.8 292.075,188.6 C290.474,188.401 289.23,188.292 288.341,188.274 C287.985,188.249 286.54,188.263 284.006,188.316 C281.473,188.369 278.605,188.415 275.405,188.454 C272.204,188.493 269.004,188.532 265.803,188.571 C262.602,188.61 260.202,188.595 258.602,188.527 C257.535,188.54 256.023,188.435 254.067,188.21 C252.111,187.986 249.955,187.534 247.599,186.855 C245.243,186.176 242.843,185.155 240.398,183.791 C237.953,182.427 235.731,180.543 233.73,178.138 C231.73,175.732 230.107,172.735 228.863,169.146 C227.618,165.557 226.996,161.223 226.996,156.145 C226.996,148.528 228.374,141.828 231.13,136.044 C233.886,130.261 237.486,125.314 241.932,121.203 C246.377,117.093 251.4,113.799 257.001,111.323 C262.602,108.847 268.248,107.107 273.938,106.104 C279.806,105.069 285.162,104.781 290.008,105.24 C294.853,105.699 299.054,106.359 302.61,107.221 C306.789,108.235 310.523,109.59 313.812,111.287 L324.748,116.713 L312.879,136.405 L312.879,136.405 Z" id="Shape"></path>
                                <path d="M345.552,0.361 C350.086,0.087 354.064,0.371 357.487,1.212 C360.91,2.053 363.888,3.257 366.422,4.824 C368.956,6.391 371.09,8.204 372.824,10.262 C374.557,12.32 375.957,14.437 377.024,16.613 C379.603,21.762 381.07,27.72 381.425,34.486 L381.425,228.99 L360.088,232.753 L360.088,38.249 C360.088,36.41 359.599,34.636 358.621,32.926 C357.643,31.216 356.576,29.718 355.42,28.434 C353.998,26.934 352.442,25.457 350.753,24.004 L333.549,43.848 L312.879,20.307 L326.215,5.741 L335.15,17.168 L345.552,0.361 L345.552,0.361 Z" id="Shape"></path>
                                <path d="M497.981,208.438 L497.981,119.788 C497.536,113.913 495.936,108.854 493.18,104.612 C492.024,102.802 490.557,101.091 488.779,99.478 C487.001,97.866 484.823,96.521 482.245,95.443 C479.666,94.365 476.666,93.669 473.243,93.353 C469.82,93.037 465.841,93.279 461.307,94.079 C456.773,94.878 452.794,96.039 449.372,97.562 C445.949,99.085 442.97,100.836 440.436,102.815 C437.903,104.794 435.747,106.903 433.969,109.143 C432.19,111.383 430.724,113.611 429.568,115.829 C426.812,121.043 425.211,126.666 424.767,132.698 L424.767,178.927 C425.122,181.842 425.789,184.569 426.767,187.111 C427.567,189.334 428.656,191.55 430.034,193.758 C431.413,195.967 433.257,197.612 435.569,198.693 C438.503,200.189 441.392,200.686 444.237,200.185 C446.815,199.73 449.127,198.753 451.172,197.255 C453.217,195.756 454.861,194.284 456.106,192.839 L469.975,204.314 C467.842,206.792 465.441,209.054 462.774,211.1 C460.463,212.909 457.684,214.668 454.439,216.378 C451.194,218.089 447.571,219.297 443.57,220.002 C442.326,220.222 441.014,220.387 439.636,220.499 C438.258,220.611 436.858,220.617 435.436,220.517 C430.279,220.201 425.7,218.972 421.7,216.832 C417.699,214.692 414.343,211.913 411.631,208.495 C408.919,205.077 406.874,201.147 405.496,196.706 C404.118,192.265 403.429,187.593 403.429,182.69 L403.429,136.461 C404.23,127.914 405.963,120.451 408.63,114.071 C411.298,107.69 414.454,102.231 418.099,97.692 C421.744,93.153 425.656,89.377 429.834,86.363 C434.013,83.35 438.058,80.952 441.97,79.167 C445.882,77.383 449.394,76.063 452.505,75.208 C455.617,74.353 457.929,73.792 459.44,73.526 L463.041,72.891 C464.552,72.624 466.864,72.37 469.975,72.128 C473.087,71.886 476.599,71.967 480.511,72.371 C484.423,72.776 488.49,73.744 492.713,75.276 C496.936,76.808 500.87,79.201 504.515,82.454 C508.161,85.708 511.317,90.054 513.984,95.494 C516.651,100.933 518.429,107.778 519.318,116.026 L519.318,204.676 L497.981,208.438 L497.981,208.438 Z" id="Shape"></path>
                                <path d="M520.549,27.159 L520.549,46.859 L461.337,57.3 L461.337,30.902 L450.669,32.783 L450.669,13.083 L471.873,9.345 C473.562,9.222 475.118,9.385 476.54,9.835 C477.785,10.228 478.896,10.974 479.874,12.071 C480.852,13.168 481.341,14.811 481.341,17 L481.341,34.073 L520.549,27.159 L520.549,27.159 Z" id="Shape"></path>
                                <path d="M610.433,172.718 C610.433,177.271 608.877,181.354 605.765,184.967 C602.742,188.477 599.008,190.624 594.563,191.408 C590.029,192.207 586.206,191.349 583.094,188.834 C580.071,186.39 578.56,182.891 578.56,178.338 C578.56,173.786 580.071,169.798 583.094,166.376 C586.295,162.659 590.118,160.409 594.563,159.625 C598.653,158.904 602.387,159.822 605.765,162.378 C608.877,164.719 610.433,168.165 610.433,172.718 Z M583.628,151.178 L583.628,116.112 C583.628,112.785 584.005,109.632 584.761,106.654 C585.517,103.675 586.584,100.816 587.962,98.078 C589.34,95.34 590.985,92.664 592.896,90.05 C594.807,87.437 596.875,84.84 599.097,82.259 C601.32,79.678 603.098,77.395 604.432,75.408 C605.765,73.422 606.788,71.622 607.499,70.008 C608.21,68.394 608.677,66.867 608.899,65.427 C609.121,63.987 609.232,62.523 609.232,61.034 C609.232,57.445 608.632,54.42 607.432,51.962 C606.232,49.503 604.587,47.56 602.498,46.134 C600.409,44.707 597.986,43.799 595.23,43.41 C592.474,43.02 589.584,43.092 586.561,43.625 C580.871,44.628 576.493,45.925 573.426,47.517 C570.358,49.108 568.113,50.643 566.691,52.119 C565.091,53.89 564.157,55.674 563.89,57.472 L545.754,60.67 C545.665,60.598 545.62,60.475 545.62,60.3 C545.531,60.14 545.487,59.754 545.487,59.141 C545.487,58.178 545.62,56.776 545.887,54.934 C546.154,53.092 546.732,51.064 547.621,48.849 C548.51,46.635 549.843,44.299 551.621,41.84 C553.4,39.381 555.822,37.006 558.889,34.714 C561.957,32.422 565.735,30.333 570.225,28.447 C574.715,26.561 580.16,25.054 586.561,23.925 C593.229,22.749 598.897,22.472 603.565,23.094 C608.232,23.715 612.122,24.912 615.234,26.683 C618.345,28.455 620.812,30.625 622.635,33.193 C624.458,35.761 625.813,38.411 626.702,41.143 C627.592,43.876 628.147,46.492 628.369,48.992 C628.592,51.492 628.703,53.574 628.703,55.237 L628.703,57.733 C628.703,59.659 628.525,61.682 628.169,63.802 C627.814,65.923 627.147,68.251 626.169,70.787 C625.191,73.324 623.813,76.128 622.035,79.199 C620.257,82.271 617.99,85.713 615.234,89.526 C612.655,93.045 610.699,96.214 609.366,99.032 C608.032,101.85 607.01,104.241 606.299,106.205 C605.498,108.535 605.054,110.583 604.965,112.35 L604.965,147.416 L583.628,151.178 L583.628,151.178 Z" id="Shape"></path>
                            </g>
                            <g id="Group-2" transform="translate(10.000000, 248.000000)"></g>
                        </g>
                    </g>
                </g>
            </g>
        </g>
    </g>
</svg>