<?xml version="1.0" encoding="UTF-8" standalone="no"?>
<svg width="358px" height="400px" viewBox="0 0 358 400" version="1.1" xmlns="http://www.w3.org/2000/svg" xmlns:xlink="http://www.w3.org/1999/xlink">
    <!-- Generator: Sketch 43.2 (39069) - http://www.bohemiancoding.com/sketch -->
    <title>logo</title>
    <desc>Created with Sketch.</desc>
    <defs></defs>
    <g id="Page-1" stroke="none" stroke-width="1" fill="none" fill-rule="evenodd">
        <g id="logo" fill-rule="nonzero" fill="#FFFFFF">
            <path d="M323.926,210.597 C323.916,210.831 322.851,234.341 310.267,259.848 C298.656,283.382 274.58,313.469 225.815,323.155 C225.711,323.181 215.342,325.741 200.884,325.741 C184.633,325.741 161.326,322.418 141.68,306.816 C138.205,304.056 134.846,300.91 131.659,297.331 C125.767,290.715 120.472,282.613 116.143,272.715 C114.825,269.702 113.594,266.53 112.466,263.175 C110.941,258.635 109.598,253.774 108.466,248.569 L106.425,239.178 L104.296,229.388 L98.988,204.969 L96.645,194.195 L91.359,169.884 L89.41,160.92 L74.166,90.808 C73.131,86.042 74.138,81.048 76.929,77.105 C79.681,73.22 83.795,70.754 88.514,70.164 C89.175,70.082 89.847,70.04 90.513,70.04 C98.435,70.04 105.463,75.921 107.224,84.023 L124.454,163.274 L126.404,172.239 L127.489,177.234 C127.912,179.179 129.637,180.589 131.59,180.589 C131.883,180.589 132.178,180.557 132.465,180.494 C134.711,180.007 136.134,177.75 135.638,175.463 L135.063,172.821 L133.114,163.856 L109.187,53.803 C108.211,49.314 109.009,44.722 111.434,40.871 C113.858,37.022 117.617,34.376 122.021,33.418 L122.213,33.376 L122.213,33.021 C123.323,32.794 124.455,32.678 125.581,32.678 C133.541,32.679 140.57,38.436 142.294,46.365 L168.353,166.224 L168.917,168.82 C169.407,171.073 171.617,172.612 173.942,172.096 C173.981,172.083 177.623,170.924 177.235,166.821 C177.203,166.483 177.153,166.132 177.062,165.753 L147.723,30.811 C146.698,26.099 147.694,21.163 150.452,17.266 C153.173,13.425 157.24,10.989 161.905,10.405 C162.561,10.323 163.226,10.282 163.88,10.282 C171.71,10.283 178.657,16.096 180.399,24.103 L209.655,158.666 C210.072,160.589 211.779,161.985 213.711,161.985 C213.998,161.985 214.29,161.953 214.576,161.891 C215.654,161.657 216.573,161.01 217.166,160.069 C217.758,159.13 217.952,158.009 217.715,156.915 L190.536,31.904 C189.572,27.467 190.361,22.928 192.757,19.121 C195.154,15.317 198.869,12.7 203.227,11.753 C203.245,11.748 205.155,11.3 207.769,11.3 C212.695,11.3 221.271,12.945 223.362,23.965 L253.18,161.119 L256.887,178.168 L260.723,195.814 C261.277,198.359 262.993,200.541 265.363,201.671 C266.089,201.842 266.781,201.929 267.421,201.929 C271.491,201.929 273.138,198.515 274.732,195.214 L275.028,194.6 C279.985,184.422 290.075,163.702 303.229,149.605 C306.862,145.711 310.728,142.325 314.783,139.804 C319.528,136.854 324.53,135.089 329.725,135.089 C335.03,135.089 340.332,136.925 345.487,140.547 C346.485,141.247 347.084,142.355 347.133,143.586 C347.175,144.627 346.795,145.594 346.114,146.337 C345.996,146.467 345.888,146.604 345.749,146.719 C343.776,148.352 341.179,152.252 338.468,157.564 C331.726,170.775 324.277,192.757 323.926,210.597 L323.926,210.597 Z M58.047,292.528 C51.439,292.097 46.413,286.369 46.843,279.761 C47.201,274.293 51.187,269.916 56.295,268.811 L104.712,271.969 C108.2,281.034 112.518,289.199 117.672,296.418 L58.047,292.528 L58.047,292.528 Z M32.227,258.409 C25.618,257.978 20.593,252.25 21.024,245.642 C21.233,242.441 22.676,239.512 25.087,237.397 C27.297,235.458 30.077,234.413 32.99,234.413 C33.256,234.413 33.523,234.422 33.79,234.44 L95.752,238.482 L98.42,250.752 C99.298,254.789 100.305,258.691 101.44,262.455 L60.185,259.764 C58.686,259.664 57.215,259.736 55.785,259.946 L32.227,258.409 L32.227,258.409 Z M8.839,211.123 C9.048,207.921 10.491,204.993 12.903,202.877 C15.112,200.939 17.893,199.895 20.806,199.895 C21.072,199.895 21.338,199.903 21.606,199.921 L88.315,204.273 L93.623,228.692 L20.042,223.89 C13.434,223.458 8.408,217.732 8.839,211.123 L8.839,211.123 Z M25.171,177.496 C25.585,171.152 30.879,166.267 37.141,166.267 C37.403,166.267 37.665,166.276 37.929,166.293 L80.682,169.166 L85.972,193.499 L36.373,190.264 C33.172,190.054 30.243,188.611 28.127,186.2 C26.012,183.788 24.962,180.698 25.171,177.496 L25.171,177.496 Z M286.487,153.832 C278.12,165.353 272.039,177.437 268.708,184.143 L264.402,164.337 C269.863,161.013 277.485,156.979 286.487,153.832 L286.487,153.832 Z M351.397,132.133 C344.477,127.272 337.186,124.808 329.725,124.808 C317.044,124.808 305.843,132.092 296.501,141.768 C291.76,142.768 286.966,144.15 282.138,145.916 C274.398,148.746 267.692,152.137 262.415,155.199 L233.435,21.902 C230.897,8.826 221.303,1.019 207.77,1.018 C204.35,1.018 201.71,1.555 200.984,1.719 C194.949,3.044 189.533,6.454 185.698,11.336 C180.529,4.233 172.398,0.001 163.881,-2.84217094e-14 L163.88,-2.84217094e-14 C162.799,-2.84217094e-14 161.705,0.069 160.628,0.204 C153.174,1.136 146.406,5.19 142.062,11.325 C139.215,15.346 137.514,20.074 137.131,25.02 C133.478,23.279 129.594,22.397 125.582,22.397 C123.661,22.397 121.728,22.605 119.837,23.015 C118.755,23.25 117.727,23.659 116.829,24.207 C110.956,26.208 106.082,30.076 102.734,35.393 C98.864,41.537 97.588,48.85 99.14,55.987 L100.378,61.683 C97.212,60.406 93.896,59.759 90.514,59.759 C89.423,59.759 88.321,59.827 87.238,59.963 C79.73,60.902 72.915,64.984 68.538,71.165 C64.083,77.457 62.473,85.412 64.12,92.991 L78.733,160.202 L38.512,157.499 C27.034,156.744 17.124,165.466 16.377,176.923 C16.04,182.084 17.613,187.067 20.781,191.103 C15.739,191.106 10.917,192.895 7.09,196.253 C2.909,199.923 0.406,204.999 0.045,210.549 C-0.317,216.1 1.504,221.459 5.173,225.64 C8.418,229.338 12.768,231.716 17.571,232.467 C14.423,235.936 12.539,240.326 12.23,245.069 C11.867,250.619 13.689,255.978 17.358,260.159 C21.026,264.339 26.103,266.841 31.654,267.202 L42.295,267.897 C39.875,271.053 38.327,274.93 38.05,279.188 C37.302,290.645 46.016,300.575 57.473,301.322 L125.302,305.747 C130.663,311.516 136.68,316.532 143.38,320.731 C159.341,330.735 179.226,336.023 200.884,336.023 C215.383,336.023 226.045,333.667 228.026,333.197 C280.766,322.656 306.873,289.965 319.488,264.397 C333.035,236.936 334.158,212.051 334.2,211.005 L334.205,210.804 C334.585,191.45 344.421,167.32 349.89,158.058 C350.878,156.384 351.726,155.191 352.347,154.605 C353.39,153.734 354.268,152.726 355.004,151.634 C356.662,149.177 357.529,146.249 357.407,143.18 C357.232,138.718 355.04,134.692 351.397,132.133 L351.397,132.133 Z" id="Shape"></path>
            <path d="M53.151,371.702 L47.861,371.702 L47.861,392.379 L54.335,392.379 C56.632,392.379 58.442,391.613 59.904,390.15 C61.575,388.48 62.411,385.973 62.411,382.562 C62.411,375.322 59.347,371.702 53.151,371.702 M65.962,393.702 C63.385,396.903 59.696,398.435 54.892,398.435 L42.607,398.435 C41.587,398.435 40.759,397.608 40.759,396.588 L40.759,367.493 C40.759,366.473 41.587,365.645 42.607,365.645 L54.823,365.645 C59.278,365.645 62.758,366.969 65.335,369.683 C68.119,372.537 69.511,376.645 69.511,381.866 C69.511,386.809 68.328,390.777 65.962,393.702" id="Shape"></path>
            <path d="M99.999,374.416 C98.397,372.119 96.17,370.936 93.177,370.936 C90.184,370.936 87.955,372.119 86.354,374.416 C85.031,376.435 84.335,379.012 84.335,382.144 C84.335,385.276 85.031,387.714 86.354,389.732 C87.955,392.029 90.184,393.144 93.177,393.144 C96.17,393.144 98.468,392.029 99.999,389.732 C101.322,387.714 102.018,385.207 102.018,382.144 C102.018,379.081 101.322,376.505 99.999,374.416 M104.941,394.187 C101.948,397.529 98.119,399.2 93.177,399.2 C88.304,399.2 84.405,397.529 81.481,394.187 C78.627,391.124 77.234,387.086 77.234,382.144 C77.234,377.132 78.627,373.024 81.551,369.752 C84.335,366.55 88.234,364.879 93.177,364.879 C98.119,364.879 101.948,366.55 104.941,369.821 C107.727,373.024 109.119,377.132 109.119,382.144 C109.119,387.017 107.727,391.055 104.941,394.187" id="Shape"></path>
            <path d="M130.069,365.645 L130.07,365.645 C132.03,365.645 133.62,367.235 133.62,369.196 L133.62,394.884 C133.62,396.845 132.03,398.435 130.07,398.435 L130.069,398.435 C128.108,398.435 126.519,396.845 126.519,394.884 L126.519,369.196 C126.519,367.235 128.108,365.645 130.069,365.645" id="Shape"></path>
            <path d="M151.126,398.435 L150.15,398.435 C148.479,398.435 147.122,397.079 147.122,395.407 L147.122,371.702 L140.404,371.702 C138.732,371.702 137.376,370.346 137.376,368.673 C137.376,367.001 138.732,365.645 140.404,365.645 L160.941,365.645 C162.614,365.645 163.97,367.001 163.97,368.673 C163.97,370.346 162.614,371.702 160.941,371.702 L154.153,371.702 L154.153,395.407 C154.153,397.079 152.798,398.435 151.126,398.435" id="Shape"></path>
            <path d="M190.908,371.214 L183.042,371.214 L183.042,380.473 L190.908,380.473 C194.18,380.473 195.851,378.942 195.851,375.809 C195.851,372.745 194.18,371.214 190.908,371.214 M196.06,394.744 L195.642,390.568 C195.086,387.017 193.624,385.625 190.282,385.625 L183.042,385.625 L183.042,395.15 C183.042,396.964 181.571,398.435 179.758,398.435 L179.226,398.435 C177.412,398.435 175.941,396.964 175.941,395.15 L175.941,367.947 C175.941,366.676 176.971,365.645 178.243,365.645 L193.346,365.645 C199.193,365.645 202.953,369.612 202.953,374.694 C202.953,378.733 201.213,381.518 197.801,382.91 L197.801,382.98 C200.655,383.676 202.326,386.251 202.604,390.638 L202.813,394.606 L202.822,394.661 C203.116,396.65 201.576,398.435 199.566,398.435 L199.409,398.435 C197.767,398.435 196.365,397.229 196.153,395.6 C196.117,395.329 196.087,395.044 196.06,394.744" id="Shape"></path>
            <path d="M216.454,365.645 C218.414,365.645 220.004,367.235 220.004,369.196 L220.004,394.884 C220.004,396.845 218.414,398.435 216.454,398.435 C214.493,398.435 212.903,396.845 212.903,394.884 L212.903,369.196 C212.903,367.235 214.493,365.645 216.454,365.645" id="Shape"></path>
            <path d="M253.974,394.745 C251.746,397.738 248.752,399.201 245.063,399.201 C239.981,399.201 236.014,397.53 233.089,394.188 C230.444,391.125 229.121,387.087 229.121,382.144 C229.121,377.133 230.513,373.025 233.437,369.753 C236.222,366.551 240.12,364.88 245.063,364.88 C248.615,364.88 251.607,365.854 254.114,367.873 C255.462,368.974 256.539,370.255 257.318,371.717 C258.456,373.856 256.82,376.435 254.397,376.435 L254.131,376.435 C252.918,376.435 251.877,375.671 251.395,374.558 C250.341,372.131 248.231,370.936 245.063,370.936 C242.07,370.936 239.842,372.12 238.241,374.417 C236.918,376.435 236.222,379.013 236.222,382.144 C236.222,385.277 236.918,387.715 238.241,389.733 C239.842,392.03 242.07,393.144 245.063,393.144 C249.867,393.144 252.443,390.777 252.79,386.043 L248.046,386.043 C246.668,386.043 245.551,384.927 245.551,383.548 L245.551,383.178 C245.551,381.8 246.668,380.682 248.046,380.682 L256.462,380.682 C258.011,380.682 259.266,381.937 259.266,383.485 L259.266,395.94 C259.266,397.318 258.149,398.435 256.77,398.435 C255.587,398.435 254.568,397.605 254.328,396.447 L253.974,394.745 L253.974,394.745 Z" id="Shape"></path>
            <path d="M289.475,384.302 L276.247,384.302 L276.247,394.884 C276.247,396.845 274.659,398.435 272.698,398.435 C270.737,398.435 269.147,396.845 269.147,394.884 L269.147,369.196 C269.147,367.235 270.737,365.645 272.698,365.645 C274.659,365.645 276.247,367.235 276.247,369.196 L276.247,378.245 L289.475,378.245 L289.475,369.196 C289.475,367.235 291.065,365.645 293.026,365.645 C294.987,365.645 296.576,367.235 296.576,369.196 L296.576,394.884 C296.576,396.845 294.987,398.435 293.026,398.435 C291.065,398.435 289.475,396.845 289.475,394.884 L289.475,384.302 Z" id="Shape"></path>
            <path d="M318.188,398.435 L317.213,398.435 C315.541,398.435 314.185,397.079 314.185,395.407 L314.185,371.702 L307.467,371.702 C305.794,371.702 304.439,370.346 304.439,368.673 C304.439,367.001 305.794,365.645 307.467,365.645 L328.004,365.645 C329.676,365.645 331.032,367.001 331.032,368.673 C331.032,370.346 329.676,371.702 328.004,371.702 L321.216,371.702 L321.216,395.407 C321.216,397.079 319.86,398.435 318.188,398.435" id="Shape"></path>
        </g>
    </g>
</svg>