<?xml version="1.0" encoding="UTF-8" standalone="no"?>
<svg width="1617px" height="447px" viewBox="0 0 1617 447" version="1.1" xmlns="http://www.w3.org/2000/svg" xmlns:xlink="http://www.w3.org/1999/xlink">
    <!-- Generator: Sketch 43.2 (39069) - http://www.bohemiancoding.com/sketch -->
    <title>money</title>
    <desc>Created with Sketch.</desc>
    <defs></defs>
    <g id="Page-1" stroke="none" stroke-width="1" fill="none" fill-rule="evenodd">
        <g id="money" transform="translate(0.000000, -3411.000000)" fill-rule="nonzero" fill="#527A38">
            <path d="M1284,3668.59 C1283.132,3666.061 1282.111,3663.926 1281.095,3662.168 C1283.438,3662.282 1285.814,3662.42 1288.218,3662.578 C1286.809,3664.556 1285.402,3666.556 1284,3668.59 L1284,3668.59 Z M864.253,3683.835 C863.765,3683.481 863.28,3683.127 862.786,3682.77 C863.602,3682.705 864.416,3682.642 865.236,3682.571 C864.908,3682.994 864.58,3683.417 864.253,3683.835 L864.253,3683.835 Z M1616.263,0.995 L5.583,0.995 L5.583,3598.525 L7.42,3598.525 C4.021,3613.279 1.161,3629.689 0.001,3646.312 C0.001,3646.312 86.403,3640.035 206.022,3701.244 C206.022,3701.244 213.399,3677.053 220.17,3653.175 L300.771,3646.298 C300.771,3646.298 321.525,3634.366 322.465,3603.278 C322.469,3603.122 322.466,3602.975 322.47,3602.82 C338.289,3608.714 355.052,3615.812 372.592,3624.366 C377.374,3629.04 381.545,3630.523 381.545,3630.523 C382.544,3630.501 384.03,3630.389 385.909,3630.2 C388.261,3630.151 392.893,3629.646 398.852,3628.862 C399.583,3629.614 399.999,3630.029 399.999,3630.029 C401.156,3629.439 402.301,3628.839 403.444,3628.238 C405.504,3627.952 407.671,3627.643 409.918,3627.315 C426.179,3625.117 448.837,3621.82 465.924,3618.41 C467.106,3618.212 468.184,3618.031 469.141,3617.871 C469.623,3620.035 470.134,3622.199 470.691,3624.355 C470.691,3624.355 488.74,3616.832 521.515,3612.398 C527.796,3620.815 552.193,3651.92 593.209,3685.368 C590.389,3690.811 587.637,3696.382 584.981,3702.099 C584.981,3702.099 626.006,3740.33 675.294,3762.562 C675.294,3762.562 677.385,3755.336 682.858,3742.825 C684.924,3743.826 687.002,3744.82 689.106,3745.797 C689.106,3745.797 707.73,3725.799 726.54,3696.968 C741.697,3702.48 761.759,3709.531 777.492,3714.191 C782.401,3715.814 785.432,3716.805 785.462,3716.815 C785.975,3716.987 786.456,3717.148 786.913,3717.301 C748.738,3775.958 712.79,3800.558 712.79,3800.558 C744.114,3834.706 786.244,3857.834 786.244,3857.834 C815.688,3830.21 837.546,3800.526 853.272,3774.552 C870.876,3787.367 884.605,3794.909 884.605,3794.909 C927.843,3754.341 954.724,3709.335 969.839,3678.163 C971.871,3678.898 974.021,3679.666 976.256,3680.456 C978.898,3681.422 981.715,3682.445 984.664,3683.505 C995.868,3741.537 1016.156,3779.364 1016.156,3779.364 C1018.099,3779.392 1021.437,3779.099 1025.68,3778.587 C1035.421,3802.788 1049.091,3820.644 1049.091,3820.644 L1095.882,3767.044 C1096.586,3766.915 1096.972,3766.844 1096.972,3766.844 C1096.879,3766.597 1096.792,3766.354 1096.699,3766.108 L1119.469,3740.027 C1097.647,3724.173 1088.262,3708.329 1085.66,3694.042 C1094.57,3696.528 1103.064,3699.865 1110.306,3703.135 C1134.387,3743.279 1141.016,3770.691 1141.016,3770.691 C1170.474,3758.95 1196.899,3740.652 1210.65,3730.266 L1248.513,3735.529 C1257.106,3743.206 1293.86,3774.844 1336.927,3794.269 C1336.927,3794.269 1356.829,3725.473 1434.764,3644.599 C1442.691,3651.674 1449.622,3657.59 1452.687,3659.519 C1452.687,3659.519 1455.16,3658.158 1459.493,3655.418 C1460.666,3658.396 1462.139,3661.473 1463.999,3664.632 C1479.776,3691.437 1500.233,3689.569 1500.233,3689.569 C1501.132,3689.132 1502.435,3688.407 1504.063,3687.45 C1504.804,3687.09 1505.783,3686.557 1506.953,3685.884 L1506.955,3685.883 C1510.985,3683.567 1517.348,3679.547 1524.665,3674.792 C1524.692,3674.776 1524.719,3674.758 1524.745,3674.741 C1533.668,3678.719 1539.352,3680.808 1539.352,3680.808 C1542.325,3677.029 1545.188,3673.238 1547.943,3669.445 L1574.084,3668.966 C1574.084,3668.966 1595.589,3658.445 1598.603,3627.49 C1599.871,3614.452 1597.475,3605.052 1594.277,3598.525 L1616.268,3598.525 L1616.268,0.995 L1616.263,0.995 Z" id="Shape"></path>
        </g>
    </g>
</svg>