<?xml version="1.0" encoding="UTF-8" standalone="no"?>
<svg width="47px" height="73px" viewBox="0 0 47 73" version="1.1" xmlns="http://www.w3.org/2000/svg" xmlns:xlink="http://www.w3.org/1999/xlink">
    <!-- Generator: Sketch 43.2 (39069) - http://www.bohemiancoding.com/sketch -->
    <title>Shape</title>
    <desc>Created with Sketch.</desc>
    <defs></defs>
    <g id="Page-1" stroke="none" stroke-width="1" fill="none" fill-rule="evenodd">
        <path d="M46.1380309,38.5378412 L12.4758687,72.1395782 C11.9012227,72.7131927 11.2207207,73 10.4343629,73 C9.64800515,73 8.96750322,72.7131927 8.39285714,72.1395782 L0.861969112,64.6222084 C0.287323037,64.0485939 0,63.3693135 0,62.5843672 C0,61.799421 0.287323037,61.1201406 0.861969112,60.5465261 L24.9517375,36.5 L0.861969112,12.4534739 C0.287323037,11.8798594 0,11.200579 0,10.4156328 C0,9.63068652 0.287323037,8.95140612 0.861969112,8.37779156 L8.39285714,0.860421836 C8.96750322,0.286807279 9.64800515,0 10.4343629,0 C11.2207207,0 11.9012227,0.286807279 12.4758687,0.860421836 L46.1380309,34.4621588 C46.712677,35.0357734 47,35.7150538 47,36.5 C47,37.2849462 46.712677,37.9642266 46.1380309,38.5378412 Z" id="Shape" fill="#FFFFFF" fill-rule="nonzero"></path>
    </g>
</svg>